%TF.GenerationSoftware,KiCad,Pcbnew,(5.1.6)-1*%
%TF.CreationDate,2021-07-30T20:13:56+02:00*%
%TF.ProjectId,mu-ltz,6d752d6c-747a-42e6-9b69-6361645f7063,rev?*%
%TF.SameCoordinates,Original*%
%TF.FileFunction,Paste,Top*%
%TF.FilePolarity,Positive*%
%FSLAX46Y46*%
G04 Gerber Fmt 4.6, Leading zero omitted, Abs format (unit mm)*
G04 Created by KiCad (PCBNEW (5.1.6)-1) date 2021-07-30 20:13:56*
%MOMM*%
%LPD*%
G01*
G04 APERTURE LIST*
%ADD10C,0.150000*%
%ADD11R,0.900000X1.300000*%
%ADD12R,0.600000X0.450000*%
%ADD13R,0.450000X0.600000*%
G04 APERTURE END LIST*
%TO.C,R10*%
G36*
G01*
X121150000Y-47743750D02*
X121150000Y-48256250D01*
G75*
G02*
X120931250Y-48475000I-218750J0D01*
G01*
X120493750Y-48475000D01*
G75*
G02*
X120275000Y-48256250I0J218750D01*
G01*
X120275000Y-47743750D01*
G75*
G02*
X120493750Y-47525000I218750J0D01*
G01*
X120931250Y-47525000D01*
G75*
G02*
X121150000Y-47743750I0J-218750D01*
G01*
G37*
G36*
G01*
X122725000Y-47743750D02*
X122725000Y-48256250D01*
G75*
G02*
X122506250Y-48475000I-218750J0D01*
G01*
X122068750Y-48475000D01*
G75*
G02*
X121850000Y-48256250I0J218750D01*
G01*
X121850000Y-47743750D01*
G75*
G02*
X122068750Y-47525000I218750J0D01*
G01*
X122506250Y-47525000D01*
G75*
G02*
X122725000Y-47743750I0J-218750D01*
G01*
G37*
%TD*%
D10*
%TO.C,Q1*%
G36*
X104366500Y-64700000D02*
G01*
X104366500Y-67825000D01*
X103950000Y-67825000D01*
X103950000Y-69300000D01*
X103050000Y-69300000D01*
X103050000Y-67825000D01*
X102633500Y-67825000D01*
X102633500Y-64700000D01*
X104366500Y-64700000D01*
G37*
D11*
X105000000Y-68650000D03*
X102000000Y-68650000D03*
%TD*%
%TO.C,C6*%
G36*
G01*
X132706250Y-67737500D02*
X131793750Y-67737500D01*
G75*
G02*
X131550000Y-67493750I0J243750D01*
G01*
X131550000Y-67006250D01*
G75*
G02*
X131793750Y-66762500I243750J0D01*
G01*
X132706250Y-66762500D01*
G75*
G02*
X132950000Y-67006250I0J-243750D01*
G01*
X132950000Y-67493750D01*
G75*
G02*
X132706250Y-67737500I-243750J0D01*
G01*
G37*
G36*
G01*
X132706250Y-69612500D02*
X131793750Y-69612500D01*
G75*
G02*
X131550000Y-69368750I0J243750D01*
G01*
X131550000Y-68881250D01*
G75*
G02*
X131793750Y-68637500I243750J0D01*
G01*
X132706250Y-68637500D01*
G75*
G02*
X132950000Y-68881250I0J-243750D01*
G01*
X132950000Y-69368750D01*
G75*
G02*
X132706250Y-69612500I-243750J0D01*
G01*
G37*
%TD*%
%TO.C,C8*%
G36*
G01*
X112350000Y-49756250D02*
X112350000Y-49243750D01*
G75*
G02*
X112568750Y-49025000I218750J0D01*
G01*
X113006250Y-49025000D01*
G75*
G02*
X113225000Y-49243750I0J-218750D01*
G01*
X113225000Y-49756250D01*
G75*
G02*
X113006250Y-49975000I-218750J0D01*
G01*
X112568750Y-49975000D01*
G75*
G02*
X112350000Y-49756250I0J218750D01*
G01*
G37*
G36*
G01*
X110775000Y-49756250D02*
X110775000Y-49243750D01*
G75*
G02*
X110993750Y-49025000I218750J0D01*
G01*
X111431250Y-49025000D01*
G75*
G02*
X111650000Y-49243750I0J-218750D01*
G01*
X111650000Y-49756250D01*
G75*
G02*
X111431250Y-49975000I-218750J0D01*
G01*
X110993750Y-49975000D01*
G75*
G02*
X110775000Y-49756250I0J218750D01*
G01*
G37*
%TD*%
%TO.C,U3*%
G36*
G01*
X127800000Y-47875000D02*
X127800000Y-47675000D01*
G75*
G02*
X127900000Y-47575000I100000J0D01*
G01*
X129325000Y-47575000D01*
G75*
G02*
X129425000Y-47675000I0J-100000D01*
G01*
X129425000Y-47875000D01*
G75*
G02*
X129325000Y-47975000I-100000J0D01*
G01*
X127900000Y-47975000D01*
G75*
G02*
X127800000Y-47875000I0J100000D01*
G01*
G37*
G36*
G01*
X127800000Y-48525000D02*
X127800000Y-48325000D01*
G75*
G02*
X127900000Y-48225000I100000J0D01*
G01*
X129325000Y-48225000D01*
G75*
G02*
X129425000Y-48325000I0J-100000D01*
G01*
X129425000Y-48525000D01*
G75*
G02*
X129325000Y-48625000I-100000J0D01*
G01*
X127900000Y-48625000D01*
G75*
G02*
X127800000Y-48525000I0J100000D01*
G01*
G37*
G36*
G01*
X127800000Y-49175000D02*
X127800000Y-48975000D01*
G75*
G02*
X127900000Y-48875000I100000J0D01*
G01*
X129325000Y-48875000D01*
G75*
G02*
X129425000Y-48975000I0J-100000D01*
G01*
X129425000Y-49175000D01*
G75*
G02*
X129325000Y-49275000I-100000J0D01*
G01*
X127900000Y-49275000D01*
G75*
G02*
X127800000Y-49175000I0J100000D01*
G01*
G37*
G36*
G01*
X127800000Y-49825000D02*
X127800000Y-49625000D01*
G75*
G02*
X127900000Y-49525000I100000J0D01*
G01*
X129325000Y-49525000D01*
G75*
G02*
X129425000Y-49625000I0J-100000D01*
G01*
X129425000Y-49825000D01*
G75*
G02*
X129325000Y-49925000I-100000J0D01*
G01*
X127900000Y-49925000D01*
G75*
G02*
X127800000Y-49825000I0J100000D01*
G01*
G37*
G36*
G01*
X123575000Y-49825000D02*
X123575000Y-49625000D01*
G75*
G02*
X123675000Y-49525000I100000J0D01*
G01*
X125100000Y-49525000D01*
G75*
G02*
X125200000Y-49625000I0J-100000D01*
G01*
X125200000Y-49825000D01*
G75*
G02*
X125100000Y-49925000I-100000J0D01*
G01*
X123675000Y-49925000D01*
G75*
G02*
X123575000Y-49825000I0J100000D01*
G01*
G37*
G36*
G01*
X123575000Y-49175000D02*
X123575000Y-48975000D01*
G75*
G02*
X123675000Y-48875000I100000J0D01*
G01*
X125100000Y-48875000D01*
G75*
G02*
X125200000Y-48975000I0J-100000D01*
G01*
X125200000Y-49175000D01*
G75*
G02*
X125100000Y-49275000I-100000J0D01*
G01*
X123675000Y-49275000D01*
G75*
G02*
X123575000Y-49175000I0J100000D01*
G01*
G37*
G36*
G01*
X123575000Y-48525000D02*
X123575000Y-48325000D01*
G75*
G02*
X123675000Y-48225000I100000J0D01*
G01*
X125100000Y-48225000D01*
G75*
G02*
X125200000Y-48325000I0J-100000D01*
G01*
X125200000Y-48525000D01*
G75*
G02*
X125100000Y-48625000I-100000J0D01*
G01*
X123675000Y-48625000D01*
G75*
G02*
X123575000Y-48525000I0J100000D01*
G01*
G37*
G36*
G01*
X123575000Y-47875000D02*
X123575000Y-47675000D01*
G75*
G02*
X123675000Y-47575000I100000J0D01*
G01*
X125100000Y-47575000D01*
G75*
G02*
X125200000Y-47675000I0J-100000D01*
G01*
X125200000Y-47875000D01*
G75*
G02*
X125100000Y-47975000I-100000J0D01*
G01*
X123675000Y-47975000D01*
G75*
G02*
X123575000Y-47875000I0J100000D01*
G01*
G37*
%TD*%
%TO.C,U2*%
G36*
G01*
X112300000Y-45375000D02*
X112300000Y-45175000D01*
G75*
G02*
X112400000Y-45075000I100000J0D01*
G01*
X113825000Y-45075000D01*
G75*
G02*
X113925000Y-45175000I0J-100000D01*
G01*
X113925000Y-45375000D01*
G75*
G02*
X113825000Y-45475000I-100000J0D01*
G01*
X112400000Y-45475000D01*
G75*
G02*
X112300000Y-45375000I0J100000D01*
G01*
G37*
G36*
G01*
X112300000Y-46025000D02*
X112300000Y-45825000D01*
G75*
G02*
X112400000Y-45725000I100000J0D01*
G01*
X113825000Y-45725000D01*
G75*
G02*
X113925000Y-45825000I0J-100000D01*
G01*
X113925000Y-46025000D01*
G75*
G02*
X113825000Y-46125000I-100000J0D01*
G01*
X112400000Y-46125000D01*
G75*
G02*
X112300000Y-46025000I0J100000D01*
G01*
G37*
G36*
G01*
X112300000Y-46675000D02*
X112300000Y-46475000D01*
G75*
G02*
X112400000Y-46375000I100000J0D01*
G01*
X113825000Y-46375000D01*
G75*
G02*
X113925000Y-46475000I0J-100000D01*
G01*
X113925000Y-46675000D01*
G75*
G02*
X113825000Y-46775000I-100000J0D01*
G01*
X112400000Y-46775000D01*
G75*
G02*
X112300000Y-46675000I0J100000D01*
G01*
G37*
G36*
G01*
X112300000Y-47325000D02*
X112300000Y-47125000D01*
G75*
G02*
X112400000Y-47025000I100000J0D01*
G01*
X113825000Y-47025000D01*
G75*
G02*
X113925000Y-47125000I0J-100000D01*
G01*
X113925000Y-47325000D01*
G75*
G02*
X113825000Y-47425000I-100000J0D01*
G01*
X112400000Y-47425000D01*
G75*
G02*
X112300000Y-47325000I0J100000D01*
G01*
G37*
G36*
G01*
X108075000Y-47325000D02*
X108075000Y-47125000D01*
G75*
G02*
X108175000Y-47025000I100000J0D01*
G01*
X109600000Y-47025000D01*
G75*
G02*
X109700000Y-47125000I0J-100000D01*
G01*
X109700000Y-47325000D01*
G75*
G02*
X109600000Y-47425000I-100000J0D01*
G01*
X108175000Y-47425000D01*
G75*
G02*
X108075000Y-47325000I0J100000D01*
G01*
G37*
G36*
G01*
X108075000Y-46675000D02*
X108075000Y-46475000D01*
G75*
G02*
X108175000Y-46375000I100000J0D01*
G01*
X109600000Y-46375000D01*
G75*
G02*
X109700000Y-46475000I0J-100000D01*
G01*
X109700000Y-46675000D01*
G75*
G02*
X109600000Y-46775000I-100000J0D01*
G01*
X108175000Y-46775000D01*
G75*
G02*
X108075000Y-46675000I0J100000D01*
G01*
G37*
G36*
G01*
X108075000Y-46025000D02*
X108075000Y-45825000D01*
G75*
G02*
X108175000Y-45725000I100000J0D01*
G01*
X109600000Y-45725000D01*
G75*
G02*
X109700000Y-45825000I0J-100000D01*
G01*
X109700000Y-46025000D01*
G75*
G02*
X109600000Y-46125000I-100000J0D01*
G01*
X108175000Y-46125000D01*
G75*
G02*
X108075000Y-46025000I0J100000D01*
G01*
G37*
G36*
G01*
X108075000Y-45375000D02*
X108075000Y-45175000D01*
G75*
G02*
X108175000Y-45075000I100000J0D01*
G01*
X109600000Y-45075000D01*
G75*
G02*
X109700000Y-45175000I0J-100000D01*
G01*
X109700000Y-45375000D01*
G75*
G02*
X109600000Y-45475000I-100000J0D01*
G01*
X108175000Y-45475000D01*
G75*
G02*
X108075000Y-45375000I0J100000D01*
G01*
G37*
%TD*%
%TO.C,R22*%
G36*
G01*
X129625000Y-58275000D02*
X130875000Y-58275000D01*
G75*
G02*
X131125000Y-58525000I0J-250000D01*
G01*
X131125000Y-59275000D01*
G75*
G02*
X130875000Y-59525000I-250000J0D01*
G01*
X129625000Y-59525000D01*
G75*
G02*
X129375000Y-59275000I0J250000D01*
G01*
X129375000Y-58525000D01*
G75*
G02*
X129625000Y-58275000I250000J0D01*
G01*
G37*
G36*
G01*
X129625000Y-55475000D02*
X130875000Y-55475000D01*
G75*
G02*
X131125000Y-55725000I0J-250000D01*
G01*
X131125000Y-56475000D01*
G75*
G02*
X130875000Y-56725000I-250000J0D01*
G01*
X129625000Y-56725000D01*
G75*
G02*
X129375000Y-56475000I0J250000D01*
G01*
X129375000Y-55725000D01*
G75*
G02*
X129625000Y-55475000I250000J0D01*
G01*
G37*
%TD*%
%TO.C,R21*%
G36*
G01*
X125875000Y-56475000D02*
X124625000Y-56475000D01*
G75*
G02*
X124375000Y-56225000I0J250000D01*
G01*
X124375000Y-55475000D01*
G75*
G02*
X124625000Y-55225000I250000J0D01*
G01*
X125875000Y-55225000D01*
G75*
G02*
X126125000Y-55475000I0J-250000D01*
G01*
X126125000Y-56225000D01*
G75*
G02*
X125875000Y-56475000I-250000J0D01*
G01*
G37*
G36*
G01*
X125875000Y-59275000D02*
X124625000Y-59275000D01*
G75*
G02*
X124375000Y-59025000I0J250000D01*
G01*
X124375000Y-58275000D01*
G75*
G02*
X124625000Y-58025000I250000J0D01*
G01*
X125875000Y-58025000D01*
G75*
G02*
X126125000Y-58275000I0J-250000D01*
G01*
X126125000Y-59025000D01*
G75*
G02*
X125875000Y-59275000I-250000J0D01*
G01*
G37*
%TD*%
%TO.C,R20*%
G36*
G01*
X131375000Y-53375000D02*
X131375000Y-52125000D01*
G75*
G02*
X131625000Y-51875000I250000J0D01*
G01*
X132375000Y-51875000D01*
G75*
G02*
X132625000Y-52125000I0J-250000D01*
G01*
X132625000Y-53375000D01*
G75*
G02*
X132375000Y-53625000I-250000J0D01*
G01*
X131625000Y-53625000D01*
G75*
G02*
X131375000Y-53375000I0J250000D01*
G01*
G37*
G36*
G01*
X128575000Y-53375000D02*
X128575000Y-52125000D01*
G75*
G02*
X128825000Y-51875000I250000J0D01*
G01*
X129575000Y-51875000D01*
G75*
G02*
X129825000Y-52125000I0J-250000D01*
G01*
X129825000Y-53375000D01*
G75*
G02*
X129575000Y-53625000I-250000J0D01*
G01*
X128825000Y-53625000D01*
G75*
G02*
X128575000Y-53375000I0J250000D01*
G01*
G37*
%TD*%
%TO.C,R18*%
G36*
G01*
X128125000Y-56975000D02*
X126875000Y-56975000D01*
G75*
G02*
X126625000Y-56725000I0J250000D01*
G01*
X126625000Y-55975000D01*
G75*
G02*
X126875000Y-55725000I250000J0D01*
G01*
X128125000Y-55725000D01*
G75*
G02*
X128375000Y-55975000I0J-250000D01*
G01*
X128375000Y-56725000D01*
G75*
G02*
X128125000Y-56975000I-250000J0D01*
G01*
G37*
G36*
G01*
X128125000Y-59775000D02*
X126875000Y-59775000D01*
G75*
G02*
X126625000Y-59525000I0J250000D01*
G01*
X126625000Y-58775000D01*
G75*
G02*
X126875000Y-58525000I250000J0D01*
G01*
X128125000Y-58525000D01*
G75*
G02*
X128375000Y-58775000I0J-250000D01*
G01*
X128375000Y-59525000D01*
G75*
G02*
X128125000Y-59775000I-250000J0D01*
G01*
G37*
%TD*%
%TO.C,R15*%
G36*
G01*
X125625000Y-61225000D02*
X124375000Y-61225000D01*
G75*
G02*
X124125000Y-60975000I0J250000D01*
G01*
X124125000Y-60225000D01*
G75*
G02*
X124375000Y-59975000I250000J0D01*
G01*
X125625000Y-59975000D01*
G75*
G02*
X125875000Y-60225000I0J-250000D01*
G01*
X125875000Y-60975000D01*
G75*
G02*
X125625000Y-61225000I-250000J0D01*
G01*
G37*
G36*
G01*
X125625000Y-64025000D02*
X124375000Y-64025000D01*
G75*
G02*
X124125000Y-63775000I0J250000D01*
G01*
X124125000Y-63025000D01*
G75*
G02*
X124375000Y-62775000I250000J0D01*
G01*
X125625000Y-62775000D01*
G75*
G02*
X125875000Y-63025000I0J-250000D01*
G01*
X125875000Y-63775000D01*
G75*
G02*
X125625000Y-64025000I-250000J0D01*
G01*
G37*
%TD*%
%TO.C,R14*%
G36*
G01*
X126875000Y-64775000D02*
X128125000Y-64775000D01*
G75*
G02*
X128375000Y-65025000I0J-250000D01*
G01*
X128375000Y-65775000D01*
G75*
G02*
X128125000Y-66025000I-250000J0D01*
G01*
X126875000Y-66025000D01*
G75*
G02*
X126625000Y-65775000I0J250000D01*
G01*
X126625000Y-65025000D01*
G75*
G02*
X126875000Y-64775000I250000J0D01*
G01*
G37*
G36*
G01*
X126875000Y-61975000D02*
X128125000Y-61975000D01*
G75*
G02*
X128375000Y-62225000I0J-250000D01*
G01*
X128375000Y-62975000D01*
G75*
G02*
X128125000Y-63225000I-250000J0D01*
G01*
X126875000Y-63225000D01*
G75*
G02*
X126625000Y-62975000I0J250000D01*
G01*
X126625000Y-62225000D01*
G75*
G02*
X126875000Y-61975000I250000J0D01*
G01*
G37*
%TD*%
%TO.C,R12*%
G36*
G01*
X125312500Y-53756250D02*
X125312500Y-53243750D01*
G75*
G02*
X125531250Y-53025000I218750J0D01*
G01*
X125968750Y-53025000D01*
G75*
G02*
X126187500Y-53243750I0J-218750D01*
G01*
X126187500Y-53756250D01*
G75*
G02*
X125968750Y-53975000I-218750J0D01*
G01*
X125531250Y-53975000D01*
G75*
G02*
X125312500Y-53756250I0J218750D01*
G01*
G37*
G36*
G01*
X123737500Y-53756250D02*
X123737500Y-53243750D01*
G75*
G02*
X123956250Y-53025000I218750J0D01*
G01*
X124393750Y-53025000D01*
G75*
G02*
X124612500Y-53243750I0J-218750D01*
G01*
X124612500Y-53756250D01*
G75*
G02*
X124393750Y-53975000I-218750J0D01*
G01*
X123956250Y-53975000D01*
G75*
G02*
X123737500Y-53756250I0J218750D01*
G01*
G37*
%TD*%
%TO.C,R7*%
G36*
G01*
X108743750Y-50062500D02*
X109256250Y-50062500D01*
G75*
G02*
X109475000Y-50281250I0J-218750D01*
G01*
X109475000Y-50718750D01*
G75*
G02*
X109256250Y-50937500I-218750J0D01*
G01*
X108743750Y-50937500D01*
G75*
G02*
X108525000Y-50718750I0J218750D01*
G01*
X108525000Y-50281250D01*
G75*
G02*
X108743750Y-50062500I218750J0D01*
G01*
G37*
G36*
G01*
X108743750Y-48487500D02*
X109256250Y-48487500D01*
G75*
G02*
X109475000Y-48706250I0J-218750D01*
G01*
X109475000Y-49143750D01*
G75*
G02*
X109256250Y-49362500I-218750J0D01*
G01*
X108743750Y-49362500D01*
G75*
G02*
X108525000Y-49143750I0J218750D01*
G01*
X108525000Y-48706250D01*
G75*
G02*
X108743750Y-48487500I218750J0D01*
G01*
G37*
%TD*%
%TO.C,R6*%
G36*
G01*
X111350000Y-66756250D02*
X111350000Y-66243750D01*
G75*
G02*
X111568750Y-66025000I218750J0D01*
G01*
X112006250Y-66025000D01*
G75*
G02*
X112225000Y-66243750I0J-218750D01*
G01*
X112225000Y-66756250D01*
G75*
G02*
X112006250Y-66975000I-218750J0D01*
G01*
X111568750Y-66975000D01*
G75*
G02*
X111350000Y-66756250I0J218750D01*
G01*
G37*
G36*
G01*
X109775000Y-66756250D02*
X109775000Y-66243750D01*
G75*
G02*
X109993750Y-66025000I218750J0D01*
G01*
X110431250Y-66025000D01*
G75*
G02*
X110650000Y-66243750I0J-218750D01*
G01*
X110650000Y-66756250D01*
G75*
G02*
X110431250Y-66975000I-218750J0D01*
G01*
X109993750Y-66975000D01*
G75*
G02*
X109775000Y-66756250I0J218750D01*
G01*
G37*
%TD*%
%TO.C,R5*%
G36*
G01*
X106493750Y-50637500D02*
X107006250Y-50637500D01*
G75*
G02*
X107225000Y-50856250I0J-218750D01*
G01*
X107225000Y-51293750D01*
G75*
G02*
X107006250Y-51512500I-218750J0D01*
G01*
X106493750Y-51512500D01*
G75*
G02*
X106275000Y-51293750I0J218750D01*
G01*
X106275000Y-50856250D01*
G75*
G02*
X106493750Y-50637500I218750J0D01*
G01*
G37*
G36*
G01*
X106493750Y-49062500D02*
X107006250Y-49062500D01*
G75*
G02*
X107225000Y-49281250I0J-218750D01*
G01*
X107225000Y-49718750D01*
G75*
G02*
X107006250Y-49937500I-218750J0D01*
G01*
X106493750Y-49937500D01*
G75*
G02*
X106275000Y-49718750I0J218750D01*
G01*
X106275000Y-49281250D01*
G75*
G02*
X106493750Y-49062500I218750J0D01*
G01*
G37*
%TD*%
%TO.C,R4*%
G36*
G01*
X114956250Y-67050000D02*
X114043750Y-67050000D01*
G75*
G02*
X113800000Y-66806250I0J243750D01*
G01*
X113800000Y-66318750D01*
G75*
G02*
X114043750Y-66075000I243750J0D01*
G01*
X114956250Y-66075000D01*
G75*
G02*
X115200000Y-66318750I0J-243750D01*
G01*
X115200000Y-66806250D01*
G75*
G02*
X114956250Y-67050000I-243750J0D01*
G01*
G37*
G36*
G01*
X114956250Y-68925000D02*
X114043750Y-68925000D01*
G75*
G02*
X113800000Y-68681250I0J243750D01*
G01*
X113800000Y-68193750D01*
G75*
G02*
X114043750Y-67950000I243750J0D01*
G01*
X114956250Y-67950000D01*
G75*
G02*
X115200000Y-68193750I0J-243750D01*
G01*
X115200000Y-68681250D01*
G75*
G02*
X114956250Y-68925000I-243750J0D01*
G01*
G37*
%TD*%
%TO.C,R3*%
G36*
G01*
X105650000Y-47493750D02*
X105650000Y-48006250D01*
G75*
G02*
X105431250Y-48225000I-218750J0D01*
G01*
X104993750Y-48225000D01*
G75*
G02*
X104775000Y-48006250I0J218750D01*
G01*
X104775000Y-47493750D01*
G75*
G02*
X104993750Y-47275000I218750J0D01*
G01*
X105431250Y-47275000D01*
G75*
G02*
X105650000Y-47493750I0J-218750D01*
G01*
G37*
G36*
G01*
X107225000Y-47493750D02*
X107225000Y-48006250D01*
G75*
G02*
X107006250Y-48225000I-218750J0D01*
G01*
X106568750Y-48225000D01*
G75*
G02*
X106350000Y-48006250I0J218750D01*
G01*
X106350000Y-47493750D01*
G75*
G02*
X106568750Y-47275000I218750J0D01*
G01*
X107006250Y-47275000D01*
G75*
G02*
X107225000Y-47493750I0J-218750D01*
G01*
G37*
%TD*%
%TO.C,R2*%
G36*
G01*
X119300000Y-63043750D02*
X119300000Y-63956250D01*
G75*
G02*
X119056250Y-64200000I-243750J0D01*
G01*
X118568750Y-64200000D01*
G75*
G02*
X118325000Y-63956250I0J243750D01*
G01*
X118325000Y-63043750D01*
G75*
G02*
X118568750Y-62800000I243750J0D01*
G01*
X119056250Y-62800000D01*
G75*
G02*
X119300000Y-63043750I0J-243750D01*
G01*
G37*
G36*
G01*
X121175000Y-63043750D02*
X121175000Y-63956250D01*
G75*
G02*
X120931250Y-64200000I-243750J0D01*
G01*
X120443750Y-64200000D01*
G75*
G02*
X120200000Y-63956250I0J243750D01*
G01*
X120200000Y-63043750D01*
G75*
G02*
X120443750Y-62800000I243750J0D01*
G01*
X120931250Y-62800000D01*
G75*
G02*
X121175000Y-63043750I0J-243750D01*
G01*
G37*
%TD*%
%TO.C,R1*%
G36*
G01*
X119800000Y-52043750D02*
X119800000Y-52956250D01*
G75*
G02*
X119556250Y-53200000I-243750J0D01*
G01*
X119068750Y-53200000D01*
G75*
G02*
X118825000Y-52956250I0J243750D01*
G01*
X118825000Y-52043750D01*
G75*
G02*
X119068750Y-51800000I243750J0D01*
G01*
X119556250Y-51800000D01*
G75*
G02*
X119800000Y-52043750I0J-243750D01*
G01*
G37*
G36*
G01*
X121675000Y-52043750D02*
X121675000Y-52956250D01*
G75*
G02*
X121431250Y-53200000I-243750J0D01*
G01*
X120943750Y-53200000D01*
G75*
G02*
X120700000Y-52956250I0J243750D01*
G01*
X120700000Y-52043750D01*
G75*
G02*
X120943750Y-51800000I243750J0D01*
G01*
X121431250Y-51800000D01*
G75*
G02*
X121675000Y-52043750I0J-243750D01*
G01*
G37*
%TD*%
D12*
%TO.C,D2*%
X115200000Y-46000000D03*
X117300000Y-46000000D03*
%TD*%
D13*
%TO.C,D1*%
X107250000Y-65950000D03*
X107250000Y-68050000D03*
%TD*%
%TO.C,C17*%
G36*
G01*
X125100000Y-46256250D02*
X125100000Y-45743750D01*
G75*
G02*
X125318750Y-45525000I218750J0D01*
G01*
X125756250Y-45525000D01*
G75*
G02*
X125975000Y-45743750I0J-218750D01*
G01*
X125975000Y-46256250D01*
G75*
G02*
X125756250Y-46475000I-218750J0D01*
G01*
X125318750Y-46475000D01*
G75*
G02*
X125100000Y-46256250I0J218750D01*
G01*
G37*
G36*
G01*
X123525000Y-46256250D02*
X123525000Y-45743750D01*
G75*
G02*
X123743750Y-45525000I218750J0D01*
G01*
X124181250Y-45525000D01*
G75*
G02*
X124400000Y-45743750I0J-218750D01*
G01*
X124400000Y-46256250D01*
G75*
G02*
X124181250Y-46475000I-218750J0D01*
G01*
X123743750Y-46475000D01*
G75*
G02*
X123525000Y-46256250I0J218750D01*
G01*
G37*
%TD*%
%TO.C,C16*%
G36*
G01*
X125850000Y-51756250D02*
X125850000Y-51243750D01*
G75*
G02*
X126068750Y-51025000I218750J0D01*
G01*
X126506250Y-51025000D01*
G75*
G02*
X126725000Y-51243750I0J-218750D01*
G01*
X126725000Y-51756250D01*
G75*
G02*
X126506250Y-51975000I-218750J0D01*
G01*
X126068750Y-51975000D01*
G75*
G02*
X125850000Y-51756250I0J218750D01*
G01*
G37*
G36*
G01*
X124275000Y-51756250D02*
X124275000Y-51243750D01*
G75*
G02*
X124493750Y-51025000I218750J0D01*
G01*
X124931250Y-51025000D01*
G75*
G02*
X125150000Y-51243750I0J-218750D01*
G01*
X125150000Y-51756250D01*
G75*
G02*
X124931250Y-51975000I-218750J0D01*
G01*
X124493750Y-51975000D01*
G75*
G02*
X124275000Y-51756250I0J218750D01*
G01*
G37*
%TD*%
%TO.C,C12*%
G36*
G01*
X128350000Y-46256250D02*
X128350000Y-45743750D01*
G75*
G02*
X128568750Y-45525000I218750J0D01*
G01*
X129006250Y-45525000D01*
G75*
G02*
X129225000Y-45743750I0J-218750D01*
G01*
X129225000Y-46256250D01*
G75*
G02*
X129006250Y-46475000I-218750J0D01*
G01*
X128568750Y-46475000D01*
G75*
G02*
X128350000Y-46256250I0J218750D01*
G01*
G37*
G36*
G01*
X126775000Y-46256250D02*
X126775000Y-45743750D01*
G75*
G02*
X126993750Y-45525000I218750J0D01*
G01*
X127431250Y-45525000D01*
G75*
G02*
X127650000Y-45743750I0J-218750D01*
G01*
X127650000Y-46256250D01*
G75*
G02*
X127431250Y-46475000I-218750J0D01*
G01*
X126993750Y-46475000D01*
G75*
G02*
X126775000Y-46256250I0J218750D01*
G01*
G37*
%TD*%
%TO.C,C5*%
G36*
G01*
X116600000Y-48256250D02*
X116600000Y-47743750D01*
G75*
G02*
X116818750Y-47525000I218750J0D01*
G01*
X117256250Y-47525000D01*
G75*
G02*
X117475000Y-47743750I0J-218750D01*
G01*
X117475000Y-48256250D01*
G75*
G02*
X117256250Y-48475000I-218750J0D01*
G01*
X116818750Y-48475000D01*
G75*
G02*
X116600000Y-48256250I0J218750D01*
G01*
G37*
G36*
G01*
X115025000Y-48256250D02*
X115025000Y-47743750D01*
G75*
G02*
X115243750Y-47525000I218750J0D01*
G01*
X115681250Y-47525000D01*
G75*
G02*
X115900000Y-47743750I0J-218750D01*
G01*
X115900000Y-48256250D01*
G75*
G02*
X115681250Y-48475000I-218750J0D01*
G01*
X115243750Y-48475000D01*
G75*
G02*
X115025000Y-48256250I0J218750D01*
G01*
G37*
%TD*%
%TO.C,C4*%
G36*
G01*
X105650000Y-45243750D02*
X105650000Y-45756250D01*
G75*
G02*
X105431250Y-45975000I-218750J0D01*
G01*
X104993750Y-45975000D01*
G75*
G02*
X104775000Y-45756250I0J218750D01*
G01*
X104775000Y-45243750D01*
G75*
G02*
X104993750Y-45025000I218750J0D01*
G01*
X105431250Y-45025000D01*
G75*
G02*
X105650000Y-45243750I0J-218750D01*
G01*
G37*
G36*
G01*
X107225000Y-45243750D02*
X107225000Y-45756250D01*
G75*
G02*
X107006250Y-45975000I-218750J0D01*
G01*
X106568750Y-45975000D01*
G75*
G02*
X106350000Y-45756250I0J218750D01*
G01*
X106350000Y-45243750D01*
G75*
G02*
X106568750Y-45025000I218750J0D01*
G01*
X107006250Y-45025000D01*
G75*
G02*
X107225000Y-45243750I0J-218750D01*
G01*
G37*
%TD*%
%TO.C,C3*%
G36*
G01*
X116600000Y-50256250D02*
X116600000Y-49743750D01*
G75*
G02*
X116818750Y-49525000I218750J0D01*
G01*
X117256250Y-49525000D01*
G75*
G02*
X117475000Y-49743750I0J-218750D01*
G01*
X117475000Y-50256250D01*
G75*
G02*
X117256250Y-50475000I-218750J0D01*
G01*
X116818750Y-50475000D01*
G75*
G02*
X116600000Y-50256250I0J218750D01*
G01*
G37*
G36*
G01*
X115025000Y-50256250D02*
X115025000Y-49743750D01*
G75*
G02*
X115243750Y-49525000I218750J0D01*
G01*
X115681250Y-49525000D01*
G75*
G02*
X115900000Y-49743750I0J-218750D01*
G01*
X115900000Y-50256250D01*
G75*
G02*
X115681250Y-50475000I-218750J0D01*
G01*
X115243750Y-50475000D01*
G75*
G02*
X115025000Y-50256250I0J218750D01*
G01*
G37*
%TD*%
%TO.C,C2*%
G36*
G01*
X104743750Y-50600000D02*
X105256250Y-50600000D01*
G75*
G02*
X105475000Y-50818750I0J-218750D01*
G01*
X105475000Y-51256250D01*
G75*
G02*
X105256250Y-51475000I-218750J0D01*
G01*
X104743750Y-51475000D01*
G75*
G02*
X104525000Y-51256250I0J218750D01*
G01*
X104525000Y-50818750D01*
G75*
G02*
X104743750Y-50600000I218750J0D01*
G01*
G37*
G36*
G01*
X104743750Y-49025000D02*
X105256250Y-49025000D01*
G75*
G02*
X105475000Y-49243750I0J-218750D01*
G01*
X105475000Y-49681250D01*
G75*
G02*
X105256250Y-49900000I-218750J0D01*
G01*
X104743750Y-49900000D01*
G75*
G02*
X104525000Y-49681250I0J218750D01*
G01*
X104525000Y-49243750D01*
G75*
G02*
X104743750Y-49025000I218750J0D01*
G01*
G37*
%TD*%
%TO.C,C1*%
G36*
G01*
X119812500Y-50256250D02*
X119812500Y-49743750D01*
G75*
G02*
X120031250Y-49525000I218750J0D01*
G01*
X120468750Y-49525000D01*
G75*
G02*
X120687500Y-49743750I0J-218750D01*
G01*
X120687500Y-50256250D01*
G75*
G02*
X120468750Y-50475000I-218750J0D01*
G01*
X120031250Y-50475000D01*
G75*
G02*
X119812500Y-50256250I0J218750D01*
G01*
G37*
G36*
G01*
X118237500Y-50256250D02*
X118237500Y-49743750D01*
G75*
G02*
X118456250Y-49525000I218750J0D01*
G01*
X118893750Y-49525000D01*
G75*
G02*
X119112500Y-49743750I0J-218750D01*
G01*
X119112500Y-50256250D01*
G75*
G02*
X118893750Y-50475000I-218750J0D01*
G01*
X118456250Y-50475000D01*
G75*
G02*
X118237500Y-50256250I0J218750D01*
G01*
G37*
%TD*%
%TO.C,C7*%
G36*
G01*
X132793750Y-63200000D02*
X133706250Y-63200000D01*
G75*
G02*
X133950000Y-63443750I0J-243750D01*
G01*
X133950000Y-63931250D01*
G75*
G02*
X133706250Y-64175000I-243750J0D01*
G01*
X132793750Y-64175000D01*
G75*
G02*
X132550000Y-63931250I0J243750D01*
G01*
X132550000Y-63443750D01*
G75*
G02*
X132793750Y-63200000I243750J0D01*
G01*
G37*
G36*
G01*
X132793750Y-61325000D02*
X133706250Y-61325000D01*
G75*
G02*
X133950000Y-61568750I0J-243750D01*
G01*
X133950000Y-62056250D01*
G75*
G02*
X133706250Y-62300000I-243750J0D01*
G01*
X132793750Y-62300000D01*
G75*
G02*
X132550000Y-62056250I0J243750D01*
G01*
X132550000Y-61568750D01*
G75*
G02*
X132793750Y-61325000I243750J0D01*
G01*
G37*
%TD*%
%TO.C,R8*%
G36*
G01*
X129043750Y-68762500D02*
X129956250Y-68762500D01*
G75*
G02*
X130200000Y-69006250I0J-243750D01*
G01*
X130200000Y-69493750D01*
G75*
G02*
X129956250Y-69737500I-243750J0D01*
G01*
X129043750Y-69737500D01*
G75*
G02*
X128800000Y-69493750I0J243750D01*
G01*
X128800000Y-69006250D01*
G75*
G02*
X129043750Y-68762500I243750J0D01*
G01*
G37*
G36*
G01*
X129043750Y-66887500D02*
X129956250Y-66887500D01*
G75*
G02*
X130200000Y-67131250I0J-243750D01*
G01*
X130200000Y-67618750D01*
G75*
G02*
X129956250Y-67862500I-243750J0D01*
G01*
X129043750Y-67862500D01*
G75*
G02*
X128800000Y-67618750I0J243750D01*
G01*
X128800000Y-67131250D01*
G75*
G02*
X129043750Y-66887500I243750J0D01*
G01*
G37*
%TD*%
%TO.C,R9*%
G36*
G01*
X131050000Y-65043750D02*
X131050000Y-65956250D01*
G75*
G02*
X130806250Y-66200000I-243750J0D01*
G01*
X130318750Y-66200000D01*
G75*
G02*
X130075000Y-65956250I0J243750D01*
G01*
X130075000Y-65043750D01*
G75*
G02*
X130318750Y-64800000I243750J0D01*
G01*
X130806250Y-64800000D01*
G75*
G02*
X131050000Y-65043750I0J-243750D01*
G01*
G37*
G36*
G01*
X132925000Y-65043750D02*
X132925000Y-65956250D01*
G75*
G02*
X132681250Y-66200000I-243750J0D01*
G01*
X132193750Y-66200000D01*
G75*
G02*
X131950000Y-65956250I0J243750D01*
G01*
X131950000Y-65043750D01*
G75*
G02*
X132193750Y-64800000I243750J0D01*
G01*
X132681250Y-64800000D01*
G75*
G02*
X132925000Y-65043750I0J-243750D01*
G01*
G37*
%TD*%
M02*
