%TF.GenerationSoftware,KiCad,Pcbnew,(5.1.6)-1*%
%TF.CreationDate,2021-03-23T10:57:52+01:00*%
%TF.ProjectId,mu-ltz,6d752d6c-747a-42e6-9b69-6361645f7063,rev?*%
%TF.SameCoordinates,Original*%
%TF.FileFunction,Copper,L2,Bot*%
%TF.FilePolarity,Positive*%
%FSLAX46Y46*%
G04 Gerber Fmt 4.6, Leading zero omitted, Abs format (unit mm)*
G04 Created by KiCad (PCBNEW (5.1.6)-1) date 2021-03-23 10:57:52*
%MOMM*%
%LPD*%
G01*
G04 APERTURE LIST*
%TA.AperFunction,ComponentPad*%
%ADD10R,1.600000X1.600000*%
%TD*%
%TA.AperFunction,ComponentPad*%
%ADD11O,1.600000X1.600000*%
%TD*%
%TA.AperFunction,ComponentPad*%
%ADD12C,2.499360*%
%TD*%
%TA.AperFunction,ViaPad*%
%ADD13C,2.000000*%
%TD*%
%TA.AperFunction,ViaPad*%
%ADD14C,0.800000*%
%TD*%
%TA.AperFunction,Conductor*%
%ADD15C,0.400000*%
%TD*%
%TA.AperFunction,Conductor*%
%ADD16C,1.000000*%
%TD*%
%TA.AperFunction,Conductor*%
%ADD17C,0.500000*%
%TD*%
%TA.AperFunction,Conductor*%
%ADD18C,0.750000*%
%TD*%
%TA.AperFunction,Conductor*%
%ADD19C,0.254000*%
%TD*%
G04 APERTURE END LIST*
%TO.P,C10,2*%
%TO.N,/GND*%
%TA.AperFunction,SMDPad,CuDef*%
G36*
G01*
X118543750Y-85450000D02*
X119456250Y-85450000D01*
G75*
G02*
X119700000Y-85693750I0J-243750D01*
G01*
X119700000Y-86181250D01*
G75*
G02*
X119456250Y-86425000I-243750J0D01*
G01*
X118543750Y-86425000D01*
G75*
G02*
X118300000Y-86181250I0J243750D01*
G01*
X118300000Y-85693750D01*
G75*
G02*
X118543750Y-85450000I243750J0D01*
G01*
G37*
%TD.AperFunction*%
%TO.P,C10,1*%
%TO.N,/V-_filtered*%
%TA.AperFunction,SMDPad,CuDef*%
G36*
G01*
X118543750Y-83575000D02*
X119456250Y-83575000D01*
G75*
G02*
X119700000Y-83818750I0J-243750D01*
G01*
X119700000Y-84306250D01*
G75*
G02*
X119456250Y-84550000I-243750J0D01*
G01*
X118543750Y-84550000D01*
G75*
G02*
X118300000Y-84306250I0J243750D01*
G01*
X118300000Y-83818750D01*
G75*
G02*
X118543750Y-83575000I243750J0D01*
G01*
G37*
%TD.AperFunction*%
%TD*%
%TO.P,C7,2*%
%TO.N,/V+_filtered*%
%TA.AperFunction,SMDPad,CuDef*%
G36*
G01*
X130456250Y-84550000D02*
X129543750Y-84550000D01*
G75*
G02*
X129300000Y-84306250I0J243750D01*
G01*
X129300000Y-83818750D01*
G75*
G02*
X129543750Y-83575000I243750J0D01*
G01*
X130456250Y-83575000D01*
G75*
G02*
X130700000Y-83818750I0J-243750D01*
G01*
X130700000Y-84306250D01*
G75*
G02*
X130456250Y-84550000I-243750J0D01*
G01*
G37*
%TD.AperFunction*%
%TO.P,C7,1*%
%TO.N,/GND*%
%TA.AperFunction,SMDPad,CuDef*%
G36*
G01*
X130456250Y-86425000D02*
X129543750Y-86425000D01*
G75*
G02*
X129300000Y-86181250I0J243750D01*
G01*
X129300000Y-85693750D01*
G75*
G02*
X129543750Y-85450000I243750J0D01*
G01*
X130456250Y-85450000D01*
G75*
G02*
X130700000Y-85693750I0J-243750D01*
G01*
X130700000Y-86181250D01*
G75*
G02*
X130456250Y-86425000I-243750J0D01*
G01*
G37*
%TD.AperFunction*%
%TD*%
%TO.P,R8,2*%
%TO.N,Net-(FB2-Pad2)*%
%TA.AperFunction,SMDPad,CuDef*%
G36*
G01*
X126793750Y-89450000D02*
X127706250Y-89450000D01*
G75*
G02*
X127950000Y-89693750I0J-243750D01*
G01*
X127950000Y-90181250D01*
G75*
G02*
X127706250Y-90425000I-243750J0D01*
G01*
X126793750Y-90425000D01*
G75*
G02*
X126550000Y-90181250I0J243750D01*
G01*
X126550000Y-89693750D01*
G75*
G02*
X126793750Y-89450000I243750J0D01*
G01*
G37*
%TD.AperFunction*%
%TO.P,R8,1*%
%TO.N,Net-(C6-Pad2)*%
%TA.AperFunction,SMDPad,CuDef*%
G36*
G01*
X126793750Y-87575000D02*
X127706250Y-87575000D01*
G75*
G02*
X127950000Y-87818750I0J-243750D01*
G01*
X127950000Y-88306250D01*
G75*
G02*
X127706250Y-88550000I-243750J0D01*
G01*
X126793750Y-88550000D01*
G75*
G02*
X126550000Y-88306250I0J243750D01*
G01*
X126550000Y-87818750D01*
G75*
G02*
X126793750Y-87575000I243750J0D01*
G01*
G37*
%TD.AperFunction*%
%TD*%
%TO.P,R10,2*%
%TO.N,Net-(FB3-Pad2)*%
%TA.AperFunction,SMDPad,CuDef*%
G36*
G01*
X121793750Y-89450000D02*
X122706250Y-89450000D01*
G75*
G02*
X122950000Y-89693750I0J-243750D01*
G01*
X122950000Y-90181250D01*
G75*
G02*
X122706250Y-90425000I-243750J0D01*
G01*
X121793750Y-90425000D01*
G75*
G02*
X121550000Y-90181250I0J243750D01*
G01*
X121550000Y-89693750D01*
G75*
G02*
X121793750Y-89450000I243750J0D01*
G01*
G37*
%TD.AperFunction*%
%TO.P,R10,1*%
%TO.N,Net-(C9-Pad1)*%
%TA.AperFunction,SMDPad,CuDef*%
G36*
G01*
X121793750Y-87575000D02*
X122706250Y-87575000D01*
G75*
G02*
X122950000Y-87818750I0J-243750D01*
G01*
X122950000Y-88306250D01*
G75*
G02*
X122706250Y-88550000I-243750J0D01*
G01*
X121793750Y-88550000D01*
G75*
G02*
X121550000Y-88306250I0J243750D01*
G01*
X121550000Y-87818750D01*
G75*
G02*
X121793750Y-87575000I243750J0D01*
G01*
G37*
%TD.AperFunction*%
%TD*%
%TO.P,R11,2*%
%TO.N,Net-(C9-Pad1)*%
%TA.AperFunction,SMDPad,CuDef*%
G36*
G01*
X121793750Y-85450000D02*
X122706250Y-85450000D01*
G75*
G02*
X122950000Y-85693750I0J-243750D01*
G01*
X122950000Y-86181250D01*
G75*
G02*
X122706250Y-86425000I-243750J0D01*
G01*
X121793750Y-86425000D01*
G75*
G02*
X121550000Y-86181250I0J243750D01*
G01*
X121550000Y-85693750D01*
G75*
G02*
X121793750Y-85450000I243750J0D01*
G01*
G37*
%TD.AperFunction*%
%TO.P,R11,1*%
%TO.N,/V-_filtered*%
%TA.AperFunction,SMDPad,CuDef*%
G36*
G01*
X121793750Y-83575000D02*
X122706250Y-83575000D01*
G75*
G02*
X122950000Y-83818750I0J-243750D01*
G01*
X122950000Y-84306250D01*
G75*
G02*
X122706250Y-84550000I-243750J0D01*
G01*
X121793750Y-84550000D01*
G75*
G02*
X121550000Y-84306250I0J243750D01*
G01*
X121550000Y-83818750D01*
G75*
G02*
X121793750Y-83575000I243750J0D01*
G01*
G37*
%TD.AperFunction*%
%TD*%
%TO.P,R9,2*%
%TO.N,Net-(C6-Pad2)*%
%TA.AperFunction,SMDPad,CuDef*%
G36*
G01*
X126793750Y-85450000D02*
X127706250Y-85450000D01*
G75*
G02*
X127950000Y-85693750I0J-243750D01*
G01*
X127950000Y-86181250D01*
G75*
G02*
X127706250Y-86425000I-243750J0D01*
G01*
X126793750Y-86425000D01*
G75*
G02*
X126550000Y-86181250I0J243750D01*
G01*
X126550000Y-85693750D01*
G75*
G02*
X126793750Y-85450000I243750J0D01*
G01*
G37*
%TD.AperFunction*%
%TO.P,R9,1*%
%TO.N,/V+_filtered*%
%TA.AperFunction,SMDPad,CuDef*%
G36*
G01*
X126793750Y-83575000D02*
X127706250Y-83575000D01*
G75*
G02*
X127950000Y-83818750I0J-243750D01*
G01*
X127950000Y-84306250D01*
G75*
G02*
X127706250Y-84550000I-243750J0D01*
G01*
X126793750Y-84550000D01*
G75*
G02*
X126550000Y-84306250I0J243750D01*
G01*
X126550000Y-83818750D01*
G75*
G02*
X126793750Y-83575000I243750J0D01*
G01*
G37*
%TD.AperFunction*%
%TD*%
%TO.P,FB3,2*%
%TO.N,Net-(FB3-Pad2)*%
%TA.AperFunction,SMDPad,CuDef*%
G36*
G01*
X122506250Y-92150000D02*
X121993750Y-92150000D01*
G75*
G02*
X121775000Y-91931250I0J218750D01*
G01*
X121775000Y-91493750D01*
G75*
G02*
X121993750Y-91275000I218750J0D01*
G01*
X122506250Y-91275000D01*
G75*
G02*
X122725000Y-91493750I0J-218750D01*
G01*
X122725000Y-91931250D01*
G75*
G02*
X122506250Y-92150000I-218750J0D01*
G01*
G37*
%TD.AperFunction*%
%TO.P,FB3,1*%
%TO.N,Net-(FB3-Pad1)*%
%TA.AperFunction,SMDPad,CuDef*%
G36*
G01*
X122506250Y-93725000D02*
X121993750Y-93725000D01*
G75*
G02*
X121775000Y-93506250I0J218750D01*
G01*
X121775000Y-93068750D01*
G75*
G02*
X121993750Y-92850000I218750J0D01*
G01*
X122506250Y-92850000D01*
G75*
G02*
X122725000Y-93068750I0J-218750D01*
G01*
X122725000Y-93506250D01*
G75*
G02*
X122506250Y-93725000I-218750J0D01*
G01*
G37*
%TD.AperFunction*%
%TD*%
%TO.P,C9,2*%
%TO.N,/GND*%
%TA.AperFunction,SMDPad,CuDef*%
G36*
G01*
X118543750Y-89450000D02*
X119456250Y-89450000D01*
G75*
G02*
X119700000Y-89693750I0J-243750D01*
G01*
X119700000Y-90181250D01*
G75*
G02*
X119456250Y-90425000I-243750J0D01*
G01*
X118543750Y-90425000D01*
G75*
G02*
X118300000Y-90181250I0J243750D01*
G01*
X118300000Y-89693750D01*
G75*
G02*
X118543750Y-89450000I243750J0D01*
G01*
G37*
%TD.AperFunction*%
%TO.P,C9,1*%
%TO.N,Net-(C9-Pad1)*%
%TA.AperFunction,SMDPad,CuDef*%
G36*
G01*
X118543750Y-87575000D02*
X119456250Y-87575000D01*
G75*
G02*
X119700000Y-87818750I0J-243750D01*
G01*
X119700000Y-88306250D01*
G75*
G02*
X119456250Y-88550000I-243750J0D01*
G01*
X118543750Y-88550000D01*
G75*
G02*
X118300000Y-88306250I0J243750D01*
G01*
X118300000Y-87818750D01*
G75*
G02*
X118543750Y-87575000I243750J0D01*
G01*
G37*
%TD.AperFunction*%
%TD*%
%TO.P,C6,2*%
%TO.N,Net-(C6-Pad2)*%
%TA.AperFunction,SMDPad,CuDef*%
G36*
G01*
X130456250Y-88550000D02*
X129543750Y-88550000D01*
G75*
G02*
X129300000Y-88306250I0J243750D01*
G01*
X129300000Y-87818750D01*
G75*
G02*
X129543750Y-87575000I243750J0D01*
G01*
X130456250Y-87575000D01*
G75*
G02*
X130700000Y-87818750I0J-243750D01*
G01*
X130700000Y-88306250D01*
G75*
G02*
X130456250Y-88550000I-243750J0D01*
G01*
G37*
%TD.AperFunction*%
%TO.P,C6,1*%
%TO.N,/GND*%
%TA.AperFunction,SMDPad,CuDef*%
G36*
G01*
X130456250Y-90425000D02*
X129543750Y-90425000D01*
G75*
G02*
X129300000Y-90181250I0J243750D01*
G01*
X129300000Y-89693750D01*
G75*
G02*
X129543750Y-89450000I243750J0D01*
G01*
X130456250Y-89450000D01*
G75*
G02*
X130700000Y-89693750I0J-243750D01*
G01*
X130700000Y-90181250D01*
G75*
G02*
X130456250Y-90425000I-243750J0D01*
G01*
G37*
%TD.AperFunction*%
%TD*%
D10*
%TO.P,RN1,1*%
%TO.N,/GND*%
X123000000Y-50000000D03*
D11*
%TO.P,RN1,3*%
%TO.N,Net-(D2-Pad1)*%
X123000000Y-55080000D03*
%TO.P,RN1,2*%
%TO.N,Net-(R7-Pad1)*%
X123000000Y-52540000D03*
%TD*%
%TO.P,U1,8*%
%TO.N,Net-(C1-Pad2)*%
%TA.AperFunction,ComponentPad*%
G36*
G01*
X115640488Y-49220488D02*
X115640488Y-49220488D01*
G75*
G02*
X116489016Y-49220488I424264J-424264D01*
G01*
X116489016Y-49220488D01*
G75*
G02*
X116489016Y-50069016I-424264J-424264D01*
G01*
X116489016Y-50069016D01*
G75*
G02*
X115640488Y-50069016I-424264J424264D01*
G01*
X115640488Y-50069016D01*
G75*
G02*
X115640488Y-49220488I424264J424264D01*
G01*
G37*
%TD.AperFunction*%
%TO.P,U1,7*%
%TO.N,/GND*%
%TA.AperFunction,ComponentPad*%
G36*
G01*
X117705240Y-50075736D02*
X117705240Y-50075736D01*
G75*
G02*
X118553768Y-50075736I424264J-424264D01*
G01*
X118553768Y-50075736D01*
G75*
G02*
X118553768Y-50924264I-424264J-424264D01*
G01*
X118553768Y-50924264D01*
G75*
G02*
X117705240Y-50924264I-424264J424264D01*
G01*
X117705240Y-50924264D01*
G75*
G02*
X117705240Y-50075736I424264J424264D01*
G01*
G37*
%TD.AperFunction*%
%TO.P,U1,6*%
%TO.N,Net-(R7-Pad1)*%
%TA.AperFunction,ComponentPad*%
G36*
G01*
X118560488Y-52140488D02*
X118560488Y-52140488D01*
G75*
G02*
X119409016Y-52140488I424264J-424264D01*
G01*
X119409016Y-52140488D01*
G75*
G02*
X119409016Y-52989016I-424264J-424264D01*
G01*
X119409016Y-52989016D01*
G75*
G02*
X118560488Y-52989016I-424264J424264D01*
G01*
X118560488Y-52989016D01*
G75*
G02*
X118560488Y-52140488I424264J424264D01*
G01*
G37*
%TD.AperFunction*%
%TO.P,U1,5*%
%TO.N,Net-(C3-Pad2)*%
%TA.AperFunction,ComponentPad*%
G36*
G01*
X117705240Y-54205240D02*
X117705240Y-54205240D01*
G75*
G02*
X118553768Y-54205240I424264J-424264D01*
G01*
X118553768Y-54205240D01*
G75*
G02*
X118553768Y-55053768I-424264J-424264D01*
G01*
X118553768Y-55053768D01*
G75*
G02*
X117705240Y-55053768I-424264J424264D01*
G01*
X117705240Y-55053768D01*
G75*
G02*
X117705240Y-54205240I424264J424264D01*
G01*
G37*
%TD.AperFunction*%
%TO.P,U1,4*%
%TO.N,Net-(C5-Pad1)*%
%TA.AperFunction,ComponentPad*%
G36*
G01*
X115640488Y-55060488D02*
X115640488Y-55060488D01*
G75*
G02*
X116489016Y-55060488I424264J-424264D01*
G01*
X116489016Y-55060488D01*
G75*
G02*
X116489016Y-55909016I-424264J-424264D01*
G01*
X116489016Y-55909016D01*
G75*
G02*
X115640488Y-55909016I-424264J424264D01*
G01*
X115640488Y-55909016D01*
G75*
G02*
X115640488Y-55060488I424264J424264D01*
G01*
G37*
%TD.AperFunction*%
%TO.P,U1,3*%
%TO.N,Net-(D2-Pad1)*%
%TA.AperFunction,ComponentPad*%
G36*
G01*
X113575736Y-54205240D02*
X113575736Y-54205240D01*
G75*
G02*
X114424264Y-54205240I424264J-424264D01*
G01*
X114424264Y-54205240D01*
G75*
G02*
X114424264Y-55053768I-424264J-424264D01*
G01*
X114424264Y-55053768D01*
G75*
G02*
X113575736Y-55053768I-424264J424264D01*
G01*
X113575736Y-55053768D01*
G75*
G02*
X113575736Y-54205240I424264J424264D01*
G01*
G37*
%TD.AperFunction*%
%TO.P,U1,2*%
%TO.N,Net-(D1-Pad2)*%
%TA.AperFunction,ComponentPad*%
G36*
G01*
X112720488Y-52140488D02*
X112720488Y-52140488D01*
G75*
G02*
X113569016Y-52140488I424264J-424264D01*
G01*
X113569016Y-52140488D01*
G75*
G02*
X113569016Y-52989016I-424264J-424264D01*
G01*
X113569016Y-52989016D01*
G75*
G02*
X112720488Y-52989016I-424264J424264D01*
G01*
X112720488Y-52989016D01*
G75*
G02*
X112720488Y-52140488I424264J424264D01*
G01*
G37*
%TD.AperFunction*%
%TO.P,U1,1*%
%TO.N,Net-(C2-Pad2)*%
%TA.AperFunction,ComponentPad*%
G36*
G01*
X113434315Y-49934315D02*
X113434315Y-49934315D01*
G75*
G02*
X114282843Y-49934315I424264J-424264D01*
G01*
X114565685Y-50217157D01*
G75*
G02*
X114565685Y-51065685I-424264J-424264D01*
G01*
X114565685Y-51065685D01*
G75*
G02*
X113717157Y-51065685I-424264J424264D01*
G01*
X113434315Y-50782843D01*
G75*
G02*
X113434315Y-49934315I424264J424264D01*
G01*
G37*
%TD.AperFunction*%
%TD*%
D12*
%TO.P,J10,1*%
%TO.N,Net-(J10-Pad1)*%
X107250000Y-96500000D03*
%TD*%
%TO.P,J7,1*%
%TO.N,Net-(FB3-Pad1)*%
X122250000Y-96500000D03*
%TD*%
%TO.P,J8,1*%
%TO.N,Net-(J8-Pad1)*%
X117250000Y-96500000D03*
%TD*%
%TO.P,J9,1*%
%TO.N,Net-(J9-Pad1)*%
X112250000Y-96500000D03*
%TD*%
%TO.P,J1,1*%
%TO.N,Net-(J1-Pad1)*%
X107250000Y-76500000D03*
%TD*%
%TO.P,FB2,2*%
%TO.N,Net-(FB2-Pad2)*%
%TA.AperFunction,SMDPad,CuDef*%
G36*
G01*
X127506250Y-92150000D02*
X126993750Y-92150000D01*
G75*
G02*
X126775000Y-91931250I0J218750D01*
G01*
X126775000Y-91493750D01*
G75*
G02*
X126993750Y-91275000I218750J0D01*
G01*
X127506250Y-91275000D01*
G75*
G02*
X127725000Y-91493750I0J-218750D01*
G01*
X127725000Y-91931250D01*
G75*
G02*
X127506250Y-92150000I-218750J0D01*
G01*
G37*
%TD.AperFunction*%
%TO.P,FB2,1*%
%TO.N,/VCC*%
%TA.AperFunction,SMDPad,CuDef*%
G36*
G01*
X127506250Y-93725000D02*
X126993750Y-93725000D01*
G75*
G02*
X126775000Y-93506250I0J218750D01*
G01*
X126775000Y-93068750D01*
G75*
G02*
X126993750Y-92850000I218750J0D01*
G01*
X127506250Y-92850000D01*
G75*
G02*
X127725000Y-93068750I0J-218750D01*
G01*
X127725000Y-93506250D01*
G75*
G02*
X127506250Y-93725000I-218750J0D01*
G01*
G37*
%TD.AperFunction*%
%TD*%
%TO.P,J3,1*%
%TO.N,Net-(C16-Pad1)*%
X117250000Y-76500000D03*
%TD*%
%TO.P,J4,1*%
%TO.N,Net-(J4-Pad1)*%
X122250000Y-76500000D03*
%TD*%
%TO.P,J5,1*%
%TO.N,Net-(C19-Pad1)*%
X127250000Y-76500000D03*
%TD*%
%TO.P,J2,1*%
%TO.N,Net-(D1-Pad1)*%
X112250000Y-76500000D03*
%TD*%
%TO.P,J6,1*%
%TO.N,/VCC*%
X127250000Y-96500000D03*
%TD*%
D13*
%TO.N,/GND*%
X103000000Y-43000000D03*
X131500000Y-43000000D03*
X103000000Y-97000000D03*
D14*
%TO.N,Net-(D2-Pad1)*%
X112000000Y-54500000D03*
%TO.N,/GND*%
X110500000Y-44000000D03*
X117000000Y-44000000D03*
X128500000Y-56000000D03*
X125000000Y-45000000D03*
X106000000Y-58925010D03*
X103000000Y-45500000D03*
X106000000Y-56500000D03*
X107462553Y-53537447D03*
X130058325Y-52062915D03*
X117500000Y-59251973D03*
X131000000Y-46500000D03*
X132000000Y-62000000D03*
D13*
X131500000Y-97000000D03*
D14*
%TO.N,/VCC*%
X115216158Y-47780238D03*
X116864752Y-47800000D03*
X121000000Y-51690000D03*
X114000000Y-81000000D03*
X111525010Y-64000000D03*
%TO.N,/V+_filtered*%
X120700000Y-41300000D03*
X105000000Y-43000000D03*
X130000000Y-82500000D03*
%TO.N,/V-_filtered*%
X127200010Y-46000000D03*
X117000000Y-83000000D03*
X104200000Y-44500000D03*
X114750000Y-65250000D03*
X117065686Y-65184314D03*
%TO.N,Net-(C17-Pad2)*%
X105508348Y-50443723D03*
X105500000Y-52500000D03*
%TO.N,Net-(C17-Pad1)*%
X108500000Y-58000000D03*
X112199999Y-57904323D03*
%TD*%
D15*
%TO.N,Net-(D2-Pad1)*%
X112000000Y-54500000D02*
X113870496Y-54500000D01*
X113870496Y-54500000D02*
X114000000Y-54629504D01*
D16*
%TO.N,/VCC*%
X127250000Y-96500000D02*
X127250000Y-93287500D01*
D17*
X115216158Y-47780238D02*
X116844990Y-47780238D01*
X116844990Y-47780238D02*
X116864752Y-47800000D01*
X121000000Y-51690000D02*
X121000000Y-61741998D01*
X120868626Y-81000000D02*
X125000000Y-85131374D01*
X114000000Y-81000000D02*
X120868626Y-81000000D01*
X125000000Y-91037500D02*
X127250000Y-93287500D01*
X125000000Y-85131374D02*
X125000000Y-91037500D01*
X118741998Y-64000000D02*
X121000000Y-61741998D01*
X111525010Y-64000000D02*
X118741998Y-64000000D01*
D16*
%TO.N,Net-(FB2-Pad2)*%
X127250000Y-91712500D02*
X127250000Y-89937500D01*
D18*
%TO.N,Net-(C6-Pad2)*%
X127250000Y-88062500D02*
X129750000Y-88062500D01*
X127250000Y-85937500D02*
X127250000Y-88062500D01*
%TO.N,/V+_filtered*%
X130000000Y-84062500D02*
X127250000Y-84062500D01*
D17*
X105000000Y-43000000D02*
X105000000Y-42000000D01*
X105850001Y-41149999D02*
X120549999Y-41149999D01*
X105000000Y-42000000D02*
X105850001Y-41149999D01*
X120549999Y-41149999D02*
X120700000Y-41300000D01*
D15*
X130000000Y-82500000D02*
X130000000Y-84062500D01*
D18*
%TO.N,Net-(C9-Pad1)*%
X122250000Y-88062500D02*
X119000000Y-88062500D01*
X122250000Y-88062500D02*
X122250000Y-85937500D01*
D17*
%TO.N,/V-_filtered*%
X127200010Y-46000000D02*
X127200010Y-45434315D01*
X127200010Y-45434315D02*
X123915696Y-42150001D01*
X107108003Y-42149999D02*
X105408001Y-43850001D01*
X117408001Y-42149999D02*
X107108003Y-42149999D01*
X117408003Y-42150001D02*
X117408001Y-42149999D01*
X123915696Y-42150001D02*
X117408003Y-42150001D01*
D18*
X119937500Y-84062500D02*
X119000000Y-84062500D01*
X122250000Y-84062500D02*
X119937500Y-84062500D01*
D17*
X117937500Y-83000000D02*
X119000000Y-84062500D01*
X117000000Y-83000000D02*
X117937500Y-83000000D01*
X104249999Y-44450001D02*
X104200000Y-44500000D01*
X105408001Y-43850001D02*
X104808001Y-44450001D01*
X104808001Y-44450001D02*
X104249999Y-44450001D01*
X114750000Y-65250000D02*
X117000000Y-65250000D01*
X117000000Y-65250000D02*
X117065686Y-65184314D01*
D15*
%TO.N,Net-(C17-Pad2)*%
X105508348Y-50443723D02*
X105508348Y-52491652D01*
X105508348Y-52491652D02*
X105500000Y-52500000D01*
%TO.N,Net-(C17-Pad1)*%
X108500000Y-58000000D02*
X112104322Y-58000000D01*
X112104322Y-58000000D02*
X112199999Y-57904323D01*
D16*
%TO.N,Net-(FB3-Pad2)*%
X122250000Y-91712500D02*
X122250000Y-89937500D01*
%TO.N,Net-(FB3-Pad1)*%
X122250000Y-96500000D02*
X122250000Y-93287500D01*
%TD*%
D19*
%TO.N,/GND*%
G36*
X104404951Y-41343471D02*
G01*
X104371184Y-41371183D01*
X104343471Y-41404951D01*
X104343468Y-41404954D01*
X104260590Y-41505941D01*
X104178412Y-41659687D01*
X104127805Y-41826510D01*
X104110719Y-42000000D01*
X104115001Y-42043478D01*
X104115001Y-42461545D01*
X104082795Y-42509744D01*
X104004774Y-42698102D01*
X103965000Y-42898061D01*
X103965000Y-43101939D01*
X104004774Y-43301898D01*
X104074292Y-43469728D01*
X103898102Y-43504774D01*
X103709744Y-43582795D01*
X103540226Y-43696063D01*
X103396063Y-43840226D01*
X103282795Y-44009744D01*
X103204774Y-44198102D01*
X103165000Y-44398061D01*
X103165000Y-44601939D01*
X103204774Y-44801898D01*
X103282795Y-44990256D01*
X103396063Y-45159774D01*
X103540226Y-45303937D01*
X103709744Y-45417205D01*
X103898102Y-45495226D01*
X104098061Y-45535000D01*
X104301939Y-45535000D01*
X104501898Y-45495226D01*
X104690256Y-45417205D01*
X104807021Y-45339185D01*
X104808001Y-45339282D01*
X104851470Y-45335001D01*
X104851478Y-45335001D01*
X104981491Y-45322196D01*
X105148314Y-45271590D01*
X105302060Y-45189412D01*
X105436818Y-45078818D01*
X105464535Y-45045045D01*
X106064533Y-44445048D01*
X106064537Y-44445043D01*
X107474582Y-43034999D01*
X117364506Y-43034999D01*
X117364526Y-43035001D01*
X117364534Y-43035001D01*
X117408003Y-43039282D01*
X117451472Y-43035001D01*
X123549118Y-43035001D01*
X126206961Y-45692845D01*
X126204784Y-45698102D01*
X126165010Y-45898061D01*
X126165010Y-46101939D01*
X126204784Y-46301898D01*
X126282805Y-46490256D01*
X126396073Y-46659774D01*
X126540236Y-46803937D01*
X126709754Y-46917205D01*
X126898112Y-46995226D01*
X127098071Y-47035000D01*
X127301949Y-47035000D01*
X127501908Y-46995226D01*
X127690266Y-46917205D01*
X127859784Y-46803937D01*
X128003947Y-46659774D01*
X128117215Y-46490256D01*
X128195236Y-46301898D01*
X128235010Y-46101939D01*
X128235010Y-45898061D01*
X128195236Y-45698102D01*
X128117215Y-45509744D01*
X128086404Y-45463631D01*
X128089291Y-45434314D01*
X128085010Y-45390848D01*
X128085010Y-45390838D01*
X128072205Y-45260825D01*
X128021599Y-45094002D01*
X127939421Y-44940256D01*
X127915220Y-44910767D01*
X127856542Y-44839268D01*
X127856540Y-44839266D01*
X127828827Y-44805498D01*
X127795059Y-44777785D01*
X124572228Y-41554955D01*
X124544513Y-41521184D01*
X124409755Y-41410590D01*
X124256009Y-41328412D01*
X124089186Y-41277806D01*
X123959173Y-41265001D01*
X123959165Y-41265001D01*
X123915696Y-41260720D01*
X123872227Y-41265001D01*
X121735000Y-41265001D01*
X121735000Y-41198061D01*
X121695226Y-40998102D01*
X121617205Y-40809744D01*
X121517150Y-40660000D01*
X131467721Y-40660000D01*
X131953893Y-40707670D01*
X132390498Y-40839489D01*
X132793185Y-41053600D01*
X133146612Y-41341848D01*
X133437327Y-41693261D01*
X133654242Y-42094439D01*
X133789106Y-42530113D01*
X133840001Y-43014353D01*
X133840000Y-63967721D01*
X133792330Y-64453894D01*
X133660512Y-64890497D01*
X133446399Y-65293186D01*
X133158150Y-65646613D01*
X132806739Y-65937327D01*
X132405564Y-66154240D01*
X131969886Y-66289106D01*
X131485664Y-66340000D01*
X129173481Y-66340002D01*
X128622782Y-66058074D01*
X128567106Y-66036131D01*
X128511787Y-66013432D01*
X128502943Y-66010844D01*
X127826219Y-65817947D01*
X127767397Y-65807247D01*
X127708668Y-65795714D01*
X127699489Y-65794894D01*
X126998185Y-65737114D01*
X126938378Y-65738043D01*
X126878555Y-65738137D01*
X126869392Y-65739115D01*
X126869390Y-65739115D01*
X126170220Y-65818653D01*
X126111761Y-65831175D01*
X126053068Y-65842892D01*
X126044269Y-65845631D01*
X125373863Y-66059456D01*
X125318896Y-66083117D01*
X125263647Y-66105991D01*
X125255553Y-66110384D01*
X125255549Y-66110386D01*
X125255548Y-66110387D01*
X124639442Y-66450356D01*
X124590100Y-66484256D01*
X124540366Y-66517411D01*
X124533275Y-66523296D01*
X123994937Y-66976459D01*
X123953164Y-67019251D01*
X123910771Y-67061481D01*
X123904958Y-67068632D01*
X123464892Y-67617729D01*
X123432222Y-67667826D01*
X123398844Y-67717479D01*
X123394531Y-67725622D01*
X123069499Y-68349738D01*
X123047179Y-68405234D01*
X123024083Y-68460419D01*
X123021433Y-68469245D01*
X122823818Y-69144606D01*
X122812702Y-69203377D01*
X122800765Y-69261998D01*
X122799880Y-69271170D01*
X122737205Y-69972055D01*
X122737717Y-70031866D01*
X122737393Y-70091690D01*
X122738307Y-70100860D01*
X122812962Y-70800568D01*
X122825079Y-70859128D01*
X122836383Y-70917887D01*
X122839061Y-70926705D01*
X123048201Y-71598588D01*
X123071459Y-71653673D01*
X123093964Y-71709125D01*
X123098303Y-71717254D01*
X123433963Y-72335719D01*
X123467480Y-72385242D01*
X123500324Y-72435261D01*
X123506160Y-72442393D01*
X123955554Y-72983882D01*
X123998036Y-73025935D01*
X124039986Y-73068639D01*
X124047096Y-73074501D01*
X124593107Y-73518390D01*
X124642967Y-73551404D01*
X124692394Y-73585134D01*
X124700508Y-73589504D01*
X125322339Y-73918884D01*
X125377664Y-73941586D01*
X125432698Y-73965071D01*
X125441505Y-73967782D01*
X126115472Y-74170109D01*
X126174159Y-74181633D01*
X126232701Y-74193981D01*
X126241867Y-74194930D01*
X126942296Y-74262496D01*
X127002141Y-74262402D01*
X127061928Y-74263143D01*
X127071104Y-74262293D01*
X127071106Y-74262293D01*
X127771316Y-74192526D01*
X127829974Y-74180815D01*
X127888798Y-74169924D01*
X127897634Y-74167308D01*
X128570960Y-73962863D01*
X128626209Y-73939989D01*
X128681813Y-73917873D01*
X128689973Y-73913591D01*
X129165108Y-73659998D01*
X131467720Y-73660000D01*
X131953893Y-73707670D01*
X132390498Y-73839489D01*
X132793185Y-74053600D01*
X133146612Y-74341848D01*
X133437327Y-74693261D01*
X133654242Y-75094439D01*
X133789106Y-75530113D01*
X133840001Y-76014353D01*
X133840000Y-96967721D01*
X133792330Y-97453894D01*
X133660512Y-97890497D01*
X133446399Y-98293186D01*
X133158150Y-98646613D01*
X132806739Y-98937327D01*
X132405564Y-99154240D01*
X131969886Y-99289106D01*
X131485664Y-99340000D01*
X103032279Y-99340000D01*
X102546106Y-99292330D01*
X102109503Y-99160512D01*
X101706814Y-98946399D01*
X101353387Y-98658150D01*
X101062673Y-98306739D01*
X100845760Y-97905564D01*
X100710894Y-97469886D01*
X100660000Y-96985664D01*
X100660000Y-96314375D01*
X105365320Y-96314375D01*
X105365320Y-96685625D01*
X105437747Y-97049741D01*
X105579818Y-97392731D01*
X105786074Y-97701413D01*
X106048587Y-97963926D01*
X106357269Y-98170182D01*
X106700259Y-98312253D01*
X107064375Y-98384680D01*
X107435625Y-98384680D01*
X107799741Y-98312253D01*
X108142731Y-98170182D01*
X108451413Y-97963926D01*
X108713926Y-97701413D01*
X108920182Y-97392731D01*
X109062253Y-97049741D01*
X109134680Y-96685625D01*
X109134680Y-96314375D01*
X110365320Y-96314375D01*
X110365320Y-96685625D01*
X110437747Y-97049741D01*
X110579818Y-97392731D01*
X110786074Y-97701413D01*
X111048587Y-97963926D01*
X111357269Y-98170182D01*
X111700259Y-98312253D01*
X112064375Y-98384680D01*
X112435625Y-98384680D01*
X112799741Y-98312253D01*
X113142731Y-98170182D01*
X113451413Y-97963926D01*
X113713926Y-97701413D01*
X113920182Y-97392731D01*
X114062253Y-97049741D01*
X114134680Y-96685625D01*
X114134680Y-96314375D01*
X115365320Y-96314375D01*
X115365320Y-96685625D01*
X115437747Y-97049741D01*
X115579818Y-97392731D01*
X115786074Y-97701413D01*
X116048587Y-97963926D01*
X116357269Y-98170182D01*
X116700259Y-98312253D01*
X117064375Y-98384680D01*
X117435625Y-98384680D01*
X117799741Y-98312253D01*
X118142731Y-98170182D01*
X118451413Y-97963926D01*
X118713926Y-97701413D01*
X118920182Y-97392731D01*
X119062253Y-97049741D01*
X119134680Y-96685625D01*
X119134680Y-96314375D01*
X119062253Y-95950259D01*
X118920182Y-95607269D01*
X118713926Y-95298587D01*
X118451413Y-95036074D01*
X118142731Y-94829818D01*
X117799741Y-94687747D01*
X117435625Y-94615320D01*
X117064375Y-94615320D01*
X116700259Y-94687747D01*
X116357269Y-94829818D01*
X116048587Y-95036074D01*
X115786074Y-95298587D01*
X115579818Y-95607269D01*
X115437747Y-95950259D01*
X115365320Y-96314375D01*
X114134680Y-96314375D01*
X114062253Y-95950259D01*
X113920182Y-95607269D01*
X113713926Y-95298587D01*
X113451413Y-95036074D01*
X113142731Y-94829818D01*
X112799741Y-94687747D01*
X112435625Y-94615320D01*
X112064375Y-94615320D01*
X111700259Y-94687747D01*
X111357269Y-94829818D01*
X111048587Y-95036074D01*
X110786074Y-95298587D01*
X110579818Y-95607269D01*
X110437747Y-95950259D01*
X110365320Y-96314375D01*
X109134680Y-96314375D01*
X109062253Y-95950259D01*
X108920182Y-95607269D01*
X108713926Y-95298587D01*
X108451413Y-95036074D01*
X108142731Y-94829818D01*
X107799741Y-94687747D01*
X107435625Y-94615320D01*
X107064375Y-94615320D01*
X106700259Y-94687747D01*
X106357269Y-94829818D01*
X106048587Y-95036074D01*
X105786074Y-95298587D01*
X105579818Y-95607269D01*
X105437747Y-95950259D01*
X105365320Y-96314375D01*
X100660000Y-96314375D01*
X100660000Y-90425000D01*
X117661928Y-90425000D01*
X117674188Y-90549482D01*
X117710498Y-90669180D01*
X117769463Y-90779494D01*
X117848815Y-90876185D01*
X117945506Y-90955537D01*
X118055820Y-91014502D01*
X118175518Y-91050812D01*
X118300000Y-91063072D01*
X118714250Y-91060000D01*
X118873000Y-90901250D01*
X118873000Y-90064500D01*
X119127000Y-90064500D01*
X119127000Y-90901250D01*
X119285750Y-91060000D01*
X119700000Y-91063072D01*
X119824482Y-91050812D01*
X119944180Y-91014502D01*
X120054494Y-90955537D01*
X120151185Y-90876185D01*
X120230537Y-90779494D01*
X120289502Y-90669180D01*
X120325812Y-90549482D01*
X120338072Y-90425000D01*
X120335000Y-90223250D01*
X120176250Y-90064500D01*
X119127000Y-90064500D01*
X118873000Y-90064500D01*
X117823750Y-90064500D01*
X117665000Y-90223250D01*
X117661928Y-90425000D01*
X100660000Y-90425000D01*
X100660000Y-80898061D01*
X112965000Y-80898061D01*
X112965000Y-81101939D01*
X113004774Y-81301898D01*
X113082795Y-81490256D01*
X113196063Y-81659774D01*
X113340226Y-81803937D01*
X113509744Y-81917205D01*
X113698102Y-81995226D01*
X113898061Y-82035000D01*
X114101939Y-82035000D01*
X114301898Y-81995226D01*
X114490256Y-81917205D01*
X114538454Y-81885000D01*
X120502048Y-81885000D01*
X121582742Y-82965694D01*
X121456291Y-83004053D01*
X121365653Y-83052500D01*
X119884347Y-83052500D01*
X119793709Y-83004053D01*
X119628285Y-82953872D01*
X119456250Y-82936928D01*
X119126007Y-82936928D01*
X118594034Y-82404956D01*
X118566317Y-82371183D01*
X118431559Y-82260589D01*
X118277813Y-82178411D01*
X118110990Y-82127805D01*
X117980977Y-82115000D01*
X117980969Y-82115000D01*
X117937500Y-82110719D01*
X117894031Y-82115000D01*
X117538454Y-82115000D01*
X117490256Y-82082795D01*
X117301898Y-82004774D01*
X117101939Y-81965000D01*
X116898061Y-81965000D01*
X116698102Y-82004774D01*
X116509744Y-82082795D01*
X116340226Y-82196063D01*
X116196063Y-82340226D01*
X116082795Y-82509744D01*
X116004774Y-82698102D01*
X115965000Y-82898061D01*
X115965000Y-83101939D01*
X116004774Y-83301898D01*
X116082795Y-83490256D01*
X116196063Y-83659774D01*
X116340226Y-83803937D01*
X116509744Y-83917205D01*
X116698102Y-83995226D01*
X116898061Y-84035000D01*
X117101939Y-84035000D01*
X117301898Y-83995226D01*
X117490256Y-83917205D01*
X117538454Y-83885000D01*
X117570922Y-83885000D01*
X117661928Y-83976006D01*
X117661928Y-84306250D01*
X117678872Y-84478285D01*
X117729053Y-84643709D01*
X117810542Y-84796164D01*
X117920208Y-84929792D01*
X117926564Y-84935008D01*
X117848815Y-84998815D01*
X117769463Y-85095506D01*
X117710498Y-85205820D01*
X117674188Y-85325518D01*
X117661928Y-85450000D01*
X117665000Y-85651750D01*
X117823750Y-85810500D01*
X118873000Y-85810500D01*
X118873000Y-85790500D01*
X119127000Y-85790500D01*
X119127000Y-85810500D01*
X120176250Y-85810500D01*
X120335000Y-85651750D01*
X120338072Y-85450000D01*
X120325812Y-85325518D01*
X120289502Y-85205820D01*
X120230537Y-85095506D01*
X120211657Y-85072500D01*
X121168327Y-85072500D01*
X121060542Y-85203836D01*
X120979053Y-85356291D01*
X120928872Y-85521715D01*
X120911928Y-85693750D01*
X120911928Y-86181250D01*
X120928872Y-86353285D01*
X120979053Y-86518709D01*
X121060542Y-86671164D01*
X121170208Y-86804792D01*
X121240001Y-86862069D01*
X121240000Y-87052500D01*
X119884347Y-87052500D01*
X119860658Y-87039838D01*
X119944180Y-87014502D01*
X120054494Y-86955537D01*
X120151185Y-86876185D01*
X120230537Y-86779494D01*
X120289502Y-86669180D01*
X120325812Y-86549482D01*
X120338072Y-86425000D01*
X120335000Y-86223250D01*
X120176250Y-86064500D01*
X119127000Y-86064500D01*
X119127000Y-86084500D01*
X118873000Y-86084500D01*
X118873000Y-86064500D01*
X117823750Y-86064500D01*
X117665000Y-86223250D01*
X117661928Y-86425000D01*
X117674188Y-86549482D01*
X117710498Y-86669180D01*
X117769463Y-86779494D01*
X117848815Y-86876185D01*
X117945506Y-86955537D01*
X118055820Y-87014502D01*
X118139342Y-87039838D01*
X118053836Y-87085542D01*
X117920208Y-87195208D01*
X117810542Y-87328836D01*
X117729053Y-87481291D01*
X117678872Y-87646715D01*
X117661928Y-87818750D01*
X117661928Y-88306250D01*
X117678872Y-88478285D01*
X117729053Y-88643709D01*
X117810542Y-88796164D01*
X117920208Y-88929792D01*
X117926564Y-88935008D01*
X117848815Y-88998815D01*
X117769463Y-89095506D01*
X117710498Y-89205820D01*
X117674188Y-89325518D01*
X117661928Y-89450000D01*
X117665000Y-89651750D01*
X117823750Y-89810500D01*
X118873000Y-89810500D01*
X118873000Y-89790500D01*
X119127000Y-89790500D01*
X119127000Y-89810500D01*
X120176250Y-89810500D01*
X120335000Y-89651750D01*
X120338072Y-89450000D01*
X120325812Y-89325518D01*
X120289502Y-89205820D01*
X120230537Y-89095506D01*
X120211657Y-89072500D01*
X121168327Y-89072500D01*
X121060542Y-89203836D01*
X120979053Y-89356291D01*
X120928872Y-89521715D01*
X120911928Y-89693750D01*
X120911928Y-90181250D01*
X120928872Y-90353285D01*
X120979053Y-90518709D01*
X121060542Y-90671164D01*
X121115000Y-90737521D01*
X121115000Y-91768251D01*
X121131423Y-91934998D01*
X121140121Y-91963673D01*
X121153392Y-92098408D01*
X121202150Y-92259142D01*
X121281329Y-92407275D01*
X121357426Y-92500000D01*
X121281329Y-92592725D01*
X121202150Y-92740858D01*
X121153392Y-92901592D01*
X121140121Y-93036331D01*
X121131424Y-93065001D01*
X121115001Y-93231748D01*
X121115000Y-94991698D01*
X121048587Y-95036074D01*
X120786074Y-95298587D01*
X120579818Y-95607269D01*
X120437747Y-95950259D01*
X120365320Y-96314375D01*
X120365320Y-96685625D01*
X120437747Y-97049741D01*
X120579818Y-97392731D01*
X120786074Y-97701413D01*
X121048587Y-97963926D01*
X121357269Y-98170182D01*
X121700259Y-98312253D01*
X122064375Y-98384680D01*
X122435625Y-98384680D01*
X122799741Y-98312253D01*
X123142731Y-98170182D01*
X123451413Y-97963926D01*
X123713926Y-97701413D01*
X123920182Y-97392731D01*
X124062253Y-97049741D01*
X124134680Y-96685625D01*
X124134680Y-96314375D01*
X124062253Y-95950259D01*
X123920182Y-95607269D01*
X123713926Y-95298587D01*
X123451413Y-95036074D01*
X123385000Y-94991698D01*
X123385000Y-93231748D01*
X123368577Y-93065001D01*
X123359878Y-93036326D01*
X123346608Y-92901592D01*
X123297850Y-92740858D01*
X123218671Y-92592725D01*
X123142574Y-92500000D01*
X123218671Y-92407275D01*
X123297850Y-92259142D01*
X123346608Y-92098408D01*
X123359878Y-91963674D01*
X123368577Y-91934999D01*
X123385000Y-91768252D01*
X123385000Y-90737521D01*
X123439458Y-90671164D01*
X123520947Y-90518709D01*
X123571128Y-90353285D01*
X123588072Y-90181250D01*
X123588072Y-89693750D01*
X123571128Y-89521715D01*
X123520947Y-89356291D01*
X123439458Y-89203836D01*
X123329792Y-89070208D01*
X123244244Y-89000000D01*
X123329792Y-88929792D01*
X123439458Y-88796164D01*
X123520947Y-88643709D01*
X123571128Y-88478285D01*
X123588072Y-88306250D01*
X123588072Y-87818750D01*
X123571128Y-87646715D01*
X123520947Y-87481291D01*
X123439458Y-87328836D01*
X123329792Y-87195208D01*
X123260000Y-87137931D01*
X123260000Y-86862069D01*
X123329792Y-86804792D01*
X123439458Y-86671164D01*
X123520947Y-86518709D01*
X123571128Y-86353285D01*
X123588072Y-86181250D01*
X123588072Y-85693750D01*
X123571128Y-85521715D01*
X123520947Y-85356291D01*
X123439458Y-85203836D01*
X123329792Y-85070208D01*
X123244244Y-85000000D01*
X123329792Y-84929792D01*
X123427627Y-84810580D01*
X124115000Y-85497953D01*
X124115001Y-90994021D01*
X124110719Y-91037500D01*
X124127805Y-91210990D01*
X124178412Y-91377813D01*
X124260590Y-91531559D01*
X124343468Y-91632546D01*
X124343471Y-91632549D01*
X124371184Y-91666317D01*
X124404951Y-91694029D01*
X126115001Y-93404080D01*
X126115000Y-94991698D01*
X126048587Y-95036074D01*
X125786074Y-95298587D01*
X125579818Y-95607269D01*
X125437747Y-95950259D01*
X125365320Y-96314375D01*
X125365320Y-96685625D01*
X125437747Y-97049741D01*
X125579818Y-97392731D01*
X125786074Y-97701413D01*
X126048587Y-97963926D01*
X126357269Y-98170182D01*
X126700259Y-98312253D01*
X127064375Y-98384680D01*
X127435625Y-98384680D01*
X127799741Y-98312253D01*
X128142731Y-98170182D01*
X128451413Y-97963926D01*
X128713926Y-97701413D01*
X128920182Y-97392731D01*
X129062253Y-97049741D01*
X129134680Y-96685625D01*
X129134680Y-96314375D01*
X129062253Y-95950259D01*
X128920182Y-95607269D01*
X128713926Y-95298587D01*
X128451413Y-95036074D01*
X128385000Y-94991698D01*
X128385000Y-93231748D01*
X128368577Y-93065001D01*
X128359878Y-93036326D01*
X128346608Y-92901592D01*
X128297850Y-92740858D01*
X128218671Y-92592725D01*
X128142574Y-92500000D01*
X128218671Y-92407275D01*
X128297850Y-92259142D01*
X128346608Y-92098408D01*
X128359878Y-91963674D01*
X128368577Y-91934999D01*
X128385000Y-91768252D01*
X128385000Y-90737521D01*
X128439458Y-90671164D01*
X128520947Y-90518709D01*
X128549373Y-90425000D01*
X128661928Y-90425000D01*
X128674188Y-90549482D01*
X128710498Y-90669180D01*
X128769463Y-90779494D01*
X128848815Y-90876185D01*
X128945506Y-90955537D01*
X129055820Y-91014502D01*
X129175518Y-91050812D01*
X129300000Y-91063072D01*
X129714250Y-91060000D01*
X129873000Y-90901250D01*
X129873000Y-90064500D01*
X130127000Y-90064500D01*
X130127000Y-90901250D01*
X130285750Y-91060000D01*
X130700000Y-91063072D01*
X130824482Y-91050812D01*
X130944180Y-91014502D01*
X131054494Y-90955537D01*
X131151185Y-90876185D01*
X131230537Y-90779494D01*
X131289502Y-90669180D01*
X131325812Y-90549482D01*
X131338072Y-90425000D01*
X131335000Y-90223250D01*
X131176250Y-90064500D01*
X130127000Y-90064500D01*
X129873000Y-90064500D01*
X128823750Y-90064500D01*
X128665000Y-90223250D01*
X128661928Y-90425000D01*
X128549373Y-90425000D01*
X128571128Y-90353285D01*
X128588072Y-90181250D01*
X128588072Y-89693750D01*
X128571128Y-89521715D01*
X128520947Y-89356291D01*
X128439458Y-89203836D01*
X128331673Y-89072500D01*
X128788343Y-89072500D01*
X128769463Y-89095506D01*
X128710498Y-89205820D01*
X128674188Y-89325518D01*
X128661928Y-89450000D01*
X128665000Y-89651750D01*
X128823750Y-89810500D01*
X129873000Y-89810500D01*
X129873000Y-89790500D01*
X130127000Y-89790500D01*
X130127000Y-89810500D01*
X131176250Y-89810500D01*
X131335000Y-89651750D01*
X131338072Y-89450000D01*
X131325812Y-89325518D01*
X131289502Y-89205820D01*
X131230537Y-89095506D01*
X131151185Y-88998815D01*
X131073436Y-88935008D01*
X131079792Y-88929792D01*
X131189458Y-88796164D01*
X131270947Y-88643709D01*
X131321128Y-88478285D01*
X131338072Y-88306250D01*
X131338072Y-87818750D01*
X131321128Y-87646715D01*
X131270947Y-87481291D01*
X131189458Y-87328836D01*
X131079792Y-87195208D01*
X130946164Y-87085542D01*
X130860658Y-87039838D01*
X130944180Y-87014502D01*
X131054494Y-86955537D01*
X131151185Y-86876185D01*
X131230537Y-86779494D01*
X131289502Y-86669180D01*
X131325812Y-86549482D01*
X131338072Y-86425000D01*
X131335000Y-86223250D01*
X131176250Y-86064500D01*
X130127000Y-86064500D01*
X130127000Y-86084500D01*
X129873000Y-86084500D01*
X129873000Y-86064500D01*
X128823750Y-86064500D01*
X128665000Y-86223250D01*
X128661928Y-86425000D01*
X128674188Y-86549482D01*
X128710498Y-86669180D01*
X128769463Y-86779494D01*
X128848815Y-86876185D01*
X128945506Y-86955537D01*
X129055820Y-87014502D01*
X129139342Y-87039838D01*
X129115653Y-87052500D01*
X128260000Y-87052500D01*
X128260000Y-86862069D01*
X128329792Y-86804792D01*
X128439458Y-86671164D01*
X128520947Y-86518709D01*
X128571128Y-86353285D01*
X128588072Y-86181250D01*
X128588072Y-85693750D01*
X128571128Y-85521715D01*
X128520947Y-85356291D01*
X128439458Y-85203836D01*
X128331673Y-85072500D01*
X128788343Y-85072500D01*
X128769463Y-85095506D01*
X128710498Y-85205820D01*
X128674188Y-85325518D01*
X128661928Y-85450000D01*
X128665000Y-85651750D01*
X128823750Y-85810500D01*
X129873000Y-85810500D01*
X129873000Y-85790500D01*
X130127000Y-85790500D01*
X130127000Y-85810500D01*
X131176250Y-85810500D01*
X131335000Y-85651750D01*
X131338072Y-85450000D01*
X131325812Y-85325518D01*
X131289502Y-85205820D01*
X131230537Y-85095506D01*
X131151185Y-84998815D01*
X131073436Y-84935008D01*
X131079792Y-84929792D01*
X131189458Y-84796164D01*
X131270947Y-84643709D01*
X131321128Y-84478285D01*
X131338072Y-84306250D01*
X131338072Y-83818750D01*
X131321128Y-83646715D01*
X131270947Y-83481291D01*
X131189458Y-83328836D01*
X131079792Y-83195208D01*
X130946164Y-83085542D01*
X130877913Y-83049061D01*
X130917205Y-82990256D01*
X130995226Y-82801898D01*
X131035000Y-82601939D01*
X131035000Y-82398061D01*
X130995226Y-82198102D01*
X130917205Y-82009744D01*
X130803937Y-81840226D01*
X130659774Y-81696063D01*
X130490256Y-81582795D01*
X130301898Y-81504774D01*
X130101939Y-81465000D01*
X129898061Y-81465000D01*
X129698102Y-81504774D01*
X129509744Y-81582795D01*
X129340226Y-81696063D01*
X129196063Y-81840226D01*
X129082795Y-82009744D01*
X129004774Y-82198102D01*
X128965000Y-82398061D01*
X128965000Y-82601939D01*
X129004774Y-82801898D01*
X129082795Y-82990256D01*
X129122087Y-83049061D01*
X129115653Y-83052500D01*
X128134347Y-83052500D01*
X128043709Y-83004053D01*
X127878285Y-82953872D01*
X127706250Y-82936928D01*
X126793750Y-82936928D01*
X126621715Y-82953872D01*
X126456291Y-83004053D01*
X126303836Y-83085542D01*
X126170208Y-83195208D01*
X126060542Y-83328836D01*
X125979053Y-83481291D01*
X125928872Y-83646715D01*
X125911928Y-83818750D01*
X125911928Y-84306250D01*
X125928872Y-84478285D01*
X125979053Y-84643709D01*
X126060542Y-84796164D01*
X126170208Y-84929792D01*
X126255756Y-85000000D01*
X126170208Y-85070208D01*
X126060542Y-85203836D01*
X125979053Y-85356291D01*
X125928872Y-85521715D01*
X125911928Y-85693750D01*
X125911928Y-86181250D01*
X125928872Y-86353285D01*
X125979053Y-86518709D01*
X126060542Y-86671164D01*
X126170208Y-86804792D01*
X126240000Y-86862069D01*
X126240001Y-87137931D01*
X126170208Y-87195208D01*
X126060542Y-87328836D01*
X125979053Y-87481291D01*
X125928872Y-87646715D01*
X125911928Y-87818750D01*
X125911928Y-88306250D01*
X125928872Y-88478285D01*
X125979053Y-88643709D01*
X126060542Y-88796164D01*
X126170208Y-88929792D01*
X126255756Y-89000000D01*
X126170208Y-89070208D01*
X126060542Y-89203836D01*
X125979053Y-89356291D01*
X125928872Y-89521715D01*
X125911928Y-89693750D01*
X125911928Y-90181250D01*
X125928872Y-90353285D01*
X125979053Y-90518709D01*
X126060542Y-90671164D01*
X126115000Y-90737521D01*
X126115000Y-90900922D01*
X125885000Y-90670922D01*
X125885000Y-85174839D01*
X125889281Y-85131373D01*
X125885000Y-85087907D01*
X125885000Y-85087897D01*
X125872195Y-84957884D01*
X125821589Y-84791061D01*
X125739411Y-84637315D01*
X125628817Y-84502557D01*
X125595050Y-84474846D01*
X121525160Y-80404956D01*
X121497443Y-80371183D01*
X121362685Y-80260589D01*
X121208939Y-80178411D01*
X121042116Y-80127805D01*
X120912103Y-80115000D01*
X120912095Y-80115000D01*
X120868626Y-80110719D01*
X120825157Y-80115000D01*
X114538454Y-80115000D01*
X114490256Y-80082795D01*
X114301898Y-80004774D01*
X114101939Y-79965000D01*
X113898061Y-79965000D01*
X113698102Y-80004774D01*
X113509744Y-80082795D01*
X113340226Y-80196063D01*
X113196063Y-80340226D01*
X113082795Y-80509744D01*
X113004774Y-80698102D01*
X112965000Y-80898061D01*
X100660000Y-80898061D01*
X100660000Y-76314375D01*
X105365320Y-76314375D01*
X105365320Y-76685625D01*
X105437747Y-77049741D01*
X105579818Y-77392731D01*
X105786074Y-77701413D01*
X106048587Y-77963926D01*
X106357269Y-78170182D01*
X106700259Y-78312253D01*
X107064375Y-78384680D01*
X107435625Y-78384680D01*
X107799741Y-78312253D01*
X108142731Y-78170182D01*
X108451413Y-77963926D01*
X108713926Y-77701413D01*
X108920182Y-77392731D01*
X109062253Y-77049741D01*
X109134680Y-76685625D01*
X109134680Y-76314375D01*
X110365320Y-76314375D01*
X110365320Y-76685625D01*
X110437747Y-77049741D01*
X110579818Y-77392731D01*
X110786074Y-77701413D01*
X111048587Y-77963926D01*
X111357269Y-78170182D01*
X111700259Y-78312253D01*
X112064375Y-78384680D01*
X112435625Y-78384680D01*
X112799741Y-78312253D01*
X113142731Y-78170182D01*
X113451413Y-77963926D01*
X113713926Y-77701413D01*
X113920182Y-77392731D01*
X114062253Y-77049741D01*
X114134680Y-76685625D01*
X114134680Y-76314375D01*
X115365320Y-76314375D01*
X115365320Y-76685625D01*
X115437747Y-77049741D01*
X115579818Y-77392731D01*
X115786074Y-77701413D01*
X116048587Y-77963926D01*
X116357269Y-78170182D01*
X116700259Y-78312253D01*
X117064375Y-78384680D01*
X117435625Y-78384680D01*
X117799741Y-78312253D01*
X118142731Y-78170182D01*
X118451413Y-77963926D01*
X118713926Y-77701413D01*
X118920182Y-77392731D01*
X119062253Y-77049741D01*
X119134680Y-76685625D01*
X119134680Y-76314375D01*
X120365320Y-76314375D01*
X120365320Y-76685625D01*
X120437747Y-77049741D01*
X120579818Y-77392731D01*
X120786074Y-77701413D01*
X121048587Y-77963926D01*
X121357269Y-78170182D01*
X121700259Y-78312253D01*
X122064375Y-78384680D01*
X122435625Y-78384680D01*
X122799741Y-78312253D01*
X123142731Y-78170182D01*
X123451413Y-77963926D01*
X123713926Y-77701413D01*
X123920182Y-77392731D01*
X124062253Y-77049741D01*
X124134680Y-76685625D01*
X124134680Y-76314375D01*
X125365320Y-76314375D01*
X125365320Y-76685625D01*
X125437747Y-77049741D01*
X125579818Y-77392731D01*
X125786074Y-77701413D01*
X126048587Y-77963926D01*
X126357269Y-78170182D01*
X126700259Y-78312253D01*
X127064375Y-78384680D01*
X127435625Y-78384680D01*
X127799741Y-78312253D01*
X128142731Y-78170182D01*
X128451413Y-77963926D01*
X128713926Y-77701413D01*
X128920182Y-77392731D01*
X129062253Y-77049741D01*
X129134680Y-76685625D01*
X129134680Y-76314375D01*
X129062253Y-75950259D01*
X128920182Y-75607269D01*
X128713926Y-75298587D01*
X128451413Y-75036074D01*
X128142731Y-74829818D01*
X127799741Y-74687747D01*
X127435625Y-74615320D01*
X127064375Y-74615320D01*
X126700259Y-74687747D01*
X126357269Y-74829818D01*
X126048587Y-75036074D01*
X125786074Y-75298587D01*
X125579818Y-75607269D01*
X125437747Y-75950259D01*
X125365320Y-76314375D01*
X124134680Y-76314375D01*
X124062253Y-75950259D01*
X123920182Y-75607269D01*
X123713926Y-75298587D01*
X123451413Y-75036074D01*
X123142731Y-74829818D01*
X122799741Y-74687747D01*
X122435625Y-74615320D01*
X122064375Y-74615320D01*
X121700259Y-74687747D01*
X121357269Y-74829818D01*
X121048587Y-75036074D01*
X120786074Y-75298587D01*
X120579818Y-75607269D01*
X120437747Y-75950259D01*
X120365320Y-76314375D01*
X119134680Y-76314375D01*
X119062253Y-75950259D01*
X118920182Y-75607269D01*
X118713926Y-75298587D01*
X118451413Y-75036074D01*
X118142731Y-74829818D01*
X117799741Y-74687747D01*
X117435625Y-74615320D01*
X117064375Y-74615320D01*
X116700259Y-74687747D01*
X116357269Y-74829818D01*
X116048587Y-75036074D01*
X115786074Y-75298587D01*
X115579818Y-75607269D01*
X115437747Y-75950259D01*
X115365320Y-76314375D01*
X114134680Y-76314375D01*
X114062253Y-75950259D01*
X113920182Y-75607269D01*
X113713926Y-75298587D01*
X113451413Y-75036074D01*
X113142731Y-74829818D01*
X112799741Y-74687747D01*
X112435625Y-74615320D01*
X112064375Y-74615320D01*
X111700259Y-74687747D01*
X111357269Y-74829818D01*
X111048587Y-75036074D01*
X110786074Y-75298587D01*
X110579818Y-75607269D01*
X110437747Y-75950259D01*
X110365320Y-76314375D01*
X109134680Y-76314375D01*
X109062253Y-75950259D01*
X108920182Y-75607269D01*
X108713926Y-75298587D01*
X108451413Y-75036074D01*
X108142731Y-74829818D01*
X107799741Y-74687747D01*
X107435625Y-74615320D01*
X107064375Y-74615320D01*
X106700259Y-74687747D01*
X106357269Y-74829818D01*
X106048587Y-75036074D01*
X105786074Y-75298587D01*
X105579818Y-75607269D01*
X105437747Y-75950259D01*
X105365320Y-76314375D01*
X100660000Y-76314375D01*
X100660000Y-76032279D01*
X100707670Y-75546107D01*
X100839489Y-75109502D01*
X101053600Y-74706815D01*
X101341848Y-74353388D01*
X101693261Y-74062673D01*
X102094439Y-73845758D01*
X102530113Y-73710894D01*
X103014344Y-73660000D01*
X104826519Y-73659998D01*
X105377218Y-73941926D01*
X105432880Y-73963863D01*
X105488212Y-73986568D01*
X105497057Y-73989156D01*
X106173780Y-74182053D01*
X106232616Y-74192756D01*
X106291332Y-74204286D01*
X106300509Y-74205106D01*
X106300511Y-74205106D01*
X107001814Y-74262886D01*
X107061621Y-74261957D01*
X107121446Y-74261863D01*
X107130609Y-74260885D01*
X107829780Y-74181347D01*
X107888246Y-74168824D01*
X107946932Y-74157108D01*
X107955731Y-74154369D01*
X108626137Y-73940544D01*
X108681072Y-73916897D01*
X108736353Y-73894010D01*
X108744452Y-73889614D01*
X109360557Y-73549644D01*
X109409843Y-73515783D01*
X109459634Y-73482589D01*
X109466725Y-73476704D01*
X110005063Y-73023541D01*
X110046836Y-72980749D01*
X110089229Y-72938519D01*
X110095042Y-72931368D01*
X110535107Y-72382271D01*
X110567760Y-72332200D01*
X110601156Y-72282521D01*
X110605469Y-72274378D01*
X110930501Y-71650262D01*
X110952806Y-71594803D01*
X110975917Y-71539582D01*
X110978566Y-71530755D01*
X111176182Y-70855395D01*
X111187302Y-70796603D01*
X111199235Y-70738002D01*
X111200120Y-70728829D01*
X111262795Y-70027945D01*
X111262283Y-69968134D01*
X111262607Y-69908309D01*
X111261693Y-69899140D01*
X111187038Y-69199432D01*
X111174920Y-69140866D01*
X111163617Y-69082113D01*
X111160939Y-69073296D01*
X111160939Y-69073294D01*
X111160937Y-69073288D01*
X110951799Y-68401412D01*
X110928530Y-68346299D01*
X110906036Y-68290875D01*
X110901697Y-68282746D01*
X110566037Y-67664282D01*
X110532531Y-67614776D01*
X110499676Y-67564739D01*
X110493840Y-67557608D01*
X110044446Y-67016118D01*
X110001964Y-66974065D01*
X109960014Y-66931361D01*
X109952904Y-66925499D01*
X109406893Y-66481610D01*
X109357049Y-66448607D01*
X109307606Y-66414866D01*
X109299493Y-66410496D01*
X108677661Y-66081116D01*
X108622350Y-66058420D01*
X108567303Y-66034929D01*
X108558495Y-66032218D01*
X107884529Y-65829891D01*
X107825828Y-65818364D01*
X107767299Y-65806019D01*
X107758133Y-65805070D01*
X107057704Y-65737504D01*
X106997859Y-65737598D01*
X106938071Y-65736857D01*
X106928896Y-65737707D01*
X106928892Y-65737707D01*
X106228684Y-65807474D01*
X106170026Y-65819185D01*
X106111202Y-65830076D01*
X106102366Y-65832692D01*
X105429040Y-66037137D01*
X105373791Y-66060011D01*
X105318187Y-66082127D01*
X105310027Y-66086409D01*
X104834891Y-66340002D01*
X103032280Y-66340000D01*
X102546106Y-66292330D01*
X102109503Y-66160512D01*
X101706814Y-65946399D01*
X101353387Y-65658150D01*
X101062673Y-65306739D01*
X100845760Y-64905564D01*
X100710894Y-64469886D01*
X100660000Y-63985664D01*
X100660000Y-63898061D01*
X110490010Y-63898061D01*
X110490010Y-64101939D01*
X110529784Y-64301898D01*
X110607805Y-64490256D01*
X110721073Y-64659774D01*
X110865236Y-64803937D01*
X111034754Y-64917205D01*
X111223112Y-64995226D01*
X111423071Y-65035000D01*
X111626949Y-65035000D01*
X111826908Y-64995226D01*
X112015266Y-64917205D01*
X112063464Y-64885000D01*
X113780912Y-64885000D01*
X113754774Y-64948102D01*
X113715000Y-65148061D01*
X113715000Y-65351939D01*
X113754774Y-65551898D01*
X113832795Y-65740256D01*
X113946063Y-65909774D01*
X114090226Y-66053937D01*
X114259744Y-66167205D01*
X114448102Y-66245226D01*
X114648061Y-66285000D01*
X114851939Y-66285000D01*
X115051898Y-66245226D01*
X115240256Y-66167205D01*
X115288454Y-66135000D01*
X116656260Y-66135000D01*
X116763788Y-66179540D01*
X116963747Y-66219314D01*
X117167625Y-66219314D01*
X117367584Y-66179540D01*
X117555942Y-66101519D01*
X117725460Y-65988251D01*
X117869623Y-65844088D01*
X117982891Y-65674570D01*
X118060912Y-65486212D01*
X118100686Y-65286253D01*
X118100686Y-65082375D01*
X118061426Y-64885000D01*
X118698529Y-64885000D01*
X118741998Y-64889281D01*
X118785467Y-64885000D01*
X118785475Y-64885000D01*
X118915488Y-64872195D01*
X119082311Y-64821589D01*
X119236057Y-64739411D01*
X119370815Y-64628817D01*
X119398532Y-64595044D01*
X121595049Y-62398528D01*
X121628817Y-62370815D01*
X121739411Y-62236057D01*
X121821589Y-62082311D01*
X121872195Y-61915488D01*
X121885000Y-61785475D01*
X121885000Y-61785465D01*
X121889281Y-61741999D01*
X121885000Y-61698532D01*
X121885000Y-55994216D01*
X121885363Y-55994759D01*
X122085241Y-56194637D01*
X122320273Y-56351680D01*
X122581426Y-56459853D01*
X122858665Y-56515000D01*
X123141335Y-56515000D01*
X123418574Y-56459853D01*
X123679727Y-56351680D01*
X123914759Y-56194637D01*
X124114637Y-55994759D01*
X124271680Y-55759727D01*
X124379853Y-55498574D01*
X124435000Y-55221335D01*
X124435000Y-54938665D01*
X124379853Y-54661426D01*
X124271680Y-54400273D01*
X124114637Y-54165241D01*
X123914759Y-53965363D01*
X123682241Y-53810000D01*
X123914759Y-53654637D01*
X124114637Y-53454759D01*
X124271680Y-53219727D01*
X124379853Y-52958574D01*
X124435000Y-52681335D01*
X124435000Y-52398665D01*
X124379853Y-52121426D01*
X124271680Y-51860273D01*
X124114637Y-51625241D01*
X123916039Y-51426643D01*
X123924482Y-51425812D01*
X124044180Y-51389502D01*
X124154494Y-51330537D01*
X124251185Y-51251185D01*
X124330537Y-51154494D01*
X124389502Y-51044180D01*
X124425812Y-50924482D01*
X124438072Y-50800000D01*
X124435000Y-50285750D01*
X124276250Y-50127000D01*
X123127000Y-50127000D01*
X123127000Y-50147000D01*
X122873000Y-50147000D01*
X122873000Y-50127000D01*
X121723750Y-50127000D01*
X121565000Y-50285750D01*
X121561928Y-50800000D01*
X121564109Y-50822142D01*
X121490256Y-50772795D01*
X121301898Y-50694774D01*
X121101939Y-50655000D01*
X120898061Y-50655000D01*
X120698102Y-50694774D01*
X120509744Y-50772795D01*
X120340226Y-50886063D01*
X120196063Y-51030226D01*
X120082795Y-51199744D01*
X120004774Y-51388102D01*
X119965000Y-51588061D01*
X119965000Y-51791939D01*
X119969791Y-51816026D01*
X119944039Y-51777485D01*
X119772019Y-51605465D01*
X119569744Y-51470309D01*
X119344988Y-51377212D01*
X119106389Y-51329752D01*
X119046306Y-51329752D01*
X119092585Y-51283473D01*
X118975015Y-51165903D01*
X119197993Y-51119322D01*
X119238075Y-51044341D01*
X119322970Y-50817610D01*
X119362000Y-50578673D01*
X119353667Y-50336713D01*
X119298290Y-50101028D01*
X119197997Y-49880676D01*
X118975705Y-49833404D01*
X118309109Y-50500000D01*
X118323252Y-50514143D01*
X118207125Y-50630269D01*
X118113592Y-50443204D01*
X118095943Y-50416789D01*
X118077866Y-50399671D01*
X118056796Y-50386408D01*
X118042403Y-50379211D01*
X118115362Y-50306253D01*
X118129504Y-50320395D01*
X118796100Y-49653799D01*
X118748828Y-49431507D01*
X118528476Y-49331214D01*
X118292791Y-49275837D01*
X118050831Y-49267504D01*
X117811894Y-49306534D01*
X117585163Y-49391429D01*
X117510182Y-49431511D01*
X117463601Y-49654489D01*
X117346031Y-49536919D01*
X117299752Y-49583198D01*
X117299752Y-49523115D01*
X117252292Y-49284516D01*
X117217285Y-49200000D01*
X121561928Y-49200000D01*
X121565000Y-49714250D01*
X121723750Y-49873000D01*
X122873000Y-49873000D01*
X122873000Y-48723750D01*
X123127000Y-48723750D01*
X123127000Y-49873000D01*
X124276250Y-49873000D01*
X124435000Y-49714250D01*
X124438072Y-49200000D01*
X124425812Y-49075518D01*
X124389502Y-48955820D01*
X124330537Y-48845506D01*
X124251185Y-48748815D01*
X124154494Y-48669463D01*
X124044180Y-48610498D01*
X123924482Y-48574188D01*
X123800000Y-48561928D01*
X123285750Y-48565000D01*
X123127000Y-48723750D01*
X122873000Y-48723750D01*
X122714250Y-48565000D01*
X122200000Y-48561928D01*
X122075518Y-48574188D01*
X121955820Y-48610498D01*
X121845506Y-48669463D01*
X121748815Y-48748815D01*
X121669463Y-48845506D01*
X121610498Y-48955820D01*
X121574188Y-49075518D01*
X121561928Y-49200000D01*
X117217285Y-49200000D01*
X117159195Y-49059760D01*
X117024039Y-48857485D01*
X116995770Y-48829216D01*
X117166650Y-48795226D01*
X117355008Y-48717205D01*
X117524526Y-48603937D01*
X117668689Y-48459774D01*
X117781957Y-48290256D01*
X117859978Y-48101898D01*
X117899752Y-47901939D01*
X117899752Y-47698061D01*
X117859978Y-47498102D01*
X117781957Y-47309744D01*
X117668689Y-47140226D01*
X117524526Y-46996063D01*
X117355008Y-46882795D01*
X117166650Y-46804774D01*
X116966691Y-46765000D01*
X116762813Y-46765000D01*
X116562854Y-46804774D01*
X116374496Y-46882795D01*
X116355874Y-46895238D01*
X115754612Y-46895238D01*
X115706414Y-46863033D01*
X115518056Y-46785012D01*
X115318097Y-46745238D01*
X115114219Y-46745238D01*
X114914260Y-46785012D01*
X114725902Y-46863033D01*
X114556384Y-46976301D01*
X114412221Y-47120464D01*
X114298953Y-47289982D01*
X114220932Y-47478340D01*
X114181158Y-47678299D01*
X114181158Y-47882177D01*
X114220932Y-48082136D01*
X114298953Y-48270494D01*
X114412221Y-48440012D01*
X114556384Y-48584175D01*
X114725902Y-48697443D01*
X114914260Y-48775464D01*
X115114219Y-48815238D01*
X115147712Y-48815238D01*
X115105465Y-48857485D01*
X114970309Y-49059760D01*
X114877212Y-49284516D01*
X114829752Y-49523115D01*
X114829752Y-49583199D01*
X114688959Y-49442406D01*
X114548027Y-49326747D01*
X114333478Y-49212068D01*
X114100681Y-49141449D01*
X113858579Y-49117604D01*
X113616477Y-49141449D01*
X113383680Y-49212068D01*
X113169131Y-49326747D01*
X112981078Y-49481078D01*
X112826747Y-49669131D01*
X112712068Y-49883680D01*
X112641449Y-50116477D01*
X112617604Y-50358579D01*
X112641449Y-50600681D01*
X112712068Y-50833478D01*
X112826747Y-51048027D01*
X112942406Y-51188959D01*
X113083199Y-51329752D01*
X113023115Y-51329752D01*
X112784516Y-51377212D01*
X112559760Y-51470309D01*
X112357485Y-51605465D01*
X112185465Y-51777485D01*
X112050309Y-51979760D01*
X111957212Y-52204516D01*
X111909752Y-52443115D01*
X111909752Y-52686389D01*
X111957212Y-52924988D01*
X112050309Y-53149744D01*
X112185465Y-53352019D01*
X112357485Y-53524039D01*
X112372291Y-53533932D01*
X112301898Y-53504774D01*
X112101939Y-53465000D01*
X111898061Y-53465000D01*
X111698102Y-53504774D01*
X111509744Y-53582795D01*
X111340226Y-53696063D01*
X111196063Y-53840226D01*
X111082795Y-54009744D01*
X111004774Y-54198102D01*
X110965000Y-54398061D01*
X110965000Y-54601939D01*
X111004774Y-54801898D01*
X111082795Y-54990256D01*
X111196063Y-55159774D01*
X111340226Y-55303937D01*
X111509744Y-55417205D01*
X111698102Y-55495226D01*
X111898061Y-55535000D01*
X112101939Y-55535000D01*
X112301898Y-55495226D01*
X112490256Y-55417205D01*
X112613285Y-55335000D01*
X112986075Y-55335000D01*
X113040713Y-55416771D01*
X113212733Y-55588791D01*
X113415008Y-55723947D01*
X113639764Y-55817044D01*
X113878363Y-55864504D01*
X114121637Y-55864504D01*
X114360236Y-55817044D01*
X114584992Y-55723947D01*
X114787267Y-55588791D01*
X114829752Y-55546306D01*
X114829752Y-55606389D01*
X114877212Y-55844988D01*
X114970309Y-56069744D01*
X115105465Y-56272019D01*
X115277485Y-56444039D01*
X115479760Y-56579195D01*
X115704516Y-56672292D01*
X115943115Y-56719752D01*
X116186389Y-56719752D01*
X116424988Y-56672292D01*
X116649744Y-56579195D01*
X116852019Y-56444039D01*
X117024039Y-56272019D01*
X117159195Y-56069744D01*
X117252292Y-55844988D01*
X117299752Y-55606389D01*
X117299752Y-55546306D01*
X117342237Y-55588791D01*
X117544512Y-55723947D01*
X117769268Y-55817044D01*
X118007867Y-55864504D01*
X118251141Y-55864504D01*
X118489740Y-55817044D01*
X118714496Y-55723947D01*
X118916771Y-55588791D01*
X119088791Y-55416771D01*
X119223947Y-55214496D01*
X119317044Y-54989740D01*
X119364504Y-54751141D01*
X119364504Y-54507867D01*
X119317044Y-54269268D01*
X119223947Y-54044512D01*
X119088791Y-53842237D01*
X119046306Y-53799752D01*
X119106389Y-53799752D01*
X119344988Y-53752292D01*
X119569744Y-53659195D01*
X119772019Y-53524039D01*
X119944039Y-53352019D01*
X120079195Y-53149744D01*
X120115000Y-53063303D01*
X120115001Y-61375418D01*
X118375420Y-63115000D01*
X112063464Y-63115000D01*
X112015266Y-63082795D01*
X111826908Y-63004774D01*
X111626949Y-62965000D01*
X111423071Y-62965000D01*
X111223112Y-63004774D01*
X111034754Y-63082795D01*
X110865236Y-63196063D01*
X110721073Y-63340226D01*
X110607805Y-63509744D01*
X110529784Y-63698102D01*
X110490010Y-63898061D01*
X100660000Y-63898061D01*
X100660000Y-57898061D01*
X107465000Y-57898061D01*
X107465000Y-58101939D01*
X107504774Y-58301898D01*
X107582795Y-58490256D01*
X107696063Y-58659774D01*
X107840226Y-58803937D01*
X108009744Y-58917205D01*
X108198102Y-58995226D01*
X108398061Y-59035000D01*
X108601939Y-59035000D01*
X108801898Y-58995226D01*
X108990256Y-58917205D01*
X109113285Y-58835000D01*
X111742267Y-58835000D01*
X111898101Y-58899549D01*
X112098060Y-58939323D01*
X112301938Y-58939323D01*
X112501897Y-58899549D01*
X112690255Y-58821528D01*
X112859773Y-58708260D01*
X113003936Y-58564097D01*
X113117204Y-58394579D01*
X113195225Y-58206221D01*
X113234999Y-58006262D01*
X113234999Y-57802384D01*
X113195225Y-57602425D01*
X113117204Y-57414067D01*
X113003936Y-57244549D01*
X112859773Y-57100386D01*
X112690255Y-56987118D01*
X112501897Y-56909097D01*
X112301938Y-56869323D01*
X112098060Y-56869323D01*
X111898101Y-56909097D01*
X111709743Y-56987118D01*
X111540225Y-57100386D01*
X111475611Y-57165000D01*
X109113285Y-57165000D01*
X108990256Y-57082795D01*
X108801898Y-57004774D01*
X108601939Y-56965000D01*
X108398061Y-56965000D01*
X108198102Y-57004774D01*
X108009744Y-57082795D01*
X107840226Y-57196063D01*
X107696063Y-57340226D01*
X107582795Y-57509744D01*
X107504774Y-57698102D01*
X107465000Y-57898061D01*
X100660000Y-57898061D01*
X100660000Y-52398061D01*
X104465000Y-52398061D01*
X104465000Y-52601939D01*
X104504774Y-52801898D01*
X104582795Y-52990256D01*
X104696063Y-53159774D01*
X104840226Y-53303937D01*
X105009744Y-53417205D01*
X105198102Y-53495226D01*
X105398061Y-53535000D01*
X105601939Y-53535000D01*
X105801898Y-53495226D01*
X105990256Y-53417205D01*
X106159774Y-53303937D01*
X106303937Y-53159774D01*
X106417205Y-52990256D01*
X106495226Y-52801898D01*
X106535000Y-52601939D01*
X106535000Y-52398061D01*
X106495226Y-52198102D01*
X106417205Y-52009744D01*
X106343348Y-51899209D01*
X106343348Y-51057008D01*
X106425553Y-50933979D01*
X106503574Y-50745621D01*
X106543348Y-50545662D01*
X106543348Y-50341784D01*
X106503574Y-50141825D01*
X106425553Y-49953467D01*
X106312285Y-49783949D01*
X106168122Y-49639786D01*
X105998604Y-49526518D01*
X105810246Y-49448497D01*
X105610287Y-49408723D01*
X105406409Y-49408723D01*
X105206450Y-49448497D01*
X105018092Y-49526518D01*
X104848574Y-49639786D01*
X104704411Y-49783949D01*
X104591143Y-49953467D01*
X104513122Y-50141825D01*
X104473348Y-50341784D01*
X104473348Y-50545662D01*
X104513122Y-50745621D01*
X104591143Y-50933979D01*
X104673348Y-51057008D01*
X104673349Y-51874220D01*
X104582795Y-52009744D01*
X104504774Y-52198102D01*
X104465000Y-52398061D01*
X100660000Y-52398061D01*
X100660000Y-43032279D01*
X100707670Y-42546107D01*
X100839489Y-42109502D01*
X101053600Y-41706815D01*
X101341848Y-41353388D01*
X101693261Y-41062673D01*
X102094439Y-40845758D01*
X102530113Y-40710894D01*
X103014344Y-40660000D01*
X105088421Y-40660000D01*
X104404951Y-41343471D01*
G37*
X104404951Y-41343471D02*
X104371184Y-41371183D01*
X104343471Y-41404951D01*
X104343468Y-41404954D01*
X104260590Y-41505941D01*
X104178412Y-41659687D01*
X104127805Y-41826510D01*
X104110719Y-42000000D01*
X104115001Y-42043478D01*
X104115001Y-42461545D01*
X104082795Y-42509744D01*
X104004774Y-42698102D01*
X103965000Y-42898061D01*
X103965000Y-43101939D01*
X104004774Y-43301898D01*
X104074292Y-43469728D01*
X103898102Y-43504774D01*
X103709744Y-43582795D01*
X103540226Y-43696063D01*
X103396063Y-43840226D01*
X103282795Y-44009744D01*
X103204774Y-44198102D01*
X103165000Y-44398061D01*
X103165000Y-44601939D01*
X103204774Y-44801898D01*
X103282795Y-44990256D01*
X103396063Y-45159774D01*
X103540226Y-45303937D01*
X103709744Y-45417205D01*
X103898102Y-45495226D01*
X104098061Y-45535000D01*
X104301939Y-45535000D01*
X104501898Y-45495226D01*
X104690256Y-45417205D01*
X104807021Y-45339185D01*
X104808001Y-45339282D01*
X104851470Y-45335001D01*
X104851478Y-45335001D01*
X104981491Y-45322196D01*
X105148314Y-45271590D01*
X105302060Y-45189412D01*
X105436818Y-45078818D01*
X105464535Y-45045045D01*
X106064533Y-44445048D01*
X106064537Y-44445043D01*
X107474582Y-43034999D01*
X117364506Y-43034999D01*
X117364526Y-43035001D01*
X117364534Y-43035001D01*
X117408003Y-43039282D01*
X117451472Y-43035001D01*
X123549118Y-43035001D01*
X126206961Y-45692845D01*
X126204784Y-45698102D01*
X126165010Y-45898061D01*
X126165010Y-46101939D01*
X126204784Y-46301898D01*
X126282805Y-46490256D01*
X126396073Y-46659774D01*
X126540236Y-46803937D01*
X126709754Y-46917205D01*
X126898112Y-46995226D01*
X127098071Y-47035000D01*
X127301949Y-47035000D01*
X127501908Y-46995226D01*
X127690266Y-46917205D01*
X127859784Y-46803937D01*
X128003947Y-46659774D01*
X128117215Y-46490256D01*
X128195236Y-46301898D01*
X128235010Y-46101939D01*
X128235010Y-45898061D01*
X128195236Y-45698102D01*
X128117215Y-45509744D01*
X128086404Y-45463631D01*
X128089291Y-45434314D01*
X128085010Y-45390848D01*
X128085010Y-45390838D01*
X128072205Y-45260825D01*
X128021599Y-45094002D01*
X127939421Y-44940256D01*
X127915220Y-44910767D01*
X127856542Y-44839268D01*
X127856540Y-44839266D01*
X127828827Y-44805498D01*
X127795059Y-44777785D01*
X124572228Y-41554955D01*
X124544513Y-41521184D01*
X124409755Y-41410590D01*
X124256009Y-41328412D01*
X124089186Y-41277806D01*
X123959173Y-41265001D01*
X123959165Y-41265001D01*
X123915696Y-41260720D01*
X123872227Y-41265001D01*
X121735000Y-41265001D01*
X121735000Y-41198061D01*
X121695226Y-40998102D01*
X121617205Y-40809744D01*
X121517150Y-40660000D01*
X131467721Y-40660000D01*
X131953893Y-40707670D01*
X132390498Y-40839489D01*
X132793185Y-41053600D01*
X133146612Y-41341848D01*
X133437327Y-41693261D01*
X133654242Y-42094439D01*
X133789106Y-42530113D01*
X133840001Y-43014353D01*
X133840000Y-63967721D01*
X133792330Y-64453894D01*
X133660512Y-64890497D01*
X133446399Y-65293186D01*
X133158150Y-65646613D01*
X132806739Y-65937327D01*
X132405564Y-66154240D01*
X131969886Y-66289106D01*
X131485664Y-66340000D01*
X129173481Y-66340002D01*
X128622782Y-66058074D01*
X128567106Y-66036131D01*
X128511787Y-66013432D01*
X128502943Y-66010844D01*
X127826219Y-65817947D01*
X127767397Y-65807247D01*
X127708668Y-65795714D01*
X127699489Y-65794894D01*
X126998185Y-65737114D01*
X126938378Y-65738043D01*
X126878555Y-65738137D01*
X126869392Y-65739115D01*
X126869390Y-65739115D01*
X126170220Y-65818653D01*
X126111761Y-65831175D01*
X126053068Y-65842892D01*
X126044269Y-65845631D01*
X125373863Y-66059456D01*
X125318896Y-66083117D01*
X125263647Y-66105991D01*
X125255553Y-66110384D01*
X125255549Y-66110386D01*
X125255548Y-66110387D01*
X124639442Y-66450356D01*
X124590100Y-66484256D01*
X124540366Y-66517411D01*
X124533275Y-66523296D01*
X123994937Y-66976459D01*
X123953164Y-67019251D01*
X123910771Y-67061481D01*
X123904958Y-67068632D01*
X123464892Y-67617729D01*
X123432222Y-67667826D01*
X123398844Y-67717479D01*
X123394531Y-67725622D01*
X123069499Y-68349738D01*
X123047179Y-68405234D01*
X123024083Y-68460419D01*
X123021433Y-68469245D01*
X122823818Y-69144606D01*
X122812702Y-69203377D01*
X122800765Y-69261998D01*
X122799880Y-69271170D01*
X122737205Y-69972055D01*
X122737717Y-70031866D01*
X122737393Y-70091690D01*
X122738307Y-70100860D01*
X122812962Y-70800568D01*
X122825079Y-70859128D01*
X122836383Y-70917887D01*
X122839061Y-70926705D01*
X123048201Y-71598588D01*
X123071459Y-71653673D01*
X123093964Y-71709125D01*
X123098303Y-71717254D01*
X123433963Y-72335719D01*
X123467480Y-72385242D01*
X123500324Y-72435261D01*
X123506160Y-72442393D01*
X123955554Y-72983882D01*
X123998036Y-73025935D01*
X124039986Y-73068639D01*
X124047096Y-73074501D01*
X124593107Y-73518390D01*
X124642967Y-73551404D01*
X124692394Y-73585134D01*
X124700508Y-73589504D01*
X125322339Y-73918884D01*
X125377664Y-73941586D01*
X125432698Y-73965071D01*
X125441505Y-73967782D01*
X126115472Y-74170109D01*
X126174159Y-74181633D01*
X126232701Y-74193981D01*
X126241867Y-74194930D01*
X126942296Y-74262496D01*
X127002141Y-74262402D01*
X127061928Y-74263143D01*
X127071104Y-74262293D01*
X127071106Y-74262293D01*
X127771316Y-74192526D01*
X127829974Y-74180815D01*
X127888798Y-74169924D01*
X127897634Y-74167308D01*
X128570960Y-73962863D01*
X128626209Y-73939989D01*
X128681813Y-73917873D01*
X128689973Y-73913591D01*
X129165108Y-73659998D01*
X131467720Y-73660000D01*
X131953893Y-73707670D01*
X132390498Y-73839489D01*
X132793185Y-74053600D01*
X133146612Y-74341848D01*
X133437327Y-74693261D01*
X133654242Y-75094439D01*
X133789106Y-75530113D01*
X133840001Y-76014353D01*
X133840000Y-96967721D01*
X133792330Y-97453894D01*
X133660512Y-97890497D01*
X133446399Y-98293186D01*
X133158150Y-98646613D01*
X132806739Y-98937327D01*
X132405564Y-99154240D01*
X131969886Y-99289106D01*
X131485664Y-99340000D01*
X103032279Y-99340000D01*
X102546106Y-99292330D01*
X102109503Y-99160512D01*
X101706814Y-98946399D01*
X101353387Y-98658150D01*
X101062673Y-98306739D01*
X100845760Y-97905564D01*
X100710894Y-97469886D01*
X100660000Y-96985664D01*
X100660000Y-96314375D01*
X105365320Y-96314375D01*
X105365320Y-96685625D01*
X105437747Y-97049741D01*
X105579818Y-97392731D01*
X105786074Y-97701413D01*
X106048587Y-97963926D01*
X106357269Y-98170182D01*
X106700259Y-98312253D01*
X107064375Y-98384680D01*
X107435625Y-98384680D01*
X107799741Y-98312253D01*
X108142731Y-98170182D01*
X108451413Y-97963926D01*
X108713926Y-97701413D01*
X108920182Y-97392731D01*
X109062253Y-97049741D01*
X109134680Y-96685625D01*
X109134680Y-96314375D01*
X110365320Y-96314375D01*
X110365320Y-96685625D01*
X110437747Y-97049741D01*
X110579818Y-97392731D01*
X110786074Y-97701413D01*
X111048587Y-97963926D01*
X111357269Y-98170182D01*
X111700259Y-98312253D01*
X112064375Y-98384680D01*
X112435625Y-98384680D01*
X112799741Y-98312253D01*
X113142731Y-98170182D01*
X113451413Y-97963926D01*
X113713926Y-97701413D01*
X113920182Y-97392731D01*
X114062253Y-97049741D01*
X114134680Y-96685625D01*
X114134680Y-96314375D01*
X115365320Y-96314375D01*
X115365320Y-96685625D01*
X115437747Y-97049741D01*
X115579818Y-97392731D01*
X115786074Y-97701413D01*
X116048587Y-97963926D01*
X116357269Y-98170182D01*
X116700259Y-98312253D01*
X117064375Y-98384680D01*
X117435625Y-98384680D01*
X117799741Y-98312253D01*
X118142731Y-98170182D01*
X118451413Y-97963926D01*
X118713926Y-97701413D01*
X118920182Y-97392731D01*
X119062253Y-97049741D01*
X119134680Y-96685625D01*
X119134680Y-96314375D01*
X119062253Y-95950259D01*
X118920182Y-95607269D01*
X118713926Y-95298587D01*
X118451413Y-95036074D01*
X118142731Y-94829818D01*
X117799741Y-94687747D01*
X117435625Y-94615320D01*
X117064375Y-94615320D01*
X116700259Y-94687747D01*
X116357269Y-94829818D01*
X116048587Y-95036074D01*
X115786074Y-95298587D01*
X115579818Y-95607269D01*
X115437747Y-95950259D01*
X115365320Y-96314375D01*
X114134680Y-96314375D01*
X114062253Y-95950259D01*
X113920182Y-95607269D01*
X113713926Y-95298587D01*
X113451413Y-95036074D01*
X113142731Y-94829818D01*
X112799741Y-94687747D01*
X112435625Y-94615320D01*
X112064375Y-94615320D01*
X111700259Y-94687747D01*
X111357269Y-94829818D01*
X111048587Y-95036074D01*
X110786074Y-95298587D01*
X110579818Y-95607269D01*
X110437747Y-95950259D01*
X110365320Y-96314375D01*
X109134680Y-96314375D01*
X109062253Y-95950259D01*
X108920182Y-95607269D01*
X108713926Y-95298587D01*
X108451413Y-95036074D01*
X108142731Y-94829818D01*
X107799741Y-94687747D01*
X107435625Y-94615320D01*
X107064375Y-94615320D01*
X106700259Y-94687747D01*
X106357269Y-94829818D01*
X106048587Y-95036074D01*
X105786074Y-95298587D01*
X105579818Y-95607269D01*
X105437747Y-95950259D01*
X105365320Y-96314375D01*
X100660000Y-96314375D01*
X100660000Y-90425000D01*
X117661928Y-90425000D01*
X117674188Y-90549482D01*
X117710498Y-90669180D01*
X117769463Y-90779494D01*
X117848815Y-90876185D01*
X117945506Y-90955537D01*
X118055820Y-91014502D01*
X118175518Y-91050812D01*
X118300000Y-91063072D01*
X118714250Y-91060000D01*
X118873000Y-90901250D01*
X118873000Y-90064500D01*
X119127000Y-90064500D01*
X119127000Y-90901250D01*
X119285750Y-91060000D01*
X119700000Y-91063072D01*
X119824482Y-91050812D01*
X119944180Y-91014502D01*
X120054494Y-90955537D01*
X120151185Y-90876185D01*
X120230537Y-90779494D01*
X120289502Y-90669180D01*
X120325812Y-90549482D01*
X120338072Y-90425000D01*
X120335000Y-90223250D01*
X120176250Y-90064500D01*
X119127000Y-90064500D01*
X118873000Y-90064500D01*
X117823750Y-90064500D01*
X117665000Y-90223250D01*
X117661928Y-90425000D01*
X100660000Y-90425000D01*
X100660000Y-80898061D01*
X112965000Y-80898061D01*
X112965000Y-81101939D01*
X113004774Y-81301898D01*
X113082795Y-81490256D01*
X113196063Y-81659774D01*
X113340226Y-81803937D01*
X113509744Y-81917205D01*
X113698102Y-81995226D01*
X113898061Y-82035000D01*
X114101939Y-82035000D01*
X114301898Y-81995226D01*
X114490256Y-81917205D01*
X114538454Y-81885000D01*
X120502048Y-81885000D01*
X121582742Y-82965694D01*
X121456291Y-83004053D01*
X121365653Y-83052500D01*
X119884347Y-83052500D01*
X119793709Y-83004053D01*
X119628285Y-82953872D01*
X119456250Y-82936928D01*
X119126007Y-82936928D01*
X118594034Y-82404956D01*
X118566317Y-82371183D01*
X118431559Y-82260589D01*
X118277813Y-82178411D01*
X118110990Y-82127805D01*
X117980977Y-82115000D01*
X117980969Y-82115000D01*
X117937500Y-82110719D01*
X117894031Y-82115000D01*
X117538454Y-82115000D01*
X117490256Y-82082795D01*
X117301898Y-82004774D01*
X117101939Y-81965000D01*
X116898061Y-81965000D01*
X116698102Y-82004774D01*
X116509744Y-82082795D01*
X116340226Y-82196063D01*
X116196063Y-82340226D01*
X116082795Y-82509744D01*
X116004774Y-82698102D01*
X115965000Y-82898061D01*
X115965000Y-83101939D01*
X116004774Y-83301898D01*
X116082795Y-83490256D01*
X116196063Y-83659774D01*
X116340226Y-83803937D01*
X116509744Y-83917205D01*
X116698102Y-83995226D01*
X116898061Y-84035000D01*
X117101939Y-84035000D01*
X117301898Y-83995226D01*
X117490256Y-83917205D01*
X117538454Y-83885000D01*
X117570922Y-83885000D01*
X117661928Y-83976006D01*
X117661928Y-84306250D01*
X117678872Y-84478285D01*
X117729053Y-84643709D01*
X117810542Y-84796164D01*
X117920208Y-84929792D01*
X117926564Y-84935008D01*
X117848815Y-84998815D01*
X117769463Y-85095506D01*
X117710498Y-85205820D01*
X117674188Y-85325518D01*
X117661928Y-85450000D01*
X117665000Y-85651750D01*
X117823750Y-85810500D01*
X118873000Y-85810500D01*
X118873000Y-85790500D01*
X119127000Y-85790500D01*
X119127000Y-85810500D01*
X120176250Y-85810500D01*
X120335000Y-85651750D01*
X120338072Y-85450000D01*
X120325812Y-85325518D01*
X120289502Y-85205820D01*
X120230537Y-85095506D01*
X120211657Y-85072500D01*
X121168327Y-85072500D01*
X121060542Y-85203836D01*
X120979053Y-85356291D01*
X120928872Y-85521715D01*
X120911928Y-85693750D01*
X120911928Y-86181250D01*
X120928872Y-86353285D01*
X120979053Y-86518709D01*
X121060542Y-86671164D01*
X121170208Y-86804792D01*
X121240001Y-86862069D01*
X121240000Y-87052500D01*
X119884347Y-87052500D01*
X119860658Y-87039838D01*
X119944180Y-87014502D01*
X120054494Y-86955537D01*
X120151185Y-86876185D01*
X120230537Y-86779494D01*
X120289502Y-86669180D01*
X120325812Y-86549482D01*
X120338072Y-86425000D01*
X120335000Y-86223250D01*
X120176250Y-86064500D01*
X119127000Y-86064500D01*
X119127000Y-86084500D01*
X118873000Y-86084500D01*
X118873000Y-86064500D01*
X117823750Y-86064500D01*
X117665000Y-86223250D01*
X117661928Y-86425000D01*
X117674188Y-86549482D01*
X117710498Y-86669180D01*
X117769463Y-86779494D01*
X117848815Y-86876185D01*
X117945506Y-86955537D01*
X118055820Y-87014502D01*
X118139342Y-87039838D01*
X118053836Y-87085542D01*
X117920208Y-87195208D01*
X117810542Y-87328836D01*
X117729053Y-87481291D01*
X117678872Y-87646715D01*
X117661928Y-87818750D01*
X117661928Y-88306250D01*
X117678872Y-88478285D01*
X117729053Y-88643709D01*
X117810542Y-88796164D01*
X117920208Y-88929792D01*
X117926564Y-88935008D01*
X117848815Y-88998815D01*
X117769463Y-89095506D01*
X117710498Y-89205820D01*
X117674188Y-89325518D01*
X117661928Y-89450000D01*
X117665000Y-89651750D01*
X117823750Y-89810500D01*
X118873000Y-89810500D01*
X118873000Y-89790500D01*
X119127000Y-89790500D01*
X119127000Y-89810500D01*
X120176250Y-89810500D01*
X120335000Y-89651750D01*
X120338072Y-89450000D01*
X120325812Y-89325518D01*
X120289502Y-89205820D01*
X120230537Y-89095506D01*
X120211657Y-89072500D01*
X121168327Y-89072500D01*
X121060542Y-89203836D01*
X120979053Y-89356291D01*
X120928872Y-89521715D01*
X120911928Y-89693750D01*
X120911928Y-90181250D01*
X120928872Y-90353285D01*
X120979053Y-90518709D01*
X121060542Y-90671164D01*
X121115000Y-90737521D01*
X121115000Y-91768251D01*
X121131423Y-91934998D01*
X121140121Y-91963673D01*
X121153392Y-92098408D01*
X121202150Y-92259142D01*
X121281329Y-92407275D01*
X121357426Y-92500000D01*
X121281329Y-92592725D01*
X121202150Y-92740858D01*
X121153392Y-92901592D01*
X121140121Y-93036331D01*
X121131424Y-93065001D01*
X121115001Y-93231748D01*
X121115000Y-94991698D01*
X121048587Y-95036074D01*
X120786074Y-95298587D01*
X120579818Y-95607269D01*
X120437747Y-95950259D01*
X120365320Y-96314375D01*
X120365320Y-96685625D01*
X120437747Y-97049741D01*
X120579818Y-97392731D01*
X120786074Y-97701413D01*
X121048587Y-97963926D01*
X121357269Y-98170182D01*
X121700259Y-98312253D01*
X122064375Y-98384680D01*
X122435625Y-98384680D01*
X122799741Y-98312253D01*
X123142731Y-98170182D01*
X123451413Y-97963926D01*
X123713926Y-97701413D01*
X123920182Y-97392731D01*
X124062253Y-97049741D01*
X124134680Y-96685625D01*
X124134680Y-96314375D01*
X124062253Y-95950259D01*
X123920182Y-95607269D01*
X123713926Y-95298587D01*
X123451413Y-95036074D01*
X123385000Y-94991698D01*
X123385000Y-93231748D01*
X123368577Y-93065001D01*
X123359878Y-93036326D01*
X123346608Y-92901592D01*
X123297850Y-92740858D01*
X123218671Y-92592725D01*
X123142574Y-92500000D01*
X123218671Y-92407275D01*
X123297850Y-92259142D01*
X123346608Y-92098408D01*
X123359878Y-91963674D01*
X123368577Y-91934999D01*
X123385000Y-91768252D01*
X123385000Y-90737521D01*
X123439458Y-90671164D01*
X123520947Y-90518709D01*
X123571128Y-90353285D01*
X123588072Y-90181250D01*
X123588072Y-89693750D01*
X123571128Y-89521715D01*
X123520947Y-89356291D01*
X123439458Y-89203836D01*
X123329792Y-89070208D01*
X123244244Y-89000000D01*
X123329792Y-88929792D01*
X123439458Y-88796164D01*
X123520947Y-88643709D01*
X123571128Y-88478285D01*
X123588072Y-88306250D01*
X123588072Y-87818750D01*
X123571128Y-87646715D01*
X123520947Y-87481291D01*
X123439458Y-87328836D01*
X123329792Y-87195208D01*
X123260000Y-87137931D01*
X123260000Y-86862069D01*
X123329792Y-86804792D01*
X123439458Y-86671164D01*
X123520947Y-86518709D01*
X123571128Y-86353285D01*
X123588072Y-86181250D01*
X123588072Y-85693750D01*
X123571128Y-85521715D01*
X123520947Y-85356291D01*
X123439458Y-85203836D01*
X123329792Y-85070208D01*
X123244244Y-85000000D01*
X123329792Y-84929792D01*
X123427627Y-84810580D01*
X124115000Y-85497953D01*
X124115001Y-90994021D01*
X124110719Y-91037500D01*
X124127805Y-91210990D01*
X124178412Y-91377813D01*
X124260590Y-91531559D01*
X124343468Y-91632546D01*
X124343471Y-91632549D01*
X124371184Y-91666317D01*
X124404951Y-91694029D01*
X126115001Y-93404080D01*
X126115000Y-94991698D01*
X126048587Y-95036074D01*
X125786074Y-95298587D01*
X125579818Y-95607269D01*
X125437747Y-95950259D01*
X125365320Y-96314375D01*
X125365320Y-96685625D01*
X125437747Y-97049741D01*
X125579818Y-97392731D01*
X125786074Y-97701413D01*
X126048587Y-97963926D01*
X126357269Y-98170182D01*
X126700259Y-98312253D01*
X127064375Y-98384680D01*
X127435625Y-98384680D01*
X127799741Y-98312253D01*
X128142731Y-98170182D01*
X128451413Y-97963926D01*
X128713926Y-97701413D01*
X128920182Y-97392731D01*
X129062253Y-97049741D01*
X129134680Y-96685625D01*
X129134680Y-96314375D01*
X129062253Y-95950259D01*
X128920182Y-95607269D01*
X128713926Y-95298587D01*
X128451413Y-95036074D01*
X128385000Y-94991698D01*
X128385000Y-93231748D01*
X128368577Y-93065001D01*
X128359878Y-93036326D01*
X128346608Y-92901592D01*
X128297850Y-92740858D01*
X128218671Y-92592725D01*
X128142574Y-92500000D01*
X128218671Y-92407275D01*
X128297850Y-92259142D01*
X128346608Y-92098408D01*
X128359878Y-91963674D01*
X128368577Y-91934999D01*
X128385000Y-91768252D01*
X128385000Y-90737521D01*
X128439458Y-90671164D01*
X128520947Y-90518709D01*
X128549373Y-90425000D01*
X128661928Y-90425000D01*
X128674188Y-90549482D01*
X128710498Y-90669180D01*
X128769463Y-90779494D01*
X128848815Y-90876185D01*
X128945506Y-90955537D01*
X129055820Y-91014502D01*
X129175518Y-91050812D01*
X129300000Y-91063072D01*
X129714250Y-91060000D01*
X129873000Y-90901250D01*
X129873000Y-90064500D01*
X130127000Y-90064500D01*
X130127000Y-90901250D01*
X130285750Y-91060000D01*
X130700000Y-91063072D01*
X130824482Y-91050812D01*
X130944180Y-91014502D01*
X131054494Y-90955537D01*
X131151185Y-90876185D01*
X131230537Y-90779494D01*
X131289502Y-90669180D01*
X131325812Y-90549482D01*
X131338072Y-90425000D01*
X131335000Y-90223250D01*
X131176250Y-90064500D01*
X130127000Y-90064500D01*
X129873000Y-90064500D01*
X128823750Y-90064500D01*
X128665000Y-90223250D01*
X128661928Y-90425000D01*
X128549373Y-90425000D01*
X128571128Y-90353285D01*
X128588072Y-90181250D01*
X128588072Y-89693750D01*
X128571128Y-89521715D01*
X128520947Y-89356291D01*
X128439458Y-89203836D01*
X128331673Y-89072500D01*
X128788343Y-89072500D01*
X128769463Y-89095506D01*
X128710498Y-89205820D01*
X128674188Y-89325518D01*
X128661928Y-89450000D01*
X128665000Y-89651750D01*
X128823750Y-89810500D01*
X129873000Y-89810500D01*
X129873000Y-89790500D01*
X130127000Y-89790500D01*
X130127000Y-89810500D01*
X131176250Y-89810500D01*
X131335000Y-89651750D01*
X131338072Y-89450000D01*
X131325812Y-89325518D01*
X131289502Y-89205820D01*
X131230537Y-89095506D01*
X131151185Y-88998815D01*
X131073436Y-88935008D01*
X131079792Y-88929792D01*
X131189458Y-88796164D01*
X131270947Y-88643709D01*
X131321128Y-88478285D01*
X131338072Y-88306250D01*
X131338072Y-87818750D01*
X131321128Y-87646715D01*
X131270947Y-87481291D01*
X131189458Y-87328836D01*
X131079792Y-87195208D01*
X130946164Y-87085542D01*
X130860658Y-87039838D01*
X130944180Y-87014502D01*
X131054494Y-86955537D01*
X131151185Y-86876185D01*
X131230537Y-86779494D01*
X131289502Y-86669180D01*
X131325812Y-86549482D01*
X131338072Y-86425000D01*
X131335000Y-86223250D01*
X131176250Y-86064500D01*
X130127000Y-86064500D01*
X130127000Y-86084500D01*
X129873000Y-86084500D01*
X129873000Y-86064500D01*
X128823750Y-86064500D01*
X128665000Y-86223250D01*
X128661928Y-86425000D01*
X128674188Y-86549482D01*
X128710498Y-86669180D01*
X128769463Y-86779494D01*
X128848815Y-86876185D01*
X128945506Y-86955537D01*
X129055820Y-87014502D01*
X129139342Y-87039838D01*
X129115653Y-87052500D01*
X128260000Y-87052500D01*
X128260000Y-86862069D01*
X128329792Y-86804792D01*
X128439458Y-86671164D01*
X128520947Y-86518709D01*
X128571128Y-86353285D01*
X128588072Y-86181250D01*
X128588072Y-85693750D01*
X128571128Y-85521715D01*
X128520947Y-85356291D01*
X128439458Y-85203836D01*
X128331673Y-85072500D01*
X128788343Y-85072500D01*
X128769463Y-85095506D01*
X128710498Y-85205820D01*
X128674188Y-85325518D01*
X128661928Y-85450000D01*
X128665000Y-85651750D01*
X128823750Y-85810500D01*
X129873000Y-85810500D01*
X129873000Y-85790500D01*
X130127000Y-85790500D01*
X130127000Y-85810500D01*
X131176250Y-85810500D01*
X131335000Y-85651750D01*
X131338072Y-85450000D01*
X131325812Y-85325518D01*
X131289502Y-85205820D01*
X131230537Y-85095506D01*
X131151185Y-84998815D01*
X131073436Y-84935008D01*
X131079792Y-84929792D01*
X131189458Y-84796164D01*
X131270947Y-84643709D01*
X131321128Y-84478285D01*
X131338072Y-84306250D01*
X131338072Y-83818750D01*
X131321128Y-83646715D01*
X131270947Y-83481291D01*
X131189458Y-83328836D01*
X131079792Y-83195208D01*
X130946164Y-83085542D01*
X130877913Y-83049061D01*
X130917205Y-82990256D01*
X130995226Y-82801898D01*
X131035000Y-82601939D01*
X131035000Y-82398061D01*
X130995226Y-82198102D01*
X130917205Y-82009744D01*
X130803937Y-81840226D01*
X130659774Y-81696063D01*
X130490256Y-81582795D01*
X130301898Y-81504774D01*
X130101939Y-81465000D01*
X129898061Y-81465000D01*
X129698102Y-81504774D01*
X129509744Y-81582795D01*
X129340226Y-81696063D01*
X129196063Y-81840226D01*
X129082795Y-82009744D01*
X129004774Y-82198102D01*
X128965000Y-82398061D01*
X128965000Y-82601939D01*
X129004774Y-82801898D01*
X129082795Y-82990256D01*
X129122087Y-83049061D01*
X129115653Y-83052500D01*
X128134347Y-83052500D01*
X128043709Y-83004053D01*
X127878285Y-82953872D01*
X127706250Y-82936928D01*
X126793750Y-82936928D01*
X126621715Y-82953872D01*
X126456291Y-83004053D01*
X126303836Y-83085542D01*
X126170208Y-83195208D01*
X126060542Y-83328836D01*
X125979053Y-83481291D01*
X125928872Y-83646715D01*
X125911928Y-83818750D01*
X125911928Y-84306250D01*
X125928872Y-84478285D01*
X125979053Y-84643709D01*
X126060542Y-84796164D01*
X126170208Y-84929792D01*
X126255756Y-85000000D01*
X126170208Y-85070208D01*
X126060542Y-85203836D01*
X125979053Y-85356291D01*
X125928872Y-85521715D01*
X125911928Y-85693750D01*
X125911928Y-86181250D01*
X125928872Y-86353285D01*
X125979053Y-86518709D01*
X126060542Y-86671164D01*
X126170208Y-86804792D01*
X126240000Y-86862069D01*
X126240001Y-87137931D01*
X126170208Y-87195208D01*
X126060542Y-87328836D01*
X125979053Y-87481291D01*
X125928872Y-87646715D01*
X125911928Y-87818750D01*
X125911928Y-88306250D01*
X125928872Y-88478285D01*
X125979053Y-88643709D01*
X126060542Y-88796164D01*
X126170208Y-88929792D01*
X126255756Y-89000000D01*
X126170208Y-89070208D01*
X126060542Y-89203836D01*
X125979053Y-89356291D01*
X125928872Y-89521715D01*
X125911928Y-89693750D01*
X125911928Y-90181250D01*
X125928872Y-90353285D01*
X125979053Y-90518709D01*
X126060542Y-90671164D01*
X126115000Y-90737521D01*
X126115000Y-90900922D01*
X125885000Y-90670922D01*
X125885000Y-85174839D01*
X125889281Y-85131373D01*
X125885000Y-85087907D01*
X125885000Y-85087897D01*
X125872195Y-84957884D01*
X125821589Y-84791061D01*
X125739411Y-84637315D01*
X125628817Y-84502557D01*
X125595050Y-84474846D01*
X121525160Y-80404956D01*
X121497443Y-80371183D01*
X121362685Y-80260589D01*
X121208939Y-80178411D01*
X121042116Y-80127805D01*
X120912103Y-80115000D01*
X120912095Y-80115000D01*
X120868626Y-80110719D01*
X120825157Y-80115000D01*
X114538454Y-80115000D01*
X114490256Y-80082795D01*
X114301898Y-80004774D01*
X114101939Y-79965000D01*
X113898061Y-79965000D01*
X113698102Y-80004774D01*
X113509744Y-80082795D01*
X113340226Y-80196063D01*
X113196063Y-80340226D01*
X113082795Y-80509744D01*
X113004774Y-80698102D01*
X112965000Y-80898061D01*
X100660000Y-80898061D01*
X100660000Y-76314375D01*
X105365320Y-76314375D01*
X105365320Y-76685625D01*
X105437747Y-77049741D01*
X105579818Y-77392731D01*
X105786074Y-77701413D01*
X106048587Y-77963926D01*
X106357269Y-78170182D01*
X106700259Y-78312253D01*
X107064375Y-78384680D01*
X107435625Y-78384680D01*
X107799741Y-78312253D01*
X108142731Y-78170182D01*
X108451413Y-77963926D01*
X108713926Y-77701413D01*
X108920182Y-77392731D01*
X109062253Y-77049741D01*
X109134680Y-76685625D01*
X109134680Y-76314375D01*
X110365320Y-76314375D01*
X110365320Y-76685625D01*
X110437747Y-77049741D01*
X110579818Y-77392731D01*
X110786074Y-77701413D01*
X111048587Y-77963926D01*
X111357269Y-78170182D01*
X111700259Y-78312253D01*
X112064375Y-78384680D01*
X112435625Y-78384680D01*
X112799741Y-78312253D01*
X113142731Y-78170182D01*
X113451413Y-77963926D01*
X113713926Y-77701413D01*
X113920182Y-77392731D01*
X114062253Y-77049741D01*
X114134680Y-76685625D01*
X114134680Y-76314375D01*
X115365320Y-76314375D01*
X115365320Y-76685625D01*
X115437747Y-77049741D01*
X115579818Y-77392731D01*
X115786074Y-77701413D01*
X116048587Y-77963926D01*
X116357269Y-78170182D01*
X116700259Y-78312253D01*
X117064375Y-78384680D01*
X117435625Y-78384680D01*
X117799741Y-78312253D01*
X118142731Y-78170182D01*
X118451413Y-77963926D01*
X118713926Y-77701413D01*
X118920182Y-77392731D01*
X119062253Y-77049741D01*
X119134680Y-76685625D01*
X119134680Y-76314375D01*
X120365320Y-76314375D01*
X120365320Y-76685625D01*
X120437747Y-77049741D01*
X120579818Y-77392731D01*
X120786074Y-77701413D01*
X121048587Y-77963926D01*
X121357269Y-78170182D01*
X121700259Y-78312253D01*
X122064375Y-78384680D01*
X122435625Y-78384680D01*
X122799741Y-78312253D01*
X123142731Y-78170182D01*
X123451413Y-77963926D01*
X123713926Y-77701413D01*
X123920182Y-77392731D01*
X124062253Y-77049741D01*
X124134680Y-76685625D01*
X124134680Y-76314375D01*
X125365320Y-76314375D01*
X125365320Y-76685625D01*
X125437747Y-77049741D01*
X125579818Y-77392731D01*
X125786074Y-77701413D01*
X126048587Y-77963926D01*
X126357269Y-78170182D01*
X126700259Y-78312253D01*
X127064375Y-78384680D01*
X127435625Y-78384680D01*
X127799741Y-78312253D01*
X128142731Y-78170182D01*
X128451413Y-77963926D01*
X128713926Y-77701413D01*
X128920182Y-77392731D01*
X129062253Y-77049741D01*
X129134680Y-76685625D01*
X129134680Y-76314375D01*
X129062253Y-75950259D01*
X128920182Y-75607269D01*
X128713926Y-75298587D01*
X128451413Y-75036074D01*
X128142731Y-74829818D01*
X127799741Y-74687747D01*
X127435625Y-74615320D01*
X127064375Y-74615320D01*
X126700259Y-74687747D01*
X126357269Y-74829818D01*
X126048587Y-75036074D01*
X125786074Y-75298587D01*
X125579818Y-75607269D01*
X125437747Y-75950259D01*
X125365320Y-76314375D01*
X124134680Y-76314375D01*
X124062253Y-75950259D01*
X123920182Y-75607269D01*
X123713926Y-75298587D01*
X123451413Y-75036074D01*
X123142731Y-74829818D01*
X122799741Y-74687747D01*
X122435625Y-74615320D01*
X122064375Y-74615320D01*
X121700259Y-74687747D01*
X121357269Y-74829818D01*
X121048587Y-75036074D01*
X120786074Y-75298587D01*
X120579818Y-75607269D01*
X120437747Y-75950259D01*
X120365320Y-76314375D01*
X119134680Y-76314375D01*
X119062253Y-75950259D01*
X118920182Y-75607269D01*
X118713926Y-75298587D01*
X118451413Y-75036074D01*
X118142731Y-74829818D01*
X117799741Y-74687747D01*
X117435625Y-74615320D01*
X117064375Y-74615320D01*
X116700259Y-74687747D01*
X116357269Y-74829818D01*
X116048587Y-75036074D01*
X115786074Y-75298587D01*
X115579818Y-75607269D01*
X115437747Y-75950259D01*
X115365320Y-76314375D01*
X114134680Y-76314375D01*
X114062253Y-75950259D01*
X113920182Y-75607269D01*
X113713926Y-75298587D01*
X113451413Y-75036074D01*
X113142731Y-74829818D01*
X112799741Y-74687747D01*
X112435625Y-74615320D01*
X112064375Y-74615320D01*
X111700259Y-74687747D01*
X111357269Y-74829818D01*
X111048587Y-75036074D01*
X110786074Y-75298587D01*
X110579818Y-75607269D01*
X110437747Y-75950259D01*
X110365320Y-76314375D01*
X109134680Y-76314375D01*
X109062253Y-75950259D01*
X108920182Y-75607269D01*
X108713926Y-75298587D01*
X108451413Y-75036074D01*
X108142731Y-74829818D01*
X107799741Y-74687747D01*
X107435625Y-74615320D01*
X107064375Y-74615320D01*
X106700259Y-74687747D01*
X106357269Y-74829818D01*
X106048587Y-75036074D01*
X105786074Y-75298587D01*
X105579818Y-75607269D01*
X105437747Y-75950259D01*
X105365320Y-76314375D01*
X100660000Y-76314375D01*
X100660000Y-76032279D01*
X100707670Y-75546107D01*
X100839489Y-75109502D01*
X101053600Y-74706815D01*
X101341848Y-74353388D01*
X101693261Y-74062673D01*
X102094439Y-73845758D01*
X102530113Y-73710894D01*
X103014344Y-73660000D01*
X104826519Y-73659998D01*
X105377218Y-73941926D01*
X105432880Y-73963863D01*
X105488212Y-73986568D01*
X105497057Y-73989156D01*
X106173780Y-74182053D01*
X106232616Y-74192756D01*
X106291332Y-74204286D01*
X106300509Y-74205106D01*
X106300511Y-74205106D01*
X107001814Y-74262886D01*
X107061621Y-74261957D01*
X107121446Y-74261863D01*
X107130609Y-74260885D01*
X107829780Y-74181347D01*
X107888246Y-74168824D01*
X107946932Y-74157108D01*
X107955731Y-74154369D01*
X108626137Y-73940544D01*
X108681072Y-73916897D01*
X108736353Y-73894010D01*
X108744452Y-73889614D01*
X109360557Y-73549644D01*
X109409843Y-73515783D01*
X109459634Y-73482589D01*
X109466725Y-73476704D01*
X110005063Y-73023541D01*
X110046836Y-72980749D01*
X110089229Y-72938519D01*
X110095042Y-72931368D01*
X110535107Y-72382271D01*
X110567760Y-72332200D01*
X110601156Y-72282521D01*
X110605469Y-72274378D01*
X110930501Y-71650262D01*
X110952806Y-71594803D01*
X110975917Y-71539582D01*
X110978566Y-71530755D01*
X111176182Y-70855395D01*
X111187302Y-70796603D01*
X111199235Y-70738002D01*
X111200120Y-70728829D01*
X111262795Y-70027945D01*
X111262283Y-69968134D01*
X111262607Y-69908309D01*
X111261693Y-69899140D01*
X111187038Y-69199432D01*
X111174920Y-69140866D01*
X111163617Y-69082113D01*
X111160939Y-69073296D01*
X111160939Y-69073294D01*
X111160937Y-69073288D01*
X110951799Y-68401412D01*
X110928530Y-68346299D01*
X110906036Y-68290875D01*
X110901697Y-68282746D01*
X110566037Y-67664282D01*
X110532531Y-67614776D01*
X110499676Y-67564739D01*
X110493840Y-67557608D01*
X110044446Y-67016118D01*
X110001964Y-66974065D01*
X109960014Y-66931361D01*
X109952904Y-66925499D01*
X109406893Y-66481610D01*
X109357049Y-66448607D01*
X109307606Y-66414866D01*
X109299493Y-66410496D01*
X108677661Y-66081116D01*
X108622350Y-66058420D01*
X108567303Y-66034929D01*
X108558495Y-66032218D01*
X107884529Y-65829891D01*
X107825828Y-65818364D01*
X107767299Y-65806019D01*
X107758133Y-65805070D01*
X107057704Y-65737504D01*
X106997859Y-65737598D01*
X106938071Y-65736857D01*
X106928896Y-65737707D01*
X106928892Y-65737707D01*
X106228684Y-65807474D01*
X106170026Y-65819185D01*
X106111202Y-65830076D01*
X106102366Y-65832692D01*
X105429040Y-66037137D01*
X105373791Y-66060011D01*
X105318187Y-66082127D01*
X105310027Y-66086409D01*
X104834891Y-66340002D01*
X103032280Y-66340000D01*
X102546106Y-66292330D01*
X102109503Y-66160512D01*
X101706814Y-65946399D01*
X101353387Y-65658150D01*
X101062673Y-65306739D01*
X100845760Y-64905564D01*
X100710894Y-64469886D01*
X100660000Y-63985664D01*
X100660000Y-63898061D01*
X110490010Y-63898061D01*
X110490010Y-64101939D01*
X110529784Y-64301898D01*
X110607805Y-64490256D01*
X110721073Y-64659774D01*
X110865236Y-64803937D01*
X111034754Y-64917205D01*
X111223112Y-64995226D01*
X111423071Y-65035000D01*
X111626949Y-65035000D01*
X111826908Y-64995226D01*
X112015266Y-64917205D01*
X112063464Y-64885000D01*
X113780912Y-64885000D01*
X113754774Y-64948102D01*
X113715000Y-65148061D01*
X113715000Y-65351939D01*
X113754774Y-65551898D01*
X113832795Y-65740256D01*
X113946063Y-65909774D01*
X114090226Y-66053937D01*
X114259744Y-66167205D01*
X114448102Y-66245226D01*
X114648061Y-66285000D01*
X114851939Y-66285000D01*
X115051898Y-66245226D01*
X115240256Y-66167205D01*
X115288454Y-66135000D01*
X116656260Y-66135000D01*
X116763788Y-66179540D01*
X116963747Y-66219314D01*
X117167625Y-66219314D01*
X117367584Y-66179540D01*
X117555942Y-66101519D01*
X117725460Y-65988251D01*
X117869623Y-65844088D01*
X117982891Y-65674570D01*
X118060912Y-65486212D01*
X118100686Y-65286253D01*
X118100686Y-65082375D01*
X118061426Y-64885000D01*
X118698529Y-64885000D01*
X118741998Y-64889281D01*
X118785467Y-64885000D01*
X118785475Y-64885000D01*
X118915488Y-64872195D01*
X119082311Y-64821589D01*
X119236057Y-64739411D01*
X119370815Y-64628817D01*
X119398532Y-64595044D01*
X121595049Y-62398528D01*
X121628817Y-62370815D01*
X121739411Y-62236057D01*
X121821589Y-62082311D01*
X121872195Y-61915488D01*
X121885000Y-61785475D01*
X121885000Y-61785465D01*
X121889281Y-61741999D01*
X121885000Y-61698532D01*
X121885000Y-55994216D01*
X121885363Y-55994759D01*
X122085241Y-56194637D01*
X122320273Y-56351680D01*
X122581426Y-56459853D01*
X122858665Y-56515000D01*
X123141335Y-56515000D01*
X123418574Y-56459853D01*
X123679727Y-56351680D01*
X123914759Y-56194637D01*
X124114637Y-55994759D01*
X124271680Y-55759727D01*
X124379853Y-55498574D01*
X124435000Y-55221335D01*
X124435000Y-54938665D01*
X124379853Y-54661426D01*
X124271680Y-54400273D01*
X124114637Y-54165241D01*
X123914759Y-53965363D01*
X123682241Y-53810000D01*
X123914759Y-53654637D01*
X124114637Y-53454759D01*
X124271680Y-53219727D01*
X124379853Y-52958574D01*
X124435000Y-52681335D01*
X124435000Y-52398665D01*
X124379853Y-52121426D01*
X124271680Y-51860273D01*
X124114637Y-51625241D01*
X123916039Y-51426643D01*
X123924482Y-51425812D01*
X124044180Y-51389502D01*
X124154494Y-51330537D01*
X124251185Y-51251185D01*
X124330537Y-51154494D01*
X124389502Y-51044180D01*
X124425812Y-50924482D01*
X124438072Y-50800000D01*
X124435000Y-50285750D01*
X124276250Y-50127000D01*
X123127000Y-50127000D01*
X123127000Y-50147000D01*
X122873000Y-50147000D01*
X122873000Y-50127000D01*
X121723750Y-50127000D01*
X121565000Y-50285750D01*
X121561928Y-50800000D01*
X121564109Y-50822142D01*
X121490256Y-50772795D01*
X121301898Y-50694774D01*
X121101939Y-50655000D01*
X120898061Y-50655000D01*
X120698102Y-50694774D01*
X120509744Y-50772795D01*
X120340226Y-50886063D01*
X120196063Y-51030226D01*
X120082795Y-51199744D01*
X120004774Y-51388102D01*
X119965000Y-51588061D01*
X119965000Y-51791939D01*
X119969791Y-51816026D01*
X119944039Y-51777485D01*
X119772019Y-51605465D01*
X119569744Y-51470309D01*
X119344988Y-51377212D01*
X119106389Y-51329752D01*
X119046306Y-51329752D01*
X119092585Y-51283473D01*
X118975015Y-51165903D01*
X119197993Y-51119322D01*
X119238075Y-51044341D01*
X119322970Y-50817610D01*
X119362000Y-50578673D01*
X119353667Y-50336713D01*
X119298290Y-50101028D01*
X119197997Y-49880676D01*
X118975705Y-49833404D01*
X118309109Y-50500000D01*
X118323252Y-50514143D01*
X118207125Y-50630269D01*
X118113592Y-50443204D01*
X118095943Y-50416789D01*
X118077866Y-50399671D01*
X118056796Y-50386408D01*
X118042403Y-50379211D01*
X118115362Y-50306253D01*
X118129504Y-50320395D01*
X118796100Y-49653799D01*
X118748828Y-49431507D01*
X118528476Y-49331214D01*
X118292791Y-49275837D01*
X118050831Y-49267504D01*
X117811894Y-49306534D01*
X117585163Y-49391429D01*
X117510182Y-49431511D01*
X117463601Y-49654489D01*
X117346031Y-49536919D01*
X117299752Y-49583198D01*
X117299752Y-49523115D01*
X117252292Y-49284516D01*
X117217285Y-49200000D01*
X121561928Y-49200000D01*
X121565000Y-49714250D01*
X121723750Y-49873000D01*
X122873000Y-49873000D01*
X122873000Y-48723750D01*
X123127000Y-48723750D01*
X123127000Y-49873000D01*
X124276250Y-49873000D01*
X124435000Y-49714250D01*
X124438072Y-49200000D01*
X124425812Y-49075518D01*
X124389502Y-48955820D01*
X124330537Y-48845506D01*
X124251185Y-48748815D01*
X124154494Y-48669463D01*
X124044180Y-48610498D01*
X123924482Y-48574188D01*
X123800000Y-48561928D01*
X123285750Y-48565000D01*
X123127000Y-48723750D01*
X122873000Y-48723750D01*
X122714250Y-48565000D01*
X122200000Y-48561928D01*
X122075518Y-48574188D01*
X121955820Y-48610498D01*
X121845506Y-48669463D01*
X121748815Y-48748815D01*
X121669463Y-48845506D01*
X121610498Y-48955820D01*
X121574188Y-49075518D01*
X121561928Y-49200000D01*
X117217285Y-49200000D01*
X117159195Y-49059760D01*
X117024039Y-48857485D01*
X116995770Y-48829216D01*
X117166650Y-48795226D01*
X117355008Y-48717205D01*
X117524526Y-48603937D01*
X117668689Y-48459774D01*
X117781957Y-48290256D01*
X117859978Y-48101898D01*
X117899752Y-47901939D01*
X117899752Y-47698061D01*
X117859978Y-47498102D01*
X117781957Y-47309744D01*
X117668689Y-47140226D01*
X117524526Y-46996063D01*
X117355008Y-46882795D01*
X117166650Y-46804774D01*
X116966691Y-46765000D01*
X116762813Y-46765000D01*
X116562854Y-46804774D01*
X116374496Y-46882795D01*
X116355874Y-46895238D01*
X115754612Y-46895238D01*
X115706414Y-46863033D01*
X115518056Y-46785012D01*
X115318097Y-46745238D01*
X115114219Y-46745238D01*
X114914260Y-46785012D01*
X114725902Y-46863033D01*
X114556384Y-46976301D01*
X114412221Y-47120464D01*
X114298953Y-47289982D01*
X114220932Y-47478340D01*
X114181158Y-47678299D01*
X114181158Y-47882177D01*
X114220932Y-48082136D01*
X114298953Y-48270494D01*
X114412221Y-48440012D01*
X114556384Y-48584175D01*
X114725902Y-48697443D01*
X114914260Y-48775464D01*
X115114219Y-48815238D01*
X115147712Y-48815238D01*
X115105465Y-48857485D01*
X114970309Y-49059760D01*
X114877212Y-49284516D01*
X114829752Y-49523115D01*
X114829752Y-49583199D01*
X114688959Y-49442406D01*
X114548027Y-49326747D01*
X114333478Y-49212068D01*
X114100681Y-49141449D01*
X113858579Y-49117604D01*
X113616477Y-49141449D01*
X113383680Y-49212068D01*
X113169131Y-49326747D01*
X112981078Y-49481078D01*
X112826747Y-49669131D01*
X112712068Y-49883680D01*
X112641449Y-50116477D01*
X112617604Y-50358579D01*
X112641449Y-50600681D01*
X112712068Y-50833478D01*
X112826747Y-51048027D01*
X112942406Y-51188959D01*
X113083199Y-51329752D01*
X113023115Y-51329752D01*
X112784516Y-51377212D01*
X112559760Y-51470309D01*
X112357485Y-51605465D01*
X112185465Y-51777485D01*
X112050309Y-51979760D01*
X111957212Y-52204516D01*
X111909752Y-52443115D01*
X111909752Y-52686389D01*
X111957212Y-52924988D01*
X112050309Y-53149744D01*
X112185465Y-53352019D01*
X112357485Y-53524039D01*
X112372291Y-53533932D01*
X112301898Y-53504774D01*
X112101939Y-53465000D01*
X111898061Y-53465000D01*
X111698102Y-53504774D01*
X111509744Y-53582795D01*
X111340226Y-53696063D01*
X111196063Y-53840226D01*
X111082795Y-54009744D01*
X111004774Y-54198102D01*
X110965000Y-54398061D01*
X110965000Y-54601939D01*
X111004774Y-54801898D01*
X111082795Y-54990256D01*
X111196063Y-55159774D01*
X111340226Y-55303937D01*
X111509744Y-55417205D01*
X111698102Y-55495226D01*
X111898061Y-55535000D01*
X112101939Y-55535000D01*
X112301898Y-55495226D01*
X112490256Y-55417205D01*
X112613285Y-55335000D01*
X112986075Y-55335000D01*
X113040713Y-55416771D01*
X113212733Y-55588791D01*
X113415008Y-55723947D01*
X113639764Y-55817044D01*
X113878363Y-55864504D01*
X114121637Y-55864504D01*
X114360236Y-55817044D01*
X114584992Y-55723947D01*
X114787267Y-55588791D01*
X114829752Y-55546306D01*
X114829752Y-55606389D01*
X114877212Y-55844988D01*
X114970309Y-56069744D01*
X115105465Y-56272019D01*
X115277485Y-56444039D01*
X115479760Y-56579195D01*
X115704516Y-56672292D01*
X115943115Y-56719752D01*
X116186389Y-56719752D01*
X116424988Y-56672292D01*
X116649744Y-56579195D01*
X116852019Y-56444039D01*
X117024039Y-56272019D01*
X117159195Y-56069744D01*
X117252292Y-55844988D01*
X117299752Y-55606389D01*
X117299752Y-55546306D01*
X117342237Y-55588791D01*
X117544512Y-55723947D01*
X117769268Y-55817044D01*
X118007867Y-55864504D01*
X118251141Y-55864504D01*
X118489740Y-55817044D01*
X118714496Y-55723947D01*
X118916771Y-55588791D01*
X119088791Y-55416771D01*
X119223947Y-55214496D01*
X119317044Y-54989740D01*
X119364504Y-54751141D01*
X119364504Y-54507867D01*
X119317044Y-54269268D01*
X119223947Y-54044512D01*
X119088791Y-53842237D01*
X119046306Y-53799752D01*
X119106389Y-53799752D01*
X119344988Y-53752292D01*
X119569744Y-53659195D01*
X119772019Y-53524039D01*
X119944039Y-53352019D01*
X120079195Y-53149744D01*
X120115000Y-53063303D01*
X120115001Y-61375418D01*
X118375420Y-63115000D01*
X112063464Y-63115000D01*
X112015266Y-63082795D01*
X111826908Y-63004774D01*
X111626949Y-62965000D01*
X111423071Y-62965000D01*
X111223112Y-63004774D01*
X111034754Y-63082795D01*
X110865236Y-63196063D01*
X110721073Y-63340226D01*
X110607805Y-63509744D01*
X110529784Y-63698102D01*
X110490010Y-63898061D01*
X100660000Y-63898061D01*
X100660000Y-57898061D01*
X107465000Y-57898061D01*
X107465000Y-58101939D01*
X107504774Y-58301898D01*
X107582795Y-58490256D01*
X107696063Y-58659774D01*
X107840226Y-58803937D01*
X108009744Y-58917205D01*
X108198102Y-58995226D01*
X108398061Y-59035000D01*
X108601939Y-59035000D01*
X108801898Y-58995226D01*
X108990256Y-58917205D01*
X109113285Y-58835000D01*
X111742267Y-58835000D01*
X111898101Y-58899549D01*
X112098060Y-58939323D01*
X112301938Y-58939323D01*
X112501897Y-58899549D01*
X112690255Y-58821528D01*
X112859773Y-58708260D01*
X113003936Y-58564097D01*
X113117204Y-58394579D01*
X113195225Y-58206221D01*
X113234999Y-58006262D01*
X113234999Y-57802384D01*
X113195225Y-57602425D01*
X113117204Y-57414067D01*
X113003936Y-57244549D01*
X112859773Y-57100386D01*
X112690255Y-56987118D01*
X112501897Y-56909097D01*
X112301938Y-56869323D01*
X112098060Y-56869323D01*
X111898101Y-56909097D01*
X111709743Y-56987118D01*
X111540225Y-57100386D01*
X111475611Y-57165000D01*
X109113285Y-57165000D01*
X108990256Y-57082795D01*
X108801898Y-57004774D01*
X108601939Y-56965000D01*
X108398061Y-56965000D01*
X108198102Y-57004774D01*
X108009744Y-57082795D01*
X107840226Y-57196063D01*
X107696063Y-57340226D01*
X107582795Y-57509744D01*
X107504774Y-57698102D01*
X107465000Y-57898061D01*
X100660000Y-57898061D01*
X100660000Y-52398061D01*
X104465000Y-52398061D01*
X104465000Y-52601939D01*
X104504774Y-52801898D01*
X104582795Y-52990256D01*
X104696063Y-53159774D01*
X104840226Y-53303937D01*
X105009744Y-53417205D01*
X105198102Y-53495226D01*
X105398061Y-53535000D01*
X105601939Y-53535000D01*
X105801898Y-53495226D01*
X105990256Y-53417205D01*
X106159774Y-53303937D01*
X106303937Y-53159774D01*
X106417205Y-52990256D01*
X106495226Y-52801898D01*
X106535000Y-52601939D01*
X106535000Y-52398061D01*
X106495226Y-52198102D01*
X106417205Y-52009744D01*
X106343348Y-51899209D01*
X106343348Y-51057008D01*
X106425553Y-50933979D01*
X106503574Y-50745621D01*
X106543348Y-50545662D01*
X106543348Y-50341784D01*
X106503574Y-50141825D01*
X106425553Y-49953467D01*
X106312285Y-49783949D01*
X106168122Y-49639786D01*
X105998604Y-49526518D01*
X105810246Y-49448497D01*
X105610287Y-49408723D01*
X105406409Y-49408723D01*
X105206450Y-49448497D01*
X105018092Y-49526518D01*
X104848574Y-49639786D01*
X104704411Y-49783949D01*
X104591143Y-49953467D01*
X104513122Y-50141825D01*
X104473348Y-50341784D01*
X104473348Y-50545662D01*
X104513122Y-50745621D01*
X104591143Y-50933979D01*
X104673348Y-51057008D01*
X104673349Y-51874220D01*
X104582795Y-52009744D01*
X104504774Y-52198102D01*
X104465000Y-52398061D01*
X100660000Y-52398061D01*
X100660000Y-43032279D01*
X100707670Y-42546107D01*
X100839489Y-42109502D01*
X101053600Y-41706815D01*
X101341848Y-41353388D01*
X101693261Y-41062673D01*
X102094439Y-40845758D01*
X102530113Y-40710894D01*
X103014344Y-40660000D01*
X105088421Y-40660000D01*
X104404951Y-41343471D01*
%TD*%
M02*
