M48
; DRILL file {KiCad (5.1.6)-1} date 03/23/21 10:57:54
; FORMAT={-:-/ absolute / inch / decimal}
; #@! TF.CreationDate,2021-03-23T10:57:54+01:00
; #@! TF.GenerationSoftware,Kicad,Pcbnew,(5.1.6)-1
FMAT,2
INCH
T1C0.0157
T2C0.0276
T3C0.0315
T4C0.0394
T5C0.0394
%
G90
G05
T1
X4.0551Y-1.7913
X4.1024Y-1.752
X4.1339Y-1.6929
X4.1535Y-2.0669
X4.1539Y-1.986
X4.1732Y-2.2244
X4.1732Y-2.3199
X4.2308Y-2.1078
X4.2717Y-2.2835
X4.3504Y-1.7323
X4.3907Y-2.5197
X4.4094Y-2.1457
X4.4173Y-2.2797
X4.4882Y-3.189
X4.5177Y-2.5689
X4.5361Y-1.8811
X4.601Y-1.8819
X4.6063Y-1.7323
X4.6063Y-3.2677
X4.6089Y-2.5663
X4.626Y-2.3328
X4.752Y-1.626
X4.7638Y-2.035
X4.9213Y-1.7717
X5.0079Y-1.811
X5.0591Y-2.2047
X5.1181Y-3.248
X5.1204Y-2.0497
X5.1575Y-1.8307
X5.1969Y-2.4409
T2
X4.4545Y-2.0695
X4.4882Y-1.9882
X4.4882Y-2.1508
X4.5695Y-1.9545
X4.5695Y-2.1844
X4.6508Y-1.9882
X4.6508Y-2.1508
X4.6844Y-2.0695
T3
X4.8425Y-1.9685
X4.8425Y-2.0685
X4.8425Y-2.1685
T4
X4.0551Y-1.6929
X4.0551Y-3.8189
X5.1772Y-1.6929
X5.1772Y-3.8189
T5
X4.6161Y-3.7992
X4.2224Y-3.0118
X4.4193Y-3.7992
X4.813Y-3.0118
X4.813Y-3.7992
X4.2224Y-3.7992
X4.4193Y-3.0118
X4.6161Y-3.0118
X5.0098Y-3.0118
X5.0098Y-3.7992
T0
M30
