%TF.GenerationSoftware,KiCad,Pcbnew,(5.1.6)-1*%
%TF.CreationDate,2021-03-23T10:57:52+01:00*%
%TF.ProjectId,mu-ltz,6d752d6c-747a-42e6-9b69-6361645f7063,rev?*%
%TF.SameCoordinates,Original*%
%TF.FileFunction,Copper,L1,Top*%
%TF.FilePolarity,Positive*%
%FSLAX46Y46*%
G04 Gerber Fmt 4.6, Leading zero omitted, Abs format (unit mm)*
G04 Created by KiCad (PCBNEW (5.1.6)-1) date 2021-03-23 10:57:52*
%MOMM*%
%LPD*%
G01*
G04 APERTURE LIST*
%TA.AperFunction,SMDPad,CuDef*%
%ADD10R,0.450000X0.600000*%
%TD*%
%TA.AperFunction,SMDPad,CuDef*%
%ADD11R,0.900000X0.800000*%
%TD*%
%TA.AperFunction,SMDPad,CuDef*%
%ADD12C,0.150000*%
%TD*%
%TA.AperFunction,ComponentPad*%
%ADD13R,1.600000X1.600000*%
%TD*%
%TA.AperFunction,ComponentPad*%
%ADD14O,1.600000X1.600000*%
%TD*%
%TA.AperFunction,ComponentPad*%
%ADD15C,2.499360*%
%TD*%
%TA.AperFunction,ViaPad*%
%ADD16C,2.000000*%
%TD*%
%TA.AperFunction,ViaPad*%
%ADD17C,0.800000*%
%TD*%
%TA.AperFunction,Conductor*%
%ADD18C,0.500000*%
%TD*%
%TA.AperFunction,Conductor*%
%ADD19C,0.400000*%
%TD*%
%TA.AperFunction,Conductor*%
%ADD20C,0.300000*%
%TD*%
%TA.AperFunction,Conductor*%
%ADD21C,0.254000*%
%TD*%
G04 APERTURE END LIST*
D10*
%TO.P,D1,2*%
%TO.N,Net-(D1-Pad2)*%
X109600000Y-52950000D03*
%TO.P,D1,1*%
%TO.N,Net-(D1-Pad1)*%
X109600000Y-55050000D03*
%TD*%
%TO.P,U4,8*%
%TO.N,Net-(U4-Pad8)*%
%TA.AperFunction,SMDPad,CuDef*%
G36*
G01*
X131900000Y-51125000D02*
X131900000Y-50925000D01*
G75*
G02*
X132000000Y-50825000I100000J0D01*
G01*
X133425000Y-50825000D01*
G75*
G02*
X133525000Y-50925000I0J-100000D01*
G01*
X133525000Y-51125000D01*
G75*
G02*
X133425000Y-51225000I-100000J0D01*
G01*
X132000000Y-51225000D01*
G75*
G02*
X131900000Y-51125000I0J100000D01*
G01*
G37*
%TD.AperFunction*%
%TO.P,U4,7*%
%TO.N,/V+_filtered*%
%TA.AperFunction,SMDPad,CuDef*%
G36*
G01*
X131900000Y-51775000D02*
X131900000Y-51575000D01*
G75*
G02*
X132000000Y-51475000I100000J0D01*
G01*
X133425000Y-51475000D01*
G75*
G02*
X133525000Y-51575000I0J-100000D01*
G01*
X133525000Y-51775000D01*
G75*
G02*
X133425000Y-51875000I-100000J0D01*
G01*
X132000000Y-51875000D01*
G75*
G02*
X131900000Y-51775000I0J100000D01*
G01*
G37*
%TD.AperFunction*%
%TO.P,U4,6*%
%TO.N,Net-(C18-Pad2)*%
%TA.AperFunction,SMDPad,CuDef*%
G36*
G01*
X131900000Y-52425000D02*
X131900000Y-52225000D01*
G75*
G02*
X132000000Y-52125000I100000J0D01*
G01*
X133425000Y-52125000D01*
G75*
G02*
X133525000Y-52225000I0J-100000D01*
G01*
X133525000Y-52425000D01*
G75*
G02*
X133425000Y-52525000I-100000J0D01*
G01*
X132000000Y-52525000D01*
G75*
G02*
X131900000Y-52425000I0J100000D01*
G01*
G37*
%TD.AperFunction*%
%TO.P,U4,5*%
%TO.N,N/C*%
%TA.AperFunction,SMDPad,CuDef*%
G36*
G01*
X131900000Y-53075000D02*
X131900000Y-52875000D01*
G75*
G02*
X132000000Y-52775000I100000J0D01*
G01*
X133425000Y-52775000D01*
G75*
G02*
X133525000Y-52875000I0J-100000D01*
G01*
X133525000Y-53075000D01*
G75*
G02*
X133425000Y-53175000I-100000J0D01*
G01*
X132000000Y-53175000D01*
G75*
G02*
X131900000Y-53075000I0J100000D01*
G01*
G37*
%TD.AperFunction*%
%TO.P,U4,4*%
%TO.N,/V-_filtered*%
%TA.AperFunction,SMDPad,CuDef*%
G36*
G01*
X127675000Y-53075000D02*
X127675000Y-52875000D01*
G75*
G02*
X127775000Y-52775000I100000J0D01*
G01*
X129200000Y-52775000D01*
G75*
G02*
X129300000Y-52875000I0J-100000D01*
G01*
X129300000Y-53075000D01*
G75*
G02*
X129200000Y-53175000I-100000J0D01*
G01*
X127775000Y-53175000D01*
G75*
G02*
X127675000Y-53075000I0J100000D01*
G01*
G37*
%TD.AperFunction*%
%TO.P,U4,3*%
%TO.N,/GND*%
%TA.AperFunction,SMDPad,CuDef*%
G36*
G01*
X127675000Y-52425000D02*
X127675000Y-52225000D01*
G75*
G02*
X127775000Y-52125000I100000J0D01*
G01*
X129200000Y-52125000D01*
G75*
G02*
X129300000Y-52225000I0J-100000D01*
G01*
X129300000Y-52425000D01*
G75*
G02*
X129200000Y-52525000I-100000J0D01*
G01*
X127775000Y-52525000D01*
G75*
G02*
X127675000Y-52425000I0J100000D01*
G01*
G37*
%TD.AperFunction*%
%TO.P,U4,2*%
%TO.N,Net-(C18-Pad1)*%
%TA.AperFunction,SMDPad,CuDef*%
G36*
G01*
X127675000Y-51775000D02*
X127675000Y-51575000D01*
G75*
G02*
X127775000Y-51475000I100000J0D01*
G01*
X129200000Y-51475000D01*
G75*
G02*
X129300000Y-51575000I0J-100000D01*
G01*
X129300000Y-51775000D01*
G75*
G02*
X129200000Y-51875000I-100000J0D01*
G01*
X127775000Y-51875000D01*
G75*
G02*
X127675000Y-51775000I0J100000D01*
G01*
G37*
%TD.AperFunction*%
%TO.P,U4,1*%
%TO.N,Net-(U4-Pad1)*%
%TA.AperFunction,SMDPad,CuDef*%
G36*
G01*
X127675000Y-51125000D02*
X127675000Y-50925000D01*
G75*
G02*
X127775000Y-50825000I100000J0D01*
G01*
X129200000Y-50825000D01*
G75*
G02*
X129300000Y-50925000I0J-100000D01*
G01*
X129300000Y-51125000D01*
G75*
G02*
X129200000Y-51225000I-100000J0D01*
G01*
X127775000Y-51225000D01*
G75*
G02*
X127675000Y-51125000I0J100000D01*
G01*
G37*
%TD.AperFunction*%
%TD*%
%TO.P,U3,8*%
%TO.N,Net-(U3-Pad8)*%
%TA.AperFunction,SMDPad,CuDef*%
G36*
G01*
X106300000Y-49125000D02*
X106300000Y-48925000D01*
G75*
G02*
X106400000Y-48825000I100000J0D01*
G01*
X107825000Y-48825000D01*
G75*
G02*
X107925000Y-48925000I0J-100000D01*
G01*
X107925000Y-49125000D01*
G75*
G02*
X107825000Y-49225000I-100000J0D01*
G01*
X106400000Y-49225000D01*
G75*
G02*
X106300000Y-49125000I0J100000D01*
G01*
G37*
%TD.AperFunction*%
%TO.P,U3,7*%
%TO.N,/V+_filtered*%
%TA.AperFunction,SMDPad,CuDef*%
G36*
G01*
X106300000Y-49775000D02*
X106300000Y-49575000D01*
G75*
G02*
X106400000Y-49475000I100000J0D01*
G01*
X107825000Y-49475000D01*
G75*
G02*
X107925000Y-49575000I0J-100000D01*
G01*
X107925000Y-49775000D01*
G75*
G02*
X107825000Y-49875000I-100000J0D01*
G01*
X106400000Y-49875000D01*
G75*
G02*
X106300000Y-49775000I0J100000D01*
G01*
G37*
%TD.AperFunction*%
%TO.P,U3,6*%
%TO.N,Net-(C17-Pad2)*%
%TA.AperFunction,SMDPad,CuDef*%
G36*
G01*
X106300000Y-50425000D02*
X106300000Y-50225000D01*
G75*
G02*
X106400000Y-50125000I100000J0D01*
G01*
X107825000Y-50125000D01*
G75*
G02*
X107925000Y-50225000I0J-100000D01*
G01*
X107925000Y-50425000D01*
G75*
G02*
X107825000Y-50525000I-100000J0D01*
G01*
X106400000Y-50525000D01*
G75*
G02*
X106300000Y-50425000I0J100000D01*
G01*
G37*
%TD.AperFunction*%
%TO.P,U3,5*%
%TO.N,N/C*%
%TA.AperFunction,SMDPad,CuDef*%
G36*
G01*
X106300000Y-51075000D02*
X106300000Y-50875000D01*
G75*
G02*
X106400000Y-50775000I100000J0D01*
G01*
X107825000Y-50775000D01*
G75*
G02*
X107925000Y-50875000I0J-100000D01*
G01*
X107925000Y-51075000D01*
G75*
G02*
X107825000Y-51175000I-100000J0D01*
G01*
X106400000Y-51175000D01*
G75*
G02*
X106300000Y-51075000I0J100000D01*
G01*
G37*
%TD.AperFunction*%
%TO.P,U3,4*%
%TO.N,/V-_filtered*%
%TA.AperFunction,SMDPad,CuDef*%
G36*
G01*
X102075000Y-51075000D02*
X102075000Y-50875000D01*
G75*
G02*
X102175000Y-50775000I100000J0D01*
G01*
X103600000Y-50775000D01*
G75*
G02*
X103700000Y-50875000I0J-100000D01*
G01*
X103700000Y-51075000D01*
G75*
G02*
X103600000Y-51175000I-100000J0D01*
G01*
X102175000Y-51175000D01*
G75*
G02*
X102075000Y-51075000I0J100000D01*
G01*
G37*
%TD.AperFunction*%
%TO.P,U3,3*%
%TO.N,Net-(D2-Pad1)*%
%TA.AperFunction,SMDPad,CuDef*%
G36*
G01*
X102075000Y-50425000D02*
X102075000Y-50225000D01*
G75*
G02*
X102175000Y-50125000I100000J0D01*
G01*
X103600000Y-50125000D01*
G75*
G02*
X103700000Y-50225000I0J-100000D01*
G01*
X103700000Y-50425000D01*
G75*
G02*
X103600000Y-50525000I-100000J0D01*
G01*
X102175000Y-50525000D01*
G75*
G02*
X102075000Y-50425000I0J100000D01*
G01*
G37*
%TD.AperFunction*%
%TO.P,U3,2*%
%TO.N,Net-(C17-Pad1)*%
%TA.AperFunction,SMDPad,CuDef*%
G36*
G01*
X102075000Y-49775000D02*
X102075000Y-49575000D01*
G75*
G02*
X102175000Y-49475000I100000J0D01*
G01*
X103600000Y-49475000D01*
G75*
G02*
X103700000Y-49575000I0J-100000D01*
G01*
X103700000Y-49775000D01*
G75*
G02*
X103600000Y-49875000I-100000J0D01*
G01*
X102175000Y-49875000D01*
G75*
G02*
X102075000Y-49775000I0J100000D01*
G01*
G37*
%TD.AperFunction*%
%TO.P,U3,1*%
%TO.N,Net-(U3-Pad1)*%
%TA.AperFunction,SMDPad,CuDef*%
G36*
G01*
X102075000Y-49125000D02*
X102075000Y-48925000D01*
G75*
G02*
X102175000Y-48825000I100000J0D01*
G01*
X103600000Y-48825000D01*
G75*
G02*
X103700000Y-48925000I0J-100000D01*
G01*
X103700000Y-49125000D01*
G75*
G02*
X103600000Y-49225000I-100000J0D01*
G01*
X102175000Y-49225000D01*
G75*
G02*
X102075000Y-49125000I0J100000D01*
G01*
G37*
%TD.AperFunction*%
%TD*%
%TO.P,U2,8*%
%TO.N,/V+_filtered*%
%TA.AperFunction,SMDPad,CuDef*%
G36*
G01*
X118300000Y-43125000D02*
X118300000Y-42925000D01*
G75*
G02*
X118400000Y-42825000I100000J0D01*
G01*
X119825000Y-42825000D01*
G75*
G02*
X119925000Y-42925000I0J-100000D01*
G01*
X119925000Y-43125000D01*
G75*
G02*
X119825000Y-43225000I-100000J0D01*
G01*
X118400000Y-43225000D01*
G75*
G02*
X118300000Y-43125000I0J100000D01*
G01*
G37*
%TD.AperFunction*%
%TO.P,U2,7*%
%TO.N,Net-(C5-Pad2)*%
%TA.AperFunction,SMDPad,CuDef*%
G36*
G01*
X118300000Y-43775000D02*
X118300000Y-43575000D01*
G75*
G02*
X118400000Y-43475000I100000J0D01*
G01*
X119825000Y-43475000D01*
G75*
G02*
X119925000Y-43575000I0J-100000D01*
G01*
X119925000Y-43775000D01*
G75*
G02*
X119825000Y-43875000I-100000J0D01*
G01*
X118400000Y-43875000D01*
G75*
G02*
X118300000Y-43775000I0J100000D01*
G01*
G37*
%TD.AperFunction*%
%TO.P,U2,6*%
%TO.N,Net-(C5-Pad1)*%
%TA.AperFunction,SMDPad,CuDef*%
G36*
G01*
X118300000Y-44425000D02*
X118300000Y-44225000D01*
G75*
G02*
X118400000Y-44125000I100000J0D01*
G01*
X119825000Y-44125000D01*
G75*
G02*
X119925000Y-44225000I0J-100000D01*
G01*
X119925000Y-44425000D01*
G75*
G02*
X119825000Y-44525000I-100000J0D01*
G01*
X118400000Y-44525000D01*
G75*
G02*
X118300000Y-44425000I0J100000D01*
G01*
G37*
%TD.AperFunction*%
%TO.P,U2,5*%
%TO.N,Net-(C3-Pad2)*%
%TA.AperFunction,SMDPad,CuDef*%
G36*
G01*
X118300000Y-45075000D02*
X118300000Y-44875000D01*
G75*
G02*
X118400000Y-44775000I100000J0D01*
G01*
X119825000Y-44775000D01*
G75*
G02*
X119925000Y-44875000I0J-100000D01*
G01*
X119925000Y-45075000D01*
G75*
G02*
X119825000Y-45175000I-100000J0D01*
G01*
X118400000Y-45175000D01*
G75*
G02*
X118300000Y-45075000I0J100000D01*
G01*
G37*
%TD.AperFunction*%
%TO.P,U2,4*%
%TO.N,/V-_filtered*%
%TA.AperFunction,SMDPad,CuDef*%
G36*
G01*
X114075000Y-45075000D02*
X114075000Y-44875000D01*
G75*
G02*
X114175000Y-44775000I100000J0D01*
G01*
X115600000Y-44775000D01*
G75*
G02*
X115700000Y-44875000I0J-100000D01*
G01*
X115700000Y-45075000D01*
G75*
G02*
X115600000Y-45175000I-100000J0D01*
G01*
X114175000Y-45175000D01*
G75*
G02*
X114075000Y-45075000I0J100000D01*
G01*
G37*
%TD.AperFunction*%
%TO.P,U2,3*%
%TO.N,Net-(C1-Pad2)*%
%TA.AperFunction,SMDPad,CuDef*%
G36*
G01*
X114075000Y-44425000D02*
X114075000Y-44225000D01*
G75*
G02*
X114175000Y-44125000I100000J0D01*
G01*
X115600000Y-44125000D01*
G75*
G02*
X115700000Y-44225000I0J-100000D01*
G01*
X115700000Y-44425000D01*
G75*
G02*
X115600000Y-44525000I-100000J0D01*
G01*
X114175000Y-44525000D01*
G75*
G02*
X114075000Y-44425000I0J100000D01*
G01*
G37*
%TD.AperFunction*%
%TO.P,U2,2*%
%TO.N,Net-(C4-Pad1)*%
%TA.AperFunction,SMDPad,CuDef*%
G36*
G01*
X114075000Y-43775000D02*
X114075000Y-43575000D01*
G75*
G02*
X114175000Y-43475000I100000J0D01*
G01*
X115600000Y-43475000D01*
G75*
G02*
X115700000Y-43575000I0J-100000D01*
G01*
X115700000Y-43775000D01*
G75*
G02*
X115600000Y-43875000I-100000J0D01*
G01*
X114175000Y-43875000D01*
G75*
G02*
X114075000Y-43775000I0J100000D01*
G01*
G37*
%TD.AperFunction*%
%TO.P,U2,1*%
%TO.N,Net-(C4-Pad2)*%
%TA.AperFunction,SMDPad,CuDef*%
G36*
G01*
X114075000Y-43125000D02*
X114075000Y-42925000D01*
G75*
G02*
X114175000Y-42825000I100000J0D01*
G01*
X115600000Y-42825000D01*
G75*
G02*
X115700000Y-42925000I0J-100000D01*
G01*
X115700000Y-43125000D01*
G75*
G02*
X115600000Y-43225000I-100000J0D01*
G01*
X114175000Y-43225000D01*
G75*
G02*
X114075000Y-43125000I0J100000D01*
G01*
G37*
%TD.AperFunction*%
%TD*%
%TO.P,R22,2*%
%TO.N,Net-(C17-Pad1)*%
%TA.AperFunction,SMDPad,CuDef*%
G36*
G01*
X111775000Y-60125000D02*
X111775000Y-58875000D01*
G75*
G02*
X112025000Y-58625000I250000J0D01*
G01*
X112775000Y-58625000D01*
G75*
G02*
X113025000Y-58875000I0J-250000D01*
G01*
X113025000Y-60125000D01*
G75*
G02*
X112775000Y-60375000I-250000J0D01*
G01*
X112025000Y-60375000D01*
G75*
G02*
X111775000Y-60125000I0J250000D01*
G01*
G37*
%TD.AperFunction*%
%TO.P,R22,1*%
%TO.N,Net-(R18-Pad2)*%
%TA.AperFunction,SMDPad,CuDef*%
G36*
G01*
X108975000Y-60125000D02*
X108975000Y-58875000D01*
G75*
G02*
X109225000Y-58625000I250000J0D01*
G01*
X109975000Y-58625000D01*
G75*
G02*
X110225000Y-58875000I0J-250000D01*
G01*
X110225000Y-60125000D01*
G75*
G02*
X109975000Y-60375000I-250000J0D01*
G01*
X109225000Y-60375000D01*
G75*
G02*
X108975000Y-60125000I0J250000D01*
G01*
G37*
%TD.AperFunction*%
%TD*%
%TO.P,R21,2*%
%TO.N,Net-(C17-Pad1)*%
%TA.AperFunction,SMDPad,CuDef*%
G36*
G01*
X115225000Y-61875000D02*
X115225000Y-63125000D01*
G75*
G02*
X114975000Y-63375000I-250000J0D01*
G01*
X114225000Y-63375000D01*
G75*
G02*
X113975000Y-63125000I0J250000D01*
G01*
X113975000Y-61875000D01*
G75*
G02*
X114225000Y-61625000I250000J0D01*
G01*
X114975000Y-61625000D01*
G75*
G02*
X115225000Y-61875000I0J-250000D01*
G01*
G37*
%TD.AperFunction*%
%TO.P,R21,1*%
%TO.N,Net-(R15-Pad2)*%
%TA.AperFunction,SMDPad,CuDef*%
G36*
G01*
X118025000Y-61875000D02*
X118025000Y-63125000D01*
G75*
G02*
X117775000Y-63375000I-250000J0D01*
G01*
X117025000Y-63375000D01*
G75*
G02*
X116775000Y-63125000I0J250000D01*
G01*
X116775000Y-61875000D01*
G75*
G02*
X117025000Y-61625000I250000J0D01*
G01*
X117775000Y-61625000D01*
G75*
G02*
X118025000Y-61875000I0J-250000D01*
G01*
G37*
%TD.AperFunction*%
%TD*%
%TO.P,R20,2*%
%TO.N,Net-(R14-Pad1)*%
%TA.AperFunction,SMDPad,CuDef*%
G36*
G01*
X106775000Y-62525000D02*
X106775000Y-61275000D01*
G75*
G02*
X107025000Y-61025000I250000J0D01*
G01*
X107775000Y-61025000D01*
G75*
G02*
X108025000Y-61275000I0J-250000D01*
G01*
X108025000Y-62525000D01*
G75*
G02*
X107775000Y-62775000I-250000J0D01*
G01*
X107025000Y-62775000D01*
G75*
G02*
X106775000Y-62525000I0J250000D01*
G01*
G37*
%TD.AperFunction*%
%TO.P,R20,1*%
%TO.N,Net-(J1-Pad1)*%
%TA.AperFunction,SMDPad,CuDef*%
G36*
G01*
X103975000Y-62525000D02*
X103975000Y-61275000D01*
G75*
G02*
X104225000Y-61025000I250000J0D01*
G01*
X104975000Y-61025000D01*
G75*
G02*
X105225000Y-61275000I0J-250000D01*
G01*
X105225000Y-62525000D01*
G75*
G02*
X104975000Y-62775000I-250000J0D01*
G01*
X104225000Y-62775000D01*
G75*
G02*
X103975000Y-62525000I0J250000D01*
G01*
G37*
%TD.AperFunction*%
%TD*%
%TO.P,R19,2*%
%TO.N,Net-(C18-Pad2)*%
%TA.AperFunction,SMDPad,CuDef*%
G36*
G01*
X132756250Y-57650000D02*
X132243750Y-57650000D01*
G75*
G02*
X132025000Y-57431250I0J218750D01*
G01*
X132025000Y-56993750D01*
G75*
G02*
X132243750Y-56775000I218750J0D01*
G01*
X132756250Y-56775000D01*
G75*
G02*
X132975000Y-56993750I0J-218750D01*
G01*
X132975000Y-57431250D01*
G75*
G02*
X132756250Y-57650000I-218750J0D01*
G01*
G37*
%TD.AperFunction*%
%TO.P,R19,1*%
%TO.N,Net-(C19-Pad1)*%
%TA.AperFunction,SMDPad,CuDef*%
G36*
G01*
X132756250Y-59225000D02*
X132243750Y-59225000D01*
G75*
G02*
X132025000Y-59006250I0J218750D01*
G01*
X132025000Y-58568750D01*
G75*
G02*
X132243750Y-58350000I218750J0D01*
G01*
X132756250Y-58350000D01*
G75*
G02*
X132975000Y-58568750I0J-218750D01*
G01*
X132975000Y-59006250D01*
G75*
G02*
X132756250Y-59225000I-218750J0D01*
G01*
G37*
%TD.AperFunction*%
%TD*%
%TO.P,R18,2*%
%TO.N,Net-(R18-Pad2)*%
%TA.AperFunction,SMDPad,CuDef*%
G36*
G01*
X106775000Y-60125000D02*
X106775000Y-58875000D01*
G75*
G02*
X107025000Y-58625000I250000J0D01*
G01*
X107775000Y-58625000D01*
G75*
G02*
X108025000Y-58875000I0J-250000D01*
G01*
X108025000Y-60125000D01*
G75*
G02*
X107775000Y-60375000I-250000J0D01*
G01*
X107025000Y-60375000D01*
G75*
G02*
X106775000Y-60125000I0J250000D01*
G01*
G37*
%TD.AperFunction*%
%TO.P,R18,1*%
%TO.N,/GND*%
%TA.AperFunction,SMDPad,CuDef*%
G36*
G01*
X103975000Y-60125000D02*
X103975000Y-58875000D01*
G75*
G02*
X104225000Y-58625000I250000J0D01*
G01*
X104975000Y-58625000D01*
G75*
G02*
X105225000Y-58875000I0J-250000D01*
G01*
X105225000Y-60125000D01*
G75*
G02*
X104975000Y-60375000I-250000J0D01*
G01*
X104225000Y-60375000D01*
G75*
G02*
X103975000Y-60125000I0J250000D01*
G01*
G37*
%TD.AperFunction*%
%TD*%
%TO.P,R17,2*%
%TO.N,Net-(C18-Pad1)*%
%TA.AperFunction,SMDPad,CuDef*%
G36*
G01*
X130756250Y-57650000D02*
X130243750Y-57650000D01*
G75*
G02*
X130025000Y-57431250I0J218750D01*
G01*
X130025000Y-56993750D01*
G75*
G02*
X130243750Y-56775000I218750J0D01*
G01*
X130756250Y-56775000D01*
G75*
G02*
X130975000Y-56993750I0J-218750D01*
G01*
X130975000Y-57431250D01*
G75*
G02*
X130756250Y-57650000I-218750J0D01*
G01*
G37*
%TD.AperFunction*%
%TO.P,R17,1*%
%TO.N,Net-(C19-Pad1)*%
%TA.AperFunction,SMDPad,CuDef*%
G36*
G01*
X130756250Y-59225000D02*
X130243750Y-59225000D01*
G75*
G02*
X130025000Y-59006250I0J218750D01*
G01*
X130025000Y-58568750D01*
G75*
G02*
X130243750Y-58350000I218750J0D01*
G01*
X130756250Y-58350000D01*
G75*
G02*
X130975000Y-58568750I0J-218750D01*
G01*
X130975000Y-59006250D01*
G75*
G02*
X130756250Y-59225000I-218750J0D01*
G01*
G37*
%TD.AperFunction*%
%TD*%
%TO.P,R16,2*%
%TO.N,Net-(C18-Pad1)*%
%TA.AperFunction,SMDPad,CuDef*%
G36*
G01*
X126756250Y-57650000D02*
X126243750Y-57650000D01*
G75*
G02*
X126025000Y-57431250I0J218750D01*
G01*
X126025000Y-56993750D01*
G75*
G02*
X126243750Y-56775000I218750J0D01*
G01*
X126756250Y-56775000D01*
G75*
G02*
X126975000Y-56993750I0J-218750D01*
G01*
X126975000Y-57431250D01*
G75*
G02*
X126756250Y-57650000I-218750J0D01*
G01*
G37*
%TD.AperFunction*%
%TO.P,R16,1*%
%TO.N,Net-(J4-Pad1)*%
%TA.AperFunction,SMDPad,CuDef*%
G36*
G01*
X126756250Y-59225000D02*
X126243750Y-59225000D01*
G75*
G02*
X126025000Y-59006250I0J218750D01*
G01*
X126025000Y-58568750D01*
G75*
G02*
X126243750Y-58350000I218750J0D01*
G01*
X126756250Y-58350000D01*
G75*
G02*
X126975000Y-58568750I0J-218750D01*
G01*
X126975000Y-59006250D01*
G75*
G02*
X126756250Y-59225000I-218750J0D01*
G01*
G37*
%TD.AperFunction*%
%TD*%
%TO.P,R15,2*%
%TO.N,Net-(R15-Pad2)*%
%TA.AperFunction,SMDPad,CuDef*%
G36*
G01*
X120825000Y-61875000D02*
X120825000Y-63125000D01*
G75*
G02*
X120575000Y-63375000I-250000J0D01*
G01*
X119825000Y-63375000D01*
G75*
G02*
X119575000Y-63125000I0J250000D01*
G01*
X119575000Y-61875000D01*
G75*
G02*
X119825000Y-61625000I250000J0D01*
G01*
X120575000Y-61625000D01*
G75*
G02*
X120825000Y-61875000I0J-250000D01*
G01*
G37*
%TD.AperFunction*%
%TO.P,R15,1*%
%TO.N,Net-(J9-Pad1)*%
%TA.AperFunction,SMDPad,CuDef*%
G36*
G01*
X123625000Y-61875000D02*
X123625000Y-63125000D01*
G75*
G02*
X123375000Y-63375000I-250000J0D01*
G01*
X122625000Y-63375000D01*
G75*
G02*
X122375000Y-63125000I0J250000D01*
G01*
X122375000Y-61875000D01*
G75*
G02*
X122625000Y-61625000I250000J0D01*
G01*
X123375000Y-61625000D01*
G75*
G02*
X123625000Y-61875000I0J-250000D01*
G01*
G37*
%TD.AperFunction*%
%TD*%
%TO.P,R14,2*%
%TO.N,Net-(C17-Pad1)*%
%TA.AperFunction,SMDPad,CuDef*%
G36*
G01*
X111775000Y-62525000D02*
X111775000Y-61275000D01*
G75*
G02*
X112025000Y-61025000I250000J0D01*
G01*
X112775000Y-61025000D01*
G75*
G02*
X113025000Y-61275000I0J-250000D01*
G01*
X113025000Y-62525000D01*
G75*
G02*
X112775000Y-62775000I-250000J0D01*
G01*
X112025000Y-62775000D01*
G75*
G02*
X111775000Y-62525000I0J250000D01*
G01*
G37*
%TD.AperFunction*%
%TO.P,R14,1*%
%TO.N,Net-(R14-Pad1)*%
%TA.AperFunction,SMDPad,CuDef*%
G36*
G01*
X108975000Y-62525000D02*
X108975000Y-61275000D01*
G75*
G02*
X109225000Y-61025000I250000J0D01*
G01*
X109975000Y-61025000D01*
G75*
G02*
X110225000Y-61275000I0J-250000D01*
G01*
X110225000Y-62525000D01*
G75*
G02*
X109975000Y-62775000I-250000J0D01*
G01*
X109225000Y-62775000D01*
G75*
G02*
X108975000Y-62525000I0J250000D01*
G01*
G37*
%TD.AperFunction*%
%TD*%
%TO.P,R13,2*%
%TO.N,Net-(C17-Pad1)*%
%TA.AperFunction,SMDPad,CuDef*%
G36*
G01*
X102756250Y-55650000D02*
X102243750Y-55650000D01*
G75*
G02*
X102025000Y-55431250I0J218750D01*
G01*
X102025000Y-54993750D01*
G75*
G02*
X102243750Y-54775000I218750J0D01*
G01*
X102756250Y-54775000D01*
G75*
G02*
X102975000Y-54993750I0J-218750D01*
G01*
X102975000Y-55431250D01*
G75*
G02*
X102756250Y-55650000I-218750J0D01*
G01*
G37*
%TD.AperFunction*%
%TO.P,R13,1*%
%TO.N,Net-(C16-Pad1)*%
%TA.AperFunction,SMDPad,CuDef*%
G36*
G01*
X102756250Y-57225000D02*
X102243750Y-57225000D01*
G75*
G02*
X102025000Y-57006250I0J218750D01*
G01*
X102025000Y-56568750D01*
G75*
G02*
X102243750Y-56350000I218750J0D01*
G01*
X102756250Y-56350000D01*
G75*
G02*
X102975000Y-56568750I0J-218750D01*
G01*
X102975000Y-57006250D01*
G75*
G02*
X102756250Y-57225000I-218750J0D01*
G01*
G37*
%TD.AperFunction*%
%TD*%
%TO.P,R12,2*%
%TO.N,Net-(C17-Pad2)*%
%TA.AperFunction,SMDPad,CuDef*%
G36*
G01*
X104756250Y-55650000D02*
X104243750Y-55650000D01*
G75*
G02*
X104025000Y-55431250I0J218750D01*
G01*
X104025000Y-54993750D01*
G75*
G02*
X104243750Y-54775000I218750J0D01*
G01*
X104756250Y-54775000D01*
G75*
G02*
X104975000Y-54993750I0J-218750D01*
G01*
X104975000Y-55431250D01*
G75*
G02*
X104756250Y-55650000I-218750J0D01*
G01*
G37*
%TD.AperFunction*%
%TO.P,R12,1*%
%TO.N,Net-(C16-Pad1)*%
%TA.AperFunction,SMDPad,CuDef*%
G36*
G01*
X104756250Y-57225000D02*
X104243750Y-57225000D01*
G75*
G02*
X104025000Y-57006250I0J218750D01*
G01*
X104025000Y-56568750D01*
G75*
G02*
X104243750Y-56350000I218750J0D01*
G01*
X104756250Y-56350000D01*
G75*
G02*
X104975000Y-56568750I0J-218750D01*
G01*
X104975000Y-57006250D01*
G75*
G02*
X104756250Y-57225000I-218750J0D01*
G01*
G37*
%TD.AperFunction*%
%TD*%
%TO.P,R7,2*%
%TO.N,Net-(C4-Pad1)*%
%TA.AperFunction,SMDPad,CuDef*%
G36*
G01*
X109650000Y-48743750D02*
X109650000Y-49256250D01*
G75*
G02*
X109431250Y-49475000I-218750J0D01*
G01*
X108993750Y-49475000D01*
G75*
G02*
X108775000Y-49256250I0J218750D01*
G01*
X108775000Y-48743750D01*
G75*
G02*
X108993750Y-48525000I218750J0D01*
G01*
X109431250Y-48525000D01*
G75*
G02*
X109650000Y-48743750I0J-218750D01*
G01*
G37*
%TD.AperFunction*%
%TO.P,R7,1*%
%TO.N,Net-(R7-Pad1)*%
%TA.AperFunction,SMDPad,CuDef*%
G36*
G01*
X111225000Y-48743750D02*
X111225000Y-49256250D01*
G75*
G02*
X111006250Y-49475000I-218750J0D01*
G01*
X110568750Y-49475000D01*
G75*
G02*
X110350000Y-49256250I0J218750D01*
G01*
X110350000Y-48743750D01*
G75*
G02*
X110568750Y-48525000I218750J0D01*
G01*
X111006250Y-48525000D01*
G75*
G02*
X111225000Y-48743750I0J-218750D01*
G01*
G37*
%TD.AperFunction*%
%TD*%
%TO.P,R6,2*%
%TO.N,Net-(C5-Pad1)*%
%TA.AperFunction,SMDPad,CuDef*%
G36*
G01*
X110062500Y-51256250D02*
X110062500Y-50743750D01*
G75*
G02*
X110281250Y-50525000I218750J0D01*
G01*
X110718750Y-50525000D01*
G75*
G02*
X110937500Y-50743750I0J-218750D01*
G01*
X110937500Y-51256250D01*
G75*
G02*
X110718750Y-51475000I-218750J0D01*
G01*
X110281250Y-51475000D01*
G75*
G02*
X110062500Y-51256250I0J218750D01*
G01*
G37*
%TD.AperFunction*%
%TO.P,R6,1*%
%TO.N,Net-(C2-Pad2)*%
%TA.AperFunction,SMDPad,CuDef*%
G36*
G01*
X108487500Y-51256250D02*
X108487500Y-50743750D01*
G75*
G02*
X108706250Y-50525000I218750J0D01*
G01*
X109143750Y-50525000D01*
G75*
G02*
X109362500Y-50743750I0J-218750D01*
G01*
X109362500Y-51256250D01*
G75*
G02*
X109143750Y-51475000I-218750J0D01*
G01*
X108706250Y-51475000D01*
G75*
G02*
X108487500Y-51256250I0J218750D01*
G01*
G37*
%TD.AperFunction*%
%TD*%
%TO.P,R5,2*%
%TO.N,Net-(C4-Pad1)*%
%TA.AperFunction,SMDPad,CuDef*%
G36*
G01*
X106256250Y-45650000D02*
X105743750Y-45650000D01*
G75*
G02*
X105525000Y-45431250I0J218750D01*
G01*
X105525000Y-44993750D01*
G75*
G02*
X105743750Y-44775000I218750J0D01*
G01*
X106256250Y-44775000D01*
G75*
G02*
X106475000Y-44993750I0J-218750D01*
G01*
X106475000Y-45431250D01*
G75*
G02*
X106256250Y-45650000I-218750J0D01*
G01*
G37*
%TD.AperFunction*%
%TO.P,R5,1*%
%TO.N,Net-(C2-Pad1)*%
%TA.AperFunction,SMDPad,CuDef*%
G36*
G01*
X106256250Y-47225000D02*
X105743750Y-47225000D01*
G75*
G02*
X105525000Y-47006250I0J218750D01*
G01*
X105525000Y-46568750D01*
G75*
G02*
X105743750Y-46350000I218750J0D01*
G01*
X106256250Y-46350000D01*
G75*
G02*
X106475000Y-46568750I0J-218750D01*
G01*
X106475000Y-47006250D01*
G75*
G02*
X106256250Y-47225000I-218750J0D01*
G01*
G37*
%TD.AperFunction*%
%TD*%
%TO.P,R4,2*%
%TO.N,Net-(C5-Pad1)*%
%TA.AperFunction,SMDPad,CuDef*%
G36*
G01*
X119456250Y-58050000D02*
X118543750Y-58050000D01*
G75*
G02*
X118300000Y-57806250I0J243750D01*
G01*
X118300000Y-57318750D01*
G75*
G02*
X118543750Y-57075000I243750J0D01*
G01*
X119456250Y-57075000D01*
G75*
G02*
X119700000Y-57318750I0J-243750D01*
G01*
X119700000Y-57806250D01*
G75*
G02*
X119456250Y-58050000I-243750J0D01*
G01*
G37*
%TD.AperFunction*%
%TO.P,R4,1*%
%TO.N,/GND*%
%TA.AperFunction,SMDPad,CuDef*%
G36*
G01*
X119456250Y-59925000D02*
X118543750Y-59925000D01*
G75*
G02*
X118300000Y-59681250I0J243750D01*
G01*
X118300000Y-59193750D01*
G75*
G02*
X118543750Y-58950000I243750J0D01*
G01*
X119456250Y-58950000D01*
G75*
G02*
X119700000Y-59193750I0J-243750D01*
G01*
X119700000Y-59681250D01*
G75*
G02*
X119456250Y-59925000I-243750J0D01*
G01*
G37*
%TD.AperFunction*%
%TD*%
%TO.P,R3,2*%
%TO.N,Net-(Q1-Pad1)*%
%TA.AperFunction,SMDPad,CuDef*%
G36*
G01*
X107743750Y-43350000D02*
X108256250Y-43350000D01*
G75*
G02*
X108475000Y-43568750I0J-218750D01*
G01*
X108475000Y-44006250D01*
G75*
G02*
X108256250Y-44225000I-218750J0D01*
G01*
X107743750Y-44225000D01*
G75*
G02*
X107525000Y-44006250I0J218750D01*
G01*
X107525000Y-43568750D01*
G75*
G02*
X107743750Y-43350000I218750J0D01*
G01*
G37*
%TD.AperFunction*%
%TO.P,R3,1*%
%TO.N,Net-(C4-Pad2)*%
%TA.AperFunction,SMDPad,CuDef*%
G36*
G01*
X107743750Y-41775000D02*
X108256250Y-41775000D01*
G75*
G02*
X108475000Y-41993750I0J-218750D01*
G01*
X108475000Y-42431250D01*
G75*
G02*
X108256250Y-42650000I-218750J0D01*
G01*
X107743750Y-42650000D01*
G75*
G02*
X107525000Y-42431250I0J218750D01*
G01*
X107525000Y-41993750D01*
G75*
G02*
X107743750Y-41775000I218750J0D01*
G01*
G37*
%TD.AperFunction*%
%TD*%
D11*
%TO.P,Q1,3*%
%TO.N,/VCC*%
X112050000Y-46000000D03*
%TO.P,Q1,2*%
%TO.N,Net-(C2-Pad2)*%
X110050000Y-46950000D03*
%TO.P,Q1,1*%
%TO.N,Net-(Q1-Pad1)*%
X110050000Y-45050000D03*
%TD*%
%TA.AperFunction,SMDPad,CuDef*%
D12*
%TO.P,JP2,2*%
%TO.N,Net-(J10-Pad1)*%
G36*
X101350000Y-60249398D02*
G01*
X101325466Y-60249398D01*
X101276635Y-60244588D01*
X101228510Y-60235016D01*
X101181555Y-60220772D01*
X101136222Y-60201995D01*
X101092949Y-60178864D01*
X101052150Y-60151604D01*
X101014221Y-60120476D01*
X100979524Y-60085779D01*
X100948396Y-60047850D01*
X100921136Y-60007051D01*
X100898005Y-59963778D01*
X100879228Y-59918445D01*
X100864984Y-59871490D01*
X100855412Y-59823365D01*
X100850602Y-59774534D01*
X100850602Y-59750000D01*
X100850000Y-59750000D01*
X100850000Y-59250000D01*
X100850602Y-59250000D01*
X100850602Y-59225466D01*
X100855412Y-59176635D01*
X100864984Y-59128510D01*
X100879228Y-59081555D01*
X100898005Y-59036222D01*
X100921136Y-58992949D01*
X100948396Y-58952150D01*
X100979524Y-58914221D01*
X101014221Y-58879524D01*
X101052150Y-58848396D01*
X101092949Y-58821136D01*
X101136222Y-58798005D01*
X101181555Y-58779228D01*
X101228510Y-58764984D01*
X101276635Y-58755412D01*
X101325466Y-58750602D01*
X101350000Y-58750602D01*
X101350000Y-58750000D01*
X101850000Y-58750000D01*
X101850000Y-60250000D01*
X101350000Y-60250000D01*
X101350000Y-60249398D01*
G37*
%TD.AperFunction*%
%TA.AperFunction,SMDPad,CuDef*%
%TO.P,JP2,1*%
%TO.N,/GND*%
G36*
X102150000Y-58750000D02*
G01*
X102650000Y-58750000D01*
X102650000Y-58750602D01*
X102674534Y-58750602D01*
X102723365Y-58755412D01*
X102771490Y-58764984D01*
X102818445Y-58779228D01*
X102863778Y-58798005D01*
X102907051Y-58821136D01*
X102947850Y-58848396D01*
X102985779Y-58879524D01*
X103020476Y-58914221D01*
X103051604Y-58952150D01*
X103078864Y-58992949D01*
X103101995Y-59036222D01*
X103120772Y-59081555D01*
X103135016Y-59128510D01*
X103144588Y-59176635D01*
X103149398Y-59225466D01*
X103149398Y-59250000D01*
X103150000Y-59250000D01*
X103150000Y-59750000D01*
X103149398Y-59750000D01*
X103149398Y-59774534D01*
X103144588Y-59823365D01*
X103135016Y-59871490D01*
X103120772Y-59918445D01*
X103101995Y-59963778D01*
X103078864Y-60007051D01*
X103051604Y-60047850D01*
X103020476Y-60085779D01*
X102985779Y-60120476D01*
X102947850Y-60151604D01*
X102907051Y-60178864D01*
X102863778Y-60201995D01*
X102818445Y-60220772D01*
X102771490Y-60235016D01*
X102723365Y-60244588D01*
X102674534Y-60249398D01*
X102650000Y-60249398D01*
X102650000Y-60250000D01*
X102150000Y-60250000D01*
X102150000Y-58750000D01*
G37*
%TD.AperFunction*%
%TD*%
%TA.AperFunction,SMDPad,CuDef*%
%TO.P,JP1,2*%
%TO.N,Net-(J1-Pad1)*%
G36*
X102650000Y-61150602D02*
G01*
X102674534Y-61150602D01*
X102723365Y-61155412D01*
X102771490Y-61164984D01*
X102818445Y-61179228D01*
X102863778Y-61198005D01*
X102907051Y-61221136D01*
X102947850Y-61248396D01*
X102985779Y-61279524D01*
X103020476Y-61314221D01*
X103051604Y-61352150D01*
X103078864Y-61392949D01*
X103101995Y-61436222D01*
X103120772Y-61481555D01*
X103135016Y-61528510D01*
X103144588Y-61576635D01*
X103149398Y-61625466D01*
X103149398Y-61650000D01*
X103150000Y-61650000D01*
X103150000Y-62150000D01*
X103149398Y-62150000D01*
X103149398Y-62174534D01*
X103144588Y-62223365D01*
X103135016Y-62271490D01*
X103120772Y-62318445D01*
X103101995Y-62363778D01*
X103078864Y-62407051D01*
X103051604Y-62447850D01*
X103020476Y-62485779D01*
X102985779Y-62520476D01*
X102947850Y-62551604D01*
X102907051Y-62578864D01*
X102863778Y-62601995D01*
X102818445Y-62620772D01*
X102771490Y-62635016D01*
X102723365Y-62644588D01*
X102674534Y-62649398D01*
X102650000Y-62649398D01*
X102650000Y-62650000D01*
X102150000Y-62650000D01*
X102150000Y-61150000D01*
X102650000Y-61150000D01*
X102650000Y-61150602D01*
G37*
%TD.AperFunction*%
%TA.AperFunction,SMDPad,CuDef*%
%TO.P,JP1,1*%
%TO.N,Net-(J10-Pad1)*%
G36*
X101850000Y-62650000D02*
G01*
X101350000Y-62650000D01*
X101350000Y-62649398D01*
X101325466Y-62649398D01*
X101276635Y-62644588D01*
X101228510Y-62635016D01*
X101181555Y-62620772D01*
X101136222Y-62601995D01*
X101092949Y-62578864D01*
X101052150Y-62551604D01*
X101014221Y-62520476D01*
X100979524Y-62485779D01*
X100948396Y-62447850D01*
X100921136Y-62407051D01*
X100898005Y-62363778D01*
X100879228Y-62318445D01*
X100864984Y-62271490D01*
X100855412Y-62223365D01*
X100850602Y-62174534D01*
X100850602Y-62150000D01*
X100850000Y-62150000D01*
X100850000Y-61650000D01*
X100850602Y-61650000D01*
X100850602Y-61625466D01*
X100855412Y-61576635D01*
X100864984Y-61528510D01*
X100879228Y-61481555D01*
X100898005Y-61436222D01*
X100921136Y-61392949D01*
X100948396Y-61352150D01*
X100979524Y-61314221D01*
X101014221Y-61279524D01*
X101052150Y-61248396D01*
X101092949Y-61221136D01*
X101136222Y-61198005D01*
X101181555Y-61179228D01*
X101228510Y-61164984D01*
X101276635Y-61155412D01*
X101325466Y-61150602D01*
X101350000Y-61150602D01*
X101350000Y-61150000D01*
X101850000Y-61150000D01*
X101850000Y-62650000D01*
G37*
%TD.AperFunction*%
%TD*%
%TO.P,FB1,2*%
%TO.N,/GND*%
%TA.AperFunction,SMDPad,CuDef*%
G36*
G01*
X107650000Y-56243750D02*
X107650000Y-56756250D01*
G75*
G02*
X107431250Y-56975000I-218750J0D01*
G01*
X106993750Y-56975000D01*
G75*
G02*
X106775000Y-56756250I0J218750D01*
G01*
X106775000Y-56243750D01*
G75*
G02*
X106993750Y-56025000I218750J0D01*
G01*
X107431250Y-56025000D01*
G75*
G02*
X107650000Y-56243750I0J-218750D01*
G01*
G37*
%TD.AperFunction*%
%TO.P,FB1,1*%
%TO.N,Net-(D1-Pad1)*%
%TA.AperFunction,SMDPad,CuDef*%
G36*
G01*
X109225000Y-56243750D02*
X109225000Y-56756250D01*
G75*
G02*
X109006250Y-56975000I-218750J0D01*
G01*
X108568750Y-56975000D01*
G75*
G02*
X108350000Y-56756250I0J218750D01*
G01*
X108350000Y-56243750D01*
G75*
G02*
X108568750Y-56025000I218750J0D01*
G01*
X109006250Y-56025000D01*
G75*
G02*
X109225000Y-56243750I0J-218750D01*
G01*
G37*
%TD.AperFunction*%
%TD*%
D10*
%TO.P,D2,2*%
%TO.N,Net-(C5-Pad2)*%
X114500000Y-60550000D03*
%TO.P,D2,1*%
%TO.N,Net-(D2-Pad1)*%
X114500000Y-58450000D03*
%TD*%
%TO.P,C19,2*%
%TO.N,/GND*%
%TA.AperFunction,SMDPad,CuDef*%
G36*
G01*
X128756250Y-57650000D02*
X128243750Y-57650000D01*
G75*
G02*
X128025000Y-57431250I0J218750D01*
G01*
X128025000Y-56993750D01*
G75*
G02*
X128243750Y-56775000I218750J0D01*
G01*
X128756250Y-56775000D01*
G75*
G02*
X128975000Y-56993750I0J-218750D01*
G01*
X128975000Y-57431250D01*
G75*
G02*
X128756250Y-57650000I-218750J0D01*
G01*
G37*
%TD.AperFunction*%
%TO.P,C19,1*%
%TO.N,Net-(C19-Pad1)*%
%TA.AperFunction,SMDPad,CuDef*%
G36*
G01*
X128756250Y-59225000D02*
X128243750Y-59225000D01*
G75*
G02*
X128025000Y-59006250I0J218750D01*
G01*
X128025000Y-58568750D01*
G75*
G02*
X128243750Y-58350000I218750J0D01*
G01*
X128756250Y-58350000D01*
G75*
G02*
X128975000Y-58568750I0J-218750D01*
G01*
X128975000Y-59006250D01*
G75*
G02*
X128756250Y-59225000I-218750J0D01*
G01*
G37*
%TD.AperFunction*%
%TD*%
%TO.P,C18,2*%
%TO.N,Net-(C18-Pad2)*%
%TA.AperFunction,SMDPad,CuDef*%
G36*
G01*
X130850000Y-55256250D02*
X130850000Y-54743750D01*
G75*
G02*
X131068750Y-54525000I218750J0D01*
G01*
X131506250Y-54525000D01*
G75*
G02*
X131725000Y-54743750I0J-218750D01*
G01*
X131725000Y-55256250D01*
G75*
G02*
X131506250Y-55475000I-218750J0D01*
G01*
X131068750Y-55475000D01*
G75*
G02*
X130850000Y-55256250I0J218750D01*
G01*
G37*
%TD.AperFunction*%
%TO.P,C18,1*%
%TO.N,Net-(C18-Pad1)*%
%TA.AperFunction,SMDPad,CuDef*%
G36*
G01*
X129275000Y-55256250D02*
X129275000Y-54743750D01*
G75*
G02*
X129493750Y-54525000I218750J0D01*
G01*
X129931250Y-54525000D01*
G75*
G02*
X130150000Y-54743750I0J-218750D01*
G01*
X130150000Y-55256250D01*
G75*
G02*
X129931250Y-55475000I-218750J0D01*
G01*
X129493750Y-55475000D01*
G75*
G02*
X129275000Y-55256250I0J218750D01*
G01*
G37*
%TD.AperFunction*%
%TD*%
%TO.P,C17,2*%
%TO.N,Net-(C17-Pad2)*%
%TA.AperFunction,SMDPad,CuDef*%
G36*
G01*
X103850000Y-53256250D02*
X103850000Y-52743750D01*
G75*
G02*
X104068750Y-52525000I218750J0D01*
G01*
X104506250Y-52525000D01*
G75*
G02*
X104725000Y-52743750I0J-218750D01*
G01*
X104725000Y-53256250D01*
G75*
G02*
X104506250Y-53475000I-218750J0D01*
G01*
X104068750Y-53475000D01*
G75*
G02*
X103850000Y-53256250I0J218750D01*
G01*
G37*
%TD.AperFunction*%
%TO.P,C17,1*%
%TO.N,Net-(C17-Pad1)*%
%TA.AperFunction,SMDPad,CuDef*%
G36*
G01*
X102275000Y-53256250D02*
X102275000Y-52743750D01*
G75*
G02*
X102493750Y-52525000I218750J0D01*
G01*
X102931250Y-52525000D01*
G75*
G02*
X103150000Y-52743750I0J-218750D01*
G01*
X103150000Y-53256250D01*
G75*
G02*
X102931250Y-53475000I-218750J0D01*
G01*
X102493750Y-53475000D01*
G75*
G02*
X102275000Y-53256250I0J218750D01*
G01*
G37*
%TD.AperFunction*%
%TD*%
%TO.P,C16,2*%
%TO.N,/GND*%
%TA.AperFunction,SMDPad,CuDef*%
G36*
G01*
X106756250Y-53650000D02*
X106243750Y-53650000D01*
G75*
G02*
X106025000Y-53431250I0J218750D01*
G01*
X106025000Y-52993750D01*
G75*
G02*
X106243750Y-52775000I218750J0D01*
G01*
X106756250Y-52775000D01*
G75*
G02*
X106975000Y-52993750I0J-218750D01*
G01*
X106975000Y-53431250D01*
G75*
G02*
X106756250Y-53650000I-218750J0D01*
G01*
G37*
%TD.AperFunction*%
%TO.P,C16,1*%
%TO.N,Net-(C16-Pad1)*%
%TA.AperFunction,SMDPad,CuDef*%
G36*
G01*
X106756250Y-55225000D02*
X106243750Y-55225000D01*
G75*
G02*
X106025000Y-55006250I0J218750D01*
G01*
X106025000Y-54568750D01*
G75*
G02*
X106243750Y-54350000I218750J0D01*
G01*
X106756250Y-54350000D01*
G75*
G02*
X106975000Y-54568750I0J-218750D01*
G01*
X106975000Y-55006250D01*
G75*
G02*
X106756250Y-55225000I-218750J0D01*
G01*
G37*
%TD.AperFunction*%
%TD*%
%TO.P,C15,2*%
%TO.N,/GND*%
%TA.AperFunction,SMDPad,CuDef*%
G36*
G01*
X129756250Y-47862500D02*
X129243750Y-47862500D01*
G75*
G02*
X129025000Y-47643750I0J218750D01*
G01*
X129025000Y-47206250D01*
G75*
G02*
X129243750Y-46987500I218750J0D01*
G01*
X129756250Y-46987500D01*
G75*
G02*
X129975000Y-47206250I0J-218750D01*
G01*
X129975000Y-47643750D01*
G75*
G02*
X129756250Y-47862500I-218750J0D01*
G01*
G37*
%TD.AperFunction*%
%TO.P,C15,1*%
%TO.N,/V-_filtered*%
%TA.AperFunction,SMDPad,CuDef*%
G36*
G01*
X129756250Y-49437500D02*
X129243750Y-49437500D01*
G75*
G02*
X129025000Y-49218750I0J218750D01*
G01*
X129025000Y-48781250D01*
G75*
G02*
X129243750Y-48562500I218750J0D01*
G01*
X129756250Y-48562500D01*
G75*
G02*
X129975000Y-48781250I0J-218750D01*
G01*
X129975000Y-49218750D01*
G75*
G02*
X129756250Y-49437500I-218750J0D01*
G01*
G37*
%TD.AperFunction*%
%TD*%
%TO.P,C14,2*%
%TO.N,/GND*%
%TA.AperFunction,SMDPad,CuDef*%
G36*
G01*
X102256250Y-46150000D02*
X101743750Y-46150000D01*
G75*
G02*
X101525000Y-45931250I0J218750D01*
G01*
X101525000Y-45493750D01*
G75*
G02*
X101743750Y-45275000I218750J0D01*
G01*
X102256250Y-45275000D01*
G75*
G02*
X102475000Y-45493750I0J-218750D01*
G01*
X102475000Y-45931250D01*
G75*
G02*
X102256250Y-46150000I-218750J0D01*
G01*
G37*
%TD.AperFunction*%
%TO.P,C14,1*%
%TO.N,/V-_filtered*%
%TA.AperFunction,SMDPad,CuDef*%
G36*
G01*
X102256250Y-47725000D02*
X101743750Y-47725000D01*
G75*
G02*
X101525000Y-47506250I0J218750D01*
G01*
X101525000Y-47068750D01*
G75*
G02*
X101743750Y-46850000I218750J0D01*
G01*
X102256250Y-46850000D01*
G75*
G02*
X102475000Y-47068750I0J-218750D01*
G01*
X102475000Y-47506250D01*
G75*
G02*
X102256250Y-47725000I-218750J0D01*
G01*
G37*
%TD.AperFunction*%
%TD*%
%TO.P,C13,2*%
%TO.N,/V+_filtered*%
%TA.AperFunction,SMDPad,CuDef*%
G36*
G01*
X131743750Y-48562500D02*
X132256250Y-48562500D01*
G75*
G02*
X132475000Y-48781250I0J-218750D01*
G01*
X132475000Y-49218750D01*
G75*
G02*
X132256250Y-49437500I-218750J0D01*
G01*
X131743750Y-49437500D01*
G75*
G02*
X131525000Y-49218750I0J218750D01*
G01*
X131525000Y-48781250D01*
G75*
G02*
X131743750Y-48562500I218750J0D01*
G01*
G37*
%TD.AperFunction*%
%TO.P,C13,1*%
%TO.N,/GND*%
%TA.AperFunction,SMDPad,CuDef*%
G36*
G01*
X131743750Y-46987500D02*
X132256250Y-46987500D01*
G75*
G02*
X132475000Y-47206250I0J-218750D01*
G01*
X132475000Y-47643750D01*
G75*
G02*
X132256250Y-47862500I-218750J0D01*
G01*
X131743750Y-47862500D01*
G75*
G02*
X131525000Y-47643750I0J218750D01*
G01*
X131525000Y-47206250D01*
G75*
G02*
X131743750Y-46987500I218750J0D01*
G01*
G37*
%TD.AperFunction*%
%TD*%
%TO.P,C12,2*%
%TO.N,/V+_filtered*%
%TA.AperFunction,SMDPad,CuDef*%
G36*
G01*
X103743750Y-46850000D02*
X104256250Y-46850000D01*
G75*
G02*
X104475000Y-47068750I0J-218750D01*
G01*
X104475000Y-47506250D01*
G75*
G02*
X104256250Y-47725000I-218750J0D01*
G01*
X103743750Y-47725000D01*
G75*
G02*
X103525000Y-47506250I0J218750D01*
G01*
X103525000Y-47068750D01*
G75*
G02*
X103743750Y-46850000I218750J0D01*
G01*
G37*
%TD.AperFunction*%
%TO.P,C12,1*%
%TO.N,/GND*%
%TA.AperFunction,SMDPad,CuDef*%
G36*
G01*
X103743750Y-45275000D02*
X104256250Y-45275000D01*
G75*
G02*
X104475000Y-45493750I0J-218750D01*
G01*
X104475000Y-45931250D01*
G75*
G02*
X104256250Y-46150000I-218750J0D01*
G01*
X103743750Y-46150000D01*
G75*
G02*
X103525000Y-45931250I0J218750D01*
G01*
X103525000Y-45493750D01*
G75*
G02*
X103743750Y-45275000I218750J0D01*
G01*
G37*
%TD.AperFunction*%
%TD*%
%TO.P,C11,2*%
%TO.N,/GND*%
%TA.AperFunction,SMDPad,CuDef*%
G36*
G01*
X115350000Y-41556250D02*
X115350000Y-41043750D01*
G75*
G02*
X115568750Y-40825000I218750J0D01*
G01*
X116006250Y-40825000D01*
G75*
G02*
X116225000Y-41043750I0J-218750D01*
G01*
X116225000Y-41556250D01*
G75*
G02*
X116006250Y-41775000I-218750J0D01*
G01*
X115568750Y-41775000D01*
G75*
G02*
X115350000Y-41556250I0J218750D01*
G01*
G37*
%TD.AperFunction*%
%TO.P,C11,1*%
%TO.N,/V-_filtered*%
%TA.AperFunction,SMDPad,CuDef*%
G36*
G01*
X113775000Y-41556250D02*
X113775000Y-41043750D01*
G75*
G02*
X113993750Y-40825000I218750J0D01*
G01*
X114431250Y-40825000D01*
G75*
G02*
X114650000Y-41043750I0J-218750D01*
G01*
X114650000Y-41556250D01*
G75*
G02*
X114431250Y-41775000I-218750J0D01*
G01*
X113993750Y-41775000D01*
G75*
G02*
X113775000Y-41556250I0J218750D01*
G01*
G37*
%TD.AperFunction*%
%TD*%
%TO.P,C8,2*%
%TO.N,/V+_filtered*%
%TA.AperFunction,SMDPad,CuDef*%
G36*
G01*
X119350000Y-41556250D02*
X119350000Y-41043750D01*
G75*
G02*
X119568750Y-40825000I218750J0D01*
G01*
X120006250Y-40825000D01*
G75*
G02*
X120225000Y-41043750I0J-218750D01*
G01*
X120225000Y-41556250D01*
G75*
G02*
X120006250Y-41775000I-218750J0D01*
G01*
X119568750Y-41775000D01*
G75*
G02*
X119350000Y-41556250I0J218750D01*
G01*
G37*
%TD.AperFunction*%
%TO.P,C8,1*%
%TO.N,/GND*%
%TA.AperFunction,SMDPad,CuDef*%
G36*
G01*
X117775000Y-41556250D02*
X117775000Y-41043750D01*
G75*
G02*
X117993750Y-40825000I218750J0D01*
G01*
X118431250Y-40825000D01*
G75*
G02*
X118650000Y-41043750I0J-218750D01*
G01*
X118650000Y-41556250D01*
G75*
G02*
X118431250Y-41775000I-218750J0D01*
G01*
X117993750Y-41775000D01*
G75*
G02*
X117775000Y-41556250I0J218750D01*
G01*
G37*
%TD.AperFunction*%
%TD*%
%TO.P,C5,2*%
%TO.N,Net-(C5-Pad2)*%
%TA.AperFunction,SMDPad,CuDef*%
G36*
G01*
X122650000Y-42743750D02*
X122650000Y-43256250D01*
G75*
G02*
X122431250Y-43475000I-218750J0D01*
G01*
X121993750Y-43475000D01*
G75*
G02*
X121775000Y-43256250I0J218750D01*
G01*
X121775000Y-42743750D01*
G75*
G02*
X121993750Y-42525000I218750J0D01*
G01*
X122431250Y-42525000D01*
G75*
G02*
X122650000Y-42743750I0J-218750D01*
G01*
G37*
%TD.AperFunction*%
%TO.P,C5,1*%
%TO.N,Net-(C5-Pad1)*%
%TA.AperFunction,SMDPad,CuDef*%
G36*
G01*
X124225000Y-42743750D02*
X124225000Y-43256250D01*
G75*
G02*
X124006250Y-43475000I-218750J0D01*
G01*
X123568750Y-43475000D01*
G75*
G02*
X123350000Y-43256250I0J218750D01*
G01*
X123350000Y-42743750D01*
G75*
G02*
X123568750Y-42525000I218750J0D01*
G01*
X124006250Y-42525000D01*
G75*
G02*
X124225000Y-42743750I0J-218750D01*
G01*
G37*
%TD.AperFunction*%
%TD*%
%TO.P,C4,2*%
%TO.N,Net-(C4-Pad2)*%
%TA.AperFunction,SMDPad,CuDef*%
G36*
G01*
X106256250Y-42650000D02*
X105743750Y-42650000D01*
G75*
G02*
X105525000Y-42431250I0J218750D01*
G01*
X105525000Y-41993750D01*
G75*
G02*
X105743750Y-41775000I218750J0D01*
G01*
X106256250Y-41775000D01*
G75*
G02*
X106475000Y-41993750I0J-218750D01*
G01*
X106475000Y-42431250D01*
G75*
G02*
X106256250Y-42650000I-218750J0D01*
G01*
G37*
%TD.AperFunction*%
%TO.P,C4,1*%
%TO.N,Net-(C4-Pad1)*%
%TA.AperFunction,SMDPad,CuDef*%
G36*
G01*
X106256250Y-44225000D02*
X105743750Y-44225000D01*
G75*
G02*
X105525000Y-44006250I0J218750D01*
G01*
X105525000Y-43568750D01*
G75*
G02*
X105743750Y-43350000I218750J0D01*
G01*
X106256250Y-43350000D01*
G75*
G02*
X106475000Y-43568750I0J-218750D01*
G01*
X106475000Y-44006250D01*
G75*
G02*
X106256250Y-44225000I-218750J0D01*
G01*
G37*
%TD.AperFunction*%
%TD*%
%TO.P,C3,2*%
%TO.N,Net-(C3-Pad2)*%
%TA.AperFunction,SMDPad,CuDef*%
G36*
G01*
X122650000Y-44743750D02*
X122650000Y-45256250D01*
G75*
G02*
X122431250Y-45475000I-218750J0D01*
G01*
X121993750Y-45475000D01*
G75*
G02*
X121775000Y-45256250I0J218750D01*
G01*
X121775000Y-44743750D01*
G75*
G02*
X121993750Y-44525000I218750J0D01*
G01*
X122431250Y-44525000D01*
G75*
G02*
X122650000Y-44743750I0J-218750D01*
G01*
G37*
%TD.AperFunction*%
%TO.P,C3,1*%
%TO.N,/GND*%
%TA.AperFunction,SMDPad,CuDef*%
G36*
G01*
X124225000Y-44743750D02*
X124225000Y-45256250D01*
G75*
G02*
X124006250Y-45475000I-218750J0D01*
G01*
X123568750Y-45475000D01*
G75*
G02*
X123350000Y-45256250I0J218750D01*
G01*
X123350000Y-44743750D01*
G75*
G02*
X123568750Y-44525000I218750J0D01*
G01*
X124006250Y-44525000D01*
G75*
G02*
X124225000Y-44743750I0J-218750D01*
G01*
G37*
%TD.AperFunction*%
%TD*%
%TO.P,C2,2*%
%TO.N,Net-(C2-Pad2)*%
%TA.AperFunction,SMDPad,CuDef*%
G36*
G01*
X107743750Y-46850000D02*
X108256250Y-46850000D01*
G75*
G02*
X108475000Y-47068750I0J-218750D01*
G01*
X108475000Y-47506250D01*
G75*
G02*
X108256250Y-47725000I-218750J0D01*
G01*
X107743750Y-47725000D01*
G75*
G02*
X107525000Y-47506250I0J218750D01*
G01*
X107525000Y-47068750D01*
G75*
G02*
X107743750Y-46850000I218750J0D01*
G01*
G37*
%TD.AperFunction*%
%TO.P,C2,1*%
%TO.N,Net-(C2-Pad1)*%
%TA.AperFunction,SMDPad,CuDef*%
G36*
G01*
X107743750Y-45275000D02*
X108256250Y-45275000D01*
G75*
G02*
X108475000Y-45493750I0J-218750D01*
G01*
X108475000Y-45931250D01*
G75*
G02*
X108256250Y-46150000I-218750J0D01*
G01*
X107743750Y-46150000D01*
G75*
G02*
X107525000Y-45931250I0J218750D01*
G01*
X107525000Y-45493750D01*
G75*
G02*
X107743750Y-45275000I218750J0D01*
G01*
G37*
%TD.AperFunction*%
%TD*%
%TO.P,C1,2*%
%TO.N,Net-(C1-Pad2)*%
%TA.AperFunction,SMDPad,CuDef*%
G36*
G01*
X111062500Y-43256250D02*
X111062500Y-42743750D01*
G75*
G02*
X111281250Y-42525000I218750J0D01*
G01*
X111718750Y-42525000D01*
G75*
G02*
X111937500Y-42743750I0J-218750D01*
G01*
X111937500Y-43256250D01*
G75*
G02*
X111718750Y-43475000I-218750J0D01*
G01*
X111281250Y-43475000D01*
G75*
G02*
X111062500Y-43256250I0J218750D01*
G01*
G37*
%TD.AperFunction*%
%TO.P,C1,1*%
%TO.N,/GND*%
%TA.AperFunction,SMDPad,CuDef*%
G36*
G01*
X109487500Y-43256250D02*
X109487500Y-42743750D01*
G75*
G02*
X109706250Y-42525000I218750J0D01*
G01*
X110143750Y-42525000D01*
G75*
G02*
X110362500Y-42743750I0J-218750D01*
G01*
X110362500Y-43256250D01*
G75*
G02*
X110143750Y-43475000I-218750J0D01*
G01*
X109706250Y-43475000D01*
G75*
G02*
X109487500Y-43256250I0J218750D01*
G01*
G37*
%TD.AperFunction*%
%TD*%
%TO.P,TH1,2*%
%TO.N,Net-(J8-Pad1)*%
%TA.AperFunction,SMDPad,CuDef*%
G36*
G01*
X128825000Y-61375000D02*
X128825000Y-62625000D01*
G75*
G02*
X128575000Y-62875000I-250000J0D01*
G01*
X127825000Y-62875000D01*
G75*
G02*
X127575000Y-62625000I0J250000D01*
G01*
X127575000Y-61375000D01*
G75*
G02*
X127825000Y-61125000I250000J0D01*
G01*
X128575000Y-61125000D01*
G75*
G02*
X128825000Y-61375000I0J-250000D01*
G01*
G37*
%TD.AperFunction*%
%TO.P,TH1,1*%
%TO.N,/GND*%
%TA.AperFunction,SMDPad,CuDef*%
G36*
G01*
X131625000Y-61375000D02*
X131625000Y-62625000D01*
G75*
G02*
X131375000Y-62875000I-250000J0D01*
G01*
X130625000Y-62875000D01*
G75*
G02*
X130375000Y-62625000I0J250000D01*
G01*
X130375000Y-61375000D01*
G75*
G02*
X130625000Y-61125000I250000J0D01*
G01*
X131375000Y-61125000D01*
G75*
G02*
X131625000Y-61375000I0J-250000D01*
G01*
G37*
%TD.AperFunction*%
%TD*%
D13*
%TO.P,RN1,1*%
%TO.N,/GND*%
X123000000Y-50000000D03*
D14*
%TO.P,RN1,3*%
%TO.N,Net-(D2-Pad1)*%
X123000000Y-55080000D03*
%TO.P,RN1,2*%
%TO.N,Net-(R7-Pad1)*%
X123000000Y-52540000D03*
%TD*%
%TO.P,R2,2*%
%TO.N,Net-(C3-Pad2)*%
%TA.AperFunction,SMDPad,CuDef*%
G36*
G01*
X121456250Y-57550000D02*
X120543750Y-57550000D01*
G75*
G02*
X120300000Y-57306250I0J243750D01*
G01*
X120300000Y-56818750D01*
G75*
G02*
X120543750Y-56575000I243750J0D01*
G01*
X121456250Y-56575000D01*
G75*
G02*
X121700000Y-56818750I0J-243750D01*
G01*
X121700000Y-57306250D01*
G75*
G02*
X121456250Y-57550000I-243750J0D01*
G01*
G37*
%TD.AperFunction*%
%TO.P,R2,1*%
%TO.N,Net-(D2-Pad1)*%
%TA.AperFunction,SMDPad,CuDef*%
G36*
G01*
X121456250Y-59425000D02*
X120543750Y-59425000D01*
G75*
G02*
X120300000Y-59181250I0J243750D01*
G01*
X120300000Y-58693750D01*
G75*
G02*
X120543750Y-58450000I243750J0D01*
G01*
X121456250Y-58450000D01*
G75*
G02*
X121700000Y-58693750I0J-243750D01*
G01*
X121700000Y-59181250D01*
G75*
G02*
X121456250Y-59425000I-243750J0D01*
G01*
G37*
%TD.AperFunction*%
%TD*%
%TO.P,U1,8*%
%TO.N,Net-(C1-Pad2)*%
%TA.AperFunction,ComponentPad*%
G36*
G01*
X115640488Y-49220488D02*
X115640488Y-49220488D01*
G75*
G02*
X116489016Y-49220488I424264J-424264D01*
G01*
X116489016Y-49220488D01*
G75*
G02*
X116489016Y-50069016I-424264J-424264D01*
G01*
X116489016Y-50069016D01*
G75*
G02*
X115640488Y-50069016I-424264J424264D01*
G01*
X115640488Y-50069016D01*
G75*
G02*
X115640488Y-49220488I424264J424264D01*
G01*
G37*
%TD.AperFunction*%
%TO.P,U1,7*%
%TO.N,/GND*%
%TA.AperFunction,ComponentPad*%
G36*
G01*
X117705240Y-50075736D02*
X117705240Y-50075736D01*
G75*
G02*
X118553768Y-50075736I424264J-424264D01*
G01*
X118553768Y-50075736D01*
G75*
G02*
X118553768Y-50924264I-424264J-424264D01*
G01*
X118553768Y-50924264D01*
G75*
G02*
X117705240Y-50924264I-424264J424264D01*
G01*
X117705240Y-50924264D01*
G75*
G02*
X117705240Y-50075736I424264J424264D01*
G01*
G37*
%TD.AperFunction*%
%TO.P,U1,6*%
%TO.N,Net-(R7-Pad1)*%
%TA.AperFunction,ComponentPad*%
G36*
G01*
X118560488Y-52140488D02*
X118560488Y-52140488D01*
G75*
G02*
X119409016Y-52140488I424264J-424264D01*
G01*
X119409016Y-52140488D01*
G75*
G02*
X119409016Y-52989016I-424264J-424264D01*
G01*
X119409016Y-52989016D01*
G75*
G02*
X118560488Y-52989016I-424264J424264D01*
G01*
X118560488Y-52989016D01*
G75*
G02*
X118560488Y-52140488I424264J424264D01*
G01*
G37*
%TD.AperFunction*%
%TO.P,U1,5*%
%TO.N,Net-(C3-Pad2)*%
%TA.AperFunction,ComponentPad*%
G36*
G01*
X117705240Y-54205240D02*
X117705240Y-54205240D01*
G75*
G02*
X118553768Y-54205240I424264J-424264D01*
G01*
X118553768Y-54205240D01*
G75*
G02*
X118553768Y-55053768I-424264J-424264D01*
G01*
X118553768Y-55053768D01*
G75*
G02*
X117705240Y-55053768I-424264J424264D01*
G01*
X117705240Y-55053768D01*
G75*
G02*
X117705240Y-54205240I424264J424264D01*
G01*
G37*
%TD.AperFunction*%
%TO.P,U1,4*%
%TO.N,Net-(C5-Pad1)*%
%TA.AperFunction,ComponentPad*%
G36*
G01*
X115640488Y-55060488D02*
X115640488Y-55060488D01*
G75*
G02*
X116489016Y-55060488I424264J-424264D01*
G01*
X116489016Y-55060488D01*
G75*
G02*
X116489016Y-55909016I-424264J-424264D01*
G01*
X116489016Y-55909016D01*
G75*
G02*
X115640488Y-55909016I-424264J424264D01*
G01*
X115640488Y-55909016D01*
G75*
G02*
X115640488Y-55060488I424264J424264D01*
G01*
G37*
%TD.AperFunction*%
%TO.P,U1,3*%
%TO.N,Net-(D2-Pad1)*%
%TA.AperFunction,ComponentPad*%
G36*
G01*
X113575736Y-54205240D02*
X113575736Y-54205240D01*
G75*
G02*
X114424264Y-54205240I424264J-424264D01*
G01*
X114424264Y-54205240D01*
G75*
G02*
X114424264Y-55053768I-424264J-424264D01*
G01*
X114424264Y-55053768D01*
G75*
G02*
X113575736Y-55053768I-424264J424264D01*
G01*
X113575736Y-55053768D01*
G75*
G02*
X113575736Y-54205240I424264J424264D01*
G01*
G37*
%TD.AperFunction*%
%TO.P,U1,2*%
%TO.N,Net-(D1-Pad2)*%
%TA.AperFunction,ComponentPad*%
G36*
G01*
X112720488Y-52140488D02*
X112720488Y-52140488D01*
G75*
G02*
X113569016Y-52140488I424264J-424264D01*
G01*
X113569016Y-52140488D01*
G75*
G02*
X113569016Y-52989016I-424264J-424264D01*
G01*
X113569016Y-52989016D01*
G75*
G02*
X112720488Y-52989016I-424264J424264D01*
G01*
X112720488Y-52989016D01*
G75*
G02*
X112720488Y-52140488I424264J424264D01*
G01*
G37*
%TD.AperFunction*%
%TO.P,U1,1*%
%TO.N,Net-(C2-Pad2)*%
%TA.AperFunction,ComponentPad*%
G36*
G01*
X113434315Y-49934315D02*
X113434315Y-49934315D01*
G75*
G02*
X114282843Y-49934315I424264J-424264D01*
G01*
X114565685Y-50217157D01*
G75*
G02*
X114565685Y-51065685I-424264J-424264D01*
G01*
X114565685Y-51065685D01*
G75*
G02*
X113717157Y-51065685I-424264J424264D01*
G01*
X113434315Y-50782843D01*
G75*
G02*
X113434315Y-49934315I424264J424264D01*
G01*
G37*
%TD.AperFunction*%
%TD*%
%TO.P,R1,2*%
%TO.N,Net-(C1-Pad2)*%
%TA.AperFunction,SMDPad,CuDef*%
G36*
G01*
X122550000Y-46543750D02*
X122550000Y-47456250D01*
G75*
G02*
X122306250Y-47700000I-243750J0D01*
G01*
X121818750Y-47700000D01*
G75*
G02*
X121575000Y-47456250I0J243750D01*
G01*
X121575000Y-46543750D01*
G75*
G02*
X121818750Y-46300000I243750J0D01*
G01*
X122306250Y-46300000D01*
G75*
G02*
X122550000Y-46543750I0J-243750D01*
G01*
G37*
%TD.AperFunction*%
%TO.P,R1,1*%
%TO.N,Net-(D2-Pad1)*%
%TA.AperFunction,SMDPad,CuDef*%
G36*
G01*
X124425000Y-46543750D02*
X124425000Y-47456250D01*
G75*
G02*
X124181250Y-47700000I-243750J0D01*
G01*
X123693750Y-47700000D01*
G75*
G02*
X123450000Y-47456250I0J243750D01*
G01*
X123450000Y-46543750D01*
G75*
G02*
X123693750Y-46300000I243750J0D01*
G01*
X124181250Y-46300000D01*
G75*
G02*
X124425000Y-46543750I0J-243750D01*
G01*
G37*
%TD.AperFunction*%
%TD*%
D15*
%TO.P,J10,1*%
%TO.N,Net-(J10-Pad1)*%
X107250000Y-96500000D03*
%TD*%
%TO.P,J7,1*%
%TO.N,Net-(FB3-Pad1)*%
X122250000Y-96500000D03*
%TD*%
%TO.P,J8,1*%
%TO.N,Net-(J8-Pad1)*%
X117250000Y-96500000D03*
%TD*%
%TO.P,J9,1*%
%TO.N,Net-(J9-Pad1)*%
X112250000Y-96500000D03*
%TD*%
%TO.P,J1,1*%
%TO.N,Net-(J1-Pad1)*%
X107250000Y-76500000D03*
%TD*%
%TO.P,J3,1*%
%TO.N,Net-(C16-Pad1)*%
X117250000Y-76500000D03*
%TD*%
%TO.P,J4,1*%
%TO.N,Net-(J4-Pad1)*%
X122250000Y-76500000D03*
%TD*%
%TO.P,J5,1*%
%TO.N,Net-(C19-Pad1)*%
X127250000Y-76500000D03*
%TD*%
%TO.P,J2,1*%
%TO.N,Net-(D1-Pad1)*%
X112250000Y-76500000D03*
%TD*%
%TO.P,J6,1*%
%TO.N,/VCC*%
X127250000Y-96500000D03*
%TD*%
D16*
%TO.N,/GND*%
X103000000Y-43000000D03*
X131500000Y-43000000D03*
X103000000Y-97000000D03*
D17*
%TO.N,Net-(D2-Pad1)*%
X112000000Y-54500000D03*
%TO.N,/GND*%
X110500000Y-44000000D03*
X117000000Y-44000000D03*
X128500000Y-56000000D03*
X125000000Y-45000000D03*
X106000000Y-58925010D03*
X103000000Y-45500000D03*
X106000000Y-56500000D03*
X107462553Y-53537447D03*
X130058325Y-52062915D03*
X117500000Y-59251973D03*
X131000000Y-46500000D03*
X132000000Y-62000000D03*
D16*
X131500000Y-97000000D03*
D17*
%TO.N,/VCC*%
X115216158Y-47780238D03*
X116864752Y-47800000D03*
X121000000Y-51690000D03*
X114000000Y-81000000D03*
X111525010Y-64000000D03*
%TO.N,/V+_filtered*%
X120700000Y-41300000D03*
X105000000Y-43000000D03*
X130000000Y-82500000D03*
%TO.N,/V-_filtered*%
X127200010Y-46000000D03*
X117000000Y-83000000D03*
X104200000Y-44500000D03*
X114750000Y-65250000D03*
X117065686Y-65184314D03*
%TO.N,Net-(C17-Pad2)*%
X105508348Y-50443723D03*
X105500000Y-52500000D03*
%TO.N,Net-(C17-Pad1)*%
X108500000Y-58000000D03*
X112199999Y-57904323D03*
%TD*%
D18*
%TO.N,Net-(D1-Pad2)*%
X109985248Y-52564752D02*
X109600000Y-52950000D01*
X113144752Y-52564752D02*
X109985248Y-52564752D01*
D19*
%TO.N,Net-(D2-Pad1)*%
X124800011Y-54411359D02*
X124131370Y-55080000D01*
X124800011Y-47862511D02*
X124800011Y-54411359D01*
X124131370Y-55080000D02*
X123000000Y-55080000D01*
X123937500Y-47000000D02*
X124800011Y-47862511D01*
X121000000Y-58672916D02*
X121000000Y-58937500D01*
X123000000Y-56672916D02*
X121000000Y-58672916D01*
X123000000Y-55080000D02*
X123000000Y-56672916D01*
X114000000Y-57950000D02*
X114500000Y-58450000D01*
X114000000Y-54629504D02*
X114000000Y-57950000D01*
X103807114Y-48424990D02*
X104100010Y-48717886D01*
X102017876Y-50325000D02*
X101674990Y-49982114D01*
X104100010Y-48717886D02*
X104100010Y-49169344D01*
X102887500Y-50325000D02*
X102017876Y-50325000D01*
X101674990Y-49982114D02*
X101674990Y-48717886D01*
X101967886Y-48424990D02*
X103807114Y-48424990D01*
X101674990Y-48717886D02*
X101967886Y-48424990D01*
X104100010Y-49169344D02*
X104215333Y-49284667D01*
X111249989Y-53749989D02*
X112000000Y-54500000D01*
X108806467Y-53749989D02*
X111249989Y-53749989D01*
X104708347Y-49777681D02*
X104708347Y-50827724D01*
X104100010Y-49169344D02*
X104708347Y-49777681D01*
X106756477Y-51699999D02*
X108806467Y-53749989D01*
X104708347Y-50827724D02*
X105580622Y-51699999D01*
X105580622Y-51699999D02*
X106756477Y-51699999D01*
X114501973Y-58451973D02*
X114500000Y-58450000D01*
X120514473Y-58451973D02*
X114501973Y-58451973D01*
X121000000Y-58937500D02*
X120514473Y-58451973D01*
D18*
%TO.N,Net-(J4-Pad1)*%
X121614999Y-75864999D02*
X122250000Y-76500000D01*
X121614999Y-67772719D02*
X121614999Y-75864999D01*
X125887718Y-63500000D02*
X121614999Y-67772719D01*
X126500000Y-59225000D02*
X127949990Y-60674990D01*
X128689966Y-63500000D02*
X125887718Y-63500000D01*
X129275010Y-62914956D02*
X128689966Y-63500000D01*
X126500000Y-58787500D02*
X126500000Y-59225000D01*
X127949990Y-60674990D02*
X128864956Y-60674990D01*
X129275010Y-61085044D02*
X129275010Y-62914956D01*
X128864956Y-60674990D02*
X129275010Y-61085044D01*
%TO.N,Net-(Q1-Pad1)*%
X108787500Y-43787500D02*
X110050000Y-45050000D01*
X108000000Y-43787500D02*
X108787500Y-43787500D01*
D20*
%TO.N,Net-(C1-Pad2)*%
X113825000Y-44325000D02*
X114887500Y-44325000D01*
X111500000Y-43000000D02*
X112825000Y-44325000D01*
X112825000Y-44325000D02*
X113825000Y-44325000D01*
D19*
X114017876Y-44325000D02*
X114887500Y-44325000D01*
X113674990Y-44667886D02*
X114017876Y-44325000D01*
X115392876Y-47000000D02*
X113674990Y-45282114D01*
X113674990Y-45282114D02*
X113674990Y-44667886D01*
X116064752Y-47064752D02*
X116000000Y-47000000D01*
X122062500Y-47000000D02*
X116000000Y-47000000D01*
X116064752Y-49644752D02*
X116064752Y-47064752D01*
X116000000Y-47000000D02*
X115392876Y-47000000D01*
%TO.N,Net-(C2-Pad2)*%
X108337500Y-46950000D02*
X108000000Y-47287500D01*
X110050000Y-46950000D02*
X108337500Y-46950000D01*
X108374990Y-50449990D02*
X108925000Y-51000000D01*
X108374990Y-48737430D02*
X108374990Y-50449990D01*
X108000000Y-48362440D02*
X108374990Y-48737430D01*
X108000000Y-47287500D02*
X108000000Y-48362440D01*
X109800010Y-50124990D02*
X108925000Y-51000000D01*
X113624990Y-50124990D02*
X109800010Y-50124990D01*
X114000000Y-50500000D02*
X113624990Y-50124990D01*
%TO.N,Net-(C2-Pad1)*%
X106925000Y-46787500D02*
X108000000Y-45712500D01*
X106000000Y-46787500D02*
X106925000Y-46787500D01*
%TO.N,Net-(C3-Pad2)*%
X122187500Y-44975000D02*
X122212500Y-45000000D01*
X119112500Y-44975000D02*
X122187500Y-44975000D01*
X118567004Y-54629504D02*
X121000000Y-57062500D01*
X118129504Y-54629504D02*
X118567004Y-54629504D01*
X122950010Y-45737510D02*
X122212500Y-45000000D01*
X122950010Y-47630008D02*
X122950010Y-45737510D01*
X124200001Y-48879999D02*
X122950010Y-47630008D01*
X123436003Y-53879999D02*
X124200001Y-53116001D01*
X124200001Y-53116001D02*
X124200001Y-48879999D01*
X122423999Y-53879999D02*
X121000000Y-55303998D01*
X121000000Y-55303998D02*
X121000000Y-57062500D01*
X123436003Y-53879999D02*
X122423999Y-53879999D01*
D18*
%TO.N,/GND*%
X109925000Y-43425000D02*
X110500000Y-44000000D01*
X109925000Y-43000000D02*
X109925000Y-43425000D01*
X128500000Y-57212500D02*
X128500000Y-56000000D01*
X123787500Y-45000000D02*
X125000000Y-45000000D01*
X115787500Y-41300000D02*
X117000000Y-42512500D01*
X117000000Y-42512500D02*
X118212500Y-41300000D01*
X117000000Y-43000000D02*
X117000000Y-42512500D01*
X117000000Y-43000000D02*
X117000000Y-44000000D01*
D19*
X104600000Y-60000000D02*
X104925010Y-60000000D01*
D18*
X104600000Y-59500000D02*
X105425010Y-59500000D01*
X105425010Y-59500000D02*
X106000000Y-58925010D01*
D19*
X104000000Y-45712500D02*
X103212500Y-45712500D01*
X103212500Y-45712500D02*
X103000000Y-45500000D01*
X102787500Y-45712500D02*
X103000000Y-45500000D01*
X102000000Y-45712500D02*
X102787500Y-45712500D01*
X107212500Y-56500000D02*
X106000000Y-56500000D01*
X106500000Y-53212500D02*
X107137606Y-53212500D01*
X107137606Y-53212500D02*
X107462553Y-53537447D01*
D18*
X102650000Y-59500000D02*
X104600000Y-59500000D01*
D19*
X128387500Y-52325000D02*
X129796240Y-52325000D01*
X129796240Y-52325000D02*
X130058325Y-52062915D01*
X119000000Y-59437500D02*
X117685527Y-59437500D01*
X117685527Y-59437500D02*
X117500000Y-59251973D01*
D18*
X132000000Y-47425000D02*
X131925000Y-47425000D01*
X131925000Y-47425000D02*
X131000000Y-46500000D01*
X130075000Y-47425000D02*
X131000000Y-46500000D01*
X129500000Y-47425000D02*
X130075000Y-47425000D01*
X131000000Y-62000000D02*
X132000000Y-62000000D01*
%TO.N,/VCC*%
X112050000Y-46000000D02*
X113435920Y-46000000D01*
X113435920Y-46000000D02*
X115216158Y-47780238D01*
X116864752Y-47800000D02*
X119350010Y-47800000D01*
X119350010Y-47800000D02*
X121000000Y-49449990D01*
X121000000Y-49449990D02*
X121000000Y-51690000D01*
X113332309Y-71000000D02*
X114000000Y-71667691D01*
X114000000Y-71667691D02*
X114000000Y-81000000D01*
X111750000Y-66000000D02*
X111746335Y-66000000D01*
X113332309Y-71000000D02*
X113332309Y-67582309D01*
X113332309Y-67582309D02*
X111750000Y-66000000D01*
X111746335Y-66000000D02*
X111525010Y-65778675D01*
X111525010Y-65778675D02*
X111525010Y-64000000D01*
%TO.N,Net-(C4-Pad2)*%
X108000000Y-42212500D02*
X106000000Y-42212500D01*
D20*
X108537520Y-41674980D02*
X108000000Y-42212500D01*
X112161450Y-41674980D02*
X108537520Y-41674980D01*
X112611480Y-42125010D02*
X113245716Y-42125010D01*
X112161450Y-41674980D02*
X112611480Y-42125010D01*
X114145706Y-43025000D02*
X114887500Y-43025000D01*
X113245716Y-42125010D02*
X114145706Y-43025000D01*
D18*
%TO.N,Net-(C4-Pad1)*%
X106000000Y-45212500D02*
X106000000Y-43787500D01*
D19*
X106000000Y-43787500D02*
X106212500Y-43787500D01*
D20*
X112287510Y-42873924D02*
X112287510Y-42508160D01*
X109470660Y-42174990D02*
X108645650Y-43000000D01*
X111954340Y-42174990D02*
X109470660Y-42174990D01*
X112287510Y-42508160D02*
X111954340Y-42174990D01*
X108645650Y-43000000D02*
X106787500Y-43000000D01*
X106787500Y-43000000D02*
X106000000Y-43787500D01*
X113088586Y-43675000D02*
X114887500Y-43675000D01*
X112287510Y-42873924D02*
X113088586Y-43675000D01*
D19*
X106337510Y-44874990D02*
X106000000Y-45212500D01*
X108512550Y-44874990D02*
X106337510Y-44874990D01*
X108875010Y-45237450D02*
X108512550Y-44874990D01*
X110520003Y-45850001D02*
X109279999Y-45850001D01*
X109279999Y-45850001D02*
X108875010Y-45445012D01*
X110900001Y-46229999D02*
X110520003Y-45850001D01*
X108875010Y-45445012D02*
X108875010Y-45237450D01*
X110900001Y-47670001D02*
X110900001Y-46229999D01*
X110820001Y-47750001D02*
X110900001Y-47670001D01*
X110462499Y-47750001D02*
X110820001Y-47750001D01*
X109212500Y-49000000D02*
X110462499Y-47750001D01*
%TO.N,Net-(C5-Pad2)*%
X119112500Y-43675000D02*
X120325000Y-43675000D01*
X121000000Y-43000000D02*
X122212500Y-43000000D01*
X120325000Y-43675000D02*
X121000000Y-43000000D01*
X124979912Y-55928542D02*
X124979913Y-57416545D01*
X126000031Y-54908423D02*
X124979912Y-55928542D01*
X124979913Y-57416545D02*
X121471438Y-60925020D01*
X122212500Y-43000000D02*
X123087510Y-42124990D01*
X126400010Y-44262450D02*
X126400009Y-47599991D01*
X123087510Y-42124990D02*
X124262550Y-42124990D01*
X121471438Y-60925020D02*
X114875020Y-60925020D01*
X126000031Y-47999969D02*
X126000031Y-54908423D01*
X124262550Y-42124990D02*
X126400010Y-44262450D01*
X114875020Y-60925020D02*
X114500000Y-60550000D01*
X126400009Y-47599991D02*
X126000031Y-47999969D01*
%TO.N,Net-(C5-Pad1)*%
X123787500Y-43000000D02*
X122787500Y-44000000D01*
X120523542Y-44325000D02*
X119112500Y-44325000D01*
X120848542Y-44000000D02*
X120523542Y-44325000D01*
X122787500Y-44000000D02*
X120848542Y-44000000D01*
X116064752Y-54004750D02*
X116064752Y-55484752D01*
X110500000Y-51000000D02*
X113060002Y-51000000D01*
X113060002Y-51000000D02*
X116064752Y-54004750D01*
X118142500Y-57562500D02*
X116064752Y-55484752D01*
X119000000Y-57562500D02*
X118142500Y-57562500D01*
X114189506Y-53000000D02*
X115000000Y-53000000D01*
X112999999Y-54189507D02*
X114189506Y-53000000D01*
X125800001Y-46199999D02*
X125400021Y-46599979D01*
X125800001Y-44510983D02*
X125800001Y-46199999D01*
X123787500Y-43000000D02*
X124289018Y-43000000D01*
X125400021Y-54659891D02*
X124379903Y-55680009D01*
X124379903Y-55680009D02*
X124379903Y-57168013D01*
X125400021Y-46599979D02*
X125400021Y-54659891D01*
X124289018Y-43000000D02*
X125800001Y-44510983D01*
X117389035Y-60325010D02*
X116889035Y-59825010D01*
X124379903Y-57168013D02*
X121222906Y-60325010D01*
X121222906Y-60325010D02*
X117389035Y-60325010D01*
X112999999Y-57999999D02*
X112999999Y-54189507D01*
X113425010Y-58425010D02*
X112999999Y-57999999D01*
X113425010Y-58620012D02*
X113425010Y-58425010D01*
X114630008Y-59825010D02*
X113425010Y-58620012D01*
X116889035Y-59825010D02*
X114630008Y-59825010D01*
D18*
%TO.N,Net-(J1-Pad1)*%
X102650000Y-61900000D02*
X104600000Y-61900000D01*
X104600000Y-61900000D02*
X107913710Y-65213710D01*
X107913710Y-65213710D02*
X108980121Y-65213710D01*
X108980121Y-65213710D02*
X111782299Y-68015888D01*
X107268498Y-76500000D02*
X107250000Y-76500000D01*
X111782299Y-71986199D02*
X107268498Y-76500000D01*
X111782299Y-68015888D02*
X111782299Y-71986199D01*
%TO.N,Net-(J8-Pad1)*%
X120200010Y-93549990D02*
X117250000Y-96500000D01*
X120200010Y-68197745D02*
X120200010Y-93549990D01*
X128200000Y-62000000D02*
X126397755Y-62000000D01*
X126397755Y-62000000D02*
X120200010Y-68197745D01*
%TO.N,Net-(J9-Pad1)*%
X119500000Y-67907793D02*
X119500000Y-89250000D01*
X123000000Y-64407793D02*
X119500000Y-67907793D01*
X123000000Y-62500000D02*
X123000000Y-64407793D01*
X119500000Y-89250000D02*
X112250000Y-96500000D01*
%TO.N,Net-(J10-Pad1)*%
X101350000Y-59500000D02*
X101350000Y-61900000D01*
X101350000Y-61900000D02*
X101400000Y-61900000D01*
X105000000Y-74500000D02*
X105000000Y-94250000D01*
X105415763Y-74084237D02*
X105000000Y-74500000D01*
X111082289Y-71696246D02*
X108694298Y-74084237D01*
X101350000Y-62486412D02*
X104777308Y-65913720D01*
X108694298Y-74084237D02*
X105415763Y-74084237D01*
X111082289Y-68305841D02*
X111082289Y-71696246D01*
X105000000Y-94250000D02*
X107250000Y-96500000D01*
X101350000Y-61900000D02*
X101350000Y-62486412D01*
X104777308Y-65913720D02*
X108690168Y-65913720D01*
X108690168Y-65913720D02*
X111082289Y-68305841D01*
D19*
%TO.N,/V+_filtered*%
X119112500Y-43025000D02*
X119975000Y-43025000D01*
X119975000Y-43025000D02*
X120500000Y-42500000D01*
X120500000Y-42012500D02*
X119787500Y-41300000D01*
X120500000Y-42500000D02*
X120500000Y-42012500D01*
D18*
X120700000Y-41300000D02*
X119787500Y-41300000D01*
X120700000Y-41300000D02*
X126587500Y-41300000D01*
D19*
X104000000Y-47062560D02*
X104000000Y-47287500D01*
X105000000Y-46062560D02*
X104000000Y-47062560D01*
X105000000Y-43000000D02*
X105000000Y-46062560D01*
X105950000Y-49675000D02*
X107112500Y-49675000D01*
X104000000Y-47725000D02*
X105950000Y-49675000D01*
X104000000Y-47287500D02*
X104000000Y-47725000D01*
X131399990Y-51332114D02*
X131742876Y-51675000D01*
X131742876Y-51675000D02*
X132612500Y-51675000D01*
X131399990Y-49600010D02*
X131399990Y-51332114D01*
X132000000Y-49000000D02*
X131399990Y-49600010D01*
D18*
X132925010Y-46929238D02*
X127295772Y-41300000D01*
X132925010Y-48074990D02*
X132925010Y-46929238D01*
X127295772Y-41300000D02*
X126587500Y-41300000D01*
X132000000Y-49000000D02*
X132925010Y-48074990D01*
D19*
X129500000Y-74000000D02*
X130000000Y-74500000D01*
X130000000Y-74500000D02*
X130000000Y-82500000D01*
X128500000Y-74000000D02*
X129500000Y-74000000D01*
X122965019Y-68331914D02*
X122965019Y-71670392D01*
X125326947Y-74032320D02*
X128467680Y-74032320D01*
X132034575Y-65965425D02*
X125331508Y-65965425D01*
X125331508Y-65965425D02*
X122965019Y-68331914D01*
X128467680Y-74032320D02*
X128500000Y-74000000D01*
X122965019Y-71670392D02*
X125326947Y-74032320D01*
X133925010Y-52017886D02*
X133925010Y-64074990D01*
X133582124Y-51675000D02*
X133925010Y-52017886D01*
X133925010Y-64074990D02*
X132034575Y-65965425D01*
X132712500Y-51675000D02*
X133582124Y-51675000D01*
D20*
%TO.N,/V-_filtered*%
X115700000Y-44975000D02*
X114887500Y-44975000D01*
X116050010Y-44624990D02*
X115700000Y-44975000D01*
X115786404Y-42474990D02*
X116050010Y-42738596D01*
X115387490Y-42474990D02*
X115786404Y-42474990D01*
X116050010Y-42738596D02*
X116050010Y-44624990D01*
X114212500Y-41300000D02*
X115387490Y-42474990D01*
D18*
X127212500Y-46012490D02*
X127200010Y-46000000D01*
D19*
X102000000Y-47062560D02*
X102000000Y-47287500D01*
X101074980Y-48212520D02*
X102000000Y-47287500D01*
X101074980Y-50230646D02*
X101074980Y-48212520D01*
X101819334Y-50975000D02*
X101074980Y-50230646D01*
X102887500Y-50975000D02*
X101819334Y-50975000D01*
X131000000Y-52305242D02*
X130330242Y-52975000D01*
X131000000Y-51820588D02*
X131000000Y-52305242D01*
X129500000Y-50320588D02*
X131000000Y-51820588D01*
X130330242Y-52975000D02*
X128387500Y-52975000D01*
X129500000Y-49000000D02*
X129500000Y-50320588D01*
D18*
X127200010Y-46700010D02*
X127200010Y-46000000D01*
X129500000Y-49000000D02*
X127200010Y-46700010D01*
D19*
X126600041Y-55156955D02*
X125579921Y-56177076D01*
X126600041Y-51392835D02*
X126600041Y-55156955D01*
X125579921Y-56177076D02*
X125579921Y-57920079D01*
X129500000Y-49000000D02*
X128992876Y-49000000D01*
X128992876Y-49000000D02*
X126600041Y-51392835D01*
D18*
X121275010Y-62224990D02*
X125579921Y-57920079D01*
X121275010Y-63724990D02*
X121275010Y-62224990D01*
X114934314Y-69565686D02*
X114934314Y-81934314D01*
X114934314Y-81934314D02*
X116000000Y-83000000D01*
X116000000Y-83000000D02*
X117000000Y-83000000D01*
X101074990Y-46362490D02*
X102000000Y-47287500D01*
X101074990Y-45216738D02*
X101074990Y-46362490D01*
X101791728Y-44500000D02*
X101074990Y-45216738D01*
X104200000Y-44500000D02*
X101791728Y-44500000D01*
X102779028Y-41074970D02*
X101074990Y-42779008D01*
X113987470Y-41074970D02*
X102779028Y-41074970D01*
X101074990Y-42779008D02*
X101074990Y-45216738D01*
X114212500Y-41300000D02*
X113987470Y-41074970D01*
X114934314Y-69565686D02*
X114934314Y-65434314D01*
X114934314Y-65434314D02*
X114750000Y-65250000D01*
X119815686Y-65184314D02*
X121275010Y-63724990D01*
X117065686Y-65184314D02*
X119815686Y-65184314D01*
D19*
%TO.N,Net-(C16-Pad1)*%
X102500000Y-56787500D02*
X104500000Y-56787500D01*
X104500000Y-56787500D02*
X106500000Y-54787500D01*
D18*
X117250000Y-70623370D02*
X117250000Y-76500000D01*
D19*
X106937501Y-54349999D02*
X106500000Y-54787500D01*
X110349999Y-54349999D02*
X106937501Y-54349999D01*
X111325020Y-55325020D02*
X110349999Y-54349999D01*
X111325020Y-62744276D02*
X111325020Y-55325020D01*
X111755754Y-63175010D02*
X111325020Y-62744276D01*
X111884022Y-63175010D02*
X111755754Y-63175010D01*
D18*
X117250000Y-70623370D02*
X117250000Y-66500000D01*
D19*
X117250000Y-66500000D02*
X114750000Y-64000000D01*
X112709012Y-64000000D02*
X111884022Y-63175010D01*
X114750000Y-64000000D02*
X112709012Y-64000000D01*
%TO.N,Net-(C17-Pad2)*%
X104287500Y-55000000D02*
X104500000Y-55212500D01*
X104287500Y-53000000D02*
X104287500Y-55000000D01*
X107112500Y-50325000D02*
X105627071Y-50325000D01*
X105627071Y-50325000D02*
X105508348Y-50443723D01*
X104787500Y-52500000D02*
X104287500Y-53000000D01*
X105500000Y-52500000D02*
X104787500Y-52500000D01*
%TO.N,Net-(C17-Pad1)*%
X102712500Y-55000000D02*
X102500000Y-55212500D01*
X102712500Y-53000000D02*
X102712500Y-55000000D01*
D18*
X112400000Y-61900000D02*
X112400000Y-59500000D01*
D19*
X101624990Y-57262550D02*
X102362440Y-58000000D01*
X102500000Y-55212500D02*
X101624990Y-56087510D01*
X102362440Y-58000000D02*
X108500000Y-58000000D01*
X101624990Y-56087510D02*
X101624990Y-57262550D01*
X112199999Y-59299999D02*
X112400000Y-59500000D01*
X112199999Y-57904323D02*
X112199999Y-59299999D01*
X103757124Y-49675000D02*
X102887500Y-49675000D01*
X104100010Y-50017886D02*
X103757124Y-49675000D01*
X104100010Y-51612490D02*
X104100010Y-50017886D01*
X102712500Y-53000000D02*
X104100010Y-51612490D01*
D18*
X114000000Y-61900000D02*
X114600000Y-62500000D01*
X112400000Y-61900000D02*
X114000000Y-61900000D01*
%TO.N,Net-(C18-Pad2)*%
X132500000Y-56212500D02*
X131287500Y-55000000D01*
X132500000Y-57212500D02*
X132500000Y-56212500D01*
D20*
X131287500Y-52837500D02*
X131800000Y-52325000D01*
X131287500Y-55000000D02*
X131287500Y-52837500D01*
X131800000Y-52325000D02*
X132612500Y-52325000D01*
D18*
%TO.N,Net-(C18-Pad1)*%
X129712500Y-56425000D02*
X130500000Y-57212500D01*
X129712500Y-55000000D02*
X129712500Y-56425000D01*
X128241998Y-55000000D02*
X129712500Y-55000000D01*
X126500000Y-56741998D02*
X128241998Y-55000000D01*
D19*
X126500000Y-56741998D02*
X126500000Y-57212500D01*
X127274990Y-54032992D02*
X128241998Y-55000000D01*
X127274990Y-52017886D02*
X127274990Y-54032992D01*
X127617876Y-51675000D02*
X127274990Y-52017886D01*
X128487500Y-51675000D02*
X127617876Y-51675000D01*
D18*
%TO.N,Net-(C19-Pad1)*%
X132500000Y-58787500D02*
X130500000Y-58787500D01*
X130500000Y-58787500D02*
X128500000Y-58787500D01*
X132850001Y-59137501D02*
X132500000Y-58787500D01*
X132850001Y-62408001D02*
X132850001Y-59137501D01*
X122315009Y-68062672D02*
X125062266Y-65315415D01*
X122315009Y-72134417D02*
X122315009Y-68062672D01*
X125062266Y-65315415D02*
X129942587Y-65315415D01*
X129942587Y-65315415D02*
X132850001Y-62408001D01*
X126680592Y-76500000D02*
X127250000Y-76500000D01*
X122315009Y-72134417D02*
X126680592Y-76500000D01*
%TO.N,Net-(D1-Pad1)*%
X110675010Y-65918637D02*
X112482309Y-67725935D01*
X110675010Y-58387510D02*
X110675010Y-65918637D01*
X108787500Y-56500000D02*
X110675010Y-58387510D01*
X109600000Y-55687500D02*
X108787500Y-56500000D01*
X109600000Y-55050000D02*
X109600000Y-55687500D01*
X112482309Y-76267691D02*
X112250000Y-76500000D01*
X112482309Y-67725935D02*
X112482309Y-76267691D01*
%TO.N,Net-(R7-Pad1)*%
X119009504Y-52540000D02*
X118984752Y-52564752D01*
X123000000Y-52540000D02*
X119009504Y-52540000D01*
D19*
X117504750Y-52564752D02*
X118984752Y-52564752D01*
X113939998Y-49000000D02*
X117504750Y-52564752D01*
X110787500Y-49000000D02*
X113939998Y-49000000D01*
D18*
%TO.N,Net-(R14-Pad1)*%
X109100000Y-61900000D02*
X109600000Y-62400000D01*
X107400000Y-61900000D02*
X109100000Y-61900000D01*
D19*
%TO.N,Net-(R15-Pad2)*%
X117400000Y-62500000D02*
X120200000Y-62500000D01*
D18*
%TO.N,Net-(R18-Pad2)*%
X109100000Y-59500000D02*
X109600000Y-60000000D01*
X107400000Y-59500000D02*
X109100000Y-59500000D01*
%TD*%
D21*
%TO.N,/GND*%
G36*
X111597310Y-74730390D02*
G01*
X111357269Y-74829818D01*
X111048587Y-75036074D01*
X110786074Y-75298587D01*
X110579818Y-75607269D01*
X110437747Y-75950259D01*
X110365320Y-76314375D01*
X110365320Y-76685625D01*
X110437747Y-77049741D01*
X110579818Y-77392731D01*
X110786074Y-77701413D01*
X111048587Y-77963926D01*
X111357269Y-78170182D01*
X111700259Y-78312253D01*
X112064375Y-78384680D01*
X112435625Y-78384680D01*
X112799741Y-78312253D01*
X113115001Y-78181668D01*
X113115001Y-80461544D01*
X113082795Y-80509744D01*
X113004774Y-80698102D01*
X112965000Y-80898061D01*
X112965000Y-81101939D01*
X113004774Y-81301898D01*
X113082795Y-81490256D01*
X113196063Y-81659774D01*
X113340226Y-81803937D01*
X113509744Y-81917205D01*
X113698102Y-81995226D01*
X113898061Y-82035000D01*
X114054949Y-82035000D01*
X114062119Y-82107804D01*
X114112726Y-82274627D01*
X114194904Y-82428373D01*
X114277782Y-82529360D01*
X114277785Y-82529363D01*
X114305498Y-82563131D01*
X114339265Y-82590843D01*
X115343470Y-83595049D01*
X115371183Y-83628817D01*
X115404951Y-83656530D01*
X115404953Y-83656532D01*
X115505941Y-83739411D01*
X115659686Y-83821589D01*
X115826510Y-83872195D01*
X115956523Y-83885000D01*
X115956531Y-83885000D01*
X116000000Y-83889281D01*
X116043469Y-83885000D01*
X116461546Y-83885000D01*
X116509744Y-83917205D01*
X116698102Y-83995226D01*
X116898061Y-84035000D01*
X117101939Y-84035000D01*
X117301898Y-83995226D01*
X117490256Y-83917205D01*
X117659774Y-83803937D01*
X117803937Y-83659774D01*
X117917205Y-83490256D01*
X117995226Y-83301898D01*
X118035000Y-83101939D01*
X118035000Y-82898061D01*
X117995226Y-82698102D01*
X117917205Y-82509744D01*
X117803937Y-82340226D01*
X117659774Y-82196063D01*
X117490256Y-82082795D01*
X117301898Y-82004774D01*
X117101939Y-81965000D01*
X116898061Y-81965000D01*
X116698102Y-82004774D01*
X116509744Y-82082795D01*
X116461546Y-82115000D01*
X116366579Y-82115000D01*
X115819314Y-81567736D01*
X115819314Y-77734653D01*
X116048587Y-77963926D01*
X116357269Y-78170182D01*
X116700259Y-78312253D01*
X117064375Y-78384680D01*
X117435625Y-78384680D01*
X117799741Y-78312253D01*
X118142731Y-78170182D01*
X118451413Y-77963926D01*
X118615000Y-77800339D01*
X118615001Y-88883420D01*
X112807472Y-94690949D01*
X112799741Y-94687747D01*
X112435625Y-94615320D01*
X112064375Y-94615320D01*
X111700259Y-94687747D01*
X111357269Y-94829818D01*
X111048587Y-95036074D01*
X110786074Y-95298587D01*
X110579818Y-95607269D01*
X110437747Y-95950259D01*
X110365320Y-96314375D01*
X110365320Y-96685625D01*
X110437747Y-97049741D01*
X110579818Y-97392731D01*
X110786074Y-97701413D01*
X111048587Y-97963926D01*
X111357269Y-98170182D01*
X111700259Y-98312253D01*
X112064375Y-98384680D01*
X112435625Y-98384680D01*
X112799741Y-98312253D01*
X113142731Y-98170182D01*
X113451413Y-97963926D01*
X113713926Y-97701413D01*
X113920182Y-97392731D01*
X114062253Y-97049741D01*
X114134680Y-96685625D01*
X114134680Y-96314375D01*
X114062253Y-95950259D01*
X114059051Y-95942528D01*
X119315011Y-90686568D01*
X119315011Y-93183410D01*
X117807472Y-94690949D01*
X117799741Y-94687747D01*
X117435625Y-94615320D01*
X117064375Y-94615320D01*
X116700259Y-94687747D01*
X116357269Y-94829818D01*
X116048587Y-95036074D01*
X115786074Y-95298587D01*
X115579818Y-95607269D01*
X115437747Y-95950259D01*
X115365320Y-96314375D01*
X115365320Y-96685625D01*
X115437747Y-97049741D01*
X115579818Y-97392731D01*
X115786074Y-97701413D01*
X116048587Y-97963926D01*
X116357269Y-98170182D01*
X116700259Y-98312253D01*
X117064375Y-98384680D01*
X117435625Y-98384680D01*
X117799741Y-98312253D01*
X118142731Y-98170182D01*
X118451413Y-97963926D01*
X118713926Y-97701413D01*
X118920182Y-97392731D01*
X119062253Y-97049741D01*
X119134680Y-96685625D01*
X119134680Y-96314375D01*
X120365320Y-96314375D01*
X120365320Y-96685625D01*
X120437747Y-97049741D01*
X120579818Y-97392731D01*
X120786074Y-97701413D01*
X121048587Y-97963926D01*
X121357269Y-98170182D01*
X121700259Y-98312253D01*
X122064375Y-98384680D01*
X122435625Y-98384680D01*
X122799741Y-98312253D01*
X123142731Y-98170182D01*
X123451413Y-97963926D01*
X123713926Y-97701413D01*
X123920182Y-97392731D01*
X124062253Y-97049741D01*
X124134680Y-96685625D01*
X124134680Y-96314375D01*
X125365320Y-96314375D01*
X125365320Y-96685625D01*
X125437747Y-97049741D01*
X125579818Y-97392731D01*
X125786074Y-97701413D01*
X126048587Y-97963926D01*
X126357269Y-98170182D01*
X126700259Y-98312253D01*
X127064375Y-98384680D01*
X127435625Y-98384680D01*
X127799741Y-98312253D01*
X128142731Y-98170182D01*
X128451413Y-97963926D01*
X128713926Y-97701413D01*
X128920182Y-97392731D01*
X129062253Y-97049741D01*
X129134680Y-96685625D01*
X129134680Y-96314375D01*
X129062253Y-95950259D01*
X128920182Y-95607269D01*
X128713926Y-95298587D01*
X128451413Y-95036074D01*
X128142731Y-94829818D01*
X127799741Y-94687747D01*
X127435625Y-94615320D01*
X127064375Y-94615320D01*
X126700259Y-94687747D01*
X126357269Y-94829818D01*
X126048587Y-95036074D01*
X125786074Y-95298587D01*
X125579818Y-95607269D01*
X125437747Y-95950259D01*
X125365320Y-96314375D01*
X124134680Y-96314375D01*
X124062253Y-95950259D01*
X123920182Y-95607269D01*
X123713926Y-95298587D01*
X123451413Y-95036074D01*
X123142731Y-94829818D01*
X122799741Y-94687747D01*
X122435625Y-94615320D01*
X122064375Y-94615320D01*
X121700259Y-94687747D01*
X121357269Y-94829818D01*
X121048587Y-95036074D01*
X120786074Y-95298587D01*
X120579818Y-95607269D01*
X120437747Y-95950259D01*
X120365320Y-96314375D01*
X119134680Y-96314375D01*
X119062253Y-95950259D01*
X119059051Y-95942528D01*
X120795059Y-94206520D01*
X120828827Y-94178807D01*
X120939421Y-94044049D01*
X121021599Y-93890303D01*
X121072205Y-93723480D01*
X121085010Y-93593467D01*
X121085010Y-93593457D01*
X121089291Y-93549991D01*
X121085010Y-93506525D01*
X121085010Y-77988263D01*
X121357269Y-78170182D01*
X121700259Y-78312253D01*
X122064375Y-78384680D01*
X122435625Y-78384680D01*
X122799741Y-78312253D01*
X123142731Y-78170182D01*
X123451413Y-77963926D01*
X123713926Y-77701413D01*
X123920182Y-77392731D01*
X124062253Y-77049741D01*
X124134680Y-76685625D01*
X124134680Y-76314375D01*
X124062253Y-75950259D01*
X123920182Y-75607269D01*
X123713926Y-75298587D01*
X123451413Y-75036074D01*
X123142731Y-74829818D01*
X122799741Y-74687747D01*
X122499999Y-74628125D01*
X122499999Y-73570985D01*
X125365320Y-76436307D01*
X125365320Y-76685625D01*
X125437747Y-77049741D01*
X125579818Y-77392731D01*
X125786074Y-77701413D01*
X126048587Y-77963926D01*
X126357269Y-78170182D01*
X126700259Y-78312253D01*
X127064375Y-78384680D01*
X127435625Y-78384680D01*
X127799741Y-78312253D01*
X128142731Y-78170182D01*
X128451413Y-77963926D01*
X128713926Y-77701413D01*
X128920182Y-77392731D01*
X129062253Y-77049741D01*
X129134680Y-76685625D01*
X129134680Y-76314375D01*
X129062253Y-75950259D01*
X128920182Y-75607269D01*
X128713926Y-75298587D01*
X128451413Y-75036074D01*
X128198856Y-74867320D01*
X128426662Y-74867320D01*
X128467680Y-74871360D01*
X128508698Y-74867320D01*
X128508699Y-74867320D01*
X128631369Y-74855238D01*
X128698085Y-74835000D01*
X129154133Y-74835000D01*
X129165000Y-74845868D01*
X129165001Y-81886714D01*
X129082795Y-82009744D01*
X129004774Y-82198102D01*
X128965000Y-82398061D01*
X128965000Y-82601939D01*
X129004774Y-82801898D01*
X129082795Y-82990256D01*
X129196063Y-83159774D01*
X129340226Y-83303937D01*
X129509744Y-83417205D01*
X129698102Y-83495226D01*
X129898061Y-83535000D01*
X130101939Y-83535000D01*
X130301898Y-83495226D01*
X130490256Y-83417205D01*
X130659774Y-83303937D01*
X130803937Y-83159774D01*
X130917205Y-82990256D01*
X130995226Y-82801898D01*
X131035000Y-82601939D01*
X131035000Y-82398061D01*
X130995226Y-82198102D01*
X130917205Y-82009744D01*
X130835000Y-81886715D01*
X130835000Y-74541018D01*
X130839040Y-74500000D01*
X130829236Y-74400460D01*
X130822918Y-74336311D01*
X130775172Y-74178913D01*
X130697636Y-74033854D01*
X130593291Y-73906709D01*
X130561427Y-73880559D01*
X130340867Y-73659999D01*
X131467720Y-73660000D01*
X131953893Y-73707670D01*
X132390498Y-73839489D01*
X132793185Y-74053600D01*
X133146612Y-74341848D01*
X133437327Y-74693261D01*
X133654242Y-75094439D01*
X133789106Y-75530113D01*
X133840001Y-76014353D01*
X133840000Y-96967721D01*
X133792330Y-97453894D01*
X133660512Y-97890497D01*
X133446399Y-98293186D01*
X133158150Y-98646613D01*
X132806739Y-98937327D01*
X132405564Y-99154240D01*
X131969886Y-99289106D01*
X131485664Y-99340000D01*
X103032279Y-99340000D01*
X102546106Y-99292330D01*
X102109503Y-99160512D01*
X101706814Y-98946399D01*
X101353387Y-98658150D01*
X101062673Y-98306739D01*
X100845760Y-97905564D01*
X100710894Y-97469886D01*
X100660000Y-96985664D01*
X100660000Y-76032279D01*
X100707670Y-75546107D01*
X100839489Y-75109502D01*
X101053600Y-74706815D01*
X101341848Y-74353388D01*
X101693261Y-74062673D01*
X102094439Y-73845758D01*
X102530113Y-73710894D01*
X103014344Y-73660000D01*
X104588424Y-73659998D01*
X104404956Y-73843466D01*
X104371183Y-73871183D01*
X104260589Y-74005942D01*
X104178411Y-74159688D01*
X104158203Y-74226305D01*
X104129451Y-74321086D01*
X104127805Y-74326511D01*
X104115000Y-74456524D01*
X104115000Y-74456531D01*
X104110719Y-74500000D01*
X104115000Y-74543469D01*
X104115001Y-94206521D01*
X104110719Y-94250000D01*
X104127805Y-94423490D01*
X104178412Y-94590313D01*
X104260590Y-94744059D01*
X104343468Y-94845046D01*
X104343471Y-94845049D01*
X104371184Y-94878817D01*
X104404951Y-94906529D01*
X105440949Y-95942528D01*
X105437747Y-95950259D01*
X105365320Y-96314375D01*
X105365320Y-96685625D01*
X105437747Y-97049741D01*
X105579818Y-97392731D01*
X105786074Y-97701413D01*
X106048587Y-97963926D01*
X106357269Y-98170182D01*
X106700259Y-98312253D01*
X107064375Y-98384680D01*
X107435625Y-98384680D01*
X107799741Y-98312253D01*
X108142731Y-98170182D01*
X108451413Y-97963926D01*
X108713926Y-97701413D01*
X108920182Y-97392731D01*
X109062253Y-97049741D01*
X109134680Y-96685625D01*
X109134680Y-96314375D01*
X109062253Y-95950259D01*
X108920182Y-95607269D01*
X108713926Y-95298587D01*
X108451413Y-95036074D01*
X108142731Y-94829818D01*
X107799741Y-94687747D01*
X107435625Y-94615320D01*
X107064375Y-94615320D01*
X106700259Y-94687747D01*
X106692528Y-94690949D01*
X105885000Y-93883422D01*
X105885000Y-77800339D01*
X106048587Y-77963926D01*
X106357269Y-78170182D01*
X106700259Y-78312253D01*
X107064375Y-78384680D01*
X107435625Y-78384680D01*
X107799741Y-78312253D01*
X108142731Y-78170182D01*
X108451413Y-77963926D01*
X108713926Y-77701413D01*
X108920182Y-77392731D01*
X109062253Y-77049741D01*
X109134680Y-76685625D01*
X109134680Y-76314375D01*
X109063508Y-75956568D01*
X111597310Y-73422767D01*
X111597310Y-74730390D01*
G37*
X111597310Y-74730390D02*
X111357269Y-74829818D01*
X111048587Y-75036074D01*
X110786074Y-75298587D01*
X110579818Y-75607269D01*
X110437747Y-75950259D01*
X110365320Y-76314375D01*
X110365320Y-76685625D01*
X110437747Y-77049741D01*
X110579818Y-77392731D01*
X110786074Y-77701413D01*
X111048587Y-77963926D01*
X111357269Y-78170182D01*
X111700259Y-78312253D01*
X112064375Y-78384680D01*
X112435625Y-78384680D01*
X112799741Y-78312253D01*
X113115001Y-78181668D01*
X113115001Y-80461544D01*
X113082795Y-80509744D01*
X113004774Y-80698102D01*
X112965000Y-80898061D01*
X112965000Y-81101939D01*
X113004774Y-81301898D01*
X113082795Y-81490256D01*
X113196063Y-81659774D01*
X113340226Y-81803937D01*
X113509744Y-81917205D01*
X113698102Y-81995226D01*
X113898061Y-82035000D01*
X114054949Y-82035000D01*
X114062119Y-82107804D01*
X114112726Y-82274627D01*
X114194904Y-82428373D01*
X114277782Y-82529360D01*
X114277785Y-82529363D01*
X114305498Y-82563131D01*
X114339265Y-82590843D01*
X115343470Y-83595049D01*
X115371183Y-83628817D01*
X115404951Y-83656530D01*
X115404953Y-83656532D01*
X115505941Y-83739411D01*
X115659686Y-83821589D01*
X115826510Y-83872195D01*
X115956523Y-83885000D01*
X115956531Y-83885000D01*
X116000000Y-83889281D01*
X116043469Y-83885000D01*
X116461546Y-83885000D01*
X116509744Y-83917205D01*
X116698102Y-83995226D01*
X116898061Y-84035000D01*
X117101939Y-84035000D01*
X117301898Y-83995226D01*
X117490256Y-83917205D01*
X117659774Y-83803937D01*
X117803937Y-83659774D01*
X117917205Y-83490256D01*
X117995226Y-83301898D01*
X118035000Y-83101939D01*
X118035000Y-82898061D01*
X117995226Y-82698102D01*
X117917205Y-82509744D01*
X117803937Y-82340226D01*
X117659774Y-82196063D01*
X117490256Y-82082795D01*
X117301898Y-82004774D01*
X117101939Y-81965000D01*
X116898061Y-81965000D01*
X116698102Y-82004774D01*
X116509744Y-82082795D01*
X116461546Y-82115000D01*
X116366579Y-82115000D01*
X115819314Y-81567736D01*
X115819314Y-77734653D01*
X116048587Y-77963926D01*
X116357269Y-78170182D01*
X116700259Y-78312253D01*
X117064375Y-78384680D01*
X117435625Y-78384680D01*
X117799741Y-78312253D01*
X118142731Y-78170182D01*
X118451413Y-77963926D01*
X118615000Y-77800339D01*
X118615001Y-88883420D01*
X112807472Y-94690949D01*
X112799741Y-94687747D01*
X112435625Y-94615320D01*
X112064375Y-94615320D01*
X111700259Y-94687747D01*
X111357269Y-94829818D01*
X111048587Y-95036074D01*
X110786074Y-95298587D01*
X110579818Y-95607269D01*
X110437747Y-95950259D01*
X110365320Y-96314375D01*
X110365320Y-96685625D01*
X110437747Y-97049741D01*
X110579818Y-97392731D01*
X110786074Y-97701413D01*
X111048587Y-97963926D01*
X111357269Y-98170182D01*
X111700259Y-98312253D01*
X112064375Y-98384680D01*
X112435625Y-98384680D01*
X112799741Y-98312253D01*
X113142731Y-98170182D01*
X113451413Y-97963926D01*
X113713926Y-97701413D01*
X113920182Y-97392731D01*
X114062253Y-97049741D01*
X114134680Y-96685625D01*
X114134680Y-96314375D01*
X114062253Y-95950259D01*
X114059051Y-95942528D01*
X119315011Y-90686568D01*
X119315011Y-93183410D01*
X117807472Y-94690949D01*
X117799741Y-94687747D01*
X117435625Y-94615320D01*
X117064375Y-94615320D01*
X116700259Y-94687747D01*
X116357269Y-94829818D01*
X116048587Y-95036074D01*
X115786074Y-95298587D01*
X115579818Y-95607269D01*
X115437747Y-95950259D01*
X115365320Y-96314375D01*
X115365320Y-96685625D01*
X115437747Y-97049741D01*
X115579818Y-97392731D01*
X115786074Y-97701413D01*
X116048587Y-97963926D01*
X116357269Y-98170182D01*
X116700259Y-98312253D01*
X117064375Y-98384680D01*
X117435625Y-98384680D01*
X117799741Y-98312253D01*
X118142731Y-98170182D01*
X118451413Y-97963926D01*
X118713926Y-97701413D01*
X118920182Y-97392731D01*
X119062253Y-97049741D01*
X119134680Y-96685625D01*
X119134680Y-96314375D01*
X120365320Y-96314375D01*
X120365320Y-96685625D01*
X120437747Y-97049741D01*
X120579818Y-97392731D01*
X120786074Y-97701413D01*
X121048587Y-97963926D01*
X121357269Y-98170182D01*
X121700259Y-98312253D01*
X122064375Y-98384680D01*
X122435625Y-98384680D01*
X122799741Y-98312253D01*
X123142731Y-98170182D01*
X123451413Y-97963926D01*
X123713926Y-97701413D01*
X123920182Y-97392731D01*
X124062253Y-97049741D01*
X124134680Y-96685625D01*
X124134680Y-96314375D01*
X125365320Y-96314375D01*
X125365320Y-96685625D01*
X125437747Y-97049741D01*
X125579818Y-97392731D01*
X125786074Y-97701413D01*
X126048587Y-97963926D01*
X126357269Y-98170182D01*
X126700259Y-98312253D01*
X127064375Y-98384680D01*
X127435625Y-98384680D01*
X127799741Y-98312253D01*
X128142731Y-98170182D01*
X128451413Y-97963926D01*
X128713926Y-97701413D01*
X128920182Y-97392731D01*
X129062253Y-97049741D01*
X129134680Y-96685625D01*
X129134680Y-96314375D01*
X129062253Y-95950259D01*
X128920182Y-95607269D01*
X128713926Y-95298587D01*
X128451413Y-95036074D01*
X128142731Y-94829818D01*
X127799741Y-94687747D01*
X127435625Y-94615320D01*
X127064375Y-94615320D01*
X126700259Y-94687747D01*
X126357269Y-94829818D01*
X126048587Y-95036074D01*
X125786074Y-95298587D01*
X125579818Y-95607269D01*
X125437747Y-95950259D01*
X125365320Y-96314375D01*
X124134680Y-96314375D01*
X124062253Y-95950259D01*
X123920182Y-95607269D01*
X123713926Y-95298587D01*
X123451413Y-95036074D01*
X123142731Y-94829818D01*
X122799741Y-94687747D01*
X122435625Y-94615320D01*
X122064375Y-94615320D01*
X121700259Y-94687747D01*
X121357269Y-94829818D01*
X121048587Y-95036074D01*
X120786074Y-95298587D01*
X120579818Y-95607269D01*
X120437747Y-95950259D01*
X120365320Y-96314375D01*
X119134680Y-96314375D01*
X119062253Y-95950259D01*
X119059051Y-95942528D01*
X120795059Y-94206520D01*
X120828827Y-94178807D01*
X120939421Y-94044049D01*
X121021599Y-93890303D01*
X121072205Y-93723480D01*
X121085010Y-93593467D01*
X121085010Y-93593457D01*
X121089291Y-93549991D01*
X121085010Y-93506525D01*
X121085010Y-77988263D01*
X121357269Y-78170182D01*
X121700259Y-78312253D01*
X122064375Y-78384680D01*
X122435625Y-78384680D01*
X122799741Y-78312253D01*
X123142731Y-78170182D01*
X123451413Y-77963926D01*
X123713926Y-77701413D01*
X123920182Y-77392731D01*
X124062253Y-77049741D01*
X124134680Y-76685625D01*
X124134680Y-76314375D01*
X124062253Y-75950259D01*
X123920182Y-75607269D01*
X123713926Y-75298587D01*
X123451413Y-75036074D01*
X123142731Y-74829818D01*
X122799741Y-74687747D01*
X122499999Y-74628125D01*
X122499999Y-73570985D01*
X125365320Y-76436307D01*
X125365320Y-76685625D01*
X125437747Y-77049741D01*
X125579818Y-77392731D01*
X125786074Y-77701413D01*
X126048587Y-77963926D01*
X126357269Y-78170182D01*
X126700259Y-78312253D01*
X127064375Y-78384680D01*
X127435625Y-78384680D01*
X127799741Y-78312253D01*
X128142731Y-78170182D01*
X128451413Y-77963926D01*
X128713926Y-77701413D01*
X128920182Y-77392731D01*
X129062253Y-77049741D01*
X129134680Y-76685625D01*
X129134680Y-76314375D01*
X129062253Y-75950259D01*
X128920182Y-75607269D01*
X128713926Y-75298587D01*
X128451413Y-75036074D01*
X128198856Y-74867320D01*
X128426662Y-74867320D01*
X128467680Y-74871360D01*
X128508698Y-74867320D01*
X128508699Y-74867320D01*
X128631369Y-74855238D01*
X128698085Y-74835000D01*
X129154133Y-74835000D01*
X129165000Y-74845868D01*
X129165001Y-81886714D01*
X129082795Y-82009744D01*
X129004774Y-82198102D01*
X128965000Y-82398061D01*
X128965000Y-82601939D01*
X129004774Y-82801898D01*
X129082795Y-82990256D01*
X129196063Y-83159774D01*
X129340226Y-83303937D01*
X129509744Y-83417205D01*
X129698102Y-83495226D01*
X129898061Y-83535000D01*
X130101939Y-83535000D01*
X130301898Y-83495226D01*
X130490256Y-83417205D01*
X130659774Y-83303937D01*
X130803937Y-83159774D01*
X130917205Y-82990256D01*
X130995226Y-82801898D01*
X131035000Y-82601939D01*
X131035000Y-82398061D01*
X130995226Y-82198102D01*
X130917205Y-82009744D01*
X130835000Y-81886715D01*
X130835000Y-74541018D01*
X130839040Y-74500000D01*
X130829236Y-74400460D01*
X130822918Y-74336311D01*
X130775172Y-74178913D01*
X130697636Y-74033854D01*
X130593291Y-73906709D01*
X130561427Y-73880559D01*
X130340867Y-73659999D01*
X131467720Y-73660000D01*
X131953893Y-73707670D01*
X132390498Y-73839489D01*
X132793185Y-74053600D01*
X133146612Y-74341848D01*
X133437327Y-74693261D01*
X133654242Y-75094439D01*
X133789106Y-75530113D01*
X133840001Y-76014353D01*
X133840000Y-96967721D01*
X133792330Y-97453894D01*
X133660512Y-97890497D01*
X133446399Y-98293186D01*
X133158150Y-98646613D01*
X132806739Y-98937327D01*
X132405564Y-99154240D01*
X131969886Y-99289106D01*
X131485664Y-99340000D01*
X103032279Y-99340000D01*
X102546106Y-99292330D01*
X102109503Y-99160512D01*
X101706814Y-98946399D01*
X101353387Y-98658150D01*
X101062673Y-98306739D01*
X100845760Y-97905564D01*
X100710894Y-97469886D01*
X100660000Y-96985664D01*
X100660000Y-76032279D01*
X100707670Y-75546107D01*
X100839489Y-75109502D01*
X101053600Y-74706815D01*
X101341848Y-74353388D01*
X101693261Y-74062673D01*
X102094439Y-73845758D01*
X102530113Y-73710894D01*
X103014344Y-73660000D01*
X104588424Y-73659998D01*
X104404956Y-73843466D01*
X104371183Y-73871183D01*
X104260589Y-74005942D01*
X104178411Y-74159688D01*
X104158203Y-74226305D01*
X104129451Y-74321086D01*
X104127805Y-74326511D01*
X104115000Y-74456524D01*
X104115000Y-74456531D01*
X104110719Y-74500000D01*
X104115000Y-74543469D01*
X104115001Y-94206521D01*
X104110719Y-94250000D01*
X104127805Y-94423490D01*
X104178412Y-94590313D01*
X104260590Y-94744059D01*
X104343468Y-94845046D01*
X104343471Y-94845049D01*
X104371184Y-94878817D01*
X104404951Y-94906529D01*
X105440949Y-95942528D01*
X105437747Y-95950259D01*
X105365320Y-96314375D01*
X105365320Y-96685625D01*
X105437747Y-97049741D01*
X105579818Y-97392731D01*
X105786074Y-97701413D01*
X106048587Y-97963926D01*
X106357269Y-98170182D01*
X106700259Y-98312253D01*
X107064375Y-98384680D01*
X107435625Y-98384680D01*
X107799741Y-98312253D01*
X108142731Y-98170182D01*
X108451413Y-97963926D01*
X108713926Y-97701413D01*
X108920182Y-97392731D01*
X109062253Y-97049741D01*
X109134680Y-96685625D01*
X109134680Y-96314375D01*
X109062253Y-95950259D01*
X108920182Y-95607269D01*
X108713926Y-95298587D01*
X108451413Y-95036074D01*
X108142731Y-94829818D01*
X107799741Y-94687747D01*
X107435625Y-94615320D01*
X107064375Y-94615320D01*
X106700259Y-94687747D01*
X106692528Y-94690949D01*
X105885000Y-93883422D01*
X105885000Y-77800339D01*
X106048587Y-77963926D01*
X106357269Y-78170182D01*
X106700259Y-78312253D01*
X107064375Y-78384680D01*
X107435625Y-78384680D01*
X107799741Y-78312253D01*
X108142731Y-78170182D01*
X108451413Y-77963926D01*
X108713926Y-77701413D01*
X108920182Y-77392731D01*
X109062253Y-77049741D01*
X109134680Y-76685625D01*
X109134680Y-76314375D01*
X109063508Y-75956568D01*
X111597310Y-73422767D01*
X111597310Y-74730390D01*
G36*
X103340000Y-59214250D02*
G01*
X103498750Y-59373000D01*
X104473000Y-59373000D01*
X104473000Y-59353000D01*
X104727000Y-59353000D01*
X104727000Y-59373000D01*
X105701250Y-59373000D01*
X105860000Y-59214250D01*
X105861977Y-58835000D01*
X106140868Y-58835000D01*
X106136928Y-58875000D01*
X106136928Y-60125000D01*
X106153992Y-60298254D01*
X106204528Y-60464850D01*
X106286595Y-60618386D01*
X106353573Y-60700000D01*
X106286595Y-60781614D01*
X106204528Y-60935150D01*
X106153992Y-61101746D01*
X106136928Y-61275000D01*
X106136928Y-62185350D01*
X105863072Y-61911494D01*
X105863072Y-61275000D01*
X105846008Y-61101746D01*
X105795472Y-60935150D01*
X105713405Y-60781614D01*
X105713084Y-60781223D01*
X105755537Y-60729494D01*
X105814502Y-60619180D01*
X105850812Y-60499482D01*
X105863072Y-60375000D01*
X105860000Y-59785750D01*
X105701250Y-59627000D01*
X104727000Y-59627000D01*
X104727000Y-59647000D01*
X104473000Y-59647000D01*
X104473000Y-59627000D01*
X103498750Y-59627000D01*
X103340000Y-59785750D01*
X103336928Y-60375000D01*
X103349188Y-60499482D01*
X103385498Y-60619180D01*
X103444463Y-60729494D01*
X103486916Y-60781223D01*
X103486595Y-60781614D01*
X103452142Y-60846070D01*
X103418382Y-60812310D01*
X103321691Y-60732958D01*
X103240192Y-60678502D01*
X103129875Y-60619536D01*
X103039319Y-60582027D01*
X102919623Y-60545718D01*
X102823490Y-60526596D01*
X102699009Y-60514336D01*
X102674450Y-60514336D01*
X102650000Y-60511928D01*
X102430015Y-60511928D01*
X102439502Y-60494180D01*
X102475812Y-60374482D01*
X102488072Y-60250000D01*
X102488072Y-58835000D01*
X103338023Y-58835000D01*
X103340000Y-59214250D01*
G37*
X103340000Y-59214250D02*
X103498750Y-59373000D01*
X104473000Y-59373000D01*
X104473000Y-59353000D01*
X104727000Y-59353000D01*
X104727000Y-59373000D01*
X105701250Y-59373000D01*
X105860000Y-59214250D01*
X105861977Y-58835000D01*
X106140868Y-58835000D01*
X106136928Y-58875000D01*
X106136928Y-60125000D01*
X106153992Y-60298254D01*
X106204528Y-60464850D01*
X106286595Y-60618386D01*
X106353573Y-60700000D01*
X106286595Y-60781614D01*
X106204528Y-60935150D01*
X106153992Y-61101746D01*
X106136928Y-61275000D01*
X106136928Y-62185350D01*
X105863072Y-61911494D01*
X105863072Y-61275000D01*
X105846008Y-61101746D01*
X105795472Y-60935150D01*
X105713405Y-60781614D01*
X105713084Y-60781223D01*
X105755537Y-60729494D01*
X105814502Y-60619180D01*
X105850812Y-60499482D01*
X105863072Y-60375000D01*
X105860000Y-59785750D01*
X105701250Y-59627000D01*
X104727000Y-59627000D01*
X104727000Y-59647000D01*
X104473000Y-59647000D01*
X104473000Y-59627000D01*
X103498750Y-59627000D01*
X103340000Y-59785750D01*
X103336928Y-60375000D01*
X103349188Y-60499482D01*
X103385498Y-60619180D01*
X103444463Y-60729494D01*
X103486916Y-60781223D01*
X103486595Y-60781614D01*
X103452142Y-60846070D01*
X103418382Y-60812310D01*
X103321691Y-60732958D01*
X103240192Y-60678502D01*
X103129875Y-60619536D01*
X103039319Y-60582027D01*
X102919623Y-60545718D01*
X102823490Y-60526596D01*
X102699009Y-60514336D01*
X102674450Y-60514336D01*
X102650000Y-60511928D01*
X102430015Y-60511928D01*
X102439502Y-60494180D01*
X102475812Y-60374482D01*
X102488072Y-60250000D01*
X102488072Y-58835000D01*
X103338023Y-58835000D01*
X103340000Y-59214250D01*
G36*
X129767725Y-59718671D02*
G01*
X129915858Y-59797850D01*
X130076592Y-59846608D01*
X130243750Y-59863072D01*
X130756250Y-59863072D01*
X130923408Y-59846608D01*
X131084142Y-59797850D01*
X131232275Y-59718671D01*
X131288535Y-59672500D01*
X131711465Y-59672500D01*
X131767725Y-59718671D01*
X131915858Y-59797850D01*
X131965002Y-59812758D01*
X131965002Y-60586717D01*
X131869180Y-60535498D01*
X131749482Y-60499188D01*
X131625000Y-60486928D01*
X131285750Y-60490000D01*
X131127000Y-60648750D01*
X131127000Y-61873000D01*
X131147000Y-61873000D01*
X131147000Y-62127000D01*
X131127000Y-62127000D01*
X131127000Y-62147000D01*
X130873000Y-62147000D01*
X130873000Y-62127000D01*
X130853000Y-62127000D01*
X130853000Y-61873000D01*
X130873000Y-61873000D01*
X130873000Y-60648750D01*
X130714250Y-60490000D01*
X130375000Y-60486928D01*
X130250518Y-60499188D01*
X130130820Y-60535498D01*
X130020506Y-60594463D01*
X130017569Y-60596874D01*
X130014421Y-60590985D01*
X129903827Y-60456227D01*
X129870055Y-60428511D01*
X129521490Y-60079946D01*
X129493773Y-60046173D01*
X129359015Y-59935579D01*
X129205269Y-59853401D01*
X129053143Y-59807253D01*
X129084142Y-59797850D01*
X129232275Y-59718671D01*
X129288535Y-59672500D01*
X129711465Y-59672500D01*
X129767725Y-59718671D01*
G37*
X129767725Y-59718671D02*
X129915858Y-59797850D01*
X130076592Y-59846608D01*
X130243750Y-59863072D01*
X130756250Y-59863072D01*
X130923408Y-59846608D01*
X131084142Y-59797850D01*
X131232275Y-59718671D01*
X131288535Y-59672500D01*
X131711465Y-59672500D01*
X131767725Y-59718671D01*
X131915858Y-59797850D01*
X131965002Y-59812758D01*
X131965002Y-60586717D01*
X131869180Y-60535498D01*
X131749482Y-60499188D01*
X131625000Y-60486928D01*
X131285750Y-60490000D01*
X131127000Y-60648750D01*
X131127000Y-61873000D01*
X131147000Y-61873000D01*
X131147000Y-62127000D01*
X131127000Y-62127000D01*
X131127000Y-62147000D01*
X130873000Y-62147000D01*
X130873000Y-62127000D01*
X130853000Y-62127000D01*
X130853000Y-61873000D01*
X130873000Y-61873000D01*
X130873000Y-60648750D01*
X130714250Y-60490000D01*
X130375000Y-60486928D01*
X130250518Y-60499188D01*
X130130820Y-60535498D01*
X130020506Y-60594463D01*
X130017569Y-60596874D01*
X130014421Y-60590985D01*
X129903827Y-60456227D01*
X129870055Y-60428511D01*
X129521490Y-60079946D01*
X129493773Y-60046173D01*
X129359015Y-59935579D01*
X129205269Y-59853401D01*
X129053143Y-59807253D01*
X129084142Y-59797850D01*
X129232275Y-59718671D01*
X129288535Y-59672500D01*
X129711465Y-59672500D01*
X129767725Y-59718671D01*
G36*
X119127000Y-59310500D02*
G01*
X119147000Y-59310500D01*
X119147000Y-59490010D01*
X118853000Y-59490010D01*
X118853000Y-59310500D01*
X118873000Y-59310500D01*
X118873000Y-59290500D01*
X119127000Y-59290500D01*
X119127000Y-59310500D01*
G37*
X119127000Y-59310500D02*
X119147000Y-59310500D01*
X119147000Y-59490010D01*
X118853000Y-59490010D01*
X118853000Y-59310500D01*
X118873000Y-59310500D01*
X118873000Y-59290500D01*
X119127000Y-59290500D01*
X119127000Y-59310500D01*
G36*
X117823748Y-59310498D02*
G01*
X117665000Y-59310498D01*
X117665000Y-59420107D01*
X117531865Y-59286973D01*
X117800223Y-59286973D01*
X117823748Y-59310498D01*
G37*
X117823748Y-59310498D02*
X117665000Y-59310498D01*
X117665000Y-59420107D01*
X117531865Y-59286973D01*
X117800223Y-59286973D01*
X117823748Y-59310498D01*
G36*
X128827501Y-56139322D02*
G01*
X128785750Y-56140000D01*
X128627000Y-56298750D01*
X128627000Y-57085500D01*
X128647000Y-57085500D01*
X128647000Y-57339500D01*
X128627000Y-57339500D01*
X128627000Y-57359500D01*
X128373000Y-57359500D01*
X128373000Y-57339500D01*
X128353000Y-57339500D01*
X128353000Y-57085500D01*
X128373000Y-57085500D01*
X128373000Y-56298750D01*
X128283913Y-56209663D01*
X128608577Y-55885000D01*
X128827501Y-55885000D01*
X128827501Y-56139322D01*
G37*
X128827501Y-56139322D02*
X128785750Y-56140000D01*
X128627000Y-56298750D01*
X128627000Y-57085500D01*
X128647000Y-57085500D01*
X128647000Y-57339500D01*
X128627000Y-57339500D01*
X128627000Y-57359500D01*
X128373000Y-57359500D01*
X128373000Y-57339500D01*
X128353000Y-57339500D01*
X128353000Y-57085500D01*
X128373000Y-57085500D01*
X128373000Y-56298750D01*
X128283913Y-56209663D01*
X128608577Y-55885000D01*
X128827501Y-55885000D01*
X128827501Y-56139322D01*
G36*
X106298750Y-56373000D02*
G01*
X107085500Y-56373000D01*
X107085500Y-56353000D01*
X107339500Y-56353000D01*
X107339500Y-56373000D01*
X107359500Y-56373000D01*
X107359500Y-56627000D01*
X107339500Y-56627000D01*
X107339500Y-56647000D01*
X107085500Y-56647000D01*
X107085500Y-56627000D01*
X106298750Y-56627000D01*
X106140000Y-56785750D01*
X106136928Y-56975000D01*
X106149188Y-57099482D01*
X106169063Y-57165000D01*
X105597436Y-57165000D01*
X105613072Y-57006250D01*
X105613072Y-56855295D01*
X106197059Y-56271309D01*
X106298750Y-56373000D01*
G37*
X106298750Y-56373000D02*
X107085500Y-56373000D01*
X107085500Y-56353000D01*
X107339500Y-56353000D01*
X107339500Y-56373000D01*
X107359500Y-56373000D01*
X107359500Y-56627000D01*
X107339500Y-56627000D01*
X107339500Y-56647000D01*
X107085500Y-56647000D01*
X107085500Y-56627000D01*
X106298750Y-56627000D01*
X106140000Y-56785750D01*
X106136928Y-56975000D01*
X106149188Y-57099482D01*
X106169063Y-57165000D01*
X105597436Y-57165000D01*
X105613072Y-57006250D01*
X105613072Y-56855295D01*
X106197059Y-56271309D01*
X106298750Y-56373000D01*
G36*
X106627000Y-53085500D02*
G01*
X106647000Y-53085500D01*
X106647000Y-53339500D01*
X106627000Y-53339500D01*
X106627000Y-53359500D01*
X106373000Y-53359500D01*
X106373000Y-53339500D01*
X106353000Y-53339500D01*
X106353000Y-53086346D01*
X106353565Y-53085500D01*
X106373000Y-53085500D01*
X106373000Y-53065500D01*
X106627000Y-53065500D01*
X106627000Y-53085500D01*
G37*
X106627000Y-53085500D02*
X106647000Y-53085500D01*
X106647000Y-53339500D01*
X106627000Y-53339500D01*
X106627000Y-53359500D01*
X106373000Y-53359500D01*
X106373000Y-53339500D01*
X106353000Y-53339500D01*
X106353000Y-53086346D01*
X106353565Y-53085500D01*
X106373000Y-53085500D01*
X106373000Y-53065500D01*
X106627000Y-53065500D01*
X106627000Y-53085500D01*
G36*
X130061459Y-52062915D02*
G01*
X129984374Y-52140000D01*
X129888250Y-52140000D01*
X129935000Y-52093250D01*
X129924001Y-51991740D01*
X129912637Y-51956088D01*
X129922411Y-51923867D01*
X130061459Y-52062915D01*
G37*
X130061459Y-52062915D02*
X129984374Y-52140000D01*
X129888250Y-52140000D01*
X129935000Y-52093250D01*
X129924001Y-51991740D01*
X129912637Y-51956088D01*
X129922411Y-51923867D01*
X130061459Y-52062915D01*
G36*
X131953893Y-40707670D02*
G01*
X132390498Y-40839489D01*
X132793185Y-41053600D01*
X133146612Y-41341848D01*
X133437327Y-41693261D01*
X133654242Y-42094439D01*
X133789106Y-42530113D01*
X133840001Y-43014353D01*
X133840001Y-50315378D01*
X133835051Y-50311316D01*
X133707448Y-50243110D01*
X133568991Y-50201110D01*
X133425000Y-50186928D01*
X132234990Y-50186928D01*
X132234990Y-50075572D01*
X132256250Y-50075572D01*
X132423408Y-50059108D01*
X132584142Y-50010350D01*
X132732275Y-49931171D01*
X132862115Y-49824615D01*
X132968671Y-49694775D01*
X133047850Y-49546642D01*
X133096608Y-49385908D01*
X133113072Y-49218750D01*
X133113072Y-49138507D01*
X133520060Y-48731519D01*
X133553827Y-48703807D01*
X133590037Y-48659686D01*
X133664421Y-48569049D01*
X133746599Y-48415304D01*
X133797205Y-48248480D01*
X133800389Y-48216147D01*
X133810010Y-48118467D01*
X133810010Y-48118459D01*
X133814291Y-48074990D01*
X133810010Y-48031521D01*
X133810010Y-46972707D01*
X133814291Y-46929238D01*
X133810010Y-46885769D01*
X133810010Y-46885761D01*
X133797205Y-46755748D01*
X133746599Y-46588925D01*
X133664421Y-46435179D01*
X133630368Y-46393686D01*
X133581542Y-46334191D01*
X133581540Y-46334189D01*
X133553827Y-46300421D01*
X133520059Y-46272708D01*
X127952304Y-40704954D01*
X127924589Y-40671183D01*
X127910963Y-40660000D01*
X131467721Y-40660000D01*
X131953893Y-40707670D01*
G37*
X131953893Y-40707670D02*
X132390498Y-40839489D01*
X132793185Y-41053600D01*
X133146612Y-41341848D01*
X133437327Y-41693261D01*
X133654242Y-42094439D01*
X133789106Y-42530113D01*
X133840001Y-43014353D01*
X133840001Y-50315378D01*
X133835051Y-50311316D01*
X133707448Y-50243110D01*
X133568991Y-50201110D01*
X133425000Y-50186928D01*
X132234990Y-50186928D01*
X132234990Y-50075572D01*
X132256250Y-50075572D01*
X132423408Y-50059108D01*
X132584142Y-50010350D01*
X132732275Y-49931171D01*
X132862115Y-49824615D01*
X132968671Y-49694775D01*
X133047850Y-49546642D01*
X133096608Y-49385908D01*
X133113072Y-49218750D01*
X133113072Y-49138507D01*
X133520060Y-48731519D01*
X133553827Y-48703807D01*
X133590037Y-48659686D01*
X133664421Y-48569049D01*
X133746599Y-48415304D01*
X133797205Y-48248480D01*
X133800389Y-48216147D01*
X133810010Y-48118467D01*
X133810010Y-48118459D01*
X133814291Y-48074990D01*
X133810010Y-48031521D01*
X133810010Y-46972707D01*
X133814291Y-46929238D01*
X133810010Y-46885769D01*
X133810010Y-46885761D01*
X133797205Y-46755748D01*
X133746599Y-46588925D01*
X133664421Y-46435179D01*
X133630368Y-46393686D01*
X133581542Y-46334191D01*
X133581540Y-46334189D01*
X133553827Y-46300421D01*
X133520059Y-46272708D01*
X127952304Y-40704954D01*
X127924589Y-40671183D01*
X127910963Y-40660000D01*
X131467721Y-40660000D01*
X131953893Y-40707670D01*
G36*
X123127000Y-49873000D02*
G01*
X123147000Y-49873000D01*
X123147000Y-50127000D01*
X123127000Y-50127000D01*
X123127000Y-50147000D01*
X122873000Y-50147000D01*
X122873000Y-50127000D01*
X122853000Y-50127000D01*
X122853000Y-49873000D01*
X122873000Y-49873000D01*
X122873000Y-49853000D01*
X123127000Y-49853000D01*
X123127000Y-49873000D01*
G37*
X123127000Y-49873000D02*
X123147000Y-49873000D01*
X123147000Y-50127000D01*
X123127000Y-50127000D01*
X123127000Y-50147000D01*
X122873000Y-50147000D01*
X122873000Y-50127000D01*
X122853000Y-50127000D01*
X122853000Y-49873000D01*
X122873000Y-49873000D01*
X122873000Y-49853000D01*
X123127000Y-49853000D01*
X123127000Y-49873000D01*
G36*
X131190480Y-46446287D02*
G01*
X131170506Y-46456963D01*
X131073815Y-46536315D01*
X130994463Y-46633006D01*
X130935498Y-46743320D01*
X130899188Y-46863018D01*
X130886928Y-46987500D01*
X130890000Y-47139250D01*
X131048750Y-47298000D01*
X131873000Y-47298000D01*
X131873000Y-47278000D01*
X132022193Y-47278000D01*
X132040011Y-47295818D01*
X132040010Y-47572000D01*
X131873000Y-47572000D01*
X131873000Y-47552000D01*
X131048750Y-47552000D01*
X130890000Y-47710750D01*
X130886928Y-47862500D01*
X130899188Y-47986982D01*
X130935498Y-48106680D01*
X130994463Y-48216994D01*
X131049100Y-48283570D01*
X131031329Y-48305225D01*
X130952150Y-48453358D01*
X130903392Y-48614092D01*
X130886928Y-48781250D01*
X130886928Y-48932205D01*
X130838568Y-48980565D01*
X130806699Y-49006719D01*
X130722204Y-49109678D01*
X130702354Y-49133865D01*
X130624818Y-49278924D01*
X130598648Y-49365195D01*
X130613072Y-49218750D01*
X130613072Y-48781250D01*
X130596608Y-48614092D01*
X130547850Y-48453358D01*
X130468671Y-48305225D01*
X130450900Y-48283570D01*
X130505537Y-48216994D01*
X130564502Y-48106680D01*
X130600812Y-47986982D01*
X130613072Y-47862500D01*
X130610000Y-47710750D01*
X130451250Y-47552000D01*
X129627000Y-47552000D01*
X129627000Y-47572000D01*
X129373000Y-47572000D01*
X129373000Y-47552000D01*
X129353000Y-47552000D01*
X129353000Y-47298000D01*
X129373000Y-47298000D01*
X129373000Y-46511250D01*
X129627000Y-46511250D01*
X129627000Y-47298000D01*
X130451250Y-47298000D01*
X130610000Y-47139250D01*
X130613072Y-46987500D01*
X130600812Y-46863018D01*
X130564502Y-46743320D01*
X130505537Y-46633006D01*
X130426185Y-46536315D01*
X130329494Y-46456963D01*
X130219180Y-46397998D01*
X130099482Y-46361688D01*
X129975000Y-46349428D01*
X129785750Y-46352500D01*
X129627000Y-46511250D01*
X129373000Y-46511250D01*
X129214250Y-46352500D01*
X129025000Y-46349428D01*
X128900518Y-46361688D01*
X128780820Y-46397998D01*
X128670506Y-46456963D01*
X128573815Y-46536315D01*
X128494463Y-46633006D01*
X128456189Y-46704611D01*
X128153715Y-46402137D01*
X128195236Y-46301898D01*
X128235010Y-46101939D01*
X128235010Y-45898061D01*
X128195236Y-45698102D01*
X128117215Y-45509744D01*
X128003947Y-45340226D01*
X127859784Y-45196063D01*
X127690266Y-45082795D01*
X127501908Y-45004774D01*
X127301949Y-44965000D01*
X127235010Y-44965000D01*
X127235010Y-44303469D01*
X127239050Y-44262450D01*
X127222928Y-44098761D01*
X127175182Y-43941363D01*
X127097646Y-43796304D01*
X127019449Y-43701020D01*
X127019442Y-43701013D01*
X126993301Y-43669160D01*
X126961448Y-43643019D01*
X125503428Y-42185000D01*
X126929194Y-42185000D01*
X131190480Y-46446287D01*
G37*
X131190480Y-46446287D02*
X131170506Y-46456963D01*
X131073815Y-46536315D01*
X130994463Y-46633006D01*
X130935498Y-46743320D01*
X130899188Y-46863018D01*
X130886928Y-46987500D01*
X130890000Y-47139250D01*
X131048750Y-47298000D01*
X131873000Y-47298000D01*
X131873000Y-47278000D01*
X132022193Y-47278000D01*
X132040011Y-47295818D01*
X132040010Y-47572000D01*
X131873000Y-47572000D01*
X131873000Y-47552000D01*
X131048750Y-47552000D01*
X130890000Y-47710750D01*
X130886928Y-47862500D01*
X130899188Y-47986982D01*
X130935498Y-48106680D01*
X130994463Y-48216994D01*
X131049100Y-48283570D01*
X131031329Y-48305225D01*
X130952150Y-48453358D01*
X130903392Y-48614092D01*
X130886928Y-48781250D01*
X130886928Y-48932205D01*
X130838568Y-48980565D01*
X130806699Y-49006719D01*
X130722204Y-49109678D01*
X130702354Y-49133865D01*
X130624818Y-49278924D01*
X130598648Y-49365195D01*
X130613072Y-49218750D01*
X130613072Y-48781250D01*
X130596608Y-48614092D01*
X130547850Y-48453358D01*
X130468671Y-48305225D01*
X130450900Y-48283570D01*
X130505537Y-48216994D01*
X130564502Y-48106680D01*
X130600812Y-47986982D01*
X130613072Y-47862500D01*
X130610000Y-47710750D01*
X130451250Y-47552000D01*
X129627000Y-47552000D01*
X129627000Y-47572000D01*
X129373000Y-47572000D01*
X129373000Y-47552000D01*
X129353000Y-47552000D01*
X129353000Y-47298000D01*
X129373000Y-47298000D01*
X129373000Y-46511250D01*
X129627000Y-46511250D01*
X129627000Y-47298000D01*
X130451250Y-47298000D01*
X130610000Y-47139250D01*
X130613072Y-46987500D01*
X130600812Y-46863018D01*
X130564502Y-46743320D01*
X130505537Y-46633006D01*
X130426185Y-46536315D01*
X130329494Y-46456963D01*
X130219180Y-46397998D01*
X130099482Y-46361688D01*
X129975000Y-46349428D01*
X129785750Y-46352500D01*
X129627000Y-46511250D01*
X129373000Y-46511250D01*
X129214250Y-46352500D01*
X129025000Y-46349428D01*
X128900518Y-46361688D01*
X128780820Y-46397998D01*
X128670506Y-46456963D01*
X128573815Y-46536315D01*
X128494463Y-46633006D01*
X128456189Y-46704611D01*
X128153715Y-46402137D01*
X128195236Y-46301898D01*
X128235010Y-46101939D01*
X128235010Y-45898061D01*
X128195236Y-45698102D01*
X128117215Y-45509744D01*
X128003947Y-45340226D01*
X127859784Y-45196063D01*
X127690266Y-45082795D01*
X127501908Y-45004774D01*
X127301949Y-44965000D01*
X127235010Y-44965000D01*
X127235010Y-44303469D01*
X127239050Y-44262450D01*
X127222928Y-44098761D01*
X127175182Y-43941363D01*
X127097646Y-43796304D01*
X127019449Y-43701020D01*
X127019442Y-43701013D01*
X126993301Y-43669160D01*
X126961448Y-43643019D01*
X125503428Y-42185000D01*
X126929194Y-42185000D01*
X131190480Y-46446287D01*
G36*
X117149188Y-40700518D02*
G01*
X117136928Y-40825000D01*
X117140000Y-41014250D01*
X117298750Y-41173000D01*
X118085500Y-41173000D01*
X118085500Y-41153000D01*
X118339500Y-41153000D01*
X118339500Y-41173000D01*
X118359500Y-41173000D01*
X118359500Y-41427000D01*
X118339500Y-41427000D01*
X118339500Y-41447000D01*
X118085500Y-41447000D01*
X118085500Y-41427000D01*
X117298750Y-41427000D01*
X117140000Y-41585750D01*
X117136928Y-41775000D01*
X117149188Y-41899482D01*
X117185498Y-42019180D01*
X117244463Y-42129494D01*
X117323815Y-42226185D01*
X117420506Y-42305537D01*
X117530820Y-42364502D01*
X117650518Y-42400812D01*
X117775000Y-42413072D01*
X117871527Y-42411118D01*
X117786316Y-42514949D01*
X117718110Y-42642552D01*
X117676110Y-42781009D01*
X117661928Y-42925000D01*
X117661928Y-43125000D01*
X117676110Y-43268991D01*
X117700684Y-43350000D01*
X117676110Y-43431009D01*
X117661928Y-43575000D01*
X117661928Y-43775000D01*
X117676110Y-43918991D01*
X117700684Y-44000000D01*
X117676110Y-44081009D01*
X117661928Y-44225000D01*
X117661928Y-44425000D01*
X117676110Y-44568991D01*
X117700684Y-44650000D01*
X117676110Y-44731009D01*
X117661928Y-44875000D01*
X117661928Y-45075000D01*
X117676110Y-45218991D01*
X117718110Y-45357448D01*
X117786316Y-45485051D01*
X117878104Y-45596896D01*
X117989949Y-45688684D01*
X118117552Y-45756890D01*
X118256009Y-45798890D01*
X118400000Y-45813072D01*
X119825000Y-45813072D01*
X119856190Y-45810000D01*
X121329850Y-45810000D01*
X121328836Y-45810542D01*
X121195208Y-45920208D01*
X121085542Y-46053836D01*
X121026124Y-46165000D01*
X116041018Y-46165000D01*
X116000000Y-46160960D01*
X115958982Y-46165000D01*
X115738745Y-46165000D01*
X115386816Y-45813072D01*
X115600000Y-45813072D01*
X115743991Y-45798890D01*
X115882448Y-45756890D01*
X115955610Y-45717784D01*
X116001860Y-45703754D01*
X116138233Y-45630862D01*
X116257764Y-45532764D01*
X116282347Y-45502810D01*
X116577820Y-45207337D01*
X116607774Y-45182754D01*
X116705872Y-45063223D01*
X116778764Y-44926850D01*
X116787373Y-44898470D01*
X116823652Y-44778877D01*
X116832848Y-44685498D01*
X116835010Y-44663551D01*
X116835010Y-44663546D01*
X116838807Y-44624990D01*
X116835010Y-44586434D01*
X116835010Y-42777148D01*
X116838807Y-42738595D01*
X116835010Y-42700042D01*
X116835010Y-42700035D01*
X116823651Y-42584709D01*
X116819816Y-42572065D01*
X116794094Y-42487273D01*
X116778764Y-42436736D01*
X116705872Y-42300363D01*
X116657548Y-42241480D01*
X116676185Y-42226185D01*
X116755537Y-42129494D01*
X116814502Y-42019180D01*
X116850812Y-41899482D01*
X116863072Y-41775000D01*
X116860000Y-41585750D01*
X116701250Y-41427000D01*
X115914500Y-41427000D01*
X115914500Y-41447000D01*
X115660500Y-41447000D01*
X115660500Y-41427000D01*
X115640500Y-41427000D01*
X115640500Y-41173000D01*
X115660500Y-41173000D01*
X115660500Y-41153000D01*
X115914500Y-41153000D01*
X115914500Y-41173000D01*
X116701250Y-41173000D01*
X116860000Y-41014250D01*
X116863072Y-40825000D01*
X116850812Y-40700518D01*
X116838521Y-40660000D01*
X117161479Y-40660000D01*
X117149188Y-40700518D01*
G37*
X117149188Y-40700518D02*
X117136928Y-40825000D01*
X117140000Y-41014250D01*
X117298750Y-41173000D01*
X118085500Y-41173000D01*
X118085500Y-41153000D01*
X118339500Y-41153000D01*
X118339500Y-41173000D01*
X118359500Y-41173000D01*
X118359500Y-41427000D01*
X118339500Y-41427000D01*
X118339500Y-41447000D01*
X118085500Y-41447000D01*
X118085500Y-41427000D01*
X117298750Y-41427000D01*
X117140000Y-41585750D01*
X117136928Y-41775000D01*
X117149188Y-41899482D01*
X117185498Y-42019180D01*
X117244463Y-42129494D01*
X117323815Y-42226185D01*
X117420506Y-42305537D01*
X117530820Y-42364502D01*
X117650518Y-42400812D01*
X117775000Y-42413072D01*
X117871527Y-42411118D01*
X117786316Y-42514949D01*
X117718110Y-42642552D01*
X117676110Y-42781009D01*
X117661928Y-42925000D01*
X117661928Y-43125000D01*
X117676110Y-43268991D01*
X117700684Y-43350000D01*
X117676110Y-43431009D01*
X117661928Y-43575000D01*
X117661928Y-43775000D01*
X117676110Y-43918991D01*
X117700684Y-44000000D01*
X117676110Y-44081009D01*
X117661928Y-44225000D01*
X117661928Y-44425000D01*
X117676110Y-44568991D01*
X117700684Y-44650000D01*
X117676110Y-44731009D01*
X117661928Y-44875000D01*
X117661928Y-45075000D01*
X117676110Y-45218991D01*
X117718110Y-45357448D01*
X117786316Y-45485051D01*
X117878104Y-45596896D01*
X117989949Y-45688684D01*
X118117552Y-45756890D01*
X118256009Y-45798890D01*
X118400000Y-45813072D01*
X119825000Y-45813072D01*
X119856190Y-45810000D01*
X121329850Y-45810000D01*
X121328836Y-45810542D01*
X121195208Y-45920208D01*
X121085542Y-46053836D01*
X121026124Y-46165000D01*
X116041018Y-46165000D01*
X116000000Y-46160960D01*
X115958982Y-46165000D01*
X115738745Y-46165000D01*
X115386816Y-45813072D01*
X115600000Y-45813072D01*
X115743991Y-45798890D01*
X115882448Y-45756890D01*
X115955610Y-45717784D01*
X116001860Y-45703754D01*
X116138233Y-45630862D01*
X116257764Y-45532764D01*
X116282347Y-45502810D01*
X116577820Y-45207337D01*
X116607774Y-45182754D01*
X116705872Y-45063223D01*
X116778764Y-44926850D01*
X116787373Y-44898470D01*
X116823652Y-44778877D01*
X116832848Y-44685498D01*
X116835010Y-44663551D01*
X116835010Y-44663546D01*
X116838807Y-44624990D01*
X116835010Y-44586434D01*
X116835010Y-42777148D01*
X116838807Y-42738595D01*
X116835010Y-42700042D01*
X116835010Y-42700035D01*
X116823651Y-42584709D01*
X116819816Y-42572065D01*
X116794094Y-42487273D01*
X116778764Y-42436736D01*
X116705872Y-42300363D01*
X116657548Y-42241480D01*
X116676185Y-42226185D01*
X116755537Y-42129494D01*
X116814502Y-42019180D01*
X116850812Y-41899482D01*
X116863072Y-41775000D01*
X116860000Y-41585750D01*
X116701250Y-41427000D01*
X115914500Y-41427000D01*
X115914500Y-41447000D01*
X115660500Y-41447000D01*
X115660500Y-41427000D01*
X115640500Y-41427000D01*
X115640500Y-41173000D01*
X115660500Y-41173000D01*
X115660500Y-41153000D01*
X115914500Y-41153000D01*
X115914500Y-41173000D01*
X116701250Y-41173000D01*
X116860000Y-41014250D01*
X116863072Y-40825000D01*
X116850812Y-40700518D01*
X116838521Y-40660000D01*
X117161479Y-40660000D01*
X117149188Y-40700518D01*
G36*
X124965001Y-44856852D02*
G01*
X124965002Y-45854131D01*
X124847223Y-45971910D01*
X124804792Y-45920208D01*
X124730875Y-45859545D01*
X124755537Y-45829494D01*
X124814502Y-45719180D01*
X124850812Y-45599482D01*
X124863072Y-45475000D01*
X124860000Y-45285750D01*
X124701250Y-45127000D01*
X123914500Y-45127000D01*
X123914500Y-45147000D01*
X123660500Y-45147000D01*
X123660500Y-45127000D01*
X123640500Y-45127000D01*
X123640500Y-44873000D01*
X123660500Y-44873000D01*
X123660500Y-44853000D01*
X123914500Y-44853000D01*
X123914500Y-44873000D01*
X124701250Y-44873000D01*
X124841200Y-44733050D01*
X124965001Y-44856852D01*
G37*
X124965001Y-44856852D02*
X124965002Y-45854131D01*
X124847223Y-45971910D01*
X124804792Y-45920208D01*
X124730875Y-45859545D01*
X124755537Y-45829494D01*
X124814502Y-45719180D01*
X124850812Y-45599482D01*
X124863072Y-45475000D01*
X124860000Y-45285750D01*
X124701250Y-45127000D01*
X123914500Y-45127000D01*
X123914500Y-45147000D01*
X123660500Y-45147000D01*
X123660500Y-45127000D01*
X123640500Y-45127000D01*
X123640500Y-44873000D01*
X123660500Y-44873000D01*
X123660500Y-44853000D01*
X123914500Y-44853000D01*
X123914500Y-44873000D01*
X124701250Y-44873000D01*
X124841200Y-44733050D01*
X124965001Y-44856852D01*
G36*
X103048750Y-45585500D02*
G01*
X103873000Y-45585500D01*
X103873000Y-45565500D01*
X104127000Y-45565500D01*
X104127000Y-45585500D01*
X104147000Y-45585500D01*
X104147000Y-45734692D01*
X104022192Y-45859500D01*
X103873000Y-45859500D01*
X103873000Y-45839500D01*
X103048750Y-45839500D01*
X103000000Y-45888250D01*
X102951250Y-45839500D01*
X102127000Y-45839500D01*
X102127000Y-45859500D01*
X101959990Y-45859500D01*
X101959990Y-45583316D01*
X101977806Y-45565500D01*
X102127000Y-45565500D01*
X102127000Y-45585500D01*
X102951250Y-45585500D01*
X103000000Y-45536750D01*
X103048750Y-45585500D01*
G37*
X103048750Y-45585500D02*
X103873000Y-45585500D01*
X103873000Y-45565500D01*
X104127000Y-45565500D01*
X104127000Y-45585500D01*
X104147000Y-45585500D01*
X104147000Y-45734692D01*
X104022192Y-45859500D01*
X103873000Y-45859500D01*
X103873000Y-45839500D01*
X103048750Y-45839500D01*
X103000000Y-45888250D01*
X102951250Y-45839500D01*
X102127000Y-45839500D01*
X102127000Y-45859500D01*
X101959990Y-45859500D01*
X101959990Y-45583316D01*
X101977806Y-45565500D01*
X102127000Y-45565500D01*
X102127000Y-45585500D01*
X102951250Y-45585500D01*
X103000000Y-45536750D01*
X103048750Y-45585500D01*
G36*
X104889594Y-41966684D02*
G01*
X104698102Y-42004774D01*
X104509744Y-42082795D01*
X104340226Y-42196063D01*
X104196063Y-42340226D01*
X104082795Y-42509744D01*
X104004774Y-42698102D01*
X103965000Y-42898061D01*
X103965000Y-43101939D01*
X104004774Y-43301898D01*
X104074292Y-43469728D01*
X103898102Y-43504774D01*
X103709744Y-43582795D01*
X103661546Y-43615000D01*
X101959990Y-43615000D01*
X101959990Y-43145586D01*
X103145607Y-41959970D01*
X104890255Y-41959970D01*
X104889594Y-41966684D01*
G37*
X104889594Y-41966684D02*
X104698102Y-42004774D01*
X104509744Y-42082795D01*
X104340226Y-42196063D01*
X104196063Y-42340226D01*
X104082795Y-42509744D01*
X104004774Y-42698102D01*
X103965000Y-42898061D01*
X103965000Y-43101939D01*
X104004774Y-43301898D01*
X104074292Y-43469728D01*
X103898102Y-43504774D01*
X103709744Y-43582795D01*
X103661546Y-43615000D01*
X101959990Y-43615000D01*
X101959990Y-43145586D01*
X103145607Y-41959970D01*
X104890255Y-41959970D01*
X104889594Y-41966684D01*
G36*
X110072000Y-43127000D02*
G01*
X110052000Y-43127000D01*
X110052000Y-43147000D01*
X109798000Y-43147000D01*
X109798000Y-43127000D01*
X109778000Y-43127000D01*
X109778000Y-42977808D01*
X109795818Y-42959990D01*
X110072000Y-42959990D01*
X110072000Y-43127000D01*
G37*
X110072000Y-43127000D02*
X110052000Y-43127000D01*
X110052000Y-43147000D01*
X109798000Y-43147000D01*
X109798000Y-43127000D01*
X109778000Y-43127000D01*
X109778000Y-42977808D01*
X109795818Y-42959990D01*
X110072000Y-42959990D01*
X110072000Y-43127000D01*
%TD*%
M02*
