%TF.GenerationSoftware,KiCad,Pcbnew,(5.1.6)-1*%
%TF.CreationDate,2021-07-30T20:13:56+02:00*%
%TF.ProjectId,mu-ltz,6d752d6c-747a-42e6-9b69-6361645f7063,rev?*%
%TF.SameCoordinates,Original*%
%TF.FileFunction,Legend,Top*%
%TF.FilePolarity,Positive*%
%FSLAX46Y46*%
G04 Gerber Fmt 4.6, Leading zero omitted, Abs format (unit mm)*
G04 Created by KiCad (PCBNEW (5.1.6)-1) date 2021-07-30 20:13:56*
%MOMM*%
%LPD*%
G01*
G04 APERTURE LIST*
%ADD10C,0.120000*%
%ADD11C,0.150000*%
G04 APERTURE END LIST*
D10*
%TO.C,R10*%
X121662779Y-47490000D02*
X121337221Y-47490000D01*
X121662779Y-48510000D02*
X121337221Y-48510000D01*
%TO.C,Q1*%
X105860000Y-68060000D02*
X105630000Y-68060000D01*
X101140000Y-68060000D02*
X101370000Y-68060000D01*
X101140000Y-68060000D02*
X101140000Y-65340000D01*
X101140000Y-65340000D02*
X102450000Y-65340000D01*
X101370000Y-69200000D02*
X101370000Y-68060000D01*
X105860000Y-65340000D02*
X105860000Y-68060000D01*
X104550000Y-65340000D02*
X105860000Y-65340000D01*
%TO.C,C6*%
X132960000Y-68446078D02*
X132960000Y-67928922D01*
X131540000Y-68446078D02*
X131540000Y-67928922D01*
%TO.C,JP3*%
X122800000Y-69150000D02*
X122200000Y-69150000D01*
X123500000Y-67050000D02*
X123500000Y-68450000D01*
X122200000Y-66350000D02*
X122800000Y-66350000D01*
X121500000Y-68450000D02*
X121500000Y-67050000D01*
X122200000Y-69150000D02*
G75*
G02*
X121500000Y-68450000I0J700000D01*
G01*
X123500000Y-68450000D02*
G75*
G02*
X122800000Y-69150000I-700000J0D01*
G01*
X122800000Y-66350000D02*
G75*
G02*
X123500000Y-67050000I0J-700000D01*
G01*
X121500000Y-67050000D02*
G75*
G02*
X122200000Y-66350000I700000J0D01*
G01*
%TO.C,C8*%
X111837221Y-48990000D02*
X112162779Y-48990000D01*
X111837221Y-50010000D02*
X112162779Y-50010000D01*
%TO.C,U1*%
X111614752Y-53276235D02*
X111614751Y-52016235D01*
X111614751Y-52016235D02*
X110514752Y-52016235D01*
X110514752Y-52016235D02*
X110514751Y-53276235D01*
X110515115Y-53276194D02*
G75*
G03*
X111614752Y-53276235I549637J-4788558D01*
G01*
%TO.C,U3*%
X126500000Y-50360000D02*
X128000000Y-50360000D01*
X126500000Y-50360000D02*
X125000000Y-50360000D01*
X126500000Y-47140000D02*
X128000000Y-47140000D01*
X126500000Y-47140000D02*
X123575000Y-47140000D01*
%TO.C,U2*%
X111000000Y-47860000D02*
X112500000Y-47860000D01*
X111000000Y-47860000D02*
X109500000Y-47860000D01*
X111000000Y-44640000D02*
X112500000Y-44640000D01*
X111000000Y-44640000D02*
X108075000Y-44640000D01*
%TO.C,RN1*%
X121650000Y-56770000D02*
X118850000Y-56770000D01*
X118850000Y-62020000D02*
X121650000Y-62020000D01*
X118850000Y-54060000D02*
X118850000Y-62020000D01*
X121650000Y-54060000D02*
X118850000Y-54060000D01*
X121650000Y-62020000D02*
X121650000Y-54060000D01*
%TO.C,R22*%
X131160000Y-56897936D02*
X131160000Y-58102064D01*
X129340000Y-56897936D02*
X129340000Y-58102064D01*
%TO.C,R21*%
X124340000Y-57852064D02*
X124340000Y-56647936D01*
X126160000Y-57852064D02*
X126160000Y-56647936D01*
%TO.C,R20*%
X129997936Y-51840000D02*
X131202064Y-51840000D01*
X129997936Y-53660000D02*
X131202064Y-53660000D01*
%TO.C,R18*%
X126590000Y-58352064D02*
X126590000Y-57147936D01*
X128410000Y-58352064D02*
X128410000Y-57147936D01*
%TO.C,R15*%
X124090000Y-62602064D02*
X124090000Y-61397936D01*
X125910000Y-62602064D02*
X125910000Y-61397936D01*
%TO.C,R14*%
X128410000Y-63397936D02*
X128410000Y-64602064D01*
X126590000Y-63397936D02*
X126590000Y-64602064D01*
%TO.C,R12*%
X124799721Y-52990000D02*
X125125279Y-52990000D01*
X124799721Y-54010000D02*
X125125279Y-54010000D01*
%TO.C,R7*%
X109510000Y-49549721D02*
X109510000Y-49875279D01*
X108490000Y-49549721D02*
X108490000Y-49875279D01*
%TO.C,R6*%
X110837221Y-65990000D02*
X111162779Y-65990000D01*
X110837221Y-67010000D02*
X111162779Y-67010000D01*
%TO.C,R5*%
X107260000Y-50124721D02*
X107260000Y-50450279D01*
X106240000Y-50124721D02*
X106240000Y-50450279D01*
%TO.C,R4*%
X113790000Y-67758578D02*
X113790000Y-67241422D01*
X115210000Y-67758578D02*
X115210000Y-67241422D01*
%TO.C,R3*%
X106162779Y-48260000D02*
X105837221Y-48260000D01*
X106162779Y-47240000D02*
X105837221Y-47240000D01*
%TO.C,R2*%
X120008578Y-64210000D02*
X119491422Y-64210000D01*
X120008578Y-62790000D02*
X119491422Y-62790000D01*
%TO.C,R1*%
X120508578Y-53210000D02*
X119991422Y-53210000D01*
X120508578Y-51790000D02*
X119991422Y-51790000D01*
%TO.C,JP2*%
X120300000Y-69150000D02*
X119700000Y-69150000D01*
X121000000Y-67050000D02*
X121000000Y-68450000D01*
X119700000Y-66350000D02*
X120300000Y-66350000D01*
X119000000Y-68450000D02*
X119000000Y-67050000D01*
X119700000Y-69150000D02*
G75*
G02*
X119000000Y-68450000I0J700000D01*
G01*
X121000000Y-68450000D02*
G75*
G02*
X120300000Y-69150000I-700000J0D01*
G01*
X120300000Y-66350000D02*
G75*
G02*
X121000000Y-67050000I0J-700000D01*
G01*
X119000000Y-67050000D02*
G75*
G02*
X119700000Y-66350000I700000J0D01*
G01*
%TO.C,JP1*%
X117200000Y-66350000D02*
X117800000Y-66350000D01*
X116500000Y-68450000D02*
X116500000Y-67050000D01*
X117800000Y-69150000D02*
X117200000Y-69150000D01*
X118500000Y-67050000D02*
X118500000Y-68450000D01*
X117800000Y-66350000D02*
G75*
G02*
X118500000Y-67050000I0J-700000D01*
G01*
X116500000Y-67050000D02*
G75*
G02*
X117200000Y-66350000I700000J0D01*
G01*
X117200000Y-69150000D02*
G75*
G02*
X116500000Y-68450000I0J700000D01*
G01*
X118500000Y-68450000D02*
G75*
G02*
X117800000Y-69150000I-700000J0D01*
G01*
%TO.C,D2*%
X117750000Y-46850000D02*
X117750000Y-45150000D01*
X117750000Y-45150000D02*
X115200000Y-45150000D01*
X117750000Y-46850000D02*
X115200000Y-46850000D01*
%TO.C,D1*%
X106400000Y-68500000D02*
X108100000Y-68500000D01*
X108100000Y-68500000D02*
X108100000Y-65950000D01*
X106400000Y-68500000D02*
X106400000Y-65950000D01*
%TO.C,C17*%
X124587221Y-45490000D02*
X124912779Y-45490000D01*
X124587221Y-46510000D02*
X124912779Y-46510000D01*
%TO.C,C16*%
X125337221Y-50990000D02*
X125662779Y-50990000D01*
X125337221Y-52010000D02*
X125662779Y-52010000D01*
%TO.C,C12*%
X127837221Y-45490000D02*
X128162779Y-45490000D01*
X127837221Y-46510000D02*
X128162779Y-46510000D01*
%TO.C,C5*%
X116087221Y-47490000D02*
X116412779Y-47490000D01*
X116087221Y-48510000D02*
X116412779Y-48510000D01*
%TO.C,C4*%
X106162779Y-46010000D02*
X105837221Y-46010000D01*
X106162779Y-44990000D02*
X105837221Y-44990000D01*
%TO.C,C3*%
X116087221Y-49490000D02*
X116412779Y-49490000D01*
X116087221Y-50510000D02*
X116412779Y-50510000D01*
%TO.C,C2*%
X105510000Y-50087221D02*
X105510000Y-50412779D01*
X104490000Y-50087221D02*
X104490000Y-50412779D01*
%TO.C,C1*%
X119299721Y-49490000D02*
X119625279Y-49490000D01*
X119299721Y-50510000D02*
X119625279Y-50510000D01*
%TO.C,JP5*%
X129000000Y-62200000D02*
X129000000Y-60800000D01*
X129700000Y-60100000D02*
X130300000Y-60100000D01*
X131000000Y-60800000D02*
X131000000Y-62200000D01*
X130300000Y-62900000D02*
X129700000Y-62900000D01*
X129700000Y-62900000D02*
G75*
G02*
X129000000Y-62200000I0J700000D01*
G01*
X131000000Y-62200000D02*
G75*
G02*
X130300000Y-62900000I-700000J0D01*
G01*
X130300000Y-60100000D02*
G75*
G02*
X131000000Y-60800000I0J-700000D01*
G01*
X129000000Y-60800000D02*
G75*
G02*
X129700000Y-60100000I700000J0D01*
G01*
%TO.C,JP4*%
X126000000Y-67050000D02*
X126000000Y-68450000D01*
X125300000Y-69150000D02*
X124700000Y-69150000D01*
X124000000Y-68450000D02*
X124000000Y-67050000D01*
X124700000Y-66350000D02*
X125300000Y-66350000D01*
X125300000Y-66350000D02*
G75*
G02*
X126000000Y-67050000I0J-700000D01*
G01*
X124000000Y-67050000D02*
G75*
G02*
X124700000Y-66350000I700000J0D01*
G01*
X124700000Y-69150000D02*
G75*
G02*
X124000000Y-68450000I0J700000D01*
G01*
X126000000Y-68450000D02*
G75*
G02*
X125300000Y-69150000I-700000J0D01*
G01*
%TO.C,C7*%
X132540000Y-62491422D02*
X132540000Y-63008578D01*
X133960000Y-62491422D02*
X133960000Y-63008578D01*
%TO.C,R8*%
X128790000Y-68053922D02*
X128790000Y-68571078D01*
X130210000Y-68053922D02*
X130210000Y-68571078D01*
%TO.C,R9*%
X131758578Y-64790000D02*
X131241422Y-64790000D01*
X131758578Y-66210000D02*
X131241422Y-66210000D01*
%TO.C,R10*%
D11*
X120857142Y-46952380D02*
X120523809Y-46476190D01*
X120285714Y-46952380D02*
X120285714Y-45952380D01*
X120666666Y-45952380D01*
X120761904Y-46000000D01*
X120809523Y-46047619D01*
X120857142Y-46142857D01*
X120857142Y-46285714D01*
X120809523Y-46380952D01*
X120761904Y-46428571D01*
X120666666Y-46476190D01*
X120285714Y-46476190D01*
X121809523Y-46952380D02*
X121238095Y-46952380D01*
X121523809Y-46952380D02*
X121523809Y-45952380D01*
X121428571Y-46095238D01*
X121333333Y-46190476D01*
X121238095Y-46238095D01*
X122428571Y-45952380D02*
X122523809Y-45952380D01*
X122619047Y-46000000D01*
X122666666Y-46047619D01*
X122714285Y-46142857D01*
X122761904Y-46333333D01*
X122761904Y-46571428D01*
X122714285Y-46761904D01*
X122666666Y-46857142D01*
X122619047Y-46904761D01*
X122523809Y-46952380D01*
X122428571Y-46952380D01*
X122333333Y-46904761D01*
X122285714Y-46857142D01*
X122238095Y-46761904D01*
X122190476Y-46571428D01*
X122190476Y-46333333D01*
X122238095Y-46142857D01*
X122285714Y-46047619D01*
X122333333Y-46000000D01*
X122428571Y-45952380D01*
%TO.C,Q1*%
X105683333Y-64633333D02*
X105616666Y-64600000D01*
X105550000Y-64533333D01*
X105450000Y-64433333D01*
X105383333Y-64400000D01*
X105316666Y-64400000D01*
X105350000Y-64566666D02*
X105283333Y-64533333D01*
X105216666Y-64466666D01*
X105183333Y-64333333D01*
X105183333Y-64100000D01*
X105216666Y-63966666D01*
X105283333Y-63900000D01*
X105350000Y-63866666D01*
X105483333Y-63866666D01*
X105550000Y-63900000D01*
X105616666Y-63966666D01*
X105650000Y-64100000D01*
X105650000Y-64333333D01*
X105616666Y-64466666D01*
X105550000Y-64533333D01*
X105483333Y-64566666D01*
X105350000Y-64566666D01*
X106316666Y-64566666D02*
X105916666Y-64566666D01*
X106116666Y-64566666D02*
X106116666Y-63866666D01*
X106050000Y-63966666D01*
X105983333Y-64033333D01*
X105916666Y-64066666D01*
%TO.C,C6*%
X134107142Y-68166666D02*
X134154761Y-68214285D01*
X134202380Y-68357142D01*
X134202380Y-68452380D01*
X134154761Y-68595238D01*
X134059523Y-68690476D01*
X133964285Y-68738095D01*
X133773809Y-68785714D01*
X133630952Y-68785714D01*
X133440476Y-68738095D01*
X133345238Y-68690476D01*
X133250000Y-68595238D01*
X133202380Y-68452380D01*
X133202380Y-68357142D01*
X133250000Y-68214285D01*
X133297619Y-68166666D01*
X133202380Y-67309523D02*
X133202380Y-67500000D01*
X133250000Y-67595238D01*
X133297619Y-67642857D01*
X133440476Y-67738095D01*
X133630952Y-67785714D01*
X134011904Y-67785714D01*
X134107142Y-67738095D01*
X134154761Y-67690476D01*
X134202380Y-67595238D01*
X134202380Y-67404761D01*
X134154761Y-67309523D01*
X134107142Y-67261904D01*
X134011904Y-67214285D01*
X133773809Y-67214285D01*
X133678571Y-67261904D01*
X133630952Y-67309523D01*
X133583333Y-67404761D01*
X133583333Y-67595238D01*
X133630952Y-67690476D01*
X133678571Y-67738095D01*
X133773809Y-67785714D01*
%TO.C,JP3*%
X121916666Y-65116666D02*
X121916666Y-65616666D01*
X121883333Y-65716666D01*
X121816666Y-65783333D01*
X121716666Y-65816666D01*
X121650000Y-65816666D01*
X122250000Y-65816666D02*
X122250000Y-65116666D01*
X122516666Y-65116666D01*
X122583333Y-65150000D01*
X122616666Y-65183333D01*
X122650000Y-65250000D01*
X122650000Y-65350000D01*
X122616666Y-65416666D01*
X122583333Y-65450000D01*
X122516666Y-65483333D01*
X122250000Y-65483333D01*
X122883333Y-65116666D02*
X123316666Y-65116666D01*
X123083333Y-65383333D01*
X123183333Y-65383333D01*
X123250000Y-65416666D01*
X123283333Y-65450000D01*
X123316666Y-65516666D01*
X123316666Y-65683333D01*
X123283333Y-65750000D01*
X123250000Y-65783333D01*
X123183333Y-65816666D01*
X122983333Y-65816666D01*
X122916666Y-65783333D01*
X122883333Y-65750000D01*
%TO.C,C8*%
X111833333Y-51357142D02*
X111785714Y-51404761D01*
X111642857Y-51452380D01*
X111547619Y-51452380D01*
X111404761Y-51404761D01*
X111309523Y-51309523D01*
X111261904Y-51214285D01*
X111214285Y-51023809D01*
X111214285Y-50880952D01*
X111261904Y-50690476D01*
X111309523Y-50595238D01*
X111404761Y-50500000D01*
X111547619Y-50452380D01*
X111642857Y-50452380D01*
X111785714Y-50500000D01*
X111833333Y-50547619D01*
X112404761Y-50880952D02*
X112309523Y-50833333D01*
X112261904Y-50785714D01*
X112214285Y-50690476D01*
X112214285Y-50642857D01*
X112261904Y-50547619D01*
X112309523Y-50500000D01*
X112404761Y-50452380D01*
X112595238Y-50452380D01*
X112690476Y-50500000D01*
X112738095Y-50547619D01*
X112785714Y-50642857D01*
X112785714Y-50690476D01*
X112738095Y-50785714D01*
X112690476Y-50833333D01*
X112595238Y-50880952D01*
X112404761Y-50880952D01*
X112309523Y-50928571D01*
X112261904Y-50976190D01*
X112214285Y-51071428D01*
X112214285Y-51261904D01*
X112261904Y-51357142D01*
X112309523Y-51404761D01*
X112404761Y-51452380D01*
X112595238Y-51452380D01*
X112690476Y-51404761D01*
X112738095Y-51357142D01*
X112785714Y-51261904D01*
X112785714Y-51071428D01*
X112738095Y-50976190D01*
X112690476Y-50928571D01*
X112595238Y-50880952D01*
%TO.C,U1*%
X115028590Y-53023416D02*
X114456170Y-53595836D01*
X114422498Y-53696851D01*
X114422498Y-53764195D01*
X114456170Y-53865210D01*
X114590857Y-53999897D01*
X114691872Y-54033569D01*
X114759216Y-54033569D01*
X114860231Y-53999897D01*
X115432651Y-53427477D01*
X115432651Y-54841691D02*
X115028590Y-54437630D01*
X115230620Y-54639660D02*
X115937727Y-53932554D01*
X115769368Y-53966225D01*
X115634681Y-53966225D01*
X115533666Y-53932554D01*
%TO.C,U3*%
X129988095Y-48452380D02*
X129988095Y-49261904D01*
X130035714Y-49357142D01*
X130083333Y-49404761D01*
X130178571Y-49452380D01*
X130369047Y-49452380D01*
X130464285Y-49404761D01*
X130511904Y-49357142D01*
X130559523Y-49261904D01*
X130559523Y-48452380D01*
X130940476Y-48452380D02*
X131559523Y-48452380D01*
X131226190Y-48833333D01*
X131369047Y-48833333D01*
X131464285Y-48880952D01*
X131511904Y-48928571D01*
X131559523Y-49023809D01*
X131559523Y-49261904D01*
X131511904Y-49357142D01*
X131464285Y-49404761D01*
X131369047Y-49452380D01*
X131083333Y-49452380D01*
X130988095Y-49404761D01*
X130940476Y-49357142D01*
%TO.C,U2*%
X112716666Y-47866666D02*
X112716666Y-48433333D01*
X112750000Y-48500000D01*
X112783333Y-48533333D01*
X112850000Y-48566666D01*
X112983333Y-48566666D01*
X113050000Y-48533333D01*
X113083333Y-48500000D01*
X113116666Y-48433333D01*
X113116666Y-47866666D01*
X113416666Y-47933333D02*
X113450000Y-47900000D01*
X113516666Y-47866666D01*
X113683333Y-47866666D01*
X113750000Y-47900000D01*
X113783333Y-47933333D01*
X113816666Y-48000000D01*
X113816666Y-48066666D01*
X113783333Y-48166666D01*
X113383333Y-48566666D01*
X113816666Y-48566666D01*
%TO.C,RN1*%
X118452380Y-58190476D02*
X117976190Y-58523809D01*
X118452380Y-58761904D02*
X117452380Y-58761904D01*
X117452380Y-58380952D01*
X117500000Y-58285714D01*
X117547619Y-58238095D01*
X117642857Y-58190476D01*
X117785714Y-58190476D01*
X117880952Y-58238095D01*
X117928571Y-58285714D01*
X117976190Y-58380952D01*
X117976190Y-58761904D01*
X118452380Y-57761904D02*
X117452380Y-57761904D01*
X118452380Y-57190476D01*
X117452380Y-57190476D01*
X118452380Y-56190476D02*
X118452380Y-56761904D01*
X118452380Y-56476190D02*
X117452380Y-56476190D01*
X117595238Y-56571428D01*
X117690476Y-56666666D01*
X117738095Y-56761904D01*
%TO.C,R22*%
X132522380Y-58142857D02*
X132046190Y-58476190D01*
X132522380Y-58714285D02*
X131522380Y-58714285D01*
X131522380Y-58333333D01*
X131570000Y-58238095D01*
X131617619Y-58190476D01*
X131712857Y-58142857D01*
X131855714Y-58142857D01*
X131950952Y-58190476D01*
X131998571Y-58238095D01*
X132046190Y-58333333D01*
X132046190Y-58714285D01*
X131617619Y-57761904D02*
X131570000Y-57714285D01*
X131522380Y-57619047D01*
X131522380Y-57380952D01*
X131570000Y-57285714D01*
X131617619Y-57238095D01*
X131712857Y-57190476D01*
X131808095Y-57190476D01*
X131950952Y-57238095D01*
X132522380Y-57809523D01*
X132522380Y-57190476D01*
X131617619Y-56809523D02*
X131570000Y-56761904D01*
X131522380Y-56666666D01*
X131522380Y-56428571D01*
X131570000Y-56333333D01*
X131617619Y-56285714D01*
X131712857Y-56238095D01*
X131808095Y-56238095D01*
X131950952Y-56285714D01*
X132522380Y-56857142D01*
X132522380Y-56238095D01*
%TO.C,R21*%
X123882380Y-57892857D02*
X123406190Y-58226190D01*
X123882380Y-58464285D02*
X122882380Y-58464285D01*
X122882380Y-58083333D01*
X122930000Y-57988095D01*
X122977619Y-57940476D01*
X123072857Y-57892857D01*
X123215714Y-57892857D01*
X123310952Y-57940476D01*
X123358571Y-57988095D01*
X123406190Y-58083333D01*
X123406190Y-58464285D01*
X122977619Y-57511904D02*
X122930000Y-57464285D01*
X122882380Y-57369047D01*
X122882380Y-57130952D01*
X122930000Y-57035714D01*
X122977619Y-56988095D01*
X123072857Y-56940476D01*
X123168095Y-56940476D01*
X123310952Y-56988095D01*
X123882380Y-57559523D01*
X123882380Y-56940476D01*
X123882380Y-55988095D02*
X123882380Y-56559523D01*
X123882380Y-56273809D02*
X122882380Y-56273809D01*
X123025238Y-56369047D01*
X123120476Y-56464285D01*
X123168095Y-56559523D01*
%TO.C,R20*%
X129957142Y-51382380D02*
X129623809Y-50906190D01*
X129385714Y-51382380D02*
X129385714Y-50382380D01*
X129766666Y-50382380D01*
X129861904Y-50430000D01*
X129909523Y-50477619D01*
X129957142Y-50572857D01*
X129957142Y-50715714D01*
X129909523Y-50810952D01*
X129861904Y-50858571D01*
X129766666Y-50906190D01*
X129385714Y-50906190D01*
X130338095Y-50477619D02*
X130385714Y-50430000D01*
X130480952Y-50382380D01*
X130719047Y-50382380D01*
X130814285Y-50430000D01*
X130861904Y-50477619D01*
X130909523Y-50572857D01*
X130909523Y-50668095D01*
X130861904Y-50810952D01*
X130290476Y-51382380D01*
X130909523Y-51382380D01*
X131528571Y-50382380D02*
X131623809Y-50382380D01*
X131719047Y-50430000D01*
X131766666Y-50477619D01*
X131814285Y-50572857D01*
X131861904Y-50763333D01*
X131861904Y-51001428D01*
X131814285Y-51191904D01*
X131766666Y-51287142D01*
X131719047Y-51334761D01*
X131623809Y-51382380D01*
X131528571Y-51382380D01*
X131433333Y-51334761D01*
X131385714Y-51287142D01*
X131338095Y-51191904D01*
X131290476Y-51001428D01*
X131290476Y-50763333D01*
X131338095Y-50572857D01*
X131385714Y-50477619D01*
X131433333Y-50430000D01*
X131528571Y-50382380D01*
%TO.C,R18*%
X127050000Y-55316666D02*
X126816666Y-54983333D01*
X126650000Y-55316666D02*
X126650000Y-54616666D01*
X126916666Y-54616666D01*
X126983333Y-54650000D01*
X127016666Y-54683333D01*
X127050000Y-54750000D01*
X127050000Y-54850000D01*
X127016666Y-54916666D01*
X126983333Y-54950000D01*
X126916666Y-54983333D01*
X126650000Y-54983333D01*
X127716666Y-55316666D02*
X127316666Y-55316666D01*
X127516666Y-55316666D02*
X127516666Y-54616666D01*
X127450000Y-54716666D01*
X127383333Y-54783333D01*
X127316666Y-54816666D01*
X128116666Y-54916666D02*
X128050000Y-54883333D01*
X128016666Y-54850000D01*
X127983333Y-54783333D01*
X127983333Y-54750000D01*
X128016666Y-54683333D01*
X128050000Y-54650000D01*
X128116666Y-54616666D01*
X128250000Y-54616666D01*
X128316666Y-54650000D01*
X128350000Y-54683333D01*
X128383333Y-54750000D01*
X128383333Y-54783333D01*
X128350000Y-54850000D01*
X128316666Y-54883333D01*
X128250000Y-54916666D01*
X128116666Y-54916666D01*
X128050000Y-54950000D01*
X128016666Y-54983333D01*
X127983333Y-55050000D01*
X127983333Y-55183333D01*
X128016666Y-55250000D01*
X128050000Y-55283333D01*
X128116666Y-55316666D01*
X128250000Y-55316666D01*
X128316666Y-55283333D01*
X128350000Y-55250000D01*
X128383333Y-55183333D01*
X128383333Y-55050000D01*
X128350000Y-54983333D01*
X128316666Y-54950000D01*
X128250000Y-54916666D01*
%TO.C,R15*%
X123632380Y-62642857D02*
X123156190Y-62976190D01*
X123632380Y-63214285D02*
X122632380Y-63214285D01*
X122632380Y-62833333D01*
X122680000Y-62738095D01*
X122727619Y-62690476D01*
X122822857Y-62642857D01*
X122965714Y-62642857D01*
X123060952Y-62690476D01*
X123108571Y-62738095D01*
X123156190Y-62833333D01*
X123156190Y-63214285D01*
X123632380Y-61690476D02*
X123632380Y-62261904D01*
X123632380Y-61976190D02*
X122632380Y-61976190D01*
X122775238Y-62071428D01*
X122870476Y-62166666D01*
X122918095Y-62261904D01*
X122632380Y-60785714D02*
X122632380Y-61261904D01*
X123108571Y-61309523D01*
X123060952Y-61261904D01*
X123013333Y-61166666D01*
X123013333Y-60928571D01*
X123060952Y-60833333D01*
X123108571Y-60785714D01*
X123203809Y-60738095D01*
X123441904Y-60738095D01*
X123537142Y-60785714D01*
X123584761Y-60833333D01*
X123632380Y-60928571D01*
X123632380Y-61166666D01*
X123584761Y-61261904D01*
X123537142Y-61309523D01*
%TO.C,R14*%
X126800000Y-67066666D02*
X126566666Y-66733333D01*
X126400000Y-67066666D02*
X126400000Y-66366666D01*
X126666666Y-66366666D01*
X126733333Y-66400000D01*
X126766666Y-66433333D01*
X126800000Y-66500000D01*
X126800000Y-66600000D01*
X126766666Y-66666666D01*
X126733333Y-66700000D01*
X126666666Y-66733333D01*
X126400000Y-66733333D01*
X127466666Y-67066666D02*
X127066666Y-67066666D01*
X127266666Y-67066666D02*
X127266666Y-66366666D01*
X127200000Y-66466666D01*
X127133333Y-66533333D01*
X127066666Y-66566666D01*
X128066666Y-66600000D02*
X128066666Y-67066666D01*
X127900000Y-66333333D02*
X127733333Y-66833333D01*
X128166666Y-66833333D01*
%TO.C,R12*%
X123316666Y-53950000D02*
X122983333Y-54183333D01*
X123316666Y-54350000D02*
X122616666Y-54350000D01*
X122616666Y-54083333D01*
X122650000Y-54016666D01*
X122683333Y-53983333D01*
X122750000Y-53950000D01*
X122850000Y-53950000D01*
X122916666Y-53983333D01*
X122950000Y-54016666D01*
X122983333Y-54083333D01*
X122983333Y-54350000D01*
X123316666Y-53283333D02*
X123316666Y-53683333D01*
X123316666Y-53483333D02*
X122616666Y-53483333D01*
X122716666Y-53550000D01*
X122783333Y-53616666D01*
X122816666Y-53683333D01*
X122683333Y-53016666D02*
X122650000Y-52983333D01*
X122616666Y-52916666D01*
X122616666Y-52750000D01*
X122650000Y-52683333D01*
X122683333Y-52650000D01*
X122750000Y-52616666D01*
X122816666Y-52616666D01*
X122916666Y-52650000D01*
X123316666Y-53050000D01*
X123316666Y-52616666D01*
%TO.C,R7*%
X108883333Y-52066666D02*
X108650000Y-51733333D01*
X108483333Y-52066666D02*
X108483333Y-51366666D01*
X108750000Y-51366666D01*
X108816666Y-51400000D01*
X108850000Y-51433333D01*
X108883333Y-51500000D01*
X108883333Y-51600000D01*
X108850000Y-51666666D01*
X108816666Y-51700000D01*
X108750000Y-51733333D01*
X108483333Y-51733333D01*
X109116666Y-51366666D02*
X109583333Y-51366666D01*
X109283333Y-52066666D01*
%TO.C,R6*%
X110833333Y-65522380D02*
X110500000Y-65046190D01*
X110261904Y-65522380D02*
X110261904Y-64522380D01*
X110642857Y-64522380D01*
X110738095Y-64570000D01*
X110785714Y-64617619D01*
X110833333Y-64712857D01*
X110833333Y-64855714D01*
X110785714Y-64950952D01*
X110738095Y-64998571D01*
X110642857Y-65046190D01*
X110261904Y-65046190D01*
X111690476Y-64522380D02*
X111500000Y-64522380D01*
X111404761Y-64570000D01*
X111357142Y-64617619D01*
X111261904Y-64760476D01*
X111214285Y-64950952D01*
X111214285Y-65331904D01*
X111261904Y-65427142D01*
X111309523Y-65474761D01*
X111404761Y-65522380D01*
X111595238Y-65522380D01*
X111690476Y-65474761D01*
X111738095Y-65427142D01*
X111785714Y-65331904D01*
X111785714Y-65093809D01*
X111738095Y-64998571D01*
X111690476Y-64950952D01*
X111595238Y-64903333D01*
X111404761Y-64903333D01*
X111309523Y-64950952D01*
X111261904Y-64998571D01*
X111214285Y-65093809D01*
%TO.C,R5*%
X106633333Y-52566666D02*
X106400000Y-52233333D01*
X106233333Y-52566666D02*
X106233333Y-51866666D01*
X106500000Y-51866666D01*
X106566666Y-51900000D01*
X106600000Y-51933333D01*
X106633333Y-52000000D01*
X106633333Y-52100000D01*
X106600000Y-52166666D01*
X106566666Y-52200000D01*
X106500000Y-52233333D01*
X106233333Y-52233333D01*
X107266666Y-51866666D02*
X106933333Y-51866666D01*
X106900000Y-52200000D01*
X106933333Y-52166666D01*
X107000000Y-52133333D01*
X107166666Y-52133333D01*
X107233333Y-52166666D01*
X107266666Y-52200000D01*
X107300000Y-52266666D01*
X107300000Y-52433333D01*
X107266666Y-52500000D01*
X107233333Y-52533333D01*
X107166666Y-52566666D01*
X107000000Y-52566666D01*
X106933333Y-52533333D01*
X106900000Y-52500000D01*
%TO.C,R4*%
X112333333Y-68702380D02*
X112000000Y-68226190D01*
X111761904Y-68702380D02*
X111761904Y-67702380D01*
X112142857Y-67702380D01*
X112238095Y-67750000D01*
X112285714Y-67797619D01*
X112333333Y-67892857D01*
X112333333Y-68035714D01*
X112285714Y-68130952D01*
X112238095Y-68178571D01*
X112142857Y-68226190D01*
X111761904Y-68226190D01*
X113190476Y-68035714D02*
X113190476Y-68702380D01*
X112952380Y-67654761D02*
X112714285Y-68369047D01*
X113333333Y-68369047D01*
%TO.C,R3*%
X104633333Y-47066666D02*
X104400000Y-46733333D01*
X104233333Y-47066666D02*
X104233333Y-46366666D01*
X104500000Y-46366666D01*
X104566666Y-46400000D01*
X104600000Y-46433333D01*
X104633333Y-46500000D01*
X104633333Y-46600000D01*
X104600000Y-46666666D01*
X104566666Y-46700000D01*
X104500000Y-46733333D01*
X104233333Y-46733333D01*
X104866666Y-46366666D02*
X105300000Y-46366666D01*
X105066666Y-46633333D01*
X105166666Y-46633333D01*
X105233333Y-46666666D01*
X105266666Y-46700000D01*
X105300000Y-46766666D01*
X105300000Y-46933333D01*
X105266666Y-47000000D01*
X105233333Y-47033333D01*
X105166666Y-47066666D01*
X104966666Y-47066666D01*
X104900000Y-47033333D01*
X104866666Y-47000000D01*
%TO.C,R2*%
X116833333Y-63952380D02*
X116500000Y-63476190D01*
X116261904Y-63952380D02*
X116261904Y-62952380D01*
X116642857Y-62952380D01*
X116738095Y-63000000D01*
X116785714Y-63047619D01*
X116833333Y-63142857D01*
X116833333Y-63285714D01*
X116785714Y-63380952D01*
X116738095Y-63428571D01*
X116642857Y-63476190D01*
X116261904Y-63476190D01*
X117214285Y-63047619D02*
X117261904Y-63000000D01*
X117357142Y-62952380D01*
X117595238Y-62952380D01*
X117690476Y-63000000D01*
X117738095Y-63047619D01*
X117785714Y-63142857D01*
X117785714Y-63238095D01*
X117738095Y-63380952D01*
X117166666Y-63952380D01*
X117785714Y-63952380D01*
%TO.C,R1*%
X117333333Y-52952380D02*
X117000000Y-52476190D01*
X116761904Y-52952380D02*
X116761904Y-51952380D01*
X117142857Y-51952380D01*
X117238095Y-52000000D01*
X117285714Y-52047619D01*
X117333333Y-52142857D01*
X117333333Y-52285714D01*
X117285714Y-52380952D01*
X117238095Y-52428571D01*
X117142857Y-52476190D01*
X116761904Y-52476190D01*
X118285714Y-52952380D02*
X117714285Y-52952380D01*
X118000000Y-52952380D02*
X118000000Y-51952380D01*
X117904761Y-52095238D01*
X117809523Y-52190476D01*
X117714285Y-52238095D01*
%TO.C,JP2*%
X119416666Y-65116666D02*
X119416666Y-65616666D01*
X119383333Y-65716666D01*
X119316666Y-65783333D01*
X119216666Y-65816666D01*
X119150000Y-65816666D01*
X119750000Y-65816666D02*
X119750000Y-65116666D01*
X120016666Y-65116666D01*
X120083333Y-65150000D01*
X120116666Y-65183333D01*
X120150000Y-65250000D01*
X120150000Y-65350000D01*
X120116666Y-65416666D01*
X120083333Y-65450000D01*
X120016666Y-65483333D01*
X119750000Y-65483333D01*
X120416666Y-65183333D02*
X120450000Y-65150000D01*
X120516666Y-65116666D01*
X120683333Y-65116666D01*
X120750000Y-65150000D01*
X120783333Y-65183333D01*
X120816666Y-65250000D01*
X120816666Y-65316666D01*
X120783333Y-65416666D01*
X120383333Y-65816666D01*
X120816666Y-65816666D01*
%TO.C,JP1*%
X116916666Y-65116666D02*
X116916666Y-65616666D01*
X116883333Y-65716666D01*
X116816666Y-65783333D01*
X116716666Y-65816666D01*
X116650000Y-65816666D01*
X117250000Y-65816666D02*
X117250000Y-65116666D01*
X117516666Y-65116666D01*
X117583333Y-65150000D01*
X117616666Y-65183333D01*
X117650000Y-65250000D01*
X117650000Y-65350000D01*
X117616666Y-65416666D01*
X117583333Y-65450000D01*
X117516666Y-65483333D01*
X117250000Y-65483333D01*
X118316666Y-65816666D02*
X117916666Y-65816666D01*
X118116666Y-65816666D02*
X118116666Y-65116666D01*
X118050000Y-65216666D01*
X117983333Y-65283333D01*
X117916666Y-65316666D01*
%TO.C,D2*%
X118261904Y-46452380D02*
X118261904Y-45452380D01*
X118500000Y-45452380D01*
X118642857Y-45500000D01*
X118738095Y-45595238D01*
X118785714Y-45690476D01*
X118833333Y-45880952D01*
X118833333Y-46023809D01*
X118785714Y-46214285D01*
X118738095Y-46309523D01*
X118642857Y-46404761D01*
X118500000Y-46452380D01*
X118261904Y-46452380D01*
X119214285Y-45547619D02*
X119261904Y-45500000D01*
X119357142Y-45452380D01*
X119595238Y-45452380D01*
X119690476Y-45500000D01*
X119738095Y-45547619D01*
X119785714Y-45642857D01*
X119785714Y-45738095D01*
X119738095Y-45880952D01*
X119166666Y-46452380D01*
X119785714Y-46452380D01*
%TO.C,D1*%
X107511904Y-65202380D02*
X107511904Y-64202380D01*
X107750000Y-64202380D01*
X107892857Y-64250000D01*
X107988095Y-64345238D01*
X108035714Y-64440476D01*
X108083333Y-64630952D01*
X108083333Y-64773809D01*
X108035714Y-64964285D01*
X107988095Y-65059523D01*
X107892857Y-65154761D01*
X107750000Y-65202380D01*
X107511904Y-65202380D01*
X109035714Y-65202380D02*
X108464285Y-65202380D01*
X108750000Y-65202380D02*
X108750000Y-64202380D01*
X108654761Y-64345238D01*
X108559523Y-64440476D01*
X108464285Y-64488095D01*
%TO.C,C17*%
X124300000Y-44820000D02*
X124266666Y-44853333D01*
X124166666Y-44886666D01*
X124100000Y-44886666D01*
X124000000Y-44853333D01*
X123933333Y-44786666D01*
X123900000Y-44720000D01*
X123866666Y-44586666D01*
X123866666Y-44486666D01*
X123900000Y-44353333D01*
X123933333Y-44286666D01*
X124000000Y-44220000D01*
X124100000Y-44186666D01*
X124166666Y-44186666D01*
X124266666Y-44220000D01*
X124300000Y-44253333D01*
X124966666Y-44886666D02*
X124566666Y-44886666D01*
X124766666Y-44886666D02*
X124766666Y-44186666D01*
X124700000Y-44286666D01*
X124633333Y-44353333D01*
X124566666Y-44386666D01*
X125200000Y-44186666D02*
X125666666Y-44186666D01*
X125366666Y-44886666D01*
%TO.C,C16*%
X123750000Y-51950000D02*
X123783333Y-51983333D01*
X123816666Y-52083333D01*
X123816666Y-52150000D01*
X123783333Y-52250000D01*
X123716666Y-52316666D01*
X123650000Y-52350000D01*
X123516666Y-52383333D01*
X123416666Y-52383333D01*
X123283333Y-52350000D01*
X123216666Y-52316666D01*
X123150000Y-52250000D01*
X123116666Y-52150000D01*
X123116666Y-52083333D01*
X123150000Y-51983333D01*
X123183333Y-51950000D01*
X123816666Y-51283333D02*
X123816666Y-51683333D01*
X123816666Y-51483333D02*
X123116666Y-51483333D01*
X123216666Y-51550000D01*
X123283333Y-51616666D01*
X123316666Y-51683333D01*
X123116666Y-50683333D02*
X123116666Y-50816666D01*
X123150000Y-50883333D01*
X123183333Y-50916666D01*
X123283333Y-50983333D01*
X123416666Y-51016666D01*
X123683333Y-51016666D01*
X123750000Y-50983333D01*
X123783333Y-50950000D01*
X123816666Y-50883333D01*
X123816666Y-50750000D01*
X123783333Y-50683333D01*
X123750000Y-50650000D01*
X123683333Y-50616666D01*
X123516666Y-50616666D01*
X123450000Y-50650000D01*
X123416666Y-50683333D01*
X123383333Y-50750000D01*
X123383333Y-50883333D01*
X123416666Y-50950000D01*
X123450000Y-50983333D01*
X123516666Y-51016666D01*
%TO.C,C12*%
X127550000Y-44820000D02*
X127516666Y-44853333D01*
X127416666Y-44886666D01*
X127350000Y-44886666D01*
X127250000Y-44853333D01*
X127183333Y-44786666D01*
X127150000Y-44720000D01*
X127116666Y-44586666D01*
X127116666Y-44486666D01*
X127150000Y-44353333D01*
X127183333Y-44286666D01*
X127250000Y-44220000D01*
X127350000Y-44186666D01*
X127416666Y-44186666D01*
X127516666Y-44220000D01*
X127550000Y-44253333D01*
X128216666Y-44886666D02*
X127816666Y-44886666D01*
X128016666Y-44886666D02*
X128016666Y-44186666D01*
X127950000Y-44286666D01*
X127883333Y-44353333D01*
X127816666Y-44386666D01*
X128483333Y-44253333D02*
X128516666Y-44220000D01*
X128583333Y-44186666D01*
X128750000Y-44186666D01*
X128816666Y-44220000D01*
X128850000Y-44253333D01*
X128883333Y-44320000D01*
X128883333Y-44386666D01*
X128850000Y-44486666D01*
X128450000Y-44886666D01*
X128883333Y-44886666D01*
%TO.C,C5*%
X118383333Y-48250000D02*
X118350000Y-48283333D01*
X118250000Y-48316666D01*
X118183333Y-48316666D01*
X118083333Y-48283333D01*
X118016666Y-48216666D01*
X117983333Y-48150000D01*
X117950000Y-48016666D01*
X117950000Y-47916666D01*
X117983333Y-47783333D01*
X118016666Y-47716666D01*
X118083333Y-47650000D01*
X118183333Y-47616666D01*
X118250000Y-47616666D01*
X118350000Y-47650000D01*
X118383333Y-47683333D01*
X119016666Y-47616666D02*
X118683333Y-47616666D01*
X118650000Y-47950000D01*
X118683333Y-47916666D01*
X118750000Y-47883333D01*
X118916666Y-47883333D01*
X118983333Y-47916666D01*
X119016666Y-47950000D01*
X119050000Y-48016666D01*
X119050000Y-48183333D01*
X119016666Y-48250000D01*
X118983333Y-48283333D01*
X118916666Y-48316666D01*
X118750000Y-48316666D01*
X118683333Y-48283333D01*
X118650000Y-48250000D01*
%TO.C,C4*%
X103333333Y-45357142D02*
X103285714Y-45404761D01*
X103142857Y-45452380D01*
X103047619Y-45452380D01*
X102904761Y-45404761D01*
X102809523Y-45309523D01*
X102761904Y-45214285D01*
X102714285Y-45023809D01*
X102714285Y-44880952D01*
X102761904Y-44690476D01*
X102809523Y-44595238D01*
X102904761Y-44500000D01*
X103047619Y-44452380D01*
X103142857Y-44452380D01*
X103285714Y-44500000D01*
X103333333Y-44547619D01*
X104190476Y-44785714D02*
X104190476Y-45452380D01*
X103952380Y-44404761D02*
X103714285Y-45119047D01*
X104333333Y-45119047D01*
%TO.C,C3*%
X116133333Y-51500000D02*
X116100000Y-51533333D01*
X116000000Y-51566666D01*
X115933333Y-51566666D01*
X115833333Y-51533333D01*
X115766666Y-51466666D01*
X115733333Y-51400000D01*
X115700000Y-51266666D01*
X115700000Y-51166666D01*
X115733333Y-51033333D01*
X115766666Y-50966666D01*
X115833333Y-50900000D01*
X115933333Y-50866666D01*
X116000000Y-50866666D01*
X116100000Y-50900000D01*
X116133333Y-50933333D01*
X116366666Y-50866666D02*
X116800000Y-50866666D01*
X116566666Y-51133333D01*
X116666666Y-51133333D01*
X116733333Y-51166666D01*
X116766666Y-51200000D01*
X116800000Y-51266666D01*
X116800000Y-51433333D01*
X116766666Y-51500000D01*
X116733333Y-51533333D01*
X116666666Y-51566666D01*
X116466666Y-51566666D01*
X116400000Y-51533333D01*
X116366666Y-51500000D01*
%TO.C,C2*%
X104883333Y-52500000D02*
X104850000Y-52533333D01*
X104750000Y-52566666D01*
X104683333Y-52566666D01*
X104583333Y-52533333D01*
X104516666Y-52466666D01*
X104483333Y-52400000D01*
X104450000Y-52266666D01*
X104450000Y-52166666D01*
X104483333Y-52033333D01*
X104516666Y-51966666D01*
X104583333Y-51900000D01*
X104683333Y-51866666D01*
X104750000Y-51866666D01*
X104850000Y-51900000D01*
X104883333Y-51933333D01*
X105150000Y-51933333D02*
X105183333Y-51900000D01*
X105250000Y-51866666D01*
X105416666Y-51866666D01*
X105483333Y-51900000D01*
X105516666Y-51933333D01*
X105550000Y-52000000D01*
X105550000Y-52066666D01*
X105516666Y-52166666D01*
X105116666Y-52566666D01*
X105550000Y-52566666D01*
%TO.C,C1*%
X121633333Y-50250000D02*
X121600000Y-50283333D01*
X121500000Y-50316666D01*
X121433333Y-50316666D01*
X121333333Y-50283333D01*
X121266666Y-50216666D01*
X121233333Y-50150000D01*
X121200000Y-50016666D01*
X121200000Y-49916666D01*
X121233333Y-49783333D01*
X121266666Y-49716666D01*
X121333333Y-49650000D01*
X121433333Y-49616666D01*
X121500000Y-49616666D01*
X121600000Y-49650000D01*
X121633333Y-49683333D01*
X122300000Y-50316666D02*
X121900000Y-50316666D01*
X122100000Y-50316666D02*
X122100000Y-49616666D01*
X122033333Y-49716666D01*
X121966666Y-49783333D01*
X121900000Y-49816666D01*
%TO.C,JP5*%
X129416666Y-63366666D02*
X129416666Y-63866666D01*
X129383333Y-63966666D01*
X129316666Y-64033333D01*
X129216666Y-64066666D01*
X129150000Y-64066666D01*
X129750000Y-64066666D02*
X129750000Y-63366666D01*
X130016666Y-63366666D01*
X130083333Y-63400000D01*
X130116666Y-63433333D01*
X130150000Y-63500000D01*
X130150000Y-63600000D01*
X130116666Y-63666666D01*
X130083333Y-63700000D01*
X130016666Y-63733333D01*
X129750000Y-63733333D01*
X130783333Y-63366666D02*
X130450000Y-63366666D01*
X130416666Y-63700000D01*
X130450000Y-63666666D01*
X130516666Y-63633333D01*
X130683333Y-63633333D01*
X130750000Y-63666666D01*
X130783333Y-63700000D01*
X130816666Y-63766666D01*
X130816666Y-63933333D01*
X130783333Y-64000000D01*
X130750000Y-64033333D01*
X130683333Y-64066666D01*
X130516666Y-64066666D01*
X130450000Y-64033333D01*
X130416666Y-64000000D01*
%TO.C,JP4*%
X124416666Y-65116666D02*
X124416666Y-65616666D01*
X124383333Y-65716666D01*
X124316666Y-65783333D01*
X124216666Y-65816666D01*
X124150000Y-65816666D01*
X124750000Y-65816666D02*
X124750000Y-65116666D01*
X125016666Y-65116666D01*
X125083333Y-65150000D01*
X125116666Y-65183333D01*
X125150000Y-65250000D01*
X125150000Y-65350000D01*
X125116666Y-65416666D01*
X125083333Y-65450000D01*
X125016666Y-65483333D01*
X124750000Y-65483333D01*
X125750000Y-65350000D02*
X125750000Y-65816666D01*
X125583333Y-65083333D02*
X125416666Y-65583333D01*
X125850000Y-65583333D01*
%TO.C,C7*%
X133133333Y-60250000D02*
X133100000Y-60283333D01*
X133000000Y-60316666D01*
X132933333Y-60316666D01*
X132833333Y-60283333D01*
X132766666Y-60216666D01*
X132733333Y-60150000D01*
X132700000Y-60016666D01*
X132700000Y-59916666D01*
X132733333Y-59783333D01*
X132766666Y-59716666D01*
X132833333Y-59650000D01*
X132933333Y-59616666D01*
X133000000Y-59616666D01*
X133100000Y-59650000D01*
X133133333Y-59683333D01*
X133366666Y-59616666D02*
X133833333Y-59616666D01*
X133533333Y-60316666D01*
%TO.C,R8*%
X128452380Y-68479166D02*
X127976190Y-68812500D01*
X128452380Y-69050595D02*
X127452380Y-69050595D01*
X127452380Y-68669642D01*
X127500000Y-68574404D01*
X127547619Y-68526785D01*
X127642857Y-68479166D01*
X127785714Y-68479166D01*
X127880952Y-68526785D01*
X127928571Y-68574404D01*
X127976190Y-68669642D01*
X127976190Y-69050595D01*
X127880952Y-67907738D02*
X127833333Y-68002976D01*
X127785714Y-68050595D01*
X127690476Y-68098214D01*
X127642857Y-68098214D01*
X127547619Y-68050595D01*
X127500000Y-68002976D01*
X127452380Y-67907738D01*
X127452380Y-67717261D01*
X127500000Y-67622023D01*
X127547619Y-67574404D01*
X127642857Y-67526785D01*
X127690476Y-67526785D01*
X127785714Y-67574404D01*
X127833333Y-67622023D01*
X127880952Y-67717261D01*
X127880952Y-67907738D01*
X127928571Y-68002976D01*
X127976190Y-68050595D01*
X128071428Y-68098214D01*
X128261904Y-68098214D01*
X128357142Y-68050595D01*
X128404761Y-68002976D01*
X128452380Y-67907738D01*
X128452380Y-67717261D01*
X128404761Y-67622023D01*
X128357142Y-67574404D01*
X128261904Y-67526785D01*
X128071428Y-67526785D01*
X127976190Y-67574404D01*
X127928571Y-67622023D01*
X127880952Y-67717261D01*
%TO.C,R9*%
X134202380Y-65916666D02*
X133726190Y-66250000D01*
X134202380Y-66488095D02*
X133202380Y-66488095D01*
X133202380Y-66107142D01*
X133250000Y-66011904D01*
X133297619Y-65964285D01*
X133392857Y-65916666D01*
X133535714Y-65916666D01*
X133630952Y-65964285D01*
X133678571Y-66011904D01*
X133726190Y-66107142D01*
X133726190Y-66488095D01*
X134202380Y-65440476D02*
X134202380Y-65250000D01*
X134154761Y-65154761D01*
X134107142Y-65107142D01*
X133964285Y-65011904D01*
X133773809Y-64964285D01*
X133392857Y-64964285D01*
X133297619Y-65011904D01*
X133250000Y-65059523D01*
X133202380Y-65154761D01*
X133202380Y-65345238D01*
X133250000Y-65440476D01*
X133297619Y-65488095D01*
X133392857Y-65535714D01*
X133630952Y-65535714D01*
X133726190Y-65488095D01*
X133773809Y-65440476D01*
X133821428Y-65345238D01*
X133821428Y-65154761D01*
X133773809Y-65059523D01*
X133726190Y-65011904D01*
X133630952Y-64964285D01*
%TD*%
M02*
