%TF.GenerationSoftware,KiCad,Pcbnew,(5.1.6)-1*%
%TF.CreationDate,2021-03-23T10:57:52+01:00*%
%TF.ProjectId,mu-ltz,6d752d6c-747a-42e6-9b69-6361645f7063,rev?*%
%TF.SameCoordinates,Original*%
%TF.FileFunction,Soldermask,Bot*%
%TF.FilePolarity,Negative*%
%FSLAX46Y46*%
G04 Gerber Fmt 4.6, Leading zero omitted, Abs format (unit mm)*
G04 Created by KiCad (PCBNEW (5.1.6)-1) date 2021-03-23 10:57:52*
%MOMM*%
%LPD*%
G01*
G04 APERTURE LIST*
%ADD10C,1.000000*%
%ADD11R,1.700000X1.700000*%
%ADD12O,1.700000X1.700000*%
%ADD13C,2.599360*%
G04 APERTURE END LIST*
D10*
X103500000Y-97000000D02*
G75*
G03*
X103500000Y-97000000I-500000J0D01*
G01*
X132000000Y-97000000D02*
G75*
G03*
X132000000Y-97000000I-500000J0D01*
G01*
X132000000Y-43000000D02*
G75*
G03*
X132000000Y-43000000I-500000J0D01*
G01*
X103500000Y-43000000D02*
G75*
G03*
X103500000Y-43000000I-500000J0D01*
G01*
%TO.C,C10*%
G36*
G01*
X118518750Y-85400000D02*
X119481250Y-85400000D01*
G75*
G02*
X119750000Y-85668750I0J-268750D01*
G01*
X119750000Y-86206250D01*
G75*
G02*
X119481250Y-86475000I-268750J0D01*
G01*
X118518750Y-86475000D01*
G75*
G02*
X118250000Y-86206250I0J268750D01*
G01*
X118250000Y-85668750D01*
G75*
G02*
X118518750Y-85400000I268750J0D01*
G01*
G37*
G36*
G01*
X118518750Y-83525000D02*
X119481250Y-83525000D01*
G75*
G02*
X119750000Y-83793750I0J-268750D01*
G01*
X119750000Y-84331250D01*
G75*
G02*
X119481250Y-84600000I-268750J0D01*
G01*
X118518750Y-84600000D01*
G75*
G02*
X118250000Y-84331250I0J268750D01*
G01*
X118250000Y-83793750D01*
G75*
G02*
X118518750Y-83525000I268750J0D01*
G01*
G37*
%TD*%
%TO.C,C7*%
G36*
G01*
X130481250Y-84600000D02*
X129518750Y-84600000D01*
G75*
G02*
X129250000Y-84331250I0J268750D01*
G01*
X129250000Y-83793750D01*
G75*
G02*
X129518750Y-83525000I268750J0D01*
G01*
X130481250Y-83525000D01*
G75*
G02*
X130750000Y-83793750I0J-268750D01*
G01*
X130750000Y-84331250D01*
G75*
G02*
X130481250Y-84600000I-268750J0D01*
G01*
G37*
G36*
G01*
X130481250Y-86475000D02*
X129518750Y-86475000D01*
G75*
G02*
X129250000Y-86206250I0J268750D01*
G01*
X129250000Y-85668750D01*
G75*
G02*
X129518750Y-85400000I268750J0D01*
G01*
X130481250Y-85400000D01*
G75*
G02*
X130750000Y-85668750I0J-268750D01*
G01*
X130750000Y-86206250D01*
G75*
G02*
X130481250Y-86475000I-268750J0D01*
G01*
G37*
%TD*%
%TO.C,R8*%
G36*
G01*
X126768750Y-89400000D02*
X127731250Y-89400000D01*
G75*
G02*
X128000000Y-89668750I0J-268750D01*
G01*
X128000000Y-90206250D01*
G75*
G02*
X127731250Y-90475000I-268750J0D01*
G01*
X126768750Y-90475000D01*
G75*
G02*
X126500000Y-90206250I0J268750D01*
G01*
X126500000Y-89668750D01*
G75*
G02*
X126768750Y-89400000I268750J0D01*
G01*
G37*
G36*
G01*
X126768750Y-87525000D02*
X127731250Y-87525000D01*
G75*
G02*
X128000000Y-87793750I0J-268750D01*
G01*
X128000000Y-88331250D01*
G75*
G02*
X127731250Y-88600000I-268750J0D01*
G01*
X126768750Y-88600000D01*
G75*
G02*
X126500000Y-88331250I0J268750D01*
G01*
X126500000Y-87793750D01*
G75*
G02*
X126768750Y-87525000I268750J0D01*
G01*
G37*
%TD*%
%TO.C,R10*%
G36*
G01*
X121768750Y-89400000D02*
X122731250Y-89400000D01*
G75*
G02*
X123000000Y-89668750I0J-268750D01*
G01*
X123000000Y-90206250D01*
G75*
G02*
X122731250Y-90475000I-268750J0D01*
G01*
X121768750Y-90475000D01*
G75*
G02*
X121500000Y-90206250I0J268750D01*
G01*
X121500000Y-89668750D01*
G75*
G02*
X121768750Y-89400000I268750J0D01*
G01*
G37*
G36*
G01*
X121768750Y-87525000D02*
X122731250Y-87525000D01*
G75*
G02*
X123000000Y-87793750I0J-268750D01*
G01*
X123000000Y-88331250D01*
G75*
G02*
X122731250Y-88600000I-268750J0D01*
G01*
X121768750Y-88600000D01*
G75*
G02*
X121500000Y-88331250I0J268750D01*
G01*
X121500000Y-87793750D01*
G75*
G02*
X121768750Y-87525000I268750J0D01*
G01*
G37*
%TD*%
%TO.C,R11*%
G36*
G01*
X121768750Y-85400000D02*
X122731250Y-85400000D01*
G75*
G02*
X123000000Y-85668750I0J-268750D01*
G01*
X123000000Y-86206250D01*
G75*
G02*
X122731250Y-86475000I-268750J0D01*
G01*
X121768750Y-86475000D01*
G75*
G02*
X121500000Y-86206250I0J268750D01*
G01*
X121500000Y-85668750D01*
G75*
G02*
X121768750Y-85400000I268750J0D01*
G01*
G37*
G36*
G01*
X121768750Y-83525000D02*
X122731250Y-83525000D01*
G75*
G02*
X123000000Y-83793750I0J-268750D01*
G01*
X123000000Y-84331250D01*
G75*
G02*
X122731250Y-84600000I-268750J0D01*
G01*
X121768750Y-84600000D01*
G75*
G02*
X121500000Y-84331250I0J268750D01*
G01*
X121500000Y-83793750D01*
G75*
G02*
X121768750Y-83525000I268750J0D01*
G01*
G37*
%TD*%
%TO.C,R9*%
G36*
G01*
X126768750Y-85400000D02*
X127731250Y-85400000D01*
G75*
G02*
X128000000Y-85668750I0J-268750D01*
G01*
X128000000Y-86206250D01*
G75*
G02*
X127731250Y-86475000I-268750J0D01*
G01*
X126768750Y-86475000D01*
G75*
G02*
X126500000Y-86206250I0J268750D01*
G01*
X126500000Y-85668750D01*
G75*
G02*
X126768750Y-85400000I268750J0D01*
G01*
G37*
G36*
G01*
X126768750Y-83525000D02*
X127731250Y-83525000D01*
G75*
G02*
X128000000Y-83793750I0J-268750D01*
G01*
X128000000Y-84331250D01*
G75*
G02*
X127731250Y-84600000I-268750J0D01*
G01*
X126768750Y-84600000D01*
G75*
G02*
X126500000Y-84331250I0J268750D01*
G01*
X126500000Y-83793750D01*
G75*
G02*
X126768750Y-83525000I268750J0D01*
G01*
G37*
%TD*%
%TO.C,FB3*%
G36*
G01*
X122531250Y-92200000D02*
X121968750Y-92200000D01*
G75*
G02*
X121725000Y-91956250I0J243750D01*
G01*
X121725000Y-91468750D01*
G75*
G02*
X121968750Y-91225000I243750J0D01*
G01*
X122531250Y-91225000D01*
G75*
G02*
X122775000Y-91468750I0J-243750D01*
G01*
X122775000Y-91956250D01*
G75*
G02*
X122531250Y-92200000I-243750J0D01*
G01*
G37*
G36*
G01*
X122531250Y-93775000D02*
X121968750Y-93775000D01*
G75*
G02*
X121725000Y-93531250I0J243750D01*
G01*
X121725000Y-93043750D01*
G75*
G02*
X121968750Y-92800000I243750J0D01*
G01*
X122531250Y-92800000D01*
G75*
G02*
X122775000Y-93043750I0J-243750D01*
G01*
X122775000Y-93531250D01*
G75*
G02*
X122531250Y-93775000I-243750J0D01*
G01*
G37*
%TD*%
%TO.C,C9*%
G36*
G01*
X118518750Y-89400000D02*
X119481250Y-89400000D01*
G75*
G02*
X119750000Y-89668750I0J-268750D01*
G01*
X119750000Y-90206250D01*
G75*
G02*
X119481250Y-90475000I-268750J0D01*
G01*
X118518750Y-90475000D01*
G75*
G02*
X118250000Y-90206250I0J268750D01*
G01*
X118250000Y-89668750D01*
G75*
G02*
X118518750Y-89400000I268750J0D01*
G01*
G37*
G36*
G01*
X118518750Y-87525000D02*
X119481250Y-87525000D01*
G75*
G02*
X119750000Y-87793750I0J-268750D01*
G01*
X119750000Y-88331250D01*
G75*
G02*
X119481250Y-88600000I-268750J0D01*
G01*
X118518750Y-88600000D01*
G75*
G02*
X118250000Y-88331250I0J268750D01*
G01*
X118250000Y-87793750D01*
G75*
G02*
X118518750Y-87525000I268750J0D01*
G01*
G37*
%TD*%
%TO.C,C6*%
G36*
G01*
X130481250Y-88600000D02*
X129518750Y-88600000D01*
G75*
G02*
X129250000Y-88331250I0J268750D01*
G01*
X129250000Y-87793750D01*
G75*
G02*
X129518750Y-87525000I268750J0D01*
G01*
X130481250Y-87525000D01*
G75*
G02*
X130750000Y-87793750I0J-268750D01*
G01*
X130750000Y-88331250D01*
G75*
G02*
X130481250Y-88600000I-268750J0D01*
G01*
G37*
G36*
G01*
X130481250Y-90475000D02*
X129518750Y-90475000D01*
G75*
G02*
X129250000Y-90206250I0J268750D01*
G01*
X129250000Y-89668750D01*
G75*
G02*
X129518750Y-89400000I268750J0D01*
G01*
X130481250Y-89400000D01*
G75*
G02*
X130750000Y-89668750I0J-268750D01*
G01*
X130750000Y-90206250D01*
G75*
G02*
X130481250Y-90475000I-268750J0D01*
G01*
G37*
%TD*%
D11*
%TO.C,RN1*%
X123000000Y-50000000D03*
D12*
X123000000Y-55080000D03*
X123000000Y-52540000D03*
%TD*%
%TO.C,U1*%
G36*
G01*
X115605133Y-49185133D02*
X115605133Y-49185133D01*
G75*
G02*
X116524371Y-49185133I459619J-459619D01*
G01*
X116524371Y-49185133D01*
G75*
G02*
X116524371Y-50104371I-459619J-459619D01*
G01*
X116524371Y-50104371D01*
G75*
G02*
X115605133Y-50104371I-459619J459619D01*
G01*
X115605133Y-50104371D01*
G75*
G02*
X115605133Y-49185133I459619J459619D01*
G01*
G37*
G36*
G01*
X117669885Y-50040381D02*
X117669885Y-50040381D01*
G75*
G02*
X118589123Y-50040381I459619J-459619D01*
G01*
X118589123Y-50040381D01*
G75*
G02*
X118589123Y-50959619I-459619J-459619D01*
G01*
X118589123Y-50959619D01*
G75*
G02*
X117669885Y-50959619I-459619J459619D01*
G01*
X117669885Y-50959619D01*
G75*
G02*
X117669885Y-50040381I459619J459619D01*
G01*
G37*
G36*
G01*
X118525133Y-52105133D02*
X118525133Y-52105133D01*
G75*
G02*
X119444371Y-52105133I459619J-459619D01*
G01*
X119444371Y-52105133D01*
G75*
G02*
X119444371Y-53024371I-459619J-459619D01*
G01*
X119444371Y-53024371D01*
G75*
G02*
X118525133Y-53024371I-459619J459619D01*
G01*
X118525133Y-53024371D01*
G75*
G02*
X118525133Y-52105133I459619J459619D01*
G01*
G37*
G36*
G01*
X117669885Y-54169885D02*
X117669885Y-54169885D01*
G75*
G02*
X118589123Y-54169885I459619J-459619D01*
G01*
X118589123Y-54169885D01*
G75*
G02*
X118589123Y-55089123I-459619J-459619D01*
G01*
X118589123Y-55089123D01*
G75*
G02*
X117669885Y-55089123I-459619J459619D01*
G01*
X117669885Y-55089123D01*
G75*
G02*
X117669885Y-54169885I459619J459619D01*
G01*
G37*
G36*
G01*
X115605133Y-55025133D02*
X115605133Y-55025133D01*
G75*
G02*
X116524371Y-55025133I459619J-459619D01*
G01*
X116524371Y-55025133D01*
G75*
G02*
X116524371Y-55944371I-459619J-459619D01*
G01*
X116524371Y-55944371D01*
G75*
G02*
X115605133Y-55944371I-459619J459619D01*
G01*
X115605133Y-55944371D01*
G75*
G02*
X115605133Y-55025133I459619J459619D01*
G01*
G37*
G36*
G01*
X113540381Y-54169885D02*
X113540381Y-54169885D01*
G75*
G02*
X114459619Y-54169885I459619J-459619D01*
G01*
X114459619Y-54169885D01*
G75*
G02*
X114459619Y-55089123I-459619J-459619D01*
G01*
X114459619Y-55089123D01*
G75*
G02*
X113540381Y-55089123I-459619J459619D01*
G01*
X113540381Y-55089123D01*
G75*
G02*
X113540381Y-54169885I459619J459619D01*
G01*
G37*
G36*
G01*
X112685133Y-52105133D02*
X112685133Y-52105133D01*
G75*
G02*
X113604371Y-52105133I459619J-459619D01*
G01*
X113604371Y-52105133D01*
G75*
G02*
X113604371Y-53024371I-459619J-459619D01*
G01*
X113604371Y-53024371D01*
G75*
G02*
X112685133Y-53024371I-459619J459619D01*
G01*
X112685133Y-53024371D01*
G75*
G02*
X112685133Y-52105133I459619J459619D01*
G01*
G37*
G36*
G01*
X113398959Y-49898959D02*
X113398960Y-49898960D01*
G75*
G02*
X114318198Y-49898960I459619J-459619D01*
G01*
X114601040Y-50181802D01*
G75*
G02*
X114601040Y-51101040I-459619J-459619D01*
G01*
X114601040Y-51101040D01*
G75*
G02*
X113681802Y-51101040I-459619J459619D01*
G01*
X113398960Y-50818198D01*
G75*
G02*
X113398960Y-49898960I459619J459619D01*
G01*
G37*
%TD*%
D13*
%TO.C,J10*%
X107250000Y-96500000D03*
%TD*%
%TO.C,J7*%
X122250000Y-96500000D03*
%TD*%
%TO.C,J8*%
X117250000Y-96500000D03*
%TD*%
%TO.C,J9*%
X112250000Y-96500000D03*
%TD*%
%TO.C,J1*%
X107250000Y-76500000D03*
%TD*%
%TO.C,FB2*%
G36*
G01*
X127531250Y-92200000D02*
X126968750Y-92200000D01*
G75*
G02*
X126725000Y-91956250I0J243750D01*
G01*
X126725000Y-91468750D01*
G75*
G02*
X126968750Y-91225000I243750J0D01*
G01*
X127531250Y-91225000D01*
G75*
G02*
X127775000Y-91468750I0J-243750D01*
G01*
X127775000Y-91956250D01*
G75*
G02*
X127531250Y-92200000I-243750J0D01*
G01*
G37*
G36*
G01*
X127531250Y-93775000D02*
X126968750Y-93775000D01*
G75*
G02*
X126725000Y-93531250I0J243750D01*
G01*
X126725000Y-93043750D01*
G75*
G02*
X126968750Y-92800000I243750J0D01*
G01*
X127531250Y-92800000D01*
G75*
G02*
X127775000Y-93043750I0J-243750D01*
G01*
X127775000Y-93531250D01*
G75*
G02*
X127531250Y-93775000I-243750J0D01*
G01*
G37*
%TD*%
%TO.C,J3*%
X117250000Y-76500000D03*
%TD*%
%TO.C,J4*%
X122250000Y-76500000D03*
%TD*%
%TO.C,J5*%
X127250000Y-76500000D03*
%TD*%
%TO.C,J2*%
X112250000Y-76500000D03*
%TD*%
%TO.C,J6*%
X127250000Y-96500000D03*
%TD*%
M02*
