%TF.GenerationSoftware,KiCad,Pcbnew,(5.1.6)-1*%
%TF.CreationDate,2021-03-23T10:57:52+01:00*%
%TF.ProjectId,mu-ltz,6d752d6c-747a-42e6-9b69-6361645f7063,rev?*%
%TF.SameCoordinates,Original*%
%TF.FileFunction,Legend,Top*%
%TF.FilePolarity,Positive*%
%FSLAX46Y46*%
G04 Gerber Fmt 4.6, Leading zero omitted, Abs format (unit mm)*
G04 Created by KiCad (PCBNEW (5.1.6)-1) date 2021-03-23 10:57:52*
%MOMM*%
%LPD*%
G01*
G04 APERTURE LIST*
%ADD10C,0.120000*%
%ADD11C,0.150000*%
G04 APERTURE END LIST*
D10*
%TO.C,D1*%
X108750000Y-55500000D02*
X110450000Y-55500000D01*
X110450000Y-55500000D02*
X110450000Y-52950000D01*
X108750000Y-55500000D02*
X108750000Y-52950000D01*
%TO.C,U4*%
X130600000Y-53610000D02*
X132100000Y-53610000D01*
X130600000Y-53610000D02*
X129100000Y-53610000D01*
X130600000Y-50390000D02*
X132100000Y-50390000D01*
X130600000Y-50390000D02*
X127675000Y-50390000D01*
%TO.C,U3*%
X105000000Y-51610000D02*
X106500000Y-51610000D01*
X105000000Y-51610000D02*
X103500000Y-51610000D01*
X105000000Y-48390000D02*
X106500000Y-48390000D01*
X105000000Y-48390000D02*
X102075000Y-48390000D01*
%TO.C,U2*%
X117000000Y-45610000D02*
X118500000Y-45610000D01*
X117000000Y-45610000D02*
X115500000Y-45610000D01*
X117000000Y-42390000D02*
X118500000Y-42390000D01*
X117000000Y-42390000D02*
X114075000Y-42390000D01*
%TO.C,R22*%
X110397936Y-58590000D02*
X111602064Y-58590000D01*
X110397936Y-60410000D02*
X111602064Y-60410000D01*
%TO.C,R21*%
X116602064Y-63410000D02*
X115397936Y-63410000D01*
X116602064Y-61590000D02*
X115397936Y-61590000D01*
%TO.C,R20*%
X105397936Y-60990000D02*
X106602064Y-60990000D01*
X105397936Y-62810000D02*
X106602064Y-62810000D01*
%TO.C,R19*%
X131990000Y-58162779D02*
X131990000Y-57837221D01*
X133010000Y-58162779D02*
X133010000Y-57837221D01*
%TO.C,R18*%
X105397936Y-58590000D02*
X106602064Y-58590000D01*
X105397936Y-60410000D02*
X106602064Y-60410000D01*
%TO.C,R17*%
X129990000Y-58162779D02*
X129990000Y-57837221D01*
X131010000Y-58162779D02*
X131010000Y-57837221D01*
%TO.C,R16*%
X125990000Y-58162779D02*
X125990000Y-57837221D01*
X127010000Y-58162779D02*
X127010000Y-57837221D01*
%TO.C,R15*%
X122202064Y-63410000D02*
X120997936Y-63410000D01*
X122202064Y-61590000D02*
X120997936Y-61590000D01*
%TO.C,R14*%
X110397936Y-60990000D02*
X111602064Y-60990000D01*
X110397936Y-62810000D02*
X111602064Y-62810000D01*
%TO.C,R13*%
X101990000Y-56162779D02*
X101990000Y-55837221D01*
X103010000Y-56162779D02*
X103010000Y-55837221D01*
%TO.C,R12*%
X103990000Y-56162779D02*
X103990000Y-55837221D01*
X105010000Y-56162779D02*
X105010000Y-55837221D01*
%TO.C,R7*%
X110162779Y-49510000D02*
X109837221Y-49510000D01*
X110162779Y-48490000D02*
X109837221Y-48490000D01*
%TO.C,R6*%
X109549721Y-50490000D02*
X109875279Y-50490000D01*
X109549721Y-51510000D02*
X109875279Y-51510000D01*
%TO.C,R5*%
X105490000Y-46162779D02*
X105490000Y-45837221D01*
X106510000Y-46162779D02*
X106510000Y-45837221D01*
%TO.C,R4*%
X118290000Y-58758578D02*
X118290000Y-58241422D01*
X119710000Y-58758578D02*
X119710000Y-58241422D01*
%TO.C,R3*%
X108510000Y-42837221D02*
X108510000Y-43162779D01*
X107490000Y-42837221D02*
X107490000Y-43162779D01*
%TO.C,Q1*%
X111810000Y-47580000D02*
X111810000Y-46650000D01*
X111810000Y-44420000D02*
X111810000Y-45350000D01*
X111810000Y-44420000D02*
X109650000Y-44420000D01*
X111810000Y-47580000D02*
X110350000Y-47580000D01*
%TO.C,JP2*%
X103400000Y-59800000D02*
G75*
G02*
X102700000Y-60500000I-700000J0D01*
G01*
X102700000Y-58500000D02*
G75*
G02*
X103400000Y-59200000I0J-700000D01*
G01*
X100600000Y-59200000D02*
G75*
G02*
X101300000Y-58500000I700000J0D01*
G01*
X101300000Y-60500000D02*
G75*
G02*
X100600000Y-59800000I0J700000D01*
G01*
X103400000Y-59200000D02*
X103400000Y-59800000D01*
X101300000Y-58500000D02*
X102700000Y-58500000D01*
X100600000Y-59800000D02*
X100600000Y-59200000D01*
X102700000Y-60500000D02*
X101300000Y-60500000D01*
%TO.C,JP1*%
X100600000Y-61600000D02*
G75*
G02*
X101300000Y-60900000I700000J0D01*
G01*
X101300000Y-62900000D02*
G75*
G02*
X100600000Y-62200000I0J700000D01*
G01*
X103400000Y-62200000D02*
G75*
G02*
X102700000Y-62900000I-700000J0D01*
G01*
X102700000Y-60900000D02*
G75*
G02*
X103400000Y-61600000I0J-700000D01*
G01*
X100600000Y-62200000D02*
X100600000Y-61600000D01*
X102700000Y-62900000D02*
X101300000Y-62900000D01*
X103400000Y-61600000D02*
X103400000Y-62200000D01*
X101300000Y-60900000D02*
X102700000Y-60900000D01*
%TO.C,FB1*%
X108162779Y-57010000D02*
X107837221Y-57010000D01*
X108162779Y-55990000D02*
X107837221Y-55990000D01*
%TO.C,D2*%
X115350000Y-58000000D02*
X113650000Y-58000000D01*
X113650000Y-58000000D02*
X113650000Y-60550000D01*
X115350000Y-58000000D02*
X115350000Y-60550000D01*
%TO.C,C19*%
X127990000Y-58162779D02*
X127990000Y-57837221D01*
X129010000Y-58162779D02*
X129010000Y-57837221D01*
%TO.C,C18*%
X130337221Y-54490000D02*
X130662779Y-54490000D01*
X130337221Y-55510000D02*
X130662779Y-55510000D01*
%TO.C,C17*%
X103337221Y-52490000D02*
X103662779Y-52490000D01*
X103337221Y-53510000D02*
X103662779Y-53510000D01*
%TO.C,C16*%
X105990000Y-54162779D02*
X105990000Y-53837221D01*
X107010000Y-54162779D02*
X107010000Y-53837221D01*
%TO.C,C15*%
X128990000Y-48375279D02*
X128990000Y-48049721D01*
X130010000Y-48375279D02*
X130010000Y-48049721D01*
%TO.C,C14*%
X101490000Y-46662779D02*
X101490000Y-46337221D01*
X102510000Y-46662779D02*
X102510000Y-46337221D01*
%TO.C,C13*%
X132510000Y-48049721D02*
X132510000Y-48375279D01*
X131490000Y-48049721D02*
X131490000Y-48375279D01*
%TO.C,C12*%
X104510000Y-46337221D02*
X104510000Y-46662779D01*
X103490000Y-46337221D02*
X103490000Y-46662779D01*
%TO.C,C11*%
X114837221Y-40790000D02*
X115162779Y-40790000D01*
X114837221Y-41810000D02*
X115162779Y-41810000D01*
%TO.C,C8*%
X118837221Y-40790000D02*
X119162779Y-40790000D01*
X118837221Y-41810000D02*
X119162779Y-41810000D01*
%TO.C,C5*%
X123162779Y-43510000D02*
X122837221Y-43510000D01*
X123162779Y-42490000D02*
X122837221Y-42490000D01*
%TO.C,C4*%
X105490000Y-43162779D02*
X105490000Y-42837221D01*
X106510000Y-43162779D02*
X106510000Y-42837221D01*
%TO.C,C3*%
X123162779Y-45510000D02*
X122837221Y-45510000D01*
X123162779Y-44490000D02*
X122837221Y-44490000D01*
%TO.C,C2*%
X108510000Y-46337221D02*
X108510000Y-46662779D01*
X107490000Y-46337221D02*
X107490000Y-46662779D01*
%TO.C,C1*%
X110549721Y-42490000D02*
X110875279Y-42490000D01*
X110549721Y-43510000D02*
X110875279Y-43510000D01*
%TO.C,TH1*%
X130202064Y-62910000D02*
X128997936Y-62910000D01*
X130202064Y-61090000D02*
X128997936Y-61090000D01*
%TO.C,RN1*%
X124400000Y-51270000D02*
X121600000Y-51270000D01*
X121600000Y-56520000D02*
X124400000Y-56520000D01*
X121600000Y-48560000D02*
X121600000Y-56520000D01*
X124400000Y-48560000D02*
X121600000Y-48560000D01*
X124400000Y-56520000D02*
X124400000Y-48560000D01*
%TO.C,R2*%
X120290000Y-58258578D02*
X120290000Y-57741422D01*
X121710000Y-58258578D02*
X121710000Y-57741422D01*
%TO.C,U1*%
X115515115Y-47776194D02*
G75*
G03*
X116614752Y-47776235I549637J-4788558D01*
G01*
X116614752Y-47776235D02*
X116614751Y-46516235D01*
X116614751Y-46516235D02*
X115514752Y-46516235D01*
X115514752Y-46516235D02*
X115514751Y-47776235D01*
%TO.C,R1*%
X123258578Y-47710000D02*
X122741422Y-47710000D01*
X123258578Y-46290000D02*
X122741422Y-46290000D01*
%TO.C,D1*%
D11*
X110661904Y-56252380D02*
X110661904Y-55252380D01*
X110900000Y-55252380D01*
X111042857Y-55300000D01*
X111138095Y-55395238D01*
X111185714Y-55490476D01*
X111233333Y-55680952D01*
X111233333Y-55823809D01*
X111185714Y-56014285D01*
X111138095Y-56109523D01*
X111042857Y-56204761D01*
X110900000Y-56252380D01*
X110661904Y-56252380D01*
X112185714Y-56252380D02*
X111614285Y-56252380D01*
X111900000Y-56252380D02*
X111900000Y-55252380D01*
X111804761Y-55395238D01*
X111709523Y-55490476D01*
X111614285Y-55538095D01*
%TO.C,U4*%
X127238095Y-53652380D02*
X127238095Y-54461904D01*
X127285714Y-54557142D01*
X127333333Y-54604761D01*
X127428571Y-54652380D01*
X127619047Y-54652380D01*
X127714285Y-54604761D01*
X127761904Y-54557142D01*
X127809523Y-54461904D01*
X127809523Y-53652380D01*
X128714285Y-53985714D02*
X128714285Y-54652380D01*
X128476190Y-53604761D02*
X128238095Y-54319047D01*
X128857142Y-54319047D01*
%TO.C,U3*%
X104838095Y-47652380D02*
X104838095Y-48461904D01*
X104885714Y-48557142D01*
X104933333Y-48604761D01*
X105028571Y-48652380D01*
X105219047Y-48652380D01*
X105314285Y-48604761D01*
X105361904Y-48557142D01*
X105409523Y-48461904D01*
X105409523Y-47652380D01*
X105790476Y-47652380D02*
X106409523Y-47652380D01*
X106076190Y-48033333D01*
X106219047Y-48033333D01*
X106314285Y-48080952D01*
X106361904Y-48128571D01*
X106409523Y-48223809D01*
X106409523Y-48461904D01*
X106361904Y-48557142D01*
X106314285Y-48604761D01*
X106219047Y-48652380D01*
X105933333Y-48652380D01*
X105838095Y-48604761D01*
X105790476Y-48557142D01*
%TO.C,U2*%
X117038095Y-45852380D02*
X117038095Y-46661904D01*
X117085714Y-46757142D01*
X117133333Y-46804761D01*
X117228571Y-46852380D01*
X117419047Y-46852380D01*
X117514285Y-46804761D01*
X117561904Y-46757142D01*
X117609523Y-46661904D01*
X117609523Y-45852380D01*
X118038095Y-45947619D02*
X118085714Y-45900000D01*
X118180952Y-45852380D01*
X118419047Y-45852380D01*
X118514285Y-45900000D01*
X118561904Y-45947619D01*
X118609523Y-46042857D01*
X118609523Y-46138095D01*
X118561904Y-46280952D01*
X117990476Y-46852380D01*
X118609523Y-46852380D01*
%TO.C,R22*%
X110557142Y-58132380D02*
X110223809Y-57656190D01*
X109985714Y-58132380D02*
X109985714Y-57132380D01*
X110366666Y-57132380D01*
X110461904Y-57180000D01*
X110509523Y-57227619D01*
X110557142Y-57322857D01*
X110557142Y-57465714D01*
X110509523Y-57560952D01*
X110461904Y-57608571D01*
X110366666Y-57656190D01*
X109985714Y-57656190D01*
X110938095Y-57227619D02*
X110985714Y-57180000D01*
X111080952Y-57132380D01*
X111319047Y-57132380D01*
X111414285Y-57180000D01*
X111461904Y-57227619D01*
X111509523Y-57322857D01*
X111509523Y-57418095D01*
X111461904Y-57560952D01*
X110890476Y-58132380D01*
X111509523Y-58132380D01*
X111890476Y-57227619D02*
X111938095Y-57180000D01*
X112033333Y-57132380D01*
X112271428Y-57132380D01*
X112366666Y-57180000D01*
X112414285Y-57227619D01*
X112461904Y-57322857D01*
X112461904Y-57418095D01*
X112414285Y-57560952D01*
X111842857Y-58132380D01*
X112461904Y-58132380D01*
%TO.C,R21*%
X115357142Y-64772380D02*
X115023809Y-64296190D01*
X114785714Y-64772380D02*
X114785714Y-63772380D01*
X115166666Y-63772380D01*
X115261904Y-63820000D01*
X115309523Y-63867619D01*
X115357142Y-63962857D01*
X115357142Y-64105714D01*
X115309523Y-64200952D01*
X115261904Y-64248571D01*
X115166666Y-64296190D01*
X114785714Y-64296190D01*
X115738095Y-63867619D02*
X115785714Y-63820000D01*
X115880952Y-63772380D01*
X116119047Y-63772380D01*
X116214285Y-63820000D01*
X116261904Y-63867619D01*
X116309523Y-63962857D01*
X116309523Y-64058095D01*
X116261904Y-64200952D01*
X115690476Y-64772380D01*
X116309523Y-64772380D01*
X117261904Y-64772380D02*
X116690476Y-64772380D01*
X116976190Y-64772380D02*
X116976190Y-63772380D01*
X116880952Y-63915238D01*
X116785714Y-64010476D01*
X116690476Y-64058095D01*
%TO.C,R20*%
X105357142Y-64452380D02*
X105023809Y-63976190D01*
X104785714Y-64452380D02*
X104785714Y-63452380D01*
X105166666Y-63452380D01*
X105261904Y-63500000D01*
X105309523Y-63547619D01*
X105357142Y-63642857D01*
X105357142Y-63785714D01*
X105309523Y-63880952D01*
X105261904Y-63928571D01*
X105166666Y-63976190D01*
X104785714Y-63976190D01*
X105738095Y-63547619D02*
X105785714Y-63500000D01*
X105880952Y-63452380D01*
X106119047Y-63452380D01*
X106214285Y-63500000D01*
X106261904Y-63547619D01*
X106309523Y-63642857D01*
X106309523Y-63738095D01*
X106261904Y-63880952D01*
X105690476Y-64452380D01*
X106309523Y-64452380D01*
X106928571Y-63452380D02*
X107023809Y-63452380D01*
X107119047Y-63500000D01*
X107166666Y-63547619D01*
X107214285Y-63642857D01*
X107261904Y-63833333D01*
X107261904Y-64071428D01*
X107214285Y-64261904D01*
X107166666Y-64357142D01*
X107119047Y-64404761D01*
X107023809Y-64452380D01*
X106928571Y-64452380D01*
X106833333Y-64404761D01*
X106785714Y-64357142D01*
X106738095Y-64261904D01*
X106690476Y-64071428D01*
X106690476Y-63833333D01*
X106738095Y-63642857D01*
X106785714Y-63547619D01*
X106833333Y-63500000D01*
X106928571Y-63452380D01*
%TO.C,R19*%
X132357142Y-60652380D02*
X132023809Y-60176190D01*
X131785714Y-60652380D02*
X131785714Y-59652380D01*
X132166666Y-59652380D01*
X132261904Y-59700000D01*
X132309523Y-59747619D01*
X132357142Y-59842857D01*
X132357142Y-59985714D01*
X132309523Y-60080952D01*
X132261904Y-60128571D01*
X132166666Y-60176190D01*
X131785714Y-60176190D01*
X133309523Y-60652380D02*
X132738095Y-60652380D01*
X133023809Y-60652380D02*
X133023809Y-59652380D01*
X132928571Y-59795238D01*
X132833333Y-59890476D01*
X132738095Y-59938095D01*
X133785714Y-60652380D02*
X133976190Y-60652380D01*
X134071428Y-60604761D01*
X134119047Y-60557142D01*
X134214285Y-60414285D01*
X134261904Y-60223809D01*
X134261904Y-59842857D01*
X134214285Y-59747619D01*
X134166666Y-59700000D01*
X134071428Y-59652380D01*
X133880952Y-59652380D01*
X133785714Y-59700000D01*
X133738095Y-59747619D01*
X133690476Y-59842857D01*
X133690476Y-60080952D01*
X133738095Y-60176190D01*
X133785714Y-60223809D01*
X133880952Y-60271428D01*
X134071428Y-60271428D01*
X134166666Y-60223809D01*
X134214285Y-60176190D01*
X134261904Y-60080952D01*
%TO.C,R18*%
X105157142Y-58132380D02*
X104823809Y-57656190D01*
X104585714Y-58132380D02*
X104585714Y-57132380D01*
X104966666Y-57132380D01*
X105061904Y-57180000D01*
X105109523Y-57227619D01*
X105157142Y-57322857D01*
X105157142Y-57465714D01*
X105109523Y-57560952D01*
X105061904Y-57608571D01*
X104966666Y-57656190D01*
X104585714Y-57656190D01*
X106109523Y-58132380D02*
X105538095Y-58132380D01*
X105823809Y-58132380D02*
X105823809Y-57132380D01*
X105728571Y-57275238D01*
X105633333Y-57370476D01*
X105538095Y-57418095D01*
X106680952Y-57560952D02*
X106585714Y-57513333D01*
X106538095Y-57465714D01*
X106490476Y-57370476D01*
X106490476Y-57322857D01*
X106538095Y-57227619D01*
X106585714Y-57180000D01*
X106680952Y-57132380D01*
X106871428Y-57132380D01*
X106966666Y-57180000D01*
X107014285Y-57227619D01*
X107061904Y-57322857D01*
X107061904Y-57370476D01*
X107014285Y-57465714D01*
X106966666Y-57513333D01*
X106871428Y-57560952D01*
X106680952Y-57560952D01*
X106585714Y-57608571D01*
X106538095Y-57656190D01*
X106490476Y-57751428D01*
X106490476Y-57941904D01*
X106538095Y-58037142D01*
X106585714Y-58084761D01*
X106680952Y-58132380D01*
X106871428Y-58132380D01*
X106966666Y-58084761D01*
X107014285Y-58037142D01*
X107061904Y-57941904D01*
X107061904Y-57751428D01*
X107014285Y-57656190D01*
X106966666Y-57608571D01*
X106871428Y-57560952D01*
%TO.C,R17*%
X129557142Y-60652380D02*
X129223809Y-60176190D01*
X128985714Y-60652380D02*
X128985714Y-59652380D01*
X129366666Y-59652380D01*
X129461904Y-59700000D01*
X129509523Y-59747619D01*
X129557142Y-59842857D01*
X129557142Y-59985714D01*
X129509523Y-60080952D01*
X129461904Y-60128571D01*
X129366666Y-60176190D01*
X128985714Y-60176190D01*
X130509523Y-60652380D02*
X129938095Y-60652380D01*
X130223809Y-60652380D02*
X130223809Y-59652380D01*
X130128571Y-59795238D01*
X130033333Y-59890476D01*
X129938095Y-59938095D01*
X130842857Y-59652380D02*
X131509523Y-59652380D01*
X131080952Y-60652380D01*
%TO.C,R16*%
X125522380Y-58642857D02*
X125046190Y-58976190D01*
X125522380Y-59214285D02*
X124522380Y-59214285D01*
X124522380Y-58833333D01*
X124570000Y-58738095D01*
X124617619Y-58690476D01*
X124712857Y-58642857D01*
X124855714Y-58642857D01*
X124950952Y-58690476D01*
X124998571Y-58738095D01*
X125046190Y-58833333D01*
X125046190Y-59214285D01*
X125522380Y-57690476D02*
X125522380Y-58261904D01*
X125522380Y-57976190D02*
X124522380Y-57976190D01*
X124665238Y-58071428D01*
X124760476Y-58166666D01*
X124808095Y-58261904D01*
X124522380Y-56833333D02*
X124522380Y-57023809D01*
X124570000Y-57119047D01*
X124617619Y-57166666D01*
X124760476Y-57261904D01*
X124950952Y-57309523D01*
X125331904Y-57309523D01*
X125427142Y-57261904D01*
X125474761Y-57214285D01*
X125522380Y-57119047D01*
X125522380Y-56928571D01*
X125474761Y-56833333D01*
X125427142Y-56785714D01*
X125331904Y-56738095D01*
X125093809Y-56738095D01*
X124998571Y-56785714D01*
X124950952Y-56833333D01*
X124903333Y-56928571D01*
X124903333Y-57119047D01*
X124950952Y-57214285D01*
X124998571Y-57261904D01*
X125093809Y-57309523D01*
%TO.C,R15*%
X120957142Y-64772380D02*
X120623809Y-64296190D01*
X120385714Y-64772380D02*
X120385714Y-63772380D01*
X120766666Y-63772380D01*
X120861904Y-63820000D01*
X120909523Y-63867619D01*
X120957142Y-63962857D01*
X120957142Y-64105714D01*
X120909523Y-64200952D01*
X120861904Y-64248571D01*
X120766666Y-64296190D01*
X120385714Y-64296190D01*
X121909523Y-64772380D02*
X121338095Y-64772380D01*
X121623809Y-64772380D02*
X121623809Y-63772380D01*
X121528571Y-63915238D01*
X121433333Y-64010476D01*
X121338095Y-64058095D01*
X122814285Y-63772380D02*
X122338095Y-63772380D01*
X122290476Y-64248571D01*
X122338095Y-64200952D01*
X122433333Y-64153333D01*
X122671428Y-64153333D01*
X122766666Y-64200952D01*
X122814285Y-64248571D01*
X122861904Y-64343809D01*
X122861904Y-64581904D01*
X122814285Y-64677142D01*
X122766666Y-64724761D01*
X122671428Y-64772380D01*
X122433333Y-64772380D01*
X122338095Y-64724761D01*
X122290476Y-64677142D01*
%TO.C,R14*%
X110357142Y-64452380D02*
X110023809Y-63976190D01*
X109785714Y-64452380D02*
X109785714Y-63452380D01*
X110166666Y-63452380D01*
X110261904Y-63500000D01*
X110309523Y-63547619D01*
X110357142Y-63642857D01*
X110357142Y-63785714D01*
X110309523Y-63880952D01*
X110261904Y-63928571D01*
X110166666Y-63976190D01*
X109785714Y-63976190D01*
X111309523Y-64452380D02*
X110738095Y-64452380D01*
X111023809Y-64452380D02*
X111023809Y-63452380D01*
X110928571Y-63595238D01*
X110833333Y-63690476D01*
X110738095Y-63738095D01*
X112166666Y-63785714D02*
X112166666Y-64452380D01*
X111928571Y-63404761D02*
X111690476Y-64119047D01*
X112309523Y-64119047D01*
%TO.C,R13*%
X101652380Y-56642857D02*
X101176190Y-56976190D01*
X101652380Y-57214285D02*
X100652380Y-57214285D01*
X100652380Y-56833333D01*
X100700000Y-56738095D01*
X100747619Y-56690476D01*
X100842857Y-56642857D01*
X100985714Y-56642857D01*
X101080952Y-56690476D01*
X101128571Y-56738095D01*
X101176190Y-56833333D01*
X101176190Y-57214285D01*
X101652380Y-55690476D02*
X101652380Y-56261904D01*
X101652380Y-55976190D02*
X100652380Y-55976190D01*
X100795238Y-56071428D01*
X100890476Y-56166666D01*
X100938095Y-56261904D01*
X100652380Y-55357142D02*
X100652380Y-54738095D01*
X101033333Y-55071428D01*
X101033333Y-54928571D01*
X101080952Y-54833333D01*
X101128571Y-54785714D01*
X101223809Y-54738095D01*
X101461904Y-54738095D01*
X101557142Y-54785714D01*
X101604761Y-54833333D01*
X101652380Y-54928571D01*
X101652380Y-55214285D01*
X101604761Y-55309523D01*
X101557142Y-55357142D01*
%TO.C,R12*%
X104052380Y-56442857D02*
X103576190Y-56776190D01*
X104052380Y-57014285D02*
X103052380Y-57014285D01*
X103052380Y-56633333D01*
X103100000Y-56538095D01*
X103147619Y-56490476D01*
X103242857Y-56442857D01*
X103385714Y-56442857D01*
X103480952Y-56490476D01*
X103528571Y-56538095D01*
X103576190Y-56633333D01*
X103576190Y-57014285D01*
X104052380Y-55490476D02*
X104052380Y-56061904D01*
X104052380Y-55776190D02*
X103052380Y-55776190D01*
X103195238Y-55871428D01*
X103290476Y-55966666D01*
X103338095Y-56061904D01*
X103147619Y-55109523D02*
X103100000Y-55061904D01*
X103052380Y-54966666D01*
X103052380Y-54728571D01*
X103100000Y-54633333D01*
X103147619Y-54585714D01*
X103242857Y-54538095D01*
X103338095Y-54538095D01*
X103480952Y-54585714D01*
X104052380Y-55157142D01*
X104052380Y-54538095D01*
%TO.C,R7*%
X112083333Y-48952380D02*
X111750000Y-48476190D01*
X111511904Y-48952380D02*
X111511904Y-47952380D01*
X111892857Y-47952380D01*
X111988095Y-48000000D01*
X112035714Y-48047619D01*
X112083333Y-48142857D01*
X112083333Y-48285714D01*
X112035714Y-48380952D01*
X111988095Y-48428571D01*
X111892857Y-48476190D01*
X111511904Y-48476190D01*
X112416666Y-47952380D02*
X113083333Y-47952380D01*
X112654761Y-48952380D01*
%TO.C,R6*%
X111833333Y-50452380D02*
X111500000Y-49976190D01*
X111261904Y-50452380D02*
X111261904Y-49452380D01*
X111642857Y-49452380D01*
X111738095Y-49500000D01*
X111785714Y-49547619D01*
X111833333Y-49642857D01*
X111833333Y-49785714D01*
X111785714Y-49880952D01*
X111738095Y-49928571D01*
X111642857Y-49976190D01*
X111261904Y-49976190D01*
X112690476Y-49452380D02*
X112500000Y-49452380D01*
X112404761Y-49500000D01*
X112357142Y-49547619D01*
X112261904Y-49690476D01*
X112214285Y-49880952D01*
X112214285Y-50261904D01*
X112261904Y-50357142D01*
X112309523Y-50404761D01*
X112404761Y-50452380D01*
X112595238Y-50452380D01*
X112690476Y-50404761D01*
X112738095Y-50357142D01*
X112785714Y-50261904D01*
X112785714Y-50023809D01*
X112738095Y-49928571D01*
X112690476Y-49880952D01*
X112595238Y-49833333D01*
X112404761Y-49833333D01*
X112309523Y-49880952D01*
X112261904Y-49928571D01*
X112214285Y-50023809D01*
%TO.C,R5*%
X105452380Y-44966666D02*
X104976190Y-45300000D01*
X105452380Y-45538095D02*
X104452380Y-45538095D01*
X104452380Y-45157142D01*
X104500000Y-45061904D01*
X104547619Y-45014285D01*
X104642857Y-44966666D01*
X104785714Y-44966666D01*
X104880952Y-45014285D01*
X104928571Y-45061904D01*
X104976190Y-45157142D01*
X104976190Y-45538095D01*
X104452380Y-44061904D02*
X104452380Y-44538095D01*
X104928571Y-44585714D01*
X104880952Y-44538095D01*
X104833333Y-44442857D01*
X104833333Y-44204761D01*
X104880952Y-44109523D01*
X104928571Y-44061904D01*
X105023809Y-44014285D01*
X105261904Y-44014285D01*
X105357142Y-44061904D01*
X105404761Y-44109523D01*
X105452380Y-44204761D01*
X105452380Y-44442857D01*
X105404761Y-44538095D01*
X105357142Y-44585714D01*
%TO.C,R4*%
X117802380Y-58666666D02*
X117326190Y-59000000D01*
X117802380Y-59238095D02*
X116802380Y-59238095D01*
X116802380Y-58857142D01*
X116850000Y-58761904D01*
X116897619Y-58714285D01*
X116992857Y-58666666D01*
X117135714Y-58666666D01*
X117230952Y-58714285D01*
X117278571Y-58761904D01*
X117326190Y-58857142D01*
X117326190Y-59238095D01*
X117135714Y-57809523D02*
X117802380Y-57809523D01*
X116754761Y-58047619D02*
X117469047Y-58285714D01*
X117469047Y-57666666D01*
%TO.C,R3*%
X107833333Y-41252380D02*
X107500000Y-40776190D01*
X107261904Y-41252380D02*
X107261904Y-40252380D01*
X107642857Y-40252380D01*
X107738095Y-40300000D01*
X107785714Y-40347619D01*
X107833333Y-40442857D01*
X107833333Y-40585714D01*
X107785714Y-40680952D01*
X107738095Y-40728571D01*
X107642857Y-40776190D01*
X107261904Y-40776190D01*
X108166666Y-40252380D02*
X108785714Y-40252380D01*
X108452380Y-40633333D01*
X108595238Y-40633333D01*
X108690476Y-40680952D01*
X108738095Y-40728571D01*
X108785714Y-40823809D01*
X108785714Y-41061904D01*
X108738095Y-41157142D01*
X108690476Y-41204761D01*
X108595238Y-41252380D01*
X108309523Y-41252380D01*
X108214285Y-41204761D01*
X108166666Y-41157142D01*
%TO.C,Q1*%
X112704761Y-47797619D02*
X112609523Y-47750000D01*
X112514285Y-47654761D01*
X112371428Y-47511904D01*
X112276190Y-47464285D01*
X112180952Y-47464285D01*
X112228571Y-47702380D02*
X112133333Y-47654761D01*
X112038095Y-47559523D01*
X111990476Y-47369047D01*
X111990476Y-47035714D01*
X112038095Y-46845238D01*
X112133333Y-46750000D01*
X112228571Y-46702380D01*
X112419047Y-46702380D01*
X112514285Y-46750000D01*
X112609523Y-46845238D01*
X112657142Y-47035714D01*
X112657142Y-47369047D01*
X112609523Y-47559523D01*
X112514285Y-47654761D01*
X112419047Y-47702380D01*
X112228571Y-47702380D01*
X113609523Y-47702380D02*
X113038095Y-47702380D01*
X113323809Y-47702380D02*
X113323809Y-46702380D01*
X113228571Y-46845238D01*
X113133333Y-46940476D01*
X113038095Y-46988095D01*
%TO.C,JP2*%
X100966666Y-63452380D02*
X100966666Y-64166666D01*
X100919047Y-64309523D01*
X100823809Y-64404761D01*
X100680952Y-64452380D01*
X100585714Y-64452380D01*
X101442857Y-64452380D02*
X101442857Y-63452380D01*
X101823809Y-63452380D01*
X101919047Y-63500000D01*
X101966666Y-63547619D01*
X102014285Y-63642857D01*
X102014285Y-63785714D01*
X101966666Y-63880952D01*
X101919047Y-63928571D01*
X101823809Y-63976190D01*
X101442857Y-63976190D01*
X102395238Y-63547619D02*
X102442857Y-63500000D01*
X102538095Y-63452380D01*
X102776190Y-63452380D01*
X102871428Y-63500000D01*
X102919047Y-63547619D01*
X102966666Y-63642857D01*
X102966666Y-63738095D01*
X102919047Y-63880952D01*
X102347619Y-64452380D01*
X102966666Y-64452380D01*
%TO.C,JP1*%
X100966666Y-57452380D02*
X100966666Y-58166666D01*
X100919047Y-58309523D01*
X100823809Y-58404761D01*
X100680952Y-58452380D01*
X100585714Y-58452380D01*
X101442857Y-58452380D02*
X101442857Y-57452380D01*
X101823809Y-57452380D01*
X101919047Y-57500000D01*
X101966666Y-57547619D01*
X102014285Y-57642857D01*
X102014285Y-57785714D01*
X101966666Y-57880952D01*
X101919047Y-57928571D01*
X101823809Y-57976190D01*
X101442857Y-57976190D01*
X102966666Y-58452380D02*
X102395238Y-58452380D01*
X102680952Y-58452380D02*
X102680952Y-57452380D01*
X102585714Y-57595238D01*
X102490476Y-57690476D01*
X102395238Y-57738095D01*
%TO.C,FB1*%
X107766666Y-57728571D02*
X107433333Y-57728571D01*
X107433333Y-58252380D02*
X107433333Y-57252380D01*
X107909523Y-57252380D01*
X108623809Y-57728571D02*
X108766666Y-57776190D01*
X108814285Y-57823809D01*
X108861904Y-57919047D01*
X108861904Y-58061904D01*
X108814285Y-58157142D01*
X108766666Y-58204761D01*
X108671428Y-58252380D01*
X108290476Y-58252380D01*
X108290476Y-57252380D01*
X108623809Y-57252380D01*
X108719047Y-57300000D01*
X108766666Y-57347619D01*
X108814285Y-57442857D01*
X108814285Y-57538095D01*
X108766666Y-57633333D01*
X108719047Y-57680952D01*
X108623809Y-57728571D01*
X108290476Y-57728571D01*
X109814285Y-58252380D02*
X109242857Y-58252380D01*
X109528571Y-58252380D02*
X109528571Y-57252380D01*
X109433333Y-57395238D01*
X109338095Y-57490476D01*
X109242857Y-57538095D01*
%TO.C,D2*%
X116802380Y-60238095D02*
X115802380Y-60238095D01*
X115802380Y-60000000D01*
X115850000Y-59857142D01*
X115945238Y-59761904D01*
X116040476Y-59714285D01*
X116230952Y-59666666D01*
X116373809Y-59666666D01*
X116564285Y-59714285D01*
X116659523Y-59761904D01*
X116754761Y-59857142D01*
X116802380Y-60000000D01*
X116802380Y-60238095D01*
X115897619Y-59285714D02*
X115850000Y-59238095D01*
X115802380Y-59142857D01*
X115802380Y-58904761D01*
X115850000Y-58809523D01*
X115897619Y-58761904D01*
X115992857Y-58714285D01*
X116088095Y-58714285D01*
X116230952Y-58761904D01*
X116802380Y-59333333D01*
X116802380Y-58714285D01*
%TO.C,C19*%
X126757142Y-60557142D02*
X126709523Y-60604761D01*
X126566666Y-60652380D01*
X126471428Y-60652380D01*
X126328571Y-60604761D01*
X126233333Y-60509523D01*
X126185714Y-60414285D01*
X126138095Y-60223809D01*
X126138095Y-60080952D01*
X126185714Y-59890476D01*
X126233333Y-59795238D01*
X126328571Y-59700000D01*
X126471428Y-59652380D01*
X126566666Y-59652380D01*
X126709523Y-59700000D01*
X126757142Y-59747619D01*
X127709523Y-60652380D02*
X127138095Y-60652380D01*
X127423809Y-60652380D02*
X127423809Y-59652380D01*
X127328571Y-59795238D01*
X127233333Y-59890476D01*
X127138095Y-59938095D01*
X128185714Y-60652380D02*
X128376190Y-60652380D01*
X128471428Y-60604761D01*
X128519047Y-60557142D01*
X128614285Y-60414285D01*
X128661904Y-60223809D01*
X128661904Y-59842857D01*
X128614285Y-59747619D01*
X128566666Y-59700000D01*
X128471428Y-59652380D01*
X128280952Y-59652380D01*
X128185714Y-59700000D01*
X128138095Y-59747619D01*
X128090476Y-59842857D01*
X128090476Y-60080952D01*
X128138095Y-60176190D01*
X128185714Y-60223809D01*
X128280952Y-60271428D01*
X128471428Y-60271428D01*
X128566666Y-60223809D01*
X128614285Y-60176190D01*
X128661904Y-60080952D01*
%TO.C,C18*%
X133157142Y-55642857D02*
X133204761Y-55690476D01*
X133252380Y-55833333D01*
X133252380Y-55928571D01*
X133204761Y-56071428D01*
X133109523Y-56166666D01*
X133014285Y-56214285D01*
X132823809Y-56261904D01*
X132680952Y-56261904D01*
X132490476Y-56214285D01*
X132395238Y-56166666D01*
X132300000Y-56071428D01*
X132252380Y-55928571D01*
X132252380Y-55833333D01*
X132300000Y-55690476D01*
X132347619Y-55642857D01*
X133252380Y-54690476D02*
X133252380Y-55261904D01*
X133252380Y-54976190D02*
X132252380Y-54976190D01*
X132395238Y-55071428D01*
X132490476Y-55166666D01*
X132538095Y-55261904D01*
X132680952Y-54119047D02*
X132633333Y-54214285D01*
X132585714Y-54261904D01*
X132490476Y-54309523D01*
X132442857Y-54309523D01*
X132347619Y-54261904D01*
X132300000Y-54214285D01*
X132252380Y-54119047D01*
X132252380Y-53928571D01*
X132300000Y-53833333D01*
X132347619Y-53785714D01*
X132442857Y-53738095D01*
X132490476Y-53738095D01*
X132585714Y-53785714D01*
X132633333Y-53833333D01*
X132680952Y-53928571D01*
X132680952Y-54119047D01*
X132728571Y-54214285D01*
X132776190Y-54261904D01*
X132871428Y-54309523D01*
X133061904Y-54309523D01*
X133157142Y-54261904D01*
X133204761Y-54214285D01*
X133252380Y-54119047D01*
X133252380Y-53928571D01*
X133204761Y-53833333D01*
X133157142Y-53785714D01*
X133061904Y-53738095D01*
X132871428Y-53738095D01*
X132776190Y-53785714D01*
X132728571Y-53833333D01*
X132680952Y-53928571D01*
%TO.C,C17*%
X101557142Y-53442857D02*
X101604761Y-53490476D01*
X101652380Y-53633333D01*
X101652380Y-53728571D01*
X101604761Y-53871428D01*
X101509523Y-53966666D01*
X101414285Y-54014285D01*
X101223809Y-54061904D01*
X101080952Y-54061904D01*
X100890476Y-54014285D01*
X100795238Y-53966666D01*
X100700000Y-53871428D01*
X100652380Y-53728571D01*
X100652380Y-53633333D01*
X100700000Y-53490476D01*
X100747619Y-53442857D01*
X101652380Y-52490476D02*
X101652380Y-53061904D01*
X101652380Y-52776190D02*
X100652380Y-52776190D01*
X100795238Y-52871428D01*
X100890476Y-52966666D01*
X100938095Y-53061904D01*
X100652380Y-52157142D02*
X100652380Y-51490476D01*
X101652380Y-51919047D01*
%TO.C,C16*%
X108357142Y-54842857D02*
X108404761Y-54890476D01*
X108452380Y-55033333D01*
X108452380Y-55128571D01*
X108404761Y-55271428D01*
X108309523Y-55366666D01*
X108214285Y-55414285D01*
X108023809Y-55461904D01*
X107880952Y-55461904D01*
X107690476Y-55414285D01*
X107595238Y-55366666D01*
X107500000Y-55271428D01*
X107452380Y-55128571D01*
X107452380Y-55033333D01*
X107500000Y-54890476D01*
X107547619Y-54842857D01*
X108452380Y-53890476D02*
X108452380Y-54461904D01*
X108452380Y-54176190D02*
X107452380Y-54176190D01*
X107595238Y-54271428D01*
X107690476Y-54366666D01*
X107738095Y-54461904D01*
X107452380Y-53033333D02*
X107452380Y-53223809D01*
X107500000Y-53319047D01*
X107547619Y-53366666D01*
X107690476Y-53461904D01*
X107880952Y-53509523D01*
X108261904Y-53509523D01*
X108357142Y-53461904D01*
X108404761Y-53414285D01*
X108452380Y-53319047D01*
X108452380Y-53128571D01*
X108404761Y-53033333D01*
X108357142Y-52985714D01*
X108261904Y-52938095D01*
X108023809Y-52938095D01*
X107928571Y-52985714D01*
X107880952Y-53033333D01*
X107833333Y-53128571D01*
X107833333Y-53319047D01*
X107880952Y-53414285D01*
X107928571Y-53461904D01*
X108023809Y-53509523D01*
%TO.C,C15*%
X128427142Y-48855357D02*
X128474761Y-48902976D01*
X128522380Y-49045833D01*
X128522380Y-49141071D01*
X128474761Y-49283928D01*
X128379523Y-49379166D01*
X128284285Y-49426785D01*
X128093809Y-49474404D01*
X127950952Y-49474404D01*
X127760476Y-49426785D01*
X127665238Y-49379166D01*
X127570000Y-49283928D01*
X127522380Y-49141071D01*
X127522380Y-49045833D01*
X127570000Y-48902976D01*
X127617619Y-48855357D01*
X128522380Y-47902976D02*
X128522380Y-48474404D01*
X128522380Y-48188690D02*
X127522380Y-48188690D01*
X127665238Y-48283928D01*
X127760476Y-48379166D01*
X127808095Y-48474404D01*
X127522380Y-46998214D02*
X127522380Y-47474404D01*
X127998571Y-47522023D01*
X127950952Y-47474404D01*
X127903333Y-47379166D01*
X127903333Y-47141071D01*
X127950952Y-47045833D01*
X127998571Y-46998214D01*
X128093809Y-46950595D01*
X128331904Y-46950595D01*
X128427142Y-46998214D01*
X128474761Y-47045833D01*
X128522380Y-47141071D01*
X128522380Y-47379166D01*
X128474761Y-47474404D01*
X128427142Y-47522023D01*
%TO.C,C14*%
X101157142Y-47142857D02*
X101204761Y-47190476D01*
X101252380Y-47333333D01*
X101252380Y-47428571D01*
X101204761Y-47571428D01*
X101109523Y-47666666D01*
X101014285Y-47714285D01*
X100823809Y-47761904D01*
X100680952Y-47761904D01*
X100490476Y-47714285D01*
X100395238Y-47666666D01*
X100300000Y-47571428D01*
X100252380Y-47428571D01*
X100252380Y-47333333D01*
X100300000Y-47190476D01*
X100347619Y-47142857D01*
X101252380Y-46190476D02*
X101252380Y-46761904D01*
X101252380Y-46476190D02*
X100252380Y-46476190D01*
X100395238Y-46571428D01*
X100490476Y-46666666D01*
X100538095Y-46761904D01*
X100585714Y-45333333D02*
X101252380Y-45333333D01*
X100204761Y-45571428D02*
X100919047Y-45809523D01*
X100919047Y-45190476D01*
%TO.C,C13*%
X133787142Y-48855357D02*
X133834761Y-48902976D01*
X133882380Y-49045833D01*
X133882380Y-49141071D01*
X133834761Y-49283928D01*
X133739523Y-49379166D01*
X133644285Y-49426785D01*
X133453809Y-49474404D01*
X133310952Y-49474404D01*
X133120476Y-49426785D01*
X133025238Y-49379166D01*
X132930000Y-49283928D01*
X132882380Y-49141071D01*
X132882380Y-49045833D01*
X132930000Y-48902976D01*
X132977619Y-48855357D01*
X133882380Y-47902976D02*
X133882380Y-48474404D01*
X133882380Y-48188690D02*
X132882380Y-48188690D01*
X133025238Y-48283928D01*
X133120476Y-48379166D01*
X133168095Y-48474404D01*
X132882380Y-47569642D02*
X132882380Y-46950595D01*
X133263333Y-47283928D01*
X133263333Y-47141071D01*
X133310952Y-47045833D01*
X133358571Y-46998214D01*
X133453809Y-46950595D01*
X133691904Y-46950595D01*
X133787142Y-46998214D01*
X133834761Y-47045833D01*
X133882380Y-47141071D01*
X133882380Y-47426785D01*
X133834761Y-47522023D01*
X133787142Y-47569642D01*
%TO.C,C12*%
X103357142Y-47642857D02*
X103404761Y-47690476D01*
X103452380Y-47833333D01*
X103452380Y-47928571D01*
X103404761Y-48071428D01*
X103309523Y-48166666D01*
X103214285Y-48214285D01*
X103023809Y-48261904D01*
X102880952Y-48261904D01*
X102690476Y-48214285D01*
X102595238Y-48166666D01*
X102500000Y-48071428D01*
X102452380Y-47928571D01*
X102452380Y-47833333D01*
X102500000Y-47690476D01*
X102547619Y-47642857D01*
X103452380Y-46690476D02*
X103452380Y-47261904D01*
X103452380Y-46976190D02*
X102452380Y-46976190D01*
X102595238Y-47071428D01*
X102690476Y-47166666D01*
X102738095Y-47261904D01*
X102547619Y-46309523D02*
X102500000Y-46261904D01*
X102452380Y-46166666D01*
X102452380Y-45928571D01*
X102500000Y-45833333D01*
X102547619Y-45785714D01*
X102642857Y-45738095D01*
X102738095Y-45738095D01*
X102880952Y-45785714D01*
X103452380Y-46357142D01*
X103452380Y-45738095D01*
%TO.C,C11*%
X111557142Y-41157142D02*
X111509523Y-41204761D01*
X111366666Y-41252380D01*
X111271428Y-41252380D01*
X111128571Y-41204761D01*
X111033333Y-41109523D01*
X110985714Y-41014285D01*
X110938095Y-40823809D01*
X110938095Y-40680952D01*
X110985714Y-40490476D01*
X111033333Y-40395238D01*
X111128571Y-40300000D01*
X111271428Y-40252380D01*
X111366666Y-40252380D01*
X111509523Y-40300000D01*
X111557142Y-40347619D01*
X112509523Y-41252380D02*
X111938095Y-41252380D01*
X112223809Y-41252380D02*
X112223809Y-40252380D01*
X112128571Y-40395238D01*
X112033333Y-40490476D01*
X111938095Y-40538095D01*
X113461904Y-41252380D02*
X112890476Y-41252380D01*
X113176190Y-41252380D02*
X113176190Y-40252380D01*
X113080952Y-40395238D01*
X112985714Y-40490476D01*
X112890476Y-40538095D01*
%TO.C,C8*%
X121833333Y-41357142D02*
X121785714Y-41404761D01*
X121642857Y-41452380D01*
X121547619Y-41452380D01*
X121404761Y-41404761D01*
X121309523Y-41309523D01*
X121261904Y-41214285D01*
X121214285Y-41023809D01*
X121214285Y-40880952D01*
X121261904Y-40690476D01*
X121309523Y-40595238D01*
X121404761Y-40500000D01*
X121547619Y-40452380D01*
X121642857Y-40452380D01*
X121785714Y-40500000D01*
X121833333Y-40547619D01*
X122404761Y-40880952D02*
X122309523Y-40833333D01*
X122261904Y-40785714D01*
X122214285Y-40690476D01*
X122214285Y-40642857D01*
X122261904Y-40547619D01*
X122309523Y-40500000D01*
X122404761Y-40452380D01*
X122595238Y-40452380D01*
X122690476Y-40500000D01*
X122738095Y-40547619D01*
X122785714Y-40642857D01*
X122785714Y-40690476D01*
X122738095Y-40785714D01*
X122690476Y-40833333D01*
X122595238Y-40880952D01*
X122404761Y-40880952D01*
X122309523Y-40928571D01*
X122261904Y-40976190D01*
X122214285Y-41071428D01*
X122214285Y-41261904D01*
X122261904Y-41357142D01*
X122309523Y-41404761D01*
X122404761Y-41452380D01*
X122595238Y-41452380D01*
X122690476Y-41404761D01*
X122738095Y-41357142D01*
X122785714Y-41261904D01*
X122785714Y-41071428D01*
X122738095Y-40976190D01*
X122690476Y-40928571D01*
X122595238Y-40880952D01*
%TO.C,C5*%
X125433333Y-43157142D02*
X125385714Y-43204761D01*
X125242857Y-43252380D01*
X125147619Y-43252380D01*
X125004761Y-43204761D01*
X124909523Y-43109523D01*
X124861904Y-43014285D01*
X124814285Y-42823809D01*
X124814285Y-42680952D01*
X124861904Y-42490476D01*
X124909523Y-42395238D01*
X125004761Y-42300000D01*
X125147619Y-42252380D01*
X125242857Y-42252380D01*
X125385714Y-42300000D01*
X125433333Y-42347619D01*
X126338095Y-42252380D02*
X125861904Y-42252380D01*
X125814285Y-42728571D01*
X125861904Y-42680952D01*
X125957142Y-42633333D01*
X126195238Y-42633333D01*
X126290476Y-42680952D01*
X126338095Y-42728571D01*
X126385714Y-42823809D01*
X126385714Y-43061904D01*
X126338095Y-43157142D01*
X126290476Y-43204761D01*
X126195238Y-43252380D01*
X125957142Y-43252380D01*
X125861904Y-43204761D01*
X125814285Y-43157142D01*
%TO.C,C4*%
X105833333Y-41157142D02*
X105785714Y-41204761D01*
X105642857Y-41252380D01*
X105547619Y-41252380D01*
X105404761Y-41204761D01*
X105309523Y-41109523D01*
X105261904Y-41014285D01*
X105214285Y-40823809D01*
X105214285Y-40680952D01*
X105261904Y-40490476D01*
X105309523Y-40395238D01*
X105404761Y-40300000D01*
X105547619Y-40252380D01*
X105642857Y-40252380D01*
X105785714Y-40300000D01*
X105833333Y-40347619D01*
X106690476Y-40585714D02*
X106690476Y-41252380D01*
X106452380Y-40204761D02*
X106214285Y-40919047D01*
X106833333Y-40919047D01*
%TO.C,C3*%
X126033333Y-44757142D02*
X125985714Y-44804761D01*
X125842857Y-44852380D01*
X125747619Y-44852380D01*
X125604761Y-44804761D01*
X125509523Y-44709523D01*
X125461904Y-44614285D01*
X125414285Y-44423809D01*
X125414285Y-44280952D01*
X125461904Y-44090476D01*
X125509523Y-43995238D01*
X125604761Y-43900000D01*
X125747619Y-43852380D01*
X125842857Y-43852380D01*
X125985714Y-43900000D01*
X126033333Y-43947619D01*
X126366666Y-43852380D02*
X126985714Y-43852380D01*
X126652380Y-44233333D01*
X126795238Y-44233333D01*
X126890476Y-44280952D01*
X126938095Y-44328571D01*
X126985714Y-44423809D01*
X126985714Y-44661904D01*
X126938095Y-44757142D01*
X126890476Y-44804761D01*
X126795238Y-44852380D01*
X126509523Y-44852380D01*
X126414285Y-44804761D01*
X126366666Y-44757142D01*
%TO.C,C2*%
X109357142Y-45166666D02*
X109404761Y-45214285D01*
X109452380Y-45357142D01*
X109452380Y-45452380D01*
X109404761Y-45595238D01*
X109309523Y-45690476D01*
X109214285Y-45738095D01*
X109023809Y-45785714D01*
X108880952Y-45785714D01*
X108690476Y-45738095D01*
X108595238Y-45690476D01*
X108500000Y-45595238D01*
X108452380Y-45452380D01*
X108452380Y-45357142D01*
X108500000Y-45214285D01*
X108547619Y-45166666D01*
X108547619Y-44785714D02*
X108500000Y-44738095D01*
X108452380Y-44642857D01*
X108452380Y-44404761D01*
X108500000Y-44309523D01*
X108547619Y-44261904D01*
X108642857Y-44214285D01*
X108738095Y-44214285D01*
X108880952Y-44261904D01*
X109452380Y-44833333D01*
X109452380Y-44214285D01*
%TO.C,C1*%
X113157142Y-42966666D02*
X113204761Y-43014285D01*
X113252380Y-43157142D01*
X113252380Y-43252380D01*
X113204761Y-43395238D01*
X113109523Y-43490476D01*
X113014285Y-43538095D01*
X112823809Y-43585714D01*
X112680952Y-43585714D01*
X112490476Y-43538095D01*
X112395238Y-43490476D01*
X112300000Y-43395238D01*
X112252380Y-43252380D01*
X112252380Y-43157142D01*
X112300000Y-43014285D01*
X112347619Y-42966666D01*
X113252380Y-42014285D02*
X113252380Y-42585714D01*
X113252380Y-42300000D02*
X112252380Y-42300000D01*
X112395238Y-42395238D01*
X112490476Y-42490476D01*
X112538095Y-42585714D01*
%TO.C,TH1*%
X128314285Y-63272380D02*
X128885714Y-63272380D01*
X128600000Y-64272380D02*
X128600000Y-63272380D01*
X129219047Y-64272380D02*
X129219047Y-63272380D01*
X129219047Y-63748571D02*
X129790476Y-63748571D01*
X129790476Y-64272380D02*
X129790476Y-63272380D01*
X130790476Y-64272380D02*
X130219047Y-64272380D01*
X130504761Y-64272380D02*
X130504761Y-63272380D01*
X130409523Y-63415238D01*
X130314285Y-63510476D01*
X130219047Y-63558095D01*
%TO.C,RN1*%
X125952380Y-53190476D02*
X125476190Y-53523809D01*
X125952380Y-53761904D02*
X124952380Y-53761904D01*
X124952380Y-53380952D01*
X125000000Y-53285714D01*
X125047619Y-53238095D01*
X125142857Y-53190476D01*
X125285714Y-53190476D01*
X125380952Y-53238095D01*
X125428571Y-53285714D01*
X125476190Y-53380952D01*
X125476190Y-53761904D01*
X125952380Y-52761904D02*
X124952380Y-52761904D01*
X125952380Y-52190476D01*
X124952380Y-52190476D01*
X125952380Y-51190476D02*
X125952380Y-51761904D01*
X125952380Y-51476190D02*
X124952380Y-51476190D01*
X125095238Y-51571428D01*
X125190476Y-51666666D01*
X125238095Y-51761904D01*
%TO.C,R2*%
X123252380Y-58166666D02*
X122776190Y-58500000D01*
X123252380Y-58738095D02*
X122252380Y-58738095D01*
X122252380Y-58357142D01*
X122300000Y-58261904D01*
X122347619Y-58214285D01*
X122442857Y-58166666D01*
X122585714Y-58166666D01*
X122680952Y-58214285D01*
X122728571Y-58261904D01*
X122776190Y-58357142D01*
X122776190Y-58738095D01*
X122347619Y-57785714D02*
X122300000Y-57738095D01*
X122252380Y-57642857D01*
X122252380Y-57404761D01*
X122300000Y-57309523D01*
X122347619Y-57261904D01*
X122442857Y-57214285D01*
X122538095Y-57214285D01*
X122680952Y-57261904D01*
X123252380Y-57833333D01*
X123252380Y-57214285D01*
%TO.C,U1*%
X120028590Y-47523416D02*
X119456170Y-48095836D01*
X119422498Y-48196851D01*
X119422498Y-48264195D01*
X119456170Y-48365210D01*
X119590857Y-48499897D01*
X119691872Y-48533569D01*
X119759216Y-48533569D01*
X119860231Y-48499897D01*
X120432651Y-47927477D01*
X120432651Y-49341691D02*
X120028590Y-48937630D01*
X120230620Y-49139660D02*
X120937727Y-48432554D01*
X120769368Y-48466225D01*
X120634681Y-48466225D01*
X120533666Y-48432554D01*
%TO.C,R1*%
X125633333Y-47452380D02*
X125300000Y-46976190D01*
X125061904Y-47452380D02*
X125061904Y-46452380D01*
X125442857Y-46452380D01*
X125538095Y-46500000D01*
X125585714Y-46547619D01*
X125633333Y-46642857D01*
X125633333Y-46785714D01*
X125585714Y-46880952D01*
X125538095Y-46928571D01*
X125442857Y-46976190D01*
X125061904Y-46976190D01*
X126585714Y-47452380D02*
X126014285Y-47452380D01*
X126300000Y-47452380D02*
X126300000Y-46452380D01*
X126204761Y-46595238D01*
X126109523Y-46690476D01*
X126014285Y-46738095D01*
%TO.C,J10*%
X106440476Y-92142380D02*
X106440476Y-92856666D01*
X106392857Y-92999523D01*
X106297619Y-93094761D01*
X106154761Y-93142380D01*
X106059523Y-93142380D01*
X107440476Y-93142380D02*
X106869047Y-93142380D01*
X107154761Y-93142380D02*
X107154761Y-92142380D01*
X107059523Y-92285238D01*
X106964285Y-92380476D01*
X106869047Y-92428095D01*
X108059523Y-92142380D02*
X108154761Y-92142380D01*
X108250000Y-92190000D01*
X108297619Y-92237619D01*
X108345238Y-92332857D01*
X108392857Y-92523333D01*
X108392857Y-92761428D01*
X108345238Y-92951904D01*
X108297619Y-93047142D01*
X108250000Y-93094761D01*
X108154761Y-93142380D01*
X108059523Y-93142380D01*
X107964285Y-93094761D01*
X107916666Y-93047142D01*
X107869047Y-92951904D01*
X107821428Y-92761428D01*
X107821428Y-92523333D01*
X107869047Y-92332857D01*
X107916666Y-92237619D01*
X107964285Y-92190000D01*
X108059523Y-92142380D01*
%TO.C,J7*%
X121916666Y-92142380D02*
X121916666Y-92856666D01*
X121869047Y-92999523D01*
X121773809Y-93094761D01*
X121630952Y-93142380D01*
X121535714Y-93142380D01*
X122297619Y-92142380D02*
X122964285Y-92142380D01*
X122535714Y-93142380D01*
%TO.C,J8*%
X116916666Y-92142380D02*
X116916666Y-92856666D01*
X116869047Y-92999523D01*
X116773809Y-93094761D01*
X116630952Y-93142380D01*
X116535714Y-93142380D01*
X117535714Y-92570952D02*
X117440476Y-92523333D01*
X117392857Y-92475714D01*
X117345238Y-92380476D01*
X117345238Y-92332857D01*
X117392857Y-92237619D01*
X117440476Y-92190000D01*
X117535714Y-92142380D01*
X117726190Y-92142380D01*
X117821428Y-92190000D01*
X117869047Y-92237619D01*
X117916666Y-92332857D01*
X117916666Y-92380476D01*
X117869047Y-92475714D01*
X117821428Y-92523333D01*
X117726190Y-92570952D01*
X117535714Y-92570952D01*
X117440476Y-92618571D01*
X117392857Y-92666190D01*
X117345238Y-92761428D01*
X117345238Y-92951904D01*
X117392857Y-93047142D01*
X117440476Y-93094761D01*
X117535714Y-93142380D01*
X117726190Y-93142380D01*
X117821428Y-93094761D01*
X117869047Y-93047142D01*
X117916666Y-92951904D01*
X117916666Y-92761428D01*
X117869047Y-92666190D01*
X117821428Y-92618571D01*
X117726190Y-92570952D01*
%TO.C,J9*%
X111916666Y-92142380D02*
X111916666Y-92856666D01*
X111869047Y-92999523D01*
X111773809Y-93094761D01*
X111630952Y-93142380D01*
X111535714Y-93142380D01*
X112440476Y-93142380D02*
X112630952Y-93142380D01*
X112726190Y-93094761D01*
X112773809Y-93047142D01*
X112869047Y-92904285D01*
X112916666Y-92713809D01*
X112916666Y-92332857D01*
X112869047Y-92237619D01*
X112821428Y-92190000D01*
X112726190Y-92142380D01*
X112535714Y-92142380D01*
X112440476Y-92190000D01*
X112392857Y-92237619D01*
X112345238Y-92332857D01*
X112345238Y-92570952D01*
X112392857Y-92666190D01*
X112440476Y-92713809D01*
X112535714Y-92761428D01*
X112726190Y-92761428D01*
X112821428Y-92713809D01*
X112869047Y-92666190D01*
X112916666Y-92570952D01*
%TO.C,J1*%
X106916666Y-78952380D02*
X106916666Y-79666666D01*
X106869047Y-79809523D01*
X106773809Y-79904761D01*
X106630952Y-79952380D01*
X106535714Y-79952380D01*
X107916666Y-79952380D02*
X107345238Y-79952380D01*
X107630952Y-79952380D02*
X107630952Y-78952380D01*
X107535714Y-79095238D01*
X107440476Y-79190476D01*
X107345238Y-79238095D01*
%TO.C,J3*%
X116916666Y-78952380D02*
X116916666Y-79666666D01*
X116869047Y-79809523D01*
X116773809Y-79904761D01*
X116630952Y-79952380D01*
X116535714Y-79952380D01*
X117297619Y-78952380D02*
X117916666Y-78952380D01*
X117583333Y-79333333D01*
X117726190Y-79333333D01*
X117821428Y-79380952D01*
X117869047Y-79428571D01*
X117916666Y-79523809D01*
X117916666Y-79761904D01*
X117869047Y-79857142D01*
X117821428Y-79904761D01*
X117726190Y-79952380D01*
X117440476Y-79952380D01*
X117345238Y-79904761D01*
X117297619Y-79857142D01*
%TO.C,J4*%
X121916666Y-78952380D02*
X121916666Y-79666666D01*
X121869047Y-79809523D01*
X121773809Y-79904761D01*
X121630952Y-79952380D01*
X121535714Y-79952380D01*
X122821428Y-79285714D02*
X122821428Y-79952380D01*
X122583333Y-78904761D02*
X122345238Y-79619047D01*
X122964285Y-79619047D01*
%TO.C,J5*%
X126916666Y-78952380D02*
X126916666Y-79666666D01*
X126869047Y-79809523D01*
X126773809Y-79904761D01*
X126630952Y-79952380D01*
X126535714Y-79952380D01*
X127869047Y-78952380D02*
X127392857Y-78952380D01*
X127345238Y-79428571D01*
X127392857Y-79380952D01*
X127488095Y-79333333D01*
X127726190Y-79333333D01*
X127821428Y-79380952D01*
X127869047Y-79428571D01*
X127916666Y-79523809D01*
X127916666Y-79761904D01*
X127869047Y-79857142D01*
X127821428Y-79904761D01*
X127726190Y-79952380D01*
X127488095Y-79952380D01*
X127392857Y-79904761D01*
X127345238Y-79857142D01*
%TO.C,J2*%
X111916666Y-78952380D02*
X111916666Y-79666666D01*
X111869047Y-79809523D01*
X111773809Y-79904761D01*
X111630952Y-79952380D01*
X111535714Y-79952380D01*
X112345238Y-79047619D02*
X112392857Y-79000000D01*
X112488095Y-78952380D01*
X112726190Y-78952380D01*
X112821428Y-79000000D01*
X112869047Y-79047619D01*
X112916666Y-79142857D01*
X112916666Y-79238095D01*
X112869047Y-79380952D01*
X112297619Y-79952380D01*
X112916666Y-79952380D01*
%TO.C,J6*%
X126916666Y-92142380D02*
X126916666Y-92856666D01*
X126869047Y-92999523D01*
X126773809Y-93094761D01*
X126630952Y-93142380D01*
X126535714Y-93142380D01*
X127821428Y-92142380D02*
X127630952Y-92142380D01*
X127535714Y-92190000D01*
X127488095Y-92237619D01*
X127392857Y-92380476D01*
X127345238Y-92570952D01*
X127345238Y-92951904D01*
X127392857Y-93047142D01*
X127440476Y-93094761D01*
X127535714Y-93142380D01*
X127726190Y-93142380D01*
X127821428Y-93094761D01*
X127869047Y-93047142D01*
X127916666Y-92951904D01*
X127916666Y-92713809D01*
X127869047Y-92618571D01*
X127821428Y-92570952D01*
X127726190Y-92523333D01*
X127535714Y-92523333D01*
X127440476Y-92570952D01*
X127392857Y-92618571D01*
X127345238Y-92713809D01*
%TD*%
M02*
