%TF.GenerationSoftware,KiCad,Pcbnew,(5.1.6)-1*%
%TF.CreationDate,2021-07-30T20:13:56+02:00*%
%TF.ProjectId,mu-ltz,6d752d6c-747a-42e6-9b69-6361645f7063,rev?*%
%TF.SameCoordinates,Original*%
%TF.FileFunction,Legend,Bot*%
%TF.FilePolarity,Positive*%
%FSLAX46Y46*%
G04 Gerber Fmt 4.6, Leading zero omitted, Abs format (unit mm)*
G04 Created by KiCad (PCBNEW (5.1.6)-1) date 2021-07-30 20:13:56*
%MOMM*%
%LPD*%
G01*
G04 APERTURE LIST*
%ADD10C,0.300000*%
%ADD11C,0.150000*%
G04 APERTURE END LIST*
D10*
X110571428Y-81607142D02*
X111714285Y-81607142D01*
X112428571Y-81607142D02*
X113571428Y-81607142D01*
X114285714Y-81607142D02*
X115428571Y-81607142D01*
%TO.C,J10*%
D11*
X109071428Y-93202380D02*
X108500000Y-93202380D01*
X108785714Y-94202380D02*
X108785714Y-93202380D01*
X107595238Y-94202380D02*
X107928571Y-93726190D01*
X108166666Y-94202380D02*
X108166666Y-93202380D01*
X107785714Y-93202380D01*
X107690476Y-93250000D01*
X107642857Y-93297619D01*
X107595238Y-93392857D01*
X107595238Y-93535714D01*
X107642857Y-93630952D01*
X107690476Y-93678571D01*
X107785714Y-93726190D01*
X108166666Y-93726190D01*
X107166666Y-94202380D02*
X107166666Y-93202380D01*
X106690476Y-94202380D02*
X106690476Y-93202380D01*
X106357142Y-93916666D01*
X106023809Y-93202380D01*
X106023809Y-94202380D01*
X105595238Y-93297619D02*
X105547619Y-93250000D01*
X105452380Y-93202380D01*
X105214285Y-93202380D01*
X105119047Y-93250000D01*
X105071428Y-93297619D01*
X105023809Y-93392857D01*
X105023809Y-93488095D01*
X105071428Y-93630952D01*
X105642857Y-94202380D01*
X105023809Y-94202380D01*
%TO.C,J9*%
X114571428Y-93202380D02*
X114000000Y-93202380D01*
X114285714Y-94202380D02*
X114285714Y-93202380D01*
X113095238Y-94202380D02*
X113428571Y-93726190D01*
X113666666Y-94202380D02*
X113666666Y-93202380D01*
X113285714Y-93202380D01*
X113190476Y-93250000D01*
X113142857Y-93297619D01*
X113095238Y-93392857D01*
X113095238Y-93535714D01*
X113142857Y-93630952D01*
X113190476Y-93678571D01*
X113285714Y-93726190D01*
X113666666Y-93726190D01*
X112666666Y-94202380D02*
X112666666Y-93202380D01*
X112190476Y-94202380D02*
X112190476Y-93202380D01*
X111857142Y-93916666D01*
X111523809Y-93202380D01*
X111523809Y-94202380D01*
X110523809Y-94202380D02*
X111095238Y-94202380D01*
X110809523Y-94202380D02*
X110809523Y-93202380D01*
X110904761Y-93345238D01*
X111000000Y-93440476D01*
X111095238Y-93488095D01*
%TO.C,J4*%
X122773809Y-79952380D02*
X122773809Y-78952380D01*
X122773809Y-79428571D02*
X122202380Y-79428571D01*
X122202380Y-79952380D02*
X122202380Y-78952380D01*
X121726190Y-79952380D02*
X121726190Y-79285714D01*
X121726190Y-78952380D02*
X121773809Y-79000000D01*
X121726190Y-79047619D01*
X121678571Y-79000000D01*
X121726190Y-78952380D01*
X121726190Y-79047619D01*
%TO.C,J2*%
X112392857Y-79952380D02*
X112869047Y-79952380D01*
X112869047Y-78952380D01*
X111916666Y-79952380D02*
X112011904Y-79904761D01*
X112059523Y-79857142D01*
X112107142Y-79761904D01*
X112107142Y-79476190D01*
X112059523Y-79380952D01*
X112011904Y-79333333D01*
X111916666Y-79285714D01*
X111773809Y-79285714D01*
X111678571Y-79333333D01*
X111630952Y-79380952D01*
X111583333Y-79476190D01*
X111583333Y-79761904D01*
X111630952Y-79857142D01*
X111678571Y-79904761D01*
X111773809Y-79952380D01*
X111916666Y-79952380D01*
%TO.C,J1*%
X108011904Y-79000000D02*
X108107142Y-78952380D01*
X108250000Y-78952380D01*
X108392857Y-79000000D01*
X108488095Y-79095238D01*
X108535714Y-79190476D01*
X108583333Y-79380952D01*
X108583333Y-79523809D01*
X108535714Y-79714285D01*
X108488095Y-79809523D01*
X108392857Y-79904761D01*
X108250000Y-79952380D01*
X108154761Y-79952380D01*
X108011904Y-79904761D01*
X107964285Y-79857142D01*
X107964285Y-79523809D01*
X108154761Y-79523809D01*
X107535714Y-79952380D02*
X107535714Y-78952380D01*
X106964285Y-79952380D01*
X106964285Y-78952380D01*
X106488095Y-79952380D02*
X106488095Y-78952380D01*
X106250000Y-78952380D01*
X106107142Y-79000000D01*
X106011904Y-79095238D01*
X105964285Y-79190476D01*
X105916666Y-79380952D01*
X105916666Y-79523809D01*
X105964285Y-79714285D01*
X106011904Y-79809523D01*
X106107142Y-79904761D01*
X106250000Y-79952380D01*
X106488095Y-79952380D01*
%TO.C,J6*%
X128892857Y-93202380D02*
X128559523Y-94202380D01*
X128226190Y-93202380D01*
X127892857Y-94202380D02*
X127892857Y-93535714D01*
X127892857Y-93202380D02*
X127940476Y-93250000D01*
X127892857Y-93297619D01*
X127845238Y-93250000D01*
X127892857Y-93202380D01*
X127892857Y-93297619D01*
X127416666Y-93535714D02*
X127416666Y-94202380D01*
X127416666Y-93630952D02*
X127369047Y-93583333D01*
X127273809Y-93535714D01*
X127130952Y-93535714D01*
X127035714Y-93583333D01*
X126988095Y-93678571D01*
X126988095Y-94202380D01*
X126511904Y-93821428D02*
X125750000Y-93821428D01*
X126130952Y-94202380D02*
X126130952Y-93440476D01*
%TD*%
M02*
