%TF.GenerationSoftware,KiCad,Pcbnew,(5.1.6)-1*%
%TF.CreationDate,2021-03-23T10:57:52+01:00*%
%TF.ProjectId,mu-ltz,6d752d6c-747a-42e6-9b69-6361645f7063,rev?*%
%TF.SameCoordinates,Original*%
%TF.FileFunction,Paste,Top*%
%TF.FilePolarity,Positive*%
%FSLAX46Y46*%
G04 Gerber Fmt 4.6, Leading zero omitted, Abs format (unit mm)*
G04 Created by KiCad (PCBNEW (5.1.6)-1) date 2021-03-23 10:57:52*
%MOMM*%
%LPD*%
G01*
G04 APERTURE LIST*
%ADD10R,0.450000X0.600000*%
%ADD11R,0.900000X0.800000*%
G04 APERTURE END LIST*
D10*
%TO.C,D1*%
X109600000Y-52950000D03*
X109600000Y-55050000D03*
%TD*%
%TO.C,U4*%
G36*
G01*
X131900000Y-51125000D02*
X131900000Y-50925000D01*
G75*
G02*
X132000000Y-50825000I100000J0D01*
G01*
X133425000Y-50825000D01*
G75*
G02*
X133525000Y-50925000I0J-100000D01*
G01*
X133525000Y-51125000D01*
G75*
G02*
X133425000Y-51225000I-100000J0D01*
G01*
X132000000Y-51225000D01*
G75*
G02*
X131900000Y-51125000I0J100000D01*
G01*
G37*
G36*
G01*
X131900000Y-51775000D02*
X131900000Y-51575000D01*
G75*
G02*
X132000000Y-51475000I100000J0D01*
G01*
X133425000Y-51475000D01*
G75*
G02*
X133525000Y-51575000I0J-100000D01*
G01*
X133525000Y-51775000D01*
G75*
G02*
X133425000Y-51875000I-100000J0D01*
G01*
X132000000Y-51875000D01*
G75*
G02*
X131900000Y-51775000I0J100000D01*
G01*
G37*
G36*
G01*
X131900000Y-52425000D02*
X131900000Y-52225000D01*
G75*
G02*
X132000000Y-52125000I100000J0D01*
G01*
X133425000Y-52125000D01*
G75*
G02*
X133525000Y-52225000I0J-100000D01*
G01*
X133525000Y-52425000D01*
G75*
G02*
X133425000Y-52525000I-100000J0D01*
G01*
X132000000Y-52525000D01*
G75*
G02*
X131900000Y-52425000I0J100000D01*
G01*
G37*
G36*
G01*
X131900000Y-53075000D02*
X131900000Y-52875000D01*
G75*
G02*
X132000000Y-52775000I100000J0D01*
G01*
X133425000Y-52775000D01*
G75*
G02*
X133525000Y-52875000I0J-100000D01*
G01*
X133525000Y-53075000D01*
G75*
G02*
X133425000Y-53175000I-100000J0D01*
G01*
X132000000Y-53175000D01*
G75*
G02*
X131900000Y-53075000I0J100000D01*
G01*
G37*
G36*
G01*
X127675000Y-53075000D02*
X127675000Y-52875000D01*
G75*
G02*
X127775000Y-52775000I100000J0D01*
G01*
X129200000Y-52775000D01*
G75*
G02*
X129300000Y-52875000I0J-100000D01*
G01*
X129300000Y-53075000D01*
G75*
G02*
X129200000Y-53175000I-100000J0D01*
G01*
X127775000Y-53175000D01*
G75*
G02*
X127675000Y-53075000I0J100000D01*
G01*
G37*
G36*
G01*
X127675000Y-52425000D02*
X127675000Y-52225000D01*
G75*
G02*
X127775000Y-52125000I100000J0D01*
G01*
X129200000Y-52125000D01*
G75*
G02*
X129300000Y-52225000I0J-100000D01*
G01*
X129300000Y-52425000D01*
G75*
G02*
X129200000Y-52525000I-100000J0D01*
G01*
X127775000Y-52525000D01*
G75*
G02*
X127675000Y-52425000I0J100000D01*
G01*
G37*
G36*
G01*
X127675000Y-51775000D02*
X127675000Y-51575000D01*
G75*
G02*
X127775000Y-51475000I100000J0D01*
G01*
X129200000Y-51475000D01*
G75*
G02*
X129300000Y-51575000I0J-100000D01*
G01*
X129300000Y-51775000D01*
G75*
G02*
X129200000Y-51875000I-100000J0D01*
G01*
X127775000Y-51875000D01*
G75*
G02*
X127675000Y-51775000I0J100000D01*
G01*
G37*
G36*
G01*
X127675000Y-51125000D02*
X127675000Y-50925000D01*
G75*
G02*
X127775000Y-50825000I100000J0D01*
G01*
X129200000Y-50825000D01*
G75*
G02*
X129300000Y-50925000I0J-100000D01*
G01*
X129300000Y-51125000D01*
G75*
G02*
X129200000Y-51225000I-100000J0D01*
G01*
X127775000Y-51225000D01*
G75*
G02*
X127675000Y-51125000I0J100000D01*
G01*
G37*
%TD*%
%TO.C,U3*%
G36*
G01*
X106300000Y-49125000D02*
X106300000Y-48925000D01*
G75*
G02*
X106400000Y-48825000I100000J0D01*
G01*
X107825000Y-48825000D01*
G75*
G02*
X107925000Y-48925000I0J-100000D01*
G01*
X107925000Y-49125000D01*
G75*
G02*
X107825000Y-49225000I-100000J0D01*
G01*
X106400000Y-49225000D01*
G75*
G02*
X106300000Y-49125000I0J100000D01*
G01*
G37*
G36*
G01*
X106300000Y-49775000D02*
X106300000Y-49575000D01*
G75*
G02*
X106400000Y-49475000I100000J0D01*
G01*
X107825000Y-49475000D01*
G75*
G02*
X107925000Y-49575000I0J-100000D01*
G01*
X107925000Y-49775000D01*
G75*
G02*
X107825000Y-49875000I-100000J0D01*
G01*
X106400000Y-49875000D01*
G75*
G02*
X106300000Y-49775000I0J100000D01*
G01*
G37*
G36*
G01*
X106300000Y-50425000D02*
X106300000Y-50225000D01*
G75*
G02*
X106400000Y-50125000I100000J0D01*
G01*
X107825000Y-50125000D01*
G75*
G02*
X107925000Y-50225000I0J-100000D01*
G01*
X107925000Y-50425000D01*
G75*
G02*
X107825000Y-50525000I-100000J0D01*
G01*
X106400000Y-50525000D01*
G75*
G02*
X106300000Y-50425000I0J100000D01*
G01*
G37*
G36*
G01*
X106300000Y-51075000D02*
X106300000Y-50875000D01*
G75*
G02*
X106400000Y-50775000I100000J0D01*
G01*
X107825000Y-50775000D01*
G75*
G02*
X107925000Y-50875000I0J-100000D01*
G01*
X107925000Y-51075000D01*
G75*
G02*
X107825000Y-51175000I-100000J0D01*
G01*
X106400000Y-51175000D01*
G75*
G02*
X106300000Y-51075000I0J100000D01*
G01*
G37*
G36*
G01*
X102075000Y-51075000D02*
X102075000Y-50875000D01*
G75*
G02*
X102175000Y-50775000I100000J0D01*
G01*
X103600000Y-50775000D01*
G75*
G02*
X103700000Y-50875000I0J-100000D01*
G01*
X103700000Y-51075000D01*
G75*
G02*
X103600000Y-51175000I-100000J0D01*
G01*
X102175000Y-51175000D01*
G75*
G02*
X102075000Y-51075000I0J100000D01*
G01*
G37*
G36*
G01*
X102075000Y-50425000D02*
X102075000Y-50225000D01*
G75*
G02*
X102175000Y-50125000I100000J0D01*
G01*
X103600000Y-50125000D01*
G75*
G02*
X103700000Y-50225000I0J-100000D01*
G01*
X103700000Y-50425000D01*
G75*
G02*
X103600000Y-50525000I-100000J0D01*
G01*
X102175000Y-50525000D01*
G75*
G02*
X102075000Y-50425000I0J100000D01*
G01*
G37*
G36*
G01*
X102075000Y-49775000D02*
X102075000Y-49575000D01*
G75*
G02*
X102175000Y-49475000I100000J0D01*
G01*
X103600000Y-49475000D01*
G75*
G02*
X103700000Y-49575000I0J-100000D01*
G01*
X103700000Y-49775000D01*
G75*
G02*
X103600000Y-49875000I-100000J0D01*
G01*
X102175000Y-49875000D01*
G75*
G02*
X102075000Y-49775000I0J100000D01*
G01*
G37*
G36*
G01*
X102075000Y-49125000D02*
X102075000Y-48925000D01*
G75*
G02*
X102175000Y-48825000I100000J0D01*
G01*
X103600000Y-48825000D01*
G75*
G02*
X103700000Y-48925000I0J-100000D01*
G01*
X103700000Y-49125000D01*
G75*
G02*
X103600000Y-49225000I-100000J0D01*
G01*
X102175000Y-49225000D01*
G75*
G02*
X102075000Y-49125000I0J100000D01*
G01*
G37*
%TD*%
%TO.C,U2*%
G36*
G01*
X118300000Y-43125000D02*
X118300000Y-42925000D01*
G75*
G02*
X118400000Y-42825000I100000J0D01*
G01*
X119825000Y-42825000D01*
G75*
G02*
X119925000Y-42925000I0J-100000D01*
G01*
X119925000Y-43125000D01*
G75*
G02*
X119825000Y-43225000I-100000J0D01*
G01*
X118400000Y-43225000D01*
G75*
G02*
X118300000Y-43125000I0J100000D01*
G01*
G37*
G36*
G01*
X118300000Y-43775000D02*
X118300000Y-43575000D01*
G75*
G02*
X118400000Y-43475000I100000J0D01*
G01*
X119825000Y-43475000D01*
G75*
G02*
X119925000Y-43575000I0J-100000D01*
G01*
X119925000Y-43775000D01*
G75*
G02*
X119825000Y-43875000I-100000J0D01*
G01*
X118400000Y-43875000D01*
G75*
G02*
X118300000Y-43775000I0J100000D01*
G01*
G37*
G36*
G01*
X118300000Y-44425000D02*
X118300000Y-44225000D01*
G75*
G02*
X118400000Y-44125000I100000J0D01*
G01*
X119825000Y-44125000D01*
G75*
G02*
X119925000Y-44225000I0J-100000D01*
G01*
X119925000Y-44425000D01*
G75*
G02*
X119825000Y-44525000I-100000J0D01*
G01*
X118400000Y-44525000D01*
G75*
G02*
X118300000Y-44425000I0J100000D01*
G01*
G37*
G36*
G01*
X118300000Y-45075000D02*
X118300000Y-44875000D01*
G75*
G02*
X118400000Y-44775000I100000J0D01*
G01*
X119825000Y-44775000D01*
G75*
G02*
X119925000Y-44875000I0J-100000D01*
G01*
X119925000Y-45075000D01*
G75*
G02*
X119825000Y-45175000I-100000J0D01*
G01*
X118400000Y-45175000D01*
G75*
G02*
X118300000Y-45075000I0J100000D01*
G01*
G37*
G36*
G01*
X114075000Y-45075000D02*
X114075000Y-44875000D01*
G75*
G02*
X114175000Y-44775000I100000J0D01*
G01*
X115600000Y-44775000D01*
G75*
G02*
X115700000Y-44875000I0J-100000D01*
G01*
X115700000Y-45075000D01*
G75*
G02*
X115600000Y-45175000I-100000J0D01*
G01*
X114175000Y-45175000D01*
G75*
G02*
X114075000Y-45075000I0J100000D01*
G01*
G37*
G36*
G01*
X114075000Y-44425000D02*
X114075000Y-44225000D01*
G75*
G02*
X114175000Y-44125000I100000J0D01*
G01*
X115600000Y-44125000D01*
G75*
G02*
X115700000Y-44225000I0J-100000D01*
G01*
X115700000Y-44425000D01*
G75*
G02*
X115600000Y-44525000I-100000J0D01*
G01*
X114175000Y-44525000D01*
G75*
G02*
X114075000Y-44425000I0J100000D01*
G01*
G37*
G36*
G01*
X114075000Y-43775000D02*
X114075000Y-43575000D01*
G75*
G02*
X114175000Y-43475000I100000J0D01*
G01*
X115600000Y-43475000D01*
G75*
G02*
X115700000Y-43575000I0J-100000D01*
G01*
X115700000Y-43775000D01*
G75*
G02*
X115600000Y-43875000I-100000J0D01*
G01*
X114175000Y-43875000D01*
G75*
G02*
X114075000Y-43775000I0J100000D01*
G01*
G37*
G36*
G01*
X114075000Y-43125000D02*
X114075000Y-42925000D01*
G75*
G02*
X114175000Y-42825000I100000J0D01*
G01*
X115600000Y-42825000D01*
G75*
G02*
X115700000Y-42925000I0J-100000D01*
G01*
X115700000Y-43125000D01*
G75*
G02*
X115600000Y-43225000I-100000J0D01*
G01*
X114175000Y-43225000D01*
G75*
G02*
X114075000Y-43125000I0J100000D01*
G01*
G37*
%TD*%
%TO.C,R22*%
G36*
G01*
X111775000Y-60125000D02*
X111775000Y-58875000D01*
G75*
G02*
X112025000Y-58625000I250000J0D01*
G01*
X112775000Y-58625000D01*
G75*
G02*
X113025000Y-58875000I0J-250000D01*
G01*
X113025000Y-60125000D01*
G75*
G02*
X112775000Y-60375000I-250000J0D01*
G01*
X112025000Y-60375000D01*
G75*
G02*
X111775000Y-60125000I0J250000D01*
G01*
G37*
G36*
G01*
X108975000Y-60125000D02*
X108975000Y-58875000D01*
G75*
G02*
X109225000Y-58625000I250000J0D01*
G01*
X109975000Y-58625000D01*
G75*
G02*
X110225000Y-58875000I0J-250000D01*
G01*
X110225000Y-60125000D01*
G75*
G02*
X109975000Y-60375000I-250000J0D01*
G01*
X109225000Y-60375000D01*
G75*
G02*
X108975000Y-60125000I0J250000D01*
G01*
G37*
%TD*%
%TO.C,R21*%
G36*
G01*
X115225000Y-61875000D02*
X115225000Y-63125000D01*
G75*
G02*
X114975000Y-63375000I-250000J0D01*
G01*
X114225000Y-63375000D01*
G75*
G02*
X113975000Y-63125000I0J250000D01*
G01*
X113975000Y-61875000D01*
G75*
G02*
X114225000Y-61625000I250000J0D01*
G01*
X114975000Y-61625000D01*
G75*
G02*
X115225000Y-61875000I0J-250000D01*
G01*
G37*
G36*
G01*
X118025000Y-61875000D02*
X118025000Y-63125000D01*
G75*
G02*
X117775000Y-63375000I-250000J0D01*
G01*
X117025000Y-63375000D01*
G75*
G02*
X116775000Y-63125000I0J250000D01*
G01*
X116775000Y-61875000D01*
G75*
G02*
X117025000Y-61625000I250000J0D01*
G01*
X117775000Y-61625000D01*
G75*
G02*
X118025000Y-61875000I0J-250000D01*
G01*
G37*
%TD*%
%TO.C,R20*%
G36*
G01*
X106775000Y-62525000D02*
X106775000Y-61275000D01*
G75*
G02*
X107025000Y-61025000I250000J0D01*
G01*
X107775000Y-61025000D01*
G75*
G02*
X108025000Y-61275000I0J-250000D01*
G01*
X108025000Y-62525000D01*
G75*
G02*
X107775000Y-62775000I-250000J0D01*
G01*
X107025000Y-62775000D01*
G75*
G02*
X106775000Y-62525000I0J250000D01*
G01*
G37*
G36*
G01*
X103975000Y-62525000D02*
X103975000Y-61275000D01*
G75*
G02*
X104225000Y-61025000I250000J0D01*
G01*
X104975000Y-61025000D01*
G75*
G02*
X105225000Y-61275000I0J-250000D01*
G01*
X105225000Y-62525000D01*
G75*
G02*
X104975000Y-62775000I-250000J0D01*
G01*
X104225000Y-62775000D01*
G75*
G02*
X103975000Y-62525000I0J250000D01*
G01*
G37*
%TD*%
%TO.C,R19*%
G36*
G01*
X132756250Y-57650000D02*
X132243750Y-57650000D01*
G75*
G02*
X132025000Y-57431250I0J218750D01*
G01*
X132025000Y-56993750D01*
G75*
G02*
X132243750Y-56775000I218750J0D01*
G01*
X132756250Y-56775000D01*
G75*
G02*
X132975000Y-56993750I0J-218750D01*
G01*
X132975000Y-57431250D01*
G75*
G02*
X132756250Y-57650000I-218750J0D01*
G01*
G37*
G36*
G01*
X132756250Y-59225000D02*
X132243750Y-59225000D01*
G75*
G02*
X132025000Y-59006250I0J218750D01*
G01*
X132025000Y-58568750D01*
G75*
G02*
X132243750Y-58350000I218750J0D01*
G01*
X132756250Y-58350000D01*
G75*
G02*
X132975000Y-58568750I0J-218750D01*
G01*
X132975000Y-59006250D01*
G75*
G02*
X132756250Y-59225000I-218750J0D01*
G01*
G37*
%TD*%
%TO.C,R18*%
G36*
G01*
X106775000Y-60125000D02*
X106775000Y-58875000D01*
G75*
G02*
X107025000Y-58625000I250000J0D01*
G01*
X107775000Y-58625000D01*
G75*
G02*
X108025000Y-58875000I0J-250000D01*
G01*
X108025000Y-60125000D01*
G75*
G02*
X107775000Y-60375000I-250000J0D01*
G01*
X107025000Y-60375000D01*
G75*
G02*
X106775000Y-60125000I0J250000D01*
G01*
G37*
G36*
G01*
X103975000Y-60125000D02*
X103975000Y-58875000D01*
G75*
G02*
X104225000Y-58625000I250000J0D01*
G01*
X104975000Y-58625000D01*
G75*
G02*
X105225000Y-58875000I0J-250000D01*
G01*
X105225000Y-60125000D01*
G75*
G02*
X104975000Y-60375000I-250000J0D01*
G01*
X104225000Y-60375000D01*
G75*
G02*
X103975000Y-60125000I0J250000D01*
G01*
G37*
%TD*%
%TO.C,R17*%
G36*
G01*
X130756250Y-57650000D02*
X130243750Y-57650000D01*
G75*
G02*
X130025000Y-57431250I0J218750D01*
G01*
X130025000Y-56993750D01*
G75*
G02*
X130243750Y-56775000I218750J0D01*
G01*
X130756250Y-56775000D01*
G75*
G02*
X130975000Y-56993750I0J-218750D01*
G01*
X130975000Y-57431250D01*
G75*
G02*
X130756250Y-57650000I-218750J0D01*
G01*
G37*
G36*
G01*
X130756250Y-59225000D02*
X130243750Y-59225000D01*
G75*
G02*
X130025000Y-59006250I0J218750D01*
G01*
X130025000Y-58568750D01*
G75*
G02*
X130243750Y-58350000I218750J0D01*
G01*
X130756250Y-58350000D01*
G75*
G02*
X130975000Y-58568750I0J-218750D01*
G01*
X130975000Y-59006250D01*
G75*
G02*
X130756250Y-59225000I-218750J0D01*
G01*
G37*
%TD*%
%TO.C,R16*%
G36*
G01*
X126756250Y-57650000D02*
X126243750Y-57650000D01*
G75*
G02*
X126025000Y-57431250I0J218750D01*
G01*
X126025000Y-56993750D01*
G75*
G02*
X126243750Y-56775000I218750J0D01*
G01*
X126756250Y-56775000D01*
G75*
G02*
X126975000Y-56993750I0J-218750D01*
G01*
X126975000Y-57431250D01*
G75*
G02*
X126756250Y-57650000I-218750J0D01*
G01*
G37*
G36*
G01*
X126756250Y-59225000D02*
X126243750Y-59225000D01*
G75*
G02*
X126025000Y-59006250I0J218750D01*
G01*
X126025000Y-58568750D01*
G75*
G02*
X126243750Y-58350000I218750J0D01*
G01*
X126756250Y-58350000D01*
G75*
G02*
X126975000Y-58568750I0J-218750D01*
G01*
X126975000Y-59006250D01*
G75*
G02*
X126756250Y-59225000I-218750J0D01*
G01*
G37*
%TD*%
%TO.C,R15*%
G36*
G01*
X120825000Y-61875000D02*
X120825000Y-63125000D01*
G75*
G02*
X120575000Y-63375000I-250000J0D01*
G01*
X119825000Y-63375000D01*
G75*
G02*
X119575000Y-63125000I0J250000D01*
G01*
X119575000Y-61875000D01*
G75*
G02*
X119825000Y-61625000I250000J0D01*
G01*
X120575000Y-61625000D01*
G75*
G02*
X120825000Y-61875000I0J-250000D01*
G01*
G37*
G36*
G01*
X123625000Y-61875000D02*
X123625000Y-63125000D01*
G75*
G02*
X123375000Y-63375000I-250000J0D01*
G01*
X122625000Y-63375000D01*
G75*
G02*
X122375000Y-63125000I0J250000D01*
G01*
X122375000Y-61875000D01*
G75*
G02*
X122625000Y-61625000I250000J0D01*
G01*
X123375000Y-61625000D01*
G75*
G02*
X123625000Y-61875000I0J-250000D01*
G01*
G37*
%TD*%
%TO.C,R14*%
G36*
G01*
X111775000Y-62525000D02*
X111775000Y-61275000D01*
G75*
G02*
X112025000Y-61025000I250000J0D01*
G01*
X112775000Y-61025000D01*
G75*
G02*
X113025000Y-61275000I0J-250000D01*
G01*
X113025000Y-62525000D01*
G75*
G02*
X112775000Y-62775000I-250000J0D01*
G01*
X112025000Y-62775000D01*
G75*
G02*
X111775000Y-62525000I0J250000D01*
G01*
G37*
G36*
G01*
X108975000Y-62525000D02*
X108975000Y-61275000D01*
G75*
G02*
X109225000Y-61025000I250000J0D01*
G01*
X109975000Y-61025000D01*
G75*
G02*
X110225000Y-61275000I0J-250000D01*
G01*
X110225000Y-62525000D01*
G75*
G02*
X109975000Y-62775000I-250000J0D01*
G01*
X109225000Y-62775000D01*
G75*
G02*
X108975000Y-62525000I0J250000D01*
G01*
G37*
%TD*%
%TO.C,R13*%
G36*
G01*
X102756250Y-55650000D02*
X102243750Y-55650000D01*
G75*
G02*
X102025000Y-55431250I0J218750D01*
G01*
X102025000Y-54993750D01*
G75*
G02*
X102243750Y-54775000I218750J0D01*
G01*
X102756250Y-54775000D01*
G75*
G02*
X102975000Y-54993750I0J-218750D01*
G01*
X102975000Y-55431250D01*
G75*
G02*
X102756250Y-55650000I-218750J0D01*
G01*
G37*
G36*
G01*
X102756250Y-57225000D02*
X102243750Y-57225000D01*
G75*
G02*
X102025000Y-57006250I0J218750D01*
G01*
X102025000Y-56568750D01*
G75*
G02*
X102243750Y-56350000I218750J0D01*
G01*
X102756250Y-56350000D01*
G75*
G02*
X102975000Y-56568750I0J-218750D01*
G01*
X102975000Y-57006250D01*
G75*
G02*
X102756250Y-57225000I-218750J0D01*
G01*
G37*
%TD*%
%TO.C,R12*%
G36*
G01*
X104756250Y-55650000D02*
X104243750Y-55650000D01*
G75*
G02*
X104025000Y-55431250I0J218750D01*
G01*
X104025000Y-54993750D01*
G75*
G02*
X104243750Y-54775000I218750J0D01*
G01*
X104756250Y-54775000D01*
G75*
G02*
X104975000Y-54993750I0J-218750D01*
G01*
X104975000Y-55431250D01*
G75*
G02*
X104756250Y-55650000I-218750J0D01*
G01*
G37*
G36*
G01*
X104756250Y-57225000D02*
X104243750Y-57225000D01*
G75*
G02*
X104025000Y-57006250I0J218750D01*
G01*
X104025000Y-56568750D01*
G75*
G02*
X104243750Y-56350000I218750J0D01*
G01*
X104756250Y-56350000D01*
G75*
G02*
X104975000Y-56568750I0J-218750D01*
G01*
X104975000Y-57006250D01*
G75*
G02*
X104756250Y-57225000I-218750J0D01*
G01*
G37*
%TD*%
%TO.C,R7*%
G36*
G01*
X109650000Y-48743750D02*
X109650000Y-49256250D01*
G75*
G02*
X109431250Y-49475000I-218750J0D01*
G01*
X108993750Y-49475000D01*
G75*
G02*
X108775000Y-49256250I0J218750D01*
G01*
X108775000Y-48743750D01*
G75*
G02*
X108993750Y-48525000I218750J0D01*
G01*
X109431250Y-48525000D01*
G75*
G02*
X109650000Y-48743750I0J-218750D01*
G01*
G37*
G36*
G01*
X111225000Y-48743750D02*
X111225000Y-49256250D01*
G75*
G02*
X111006250Y-49475000I-218750J0D01*
G01*
X110568750Y-49475000D01*
G75*
G02*
X110350000Y-49256250I0J218750D01*
G01*
X110350000Y-48743750D01*
G75*
G02*
X110568750Y-48525000I218750J0D01*
G01*
X111006250Y-48525000D01*
G75*
G02*
X111225000Y-48743750I0J-218750D01*
G01*
G37*
%TD*%
%TO.C,R6*%
G36*
G01*
X110062500Y-51256250D02*
X110062500Y-50743750D01*
G75*
G02*
X110281250Y-50525000I218750J0D01*
G01*
X110718750Y-50525000D01*
G75*
G02*
X110937500Y-50743750I0J-218750D01*
G01*
X110937500Y-51256250D01*
G75*
G02*
X110718750Y-51475000I-218750J0D01*
G01*
X110281250Y-51475000D01*
G75*
G02*
X110062500Y-51256250I0J218750D01*
G01*
G37*
G36*
G01*
X108487500Y-51256250D02*
X108487500Y-50743750D01*
G75*
G02*
X108706250Y-50525000I218750J0D01*
G01*
X109143750Y-50525000D01*
G75*
G02*
X109362500Y-50743750I0J-218750D01*
G01*
X109362500Y-51256250D01*
G75*
G02*
X109143750Y-51475000I-218750J0D01*
G01*
X108706250Y-51475000D01*
G75*
G02*
X108487500Y-51256250I0J218750D01*
G01*
G37*
%TD*%
%TO.C,R5*%
G36*
G01*
X106256250Y-45650000D02*
X105743750Y-45650000D01*
G75*
G02*
X105525000Y-45431250I0J218750D01*
G01*
X105525000Y-44993750D01*
G75*
G02*
X105743750Y-44775000I218750J0D01*
G01*
X106256250Y-44775000D01*
G75*
G02*
X106475000Y-44993750I0J-218750D01*
G01*
X106475000Y-45431250D01*
G75*
G02*
X106256250Y-45650000I-218750J0D01*
G01*
G37*
G36*
G01*
X106256250Y-47225000D02*
X105743750Y-47225000D01*
G75*
G02*
X105525000Y-47006250I0J218750D01*
G01*
X105525000Y-46568750D01*
G75*
G02*
X105743750Y-46350000I218750J0D01*
G01*
X106256250Y-46350000D01*
G75*
G02*
X106475000Y-46568750I0J-218750D01*
G01*
X106475000Y-47006250D01*
G75*
G02*
X106256250Y-47225000I-218750J0D01*
G01*
G37*
%TD*%
%TO.C,R4*%
G36*
G01*
X119456250Y-58050000D02*
X118543750Y-58050000D01*
G75*
G02*
X118300000Y-57806250I0J243750D01*
G01*
X118300000Y-57318750D01*
G75*
G02*
X118543750Y-57075000I243750J0D01*
G01*
X119456250Y-57075000D01*
G75*
G02*
X119700000Y-57318750I0J-243750D01*
G01*
X119700000Y-57806250D01*
G75*
G02*
X119456250Y-58050000I-243750J0D01*
G01*
G37*
G36*
G01*
X119456250Y-59925000D02*
X118543750Y-59925000D01*
G75*
G02*
X118300000Y-59681250I0J243750D01*
G01*
X118300000Y-59193750D01*
G75*
G02*
X118543750Y-58950000I243750J0D01*
G01*
X119456250Y-58950000D01*
G75*
G02*
X119700000Y-59193750I0J-243750D01*
G01*
X119700000Y-59681250D01*
G75*
G02*
X119456250Y-59925000I-243750J0D01*
G01*
G37*
%TD*%
%TO.C,R3*%
G36*
G01*
X107743750Y-43350000D02*
X108256250Y-43350000D01*
G75*
G02*
X108475000Y-43568750I0J-218750D01*
G01*
X108475000Y-44006250D01*
G75*
G02*
X108256250Y-44225000I-218750J0D01*
G01*
X107743750Y-44225000D01*
G75*
G02*
X107525000Y-44006250I0J218750D01*
G01*
X107525000Y-43568750D01*
G75*
G02*
X107743750Y-43350000I218750J0D01*
G01*
G37*
G36*
G01*
X107743750Y-41775000D02*
X108256250Y-41775000D01*
G75*
G02*
X108475000Y-41993750I0J-218750D01*
G01*
X108475000Y-42431250D01*
G75*
G02*
X108256250Y-42650000I-218750J0D01*
G01*
X107743750Y-42650000D01*
G75*
G02*
X107525000Y-42431250I0J218750D01*
G01*
X107525000Y-41993750D01*
G75*
G02*
X107743750Y-41775000I218750J0D01*
G01*
G37*
%TD*%
D11*
%TO.C,Q1*%
X112050000Y-46000000D03*
X110050000Y-46950000D03*
X110050000Y-45050000D03*
%TD*%
%TO.C,FB1*%
G36*
G01*
X107650000Y-56243750D02*
X107650000Y-56756250D01*
G75*
G02*
X107431250Y-56975000I-218750J0D01*
G01*
X106993750Y-56975000D01*
G75*
G02*
X106775000Y-56756250I0J218750D01*
G01*
X106775000Y-56243750D01*
G75*
G02*
X106993750Y-56025000I218750J0D01*
G01*
X107431250Y-56025000D01*
G75*
G02*
X107650000Y-56243750I0J-218750D01*
G01*
G37*
G36*
G01*
X109225000Y-56243750D02*
X109225000Y-56756250D01*
G75*
G02*
X109006250Y-56975000I-218750J0D01*
G01*
X108568750Y-56975000D01*
G75*
G02*
X108350000Y-56756250I0J218750D01*
G01*
X108350000Y-56243750D01*
G75*
G02*
X108568750Y-56025000I218750J0D01*
G01*
X109006250Y-56025000D01*
G75*
G02*
X109225000Y-56243750I0J-218750D01*
G01*
G37*
%TD*%
D10*
%TO.C,D2*%
X114500000Y-60550000D03*
X114500000Y-58450000D03*
%TD*%
%TO.C,C19*%
G36*
G01*
X128756250Y-57650000D02*
X128243750Y-57650000D01*
G75*
G02*
X128025000Y-57431250I0J218750D01*
G01*
X128025000Y-56993750D01*
G75*
G02*
X128243750Y-56775000I218750J0D01*
G01*
X128756250Y-56775000D01*
G75*
G02*
X128975000Y-56993750I0J-218750D01*
G01*
X128975000Y-57431250D01*
G75*
G02*
X128756250Y-57650000I-218750J0D01*
G01*
G37*
G36*
G01*
X128756250Y-59225000D02*
X128243750Y-59225000D01*
G75*
G02*
X128025000Y-59006250I0J218750D01*
G01*
X128025000Y-58568750D01*
G75*
G02*
X128243750Y-58350000I218750J0D01*
G01*
X128756250Y-58350000D01*
G75*
G02*
X128975000Y-58568750I0J-218750D01*
G01*
X128975000Y-59006250D01*
G75*
G02*
X128756250Y-59225000I-218750J0D01*
G01*
G37*
%TD*%
%TO.C,C18*%
G36*
G01*
X130850000Y-55256250D02*
X130850000Y-54743750D01*
G75*
G02*
X131068750Y-54525000I218750J0D01*
G01*
X131506250Y-54525000D01*
G75*
G02*
X131725000Y-54743750I0J-218750D01*
G01*
X131725000Y-55256250D01*
G75*
G02*
X131506250Y-55475000I-218750J0D01*
G01*
X131068750Y-55475000D01*
G75*
G02*
X130850000Y-55256250I0J218750D01*
G01*
G37*
G36*
G01*
X129275000Y-55256250D02*
X129275000Y-54743750D01*
G75*
G02*
X129493750Y-54525000I218750J0D01*
G01*
X129931250Y-54525000D01*
G75*
G02*
X130150000Y-54743750I0J-218750D01*
G01*
X130150000Y-55256250D01*
G75*
G02*
X129931250Y-55475000I-218750J0D01*
G01*
X129493750Y-55475000D01*
G75*
G02*
X129275000Y-55256250I0J218750D01*
G01*
G37*
%TD*%
%TO.C,C17*%
G36*
G01*
X103850000Y-53256250D02*
X103850000Y-52743750D01*
G75*
G02*
X104068750Y-52525000I218750J0D01*
G01*
X104506250Y-52525000D01*
G75*
G02*
X104725000Y-52743750I0J-218750D01*
G01*
X104725000Y-53256250D01*
G75*
G02*
X104506250Y-53475000I-218750J0D01*
G01*
X104068750Y-53475000D01*
G75*
G02*
X103850000Y-53256250I0J218750D01*
G01*
G37*
G36*
G01*
X102275000Y-53256250D02*
X102275000Y-52743750D01*
G75*
G02*
X102493750Y-52525000I218750J0D01*
G01*
X102931250Y-52525000D01*
G75*
G02*
X103150000Y-52743750I0J-218750D01*
G01*
X103150000Y-53256250D01*
G75*
G02*
X102931250Y-53475000I-218750J0D01*
G01*
X102493750Y-53475000D01*
G75*
G02*
X102275000Y-53256250I0J218750D01*
G01*
G37*
%TD*%
%TO.C,C16*%
G36*
G01*
X106756250Y-53650000D02*
X106243750Y-53650000D01*
G75*
G02*
X106025000Y-53431250I0J218750D01*
G01*
X106025000Y-52993750D01*
G75*
G02*
X106243750Y-52775000I218750J0D01*
G01*
X106756250Y-52775000D01*
G75*
G02*
X106975000Y-52993750I0J-218750D01*
G01*
X106975000Y-53431250D01*
G75*
G02*
X106756250Y-53650000I-218750J0D01*
G01*
G37*
G36*
G01*
X106756250Y-55225000D02*
X106243750Y-55225000D01*
G75*
G02*
X106025000Y-55006250I0J218750D01*
G01*
X106025000Y-54568750D01*
G75*
G02*
X106243750Y-54350000I218750J0D01*
G01*
X106756250Y-54350000D01*
G75*
G02*
X106975000Y-54568750I0J-218750D01*
G01*
X106975000Y-55006250D01*
G75*
G02*
X106756250Y-55225000I-218750J0D01*
G01*
G37*
%TD*%
%TO.C,C15*%
G36*
G01*
X129756250Y-47862500D02*
X129243750Y-47862500D01*
G75*
G02*
X129025000Y-47643750I0J218750D01*
G01*
X129025000Y-47206250D01*
G75*
G02*
X129243750Y-46987500I218750J0D01*
G01*
X129756250Y-46987500D01*
G75*
G02*
X129975000Y-47206250I0J-218750D01*
G01*
X129975000Y-47643750D01*
G75*
G02*
X129756250Y-47862500I-218750J0D01*
G01*
G37*
G36*
G01*
X129756250Y-49437500D02*
X129243750Y-49437500D01*
G75*
G02*
X129025000Y-49218750I0J218750D01*
G01*
X129025000Y-48781250D01*
G75*
G02*
X129243750Y-48562500I218750J0D01*
G01*
X129756250Y-48562500D01*
G75*
G02*
X129975000Y-48781250I0J-218750D01*
G01*
X129975000Y-49218750D01*
G75*
G02*
X129756250Y-49437500I-218750J0D01*
G01*
G37*
%TD*%
%TO.C,C14*%
G36*
G01*
X102256250Y-46150000D02*
X101743750Y-46150000D01*
G75*
G02*
X101525000Y-45931250I0J218750D01*
G01*
X101525000Y-45493750D01*
G75*
G02*
X101743750Y-45275000I218750J0D01*
G01*
X102256250Y-45275000D01*
G75*
G02*
X102475000Y-45493750I0J-218750D01*
G01*
X102475000Y-45931250D01*
G75*
G02*
X102256250Y-46150000I-218750J0D01*
G01*
G37*
G36*
G01*
X102256250Y-47725000D02*
X101743750Y-47725000D01*
G75*
G02*
X101525000Y-47506250I0J218750D01*
G01*
X101525000Y-47068750D01*
G75*
G02*
X101743750Y-46850000I218750J0D01*
G01*
X102256250Y-46850000D01*
G75*
G02*
X102475000Y-47068750I0J-218750D01*
G01*
X102475000Y-47506250D01*
G75*
G02*
X102256250Y-47725000I-218750J0D01*
G01*
G37*
%TD*%
%TO.C,C13*%
G36*
G01*
X131743750Y-48562500D02*
X132256250Y-48562500D01*
G75*
G02*
X132475000Y-48781250I0J-218750D01*
G01*
X132475000Y-49218750D01*
G75*
G02*
X132256250Y-49437500I-218750J0D01*
G01*
X131743750Y-49437500D01*
G75*
G02*
X131525000Y-49218750I0J218750D01*
G01*
X131525000Y-48781250D01*
G75*
G02*
X131743750Y-48562500I218750J0D01*
G01*
G37*
G36*
G01*
X131743750Y-46987500D02*
X132256250Y-46987500D01*
G75*
G02*
X132475000Y-47206250I0J-218750D01*
G01*
X132475000Y-47643750D01*
G75*
G02*
X132256250Y-47862500I-218750J0D01*
G01*
X131743750Y-47862500D01*
G75*
G02*
X131525000Y-47643750I0J218750D01*
G01*
X131525000Y-47206250D01*
G75*
G02*
X131743750Y-46987500I218750J0D01*
G01*
G37*
%TD*%
%TO.C,C12*%
G36*
G01*
X103743750Y-46850000D02*
X104256250Y-46850000D01*
G75*
G02*
X104475000Y-47068750I0J-218750D01*
G01*
X104475000Y-47506250D01*
G75*
G02*
X104256250Y-47725000I-218750J0D01*
G01*
X103743750Y-47725000D01*
G75*
G02*
X103525000Y-47506250I0J218750D01*
G01*
X103525000Y-47068750D01*
G75*
G02*
X103743750Y-46850000I218750J0D01*
G01*
G37*
G36*
G01*
X103743750Y-45275000D02*
X104256250Y-45275000D01*
G75*
G02*
X104475000Y-45493750I0J-218750D01*
G01*
X104475000Y-45931250D01*
G75*
G02*
X104256250Y-46150000I-218750J0D01*
G01*
X103743750Y-46150000D01*
G75*
G02*
X103525000Y-45931250I0J218750D01*
G01*
X103525000Y-45493750D01*
G75*
G02*
X103743750Y-45275000I218750J0D01*
G01*
G37*
%TD*%
%TO.C,C11*%
G36*
G01*
X115350000Y-41556250D02*
X115350000Y-41043750D01*
G75*
G02*
X115568750Y-40825000I218750J0D01*
G01*
X116006250Y-40825000D01*
G75*
G02*
X116225000Y-41043750I0J-218750D01*
G01*
X116225000Y-41556250D01*
G75*
G02*
X116006250Y-41775000I-218750J0D01*
G01*
X115568750Y-41775000D01*
G75*
G02*
X115350000Y-41556250I0J218750D01*
G01*
G37*
G36*
G01*
X113775000Y-41556250D02*
X113775000Y-41043750D01*
G75*
G02*
X113993750Y-40825000I218750J0D01*
G01*
X114431250Y-40825000D01*
G75*
G02*
X114650000Y-41043750I0J-218750D01*
G01*
X114650000Y-41556250D01*
G75*
G02*
X114431250Y-41775000I-218750J0D01*
G01*
X113993750Y-41775000D01*
G75*
G02*
X113775000Y-41556250I0J218750D01*
G01*
G37*
%TD*%
%TO.C,C8*%
G36*
G01*
X119350000Y-41556250D02*
X119350000Y-41043750D01*
G75*
G02*
X119568750Y-40825000I218750J0D01*
G01*
X120006250Y-40825000D01*
G75*
G02*
X120225000Y-41043750I0J-218750D01*
G01*
X120225000Y-41556250D01*
G75*
G02*
X120006250Y-41775000I-218750J0D01*
G01*
X119568750Y-41775000D01*
G75*
G02*
X119350000Y-41556250I0J218750D01*
G01*
G37*
G36*
G01*
X117775000Y-41556250D02*
X117775000Y-41043750D01*
G75*
G02*
X117993750Y-40825000I218750J0D01*
G01*
X118431250Y-40825000D01*
G75*
G02*
X118650000Y-41043750I0J-218750D01*
G01*
X118650000Y-41556250D01*
G75*
G02*
X118431250Y-41775000I-218750J0D01*
G01*
X117993750Y-41775000D01*
G75*
G02*
X117775000Y-41556250I0J218750D01*
G01*
G37*
%TD*%
%TO.C,C5*%
G36*
G01*
X122650000Y-42743750D02*
X122650000Y-43256250D01*
G75*
G02*
X122431250Y-43475000I-218750J0D01*
G01*
X121993750Y-43475000D01*
G75*
G02*
X121775000Y-43256250I0J218750D01*
G01*
X121775000Y-42743750D01*
G75*
G02*
X121993750Y-42525000I218750J0D01*
G01*
X122431250Y-42525000D01*
G75*
G02*
X122650000Y-42743750I0J-218750D01*
G01*
G37*
G36*
G01*
X124225000Y-42743750D02*
X124225000Y-43256250D01*
G75*
G02*
X124006250Y-43475000I-218750J0D01*
G01*
X123568750Y-43475000D01*
G75*
G02*
X123350000Y-43256250I0J218750D01*
G01*
X123350000Y-42743750D01*
G75*
G02*
X123568750Y-42525000I218750J0D01*
G01*
X124006250Y-42525000D01*
G75*
G02*
X124225000Y-42743750I0J-218750D01*
G01*
G37*
%TD*%
%TO.C,C4*%
G36*
G01*
X106256250Y-42650000D02*
X105743750Y-42650000D01*
G75*
G02*
X105525000Y-42431250I0J218750D01*
G01*
X105525000Y-41993750D01*
G75*
G02*
X105743750Y-41775000I218750J0D01*
G01*
X106256250Y-41775000D01*
G75*
G02*
X106475000Y-41993750I0J-218750D01*
G01*
X106475000Y-42431250D01*
G75*
G02*
X106256250Y-42650000I-218750J0D01*
G01*
G37*
G36*
G01*
X106256250Y-44225000D02*
X105743750Y-44225000D01*
G75*
G02*
X105525000Y-44006250I0J218750D01*
G01*
X105525000Y-43568750D01*
G75*
G02*
X105743750Y-43350000I218750J0D01*
G01*
X106256250Y-43350000D01*
G75*
G02*
X106475000Y-43568750I0J-218750D01*
G01*
X106475000Y-44006250D01*
G75*
G02*
X106256250Y-44225000I-218750J0D01*
G01*
G37*
%TD*%
%TO.C,C3*%
G36*
G01*
X122650000Y-44743750D02*
X122650000Y-45256250D01*
G75*
G02*
X122431250Y-45475000I-218750J0D01*
G01*
X121993750Y-45475000D01*
G75*
G02*
X121775000Y-45256250I0J218750D01*
G01*
X121775000Y-44743750D01*
G75*
G02*
X121993750Y-44525000I218750J0D01*
G01*
X122431250Y-44525000D01*
G75*
G02*
X122650000Y-44743750I0J-218750D01*
G01*
G37*
G36*
G01*
X124225000Y-44743750D02*
X124225000Y-45256250D01*
G75*
G02*
X124006250Y-45475000I-218750J0D01*
G01*
X123568750Y-45475000D01*
G75*
G02*
X123350000Y-45256250I0J218750D01*
G01*
X123350000Y-44743750D01*
G75*
G02*
X123568750Y-44525000I218750J0D01*
G01*
X124006250Y-44525000D01*
G75*
G02*
X124225000Y-44743750I0J-218750D01*
G01*
G37*
%TD*%
%TO.C,C2*%
G36*
G01*
X107743750Y-46850000D02*
X108256250Y-46850000D01*
G75*
G02*
X108475000Y-47068750I0J-218750D01*
G01*
X108475000Y-47506250D01*
G75*
G02*
X108256250Y-47725000I-218750J0D01*
G01*
X107743750Y-47725000D01*
G75*
G02*
X107525000Y-47506250I0J218750D01*
G01*
X107525000Y-47068750D01*
G75*
G02*
X107743750Y-46850000I218750J0D01*
G01*
G37*
G36*
G01*
X107743750Y-45275000D02*
X108256250Y-45275000D01*
G75*
G02*
X108475000Y-45493750I0J-218750D01*
G01*
X108475000Y-45931250D01*
G75*
G02*
X108256250Y-46150000I-218750J0D01*
G01*
X107743750Y-46150000D01*
G75*
G02*
X107525000Y-45931250I0J218750D01*
G01*
X107525000Y-45493750D01*
G75*
G02*
X107743750Y-45275000I218750J0D01*
G01*
G37*
%TD*%
%TO.C,C1*%
G36*
G01*
X111062500Y-43256250D02*
X111062500Y-42743750D01*
G75*
G02*
X111281250Y-42525000I218750J0D01*
G01*
X111718750Y-42525000D01*
G75*
G02*
X111937500Y-42743750I0J-218750D01*
G01*
X111937500Y-43256250D01*
G75*
G02*
X111718750Y-43475000I-218750J0D01*
G01*
X111281250Y-43475000D01*
G75*
G02*
X111062500Y-43256250I0J218750D01*
G01*
G37*
G36*
G01*
X109487500Y-43256250D02*
X109487500Y-42743750D01*
G75*
G02*
X109706250Y-42525000I218750J0D01*
G01*
X110143750Y-42525000D01*
G75*
G02*
X110362500Y-42743750I0J-218750D01*
G01*
X110362500Y-43256250D01*
G75*
G02*
X110143750Y-43475000I-218750J0D01*
G01*
X109706250Y-43475000D01*
G75*
G02*
X109487500Y-43256250I0J218750D01*
G01*
G37*
%TD*%
%TO.C,TH1*%
G36*
G01*
X128825000Y-61375000D02*
X128825000Y-62625000D01*
G75*
G02*
X128575000Y-62875000I-250000J0D01*
G01*
X127825000Y-62875000D01*
G75*
G02*
X127575000Y-62625000I0J250000D01*
G01*
X127575000Y-61375000D01*
G75*
G02*
X127825000Y-61125000I250000J0D01*
G01*
X128575000Y-61125000D01*
G75*
G02*
X128825000Y-61375000I0J-250000D01*
G01*
G37*
G36*
G01*
X131625000Y-61375000D02*
X131625000Y-62625000D01*
G75*
G02*
X131375000Y-62875000I-250000J0D01*
G01*
X130625000Y-62875000D01*
G75*
G02*
X130375000Y-62625000I0J250000D01*
G01*
X130375000Y-61375000D01*
G75*
G02*
X130625000Y-61125000I250000J0D01*
G01*
X131375000Y-61125000D01*
G75*
G02*
X131625000Y-61375000I0J-250000D01*
G01*
G37*
%TD*%
%TO.C,R2*%
G36*
G01*
X121456250Y-57550000D02*
X120543750Y-57550000D01*
G75*
G02*
X120300000Y-57306250I0J243750D01*
G01*
X120300000Y-56818750D01*
G75*
G02*
X120543750Y-56575000I243750J0D01*
G01*
X121456250Y-56575000D01*
G75*
G02*
X121700000Y-56818750I0J-243750D01*
G01*
X121700000Y-57306250D01*
G75*
G02*
X121456250Y-57550000I-243750J0D01*
G01*
G37*
G36*
G01*
X121456250Y-59425000D02*
X120543750Y-59425000D01*
G75*
G02*
X120300000Y-59181250I0J243750D01*
G01*
X120300000Y-58693750D01*
G75*
G02*
X120543750Y-58450000I243750J0D01*
G01*
X121456250Y-58450000D01*
G75*
G02*
X121700000Y-58693750I0J-243750D01*
G01*
X121700000Y-59181250D01*
G75*
G02*
X121456250Y-59425000I-243750J0D01*
G01*
G37*
%TD*%
%TO.C,R1*%
G36*
G01*
X122550000Y-46543750D02*
X122550000Y-47456250D01*
G75*
G02*
X122306250Y-47700000I-243750J0D01*
G01*
X121818750Y-47700000D01*
G75*
G02*
X121575000Y-47456250I0J243750D01*
G01*
X121575000Y-46543750D01*
G75*
G02*
X121818750Y-46300000I243750J0D01*
G01*
X122306250Y-46300000D01*
G75*
G02*
X122550000Y-46543750I0J-243750D01*
G01*
G37*
G36*
G01*
X124425000Y-46543750D02*
X124425000Y-47456250D01*
G75*
G02*
X124181250Y-47700000I-243750J0D01*
G01*
X123693750Y-47700000D01*
G75*
G02*
X123450000Y-47456250I0J243750D01*
G01*
X123450000Y-46543750D01*
G75*
G02*
X123693750Y-46300000I243750J0D01*
G01*
X124181250Y-46300000D01*
G75*
G02*
X124425000Y-46543750I0J-243750D01*
G01*
G37*
%TD*%
M02*
