%TF.GenerationSoftware,KiCad,Pcbnew,(5.1.6)-1*%
%TF.CreationDate,2021-03-23T10:57:52+01:00*%
%TF.ProjectId,mu-ltz,6d752d6c-747a-42e6-9b69-6361645f7063,rev?*%
%TF.SameCoordinates,Original*%
%TF.FileFunction,Legend,Bot*%
%TF.FilePolarity,Positive*%
%FSLAX46Y46*%
G04 Gerber Fmt 4.6, Leading zero omitted, Abs format (unit mm)*
G04 Created by KiCad (PCBNEW (5.1.6)-1) date 2021-03-23 10:57:52*
%MOMM*%
%LPD*%
G01*
G04 APERTURE LIST*
%ADD10C,0.120000*%
%ADD11C,0.150000*%
G04 APERTURE END LIST*
D10*
%TO.C,C10*%
X118290000Y-84741422D02*
X118290000Y-85258578D01*
X119710000Y-84741422D02*
X119710000Y-85258578D01*
%TO.C,C7*%
X130710000Y-85258578D02*
X130710000Y-84741422D01*
X129290000Y-85258578D02*
X129290000Y-84741422D01*
%TO.C,R8*%
X126540000Y-88741422D02*
X126540000Y-89258578D01*
X127960000Y-88741422D02*
X127960000Y-89258578D01*
%TO.C,R10*%
X121540000Y-88741422D02*
X121540000Y-89258578D01*
X122960000Y-88741422D02*
X122960000Y-89258578D01*
%TO.C,R11*%
X121540000Y-84741422D02*
X121540000Y-85258578D01*
X122960000Y-84741422D02*
X122960000Y-85258578D01*
%TO.C,R9*%
X126540000Y-84741422D02*
X126540000Y-85258578D01*
X127960000Y-84741422D02*
X127960000Y-85258578D01*
%TO.C,FB3*%
X122760000Y-92662779D02*
X122760000Y-92337221D01*
X121740000Y-92662779D02*
X121740000Y-92337221D01*
%TO.C,C9*%
X118290000Y-88741422D02*
X118290000Y-89258578D01*
X119710000Y-88741422D02*
X119710000Y-89258578D01*
%TO.C,C6*%
X130710000Y-89258578D02*
X130710000Y-88741422D01*
X129290000Y-89258578D02*
X129290000Y-88741422D01*
%TO.C,FB2*%
X127760000Y-92662779D02*
X127760000Y-92337221D01*
X126740000Y-92662779D02*
X126740000Y-92337221D01*
%TO.C,C10*%
D11*
X117707142Y-84357142D02*
X117754761Y-84309523D01*
X117802380Y-84166666D01*
X117802380Y-84071428D01*
X117754761Y-83928571D01*
X117659523Y-83833333D01*
X117564285Y-83785714D01*
X117373809Y-83738095D01*
X117230952Y-83738095D01*
X117040476Y-83785714D01*
X116945238Y-83833333D01*
X116850000Y-83928571D01*
X116802380Y-84071428D01*
X116802380Y-84166666D01*
X116850000Y-84309523D01*
X116897619Y-84357142D01*
X117802380Y-85309523D02*
X117802380Y-84738095D01*
X117802380Y-85023809D02*
X116802380Y-85023809D01*
X116945238Y-84928571D01*
X117040476Y-84833333D01*
X117088095Y-84738095D01*
X116802380Y-85928571D02*
X116802380Y-86023809D01*
X116850000Y-86119047D01*
X116897619Y-86166666D01*
X116992857Y-86214285D01*
X117183333Y-86261904D01*
X117421428Y-86261904D01*
X117611904Y-86214285D01*
X117707142Y-86166666D01*
X117754761Y-86119047D01*
X117802380Y-86023809D01*
X117802380Y-85928571D01*
X117754761Y-85833333D01*
X117707142Y-85785714D01*
X117611904Y-85738095D01*
X117421428Y-85690476D01*
X117183333Y-85690476D01*
X116992857Y-85738095D01*
X116897619Y-85785714D01*
X116850000Y-85833333D01*
X116802380Y-85928571D01*
%TO.C,C7*%
X132007142Y-84833333D02*
X132054761Y-84785714D01*
X132102380Y-84642857D01*
X132102380Y-84547619D01*
X132054761Y-84404761D01*
X131959523Y-84309523D01*
X131864285Y-84261904D01*
X131673809Y-84214285D01*
X131530952Y-84214285D01*
X131340476Y-84261904D01*
X131245238Y-84309523D01*
X131150000Y-84404761D01*
X131102380Y-84547619D01*
X131102380Y-84642857D01*
X131150000Y-84785714D01*
X131197619Y-84833333D01*
X131102380Y-85166666D02*
X131102380Y-85833333D01*
X132102380Y-85404761D01*
%TO.C,R8*%
X126052380Y-88833333D02*
X125576190Y-88500000D01*
X126052380Y-88261904D02*
X125052380Y-88261904D01*
X125052380Y-88642857D01*
X125100000Y-88738095D01*
X125147619Y-88785714D01*
X125242857Y-88833333D01*
X125385714Y-88833333D01*
X125480952Y-88785714D01*
X125528571Y-88738095D01*
X125576190Y-88642857D01*
X125576190Y-88261904D01*
X125480952Y-89404761D02*
X125433333Y-89309523D01*
X125385714Y-89261904D01*
X125290476Y-89214285D01*
X125242857Y-89214285D01*
X125147619Y-89261904D01*
X125100000Y-89309523D01*
X125052380Y-89404761D01*
X125052380Y-89595238D01*
X125100000Y-89690476D01*
X125147619Y-89738095D01*
X125242857Y-89785714D01*
X125290476Y-89785714D01*
X125385714Y-89738095D01*
X125433333Y-89690476D01*
X125480952Y-89595238D01*
X125480952Y-89404761D01*
X125528571Y-89309523D01*
X125576190Y-89261904D01*
X125671428Y-89214285D01*
X125861904Y-89214285D01*
X125957142Y-89261904D01*
X126004761Y-89309523D01*
X126052380Y-89404761D01*
X126052380Y-89595238D01*
X126004761Y-89690476D01*
X125957142Y-89738095D01*
X125861904Y-89785714D01*
X125671428Y-89785714D01*
X125576190Y-89738095D01*
X125528571Y-89690476D01*
X125480952Y-89595238D01*
%TO.C,R10*%
X121052380Y-88357142D02*
X120576190Y-88023809D01*
X121052380Y-87785714D02*
X120052380Y-87785714D01*
X120052380Y-88166666D01*
X120100000Y-88261904D01*
X120147619Y-88309523D01*
X120242857Y-88357142D01*
X120385714Y-88357142D01*
X120480952Y-88309523D01*
X120528571Y-88261904D01*
X120576190Y-88166666D01*
X120576190Y-87785714D01*
X121052380Y-89309523D02*
X121052380Y-88738095D01*
X121052380Y-89023809D02*
X120052380Y-89023809D01*
X120195238Y-88928571D01*
X120290476Y-88833333D01*
X120338095Y-88738095D01*
X120052380Y-89928571D02*
X120052380Y-90023809D01*
X120100000Y-90119047D01*
X120147619Y-90166666D01*
X120242857Y-90214285D01*
X120433333Y-90261904D01*
X120671428Y-90261904D01*
X120861904Y-90214285D01*
X120957142Y-90166666D01*
X121004761Y-90119047D01*
X121052380Y-90023809D01*
X121052380Y-89928571D01*
X121004761Y-89833333D01*
X120957142Y-89785714D01*
X120861904Y-89738095D01*
X120671428Y-89690476D01*
X120433333Y-89690476D01*
X120242857Y-89738095D01*
X120147619Y-89785714D01*
X120100000Y-89833333D01*
X120052380Y-89928571D01*
%TO.C,R11*%
X121052380Y-84357142D02*
X120576190Y-84023809D01*
X121052380Y-83785714D02*
X120052380Y-83785714D01*
X120052380Y-84166666D01*
X120100000Y-84261904D01*
X120147619Y-84309523D01*
X120242857Y-84357142D01*
X120385714Y-84357142D01*
X120480952Y-84309523D01*
X120528571Y-84261904D01*
X120576190Y-84166666D01*
X120576190Y-83785714D01*
X121052380Y-85309523D02*
X121052380Y-84738095D01*
X121052380Y-85023809D02*
X120052380Y-85023809D01*
X120195238Y-84928571D01*
X120290476Y-84833333D01*
X120338095Y-84738095D01*
X121052380Y-86261904D02*
X121052380Y-85690476D01*
X121052380Y-85976190D02*
X120052380Y-85976190D01*
X120195238Y-85880952D01*
X120290476Y-85785714D01*
X120338095Y-85690476D01*
%TO.C,R9*%
X126052380Y-84833333D02*
X125576190Y-84500000D01*
X126052380Y-84261904D02*
X125052380Y-84261904D01*
X125052380Y-84642857D01*
X125100000Y-84738095D01*
X125147619Y-84785714D01*
X125242857Y-84833333D01*
X125385714Y-84833333D01*
X125480952Y-84785714D01*
X125528571Y-84738095D01*
X125576190Y-84642857D01*
X125576190Y-84261904D01*
X126052380Y-85309523D02*
X126052380Y-85500000D01*
X126004761Y-85595238D01*
X125957142Y-85642857D01*
X125814285Y-85738095D01*
X125623809Y-85785714D01*
X125242857Y-85785714D01*
X125147619Y-85738095D01*
X125100000Y-85690476D01*
X125052380Y-85595238D01*
X125052380Y-85404761D01*
X125100000Y-85309523D01*
X125147619Y-85261904D01*
X125242857Y-85214285D01*
X125480952Y-85214285D01*
X125576190Y-85261904D01*
X125623809Y-85309523D01*
X125671428Y-85404761D01*
X125671428Y-85595238D01*
X125623809Y-85690476D01*
X125576190Y-85738095D01*
X125480952Y-85785714D01*
%TO.C,FB3*%
X123608571Y-91666666D02*
X123608571Y-91333333D01*
X124132380Y-91333333D02*
X123132380Y-91333333D01*
X123132380Y-91809523D01*
X123608571Y-92523809D02*
X123656190Y-92666666D01*
X123703809Y-92714285D01*
X123799047Y-92761904D01*
X123941904Y-92761904D01*
X124037142Y-92714285D01*
X124084761Y-92666666D01*
X124132380Y-92571428D01*
X124132380Y-92190476D01*
X123132380Y-92190476D01*
X123132380Y-92523809D01*
X123180000Y-92619047D01*
X123227619Y-92666666D01*
X123322857Y-92714285D01*
X123418095Y-92714285D01*
X123513333Y-92666666D01*
X123560952Y-92619047D01*
X123608571Y-92523809D01*
X123608571Y-92190476D01*
X123132380Y-93095238D02*
X123132380Y-93714285D01*
X123513333Y-93380952D01*
X123513333Y-93523809D01*
X123560952Y-93619047D01*
X123608571Y-93666666D01*
X123703809Y-93714285D01*
X123941904Y-93714285D01*
X124037142Y-93666666D01*
X124084761Y-93619047D01*
X124132380Y-93523809D01*
X124132380Y-93238095D01*
X124084761Y-93142857D01*
X124037142Y-93095238D01*
%TO.C,C9*%
X117707142Y-88833333D02*
X117754761Y-88785714D01*
X117802380Y-88642857D01*
X117802380Y-88547619D01*
X117754761Y-88404761D01*
X117659523Y-88309523D01*
X117564285Y-88261904D01*
X117373809Y-88214285D01*
X117230952Y-88214285D01*
X117040476Y-88261904D01*
X116945238Y-88309523D01*
X116850000Y-88404761D01*
X116802380Y-88547619D01*
X116802380Y-88642857D01*
X116850000Y-88785714D01*
X116897619Y-88833333D01*
X117802380Y-89309523D02*
X117802380Y-89500000D01*
X117754761Y-89595238D01*
X117707142Y-89642857D01*
X117564285Y-89738095D01*
X117373809Y-89785714D01*
X116992857Y-89785714D01*
X116897619Y-89738095D01*
X116850000Y-89690476D01*
X116802380Y-89595238D01*
X116802380Y-89404761D01*
X116850000Y-89309523D01*
X116897619Y-89261904D01*
X116992857Y-89214285D01*
X117230952Y-89214285D01*
X117326190Y-89261904D01*
X117373809Y-89309523D01*
X117421428Y-89404761D01*
X117421428Y-89595238D01*
X117373809Y-89690476D01*
X117326190Y-89738095D01*
X117230952Y-89785714D01*
%TO.C,C6*%
X132007142Y-88833333D02*
X132054761Y-88785714D01*
X132102380Y-88642857D01*
X132102380Y-88547619D01*
X132054761Y-88404761D01*
X131959523Y-88309523D01*
X131864285Y-88261904D01*
X131673809Y-88214285D01*
X131530952Y-88214285D01*
X131340476Y-88261904D01*
X131245238Y-88309523D01*
X131150000Y-88404761D01*
X131102380Y-88547619D01*
X131102380Y-88642857D01*
X131150000Y-88785714D01*
X131197619Y-88833333D01*
X131102380Y-89690476D02*
X131102380Y-89500000D01*
X131150000Y-89404761D01*
X131197619Y-89357142D01*
X131340476Y-89261904D01*
X131530952Y-89214285D01*
X131911904Y-89214285D01*
X132007142Y-89261904D01*
X132054761Y-89309523D01*
X132102380Y-89404761D01*
X132102380Y-89595238D01*
X132054761Y-89690476D01*
X132007142Y-89738095D01*
X131911904Y-89785714D01*
X131673809Y-89785714D01*
X131578571Y-89738095D01*
X131530952Y-89690476D01*
X131483333Y-89595238D01*
X131483333Y-89404761D01*
X131530952Y-89309523D01*
X131578571Y-89261904D01*
X131673809Y-89214285D01*
%TO.C,FB2*%
X128608571Y-91666666D02*
X128608571Y-91333333D01*
X129132380Y-91333333D02*
X128132380Y-91333333D01*
X128132380Y-91809523D01*
X128608571Y-92523809D02*
X128656190Y-92666666D01*
X128703809Y-92714285D01*
X128799047Y-92761904D01*
X128941904Y-92761904D01*
X129037142Y-92714285D01*
X129084761Y-92666666D01*
X129132380Y-92571428D01*
X129132380Y-92190476D01*
X128132380Y-92190476D01*
X128132380Y-92523809D01*
X128180000Y-92619047D01*
X128227619Y-92666666D01*
X128322857Y-92714285D01*
X128418095Y-92714285D01*
X128513333Y-92666666D01*
X128560952Y-92619047D01*
X128608571Y-92523809D01*
X128608571Y-92190476D01*
X128227619Y-93142857D02*
X128180000Y-93190476D01*
X128132380Y-93285714D01*
X128132380Y-93523809D01*
X128180000Y-93619047D01*
X128227619Y-93666666D01*
X128322857Y-93714285D01*
X128418095Y-93714285D01*
X128560952Y-93666666D01*
X129132380Y-93095238D01*
X129132380Y-93714285D01*
%TD*%
M02*
