M48
; DRILL file {KiCad (5.1.6)-1} date 07/30/21 20:13:59
; FORMAT={-:-/ absolute / inch / decimal}
; #@! TF.CreationDate,2021-07-30T20:13:59+02:00
; #@! TF.GenerationSoftware,Kicad,Pcbnew,(5.1.6)-1
FMAT,2
INCH
T1C0.0157
T2C0.0276
T3C0.0315
T4C0.0394
T5C0.0472
%
G90
G05
T1
X4.3447Y-1.9151
X4.8425Y-1.9685
X4.9803Y-1.8406
X5.1673Y-2.6969
X5.2461Y-2.3917
T2
X4.2577Y-2.286
X4.2913Y-2.2047
X4.2913Y-2.3673
X4.3726Y-2.1711
X4.3726Y-2.401
X4.4539Y-2.2047
X4.4539Y-2.3673
X4.4876Y-2.286
T3
X4.2563Y-2.7657
X4.3591Y-2.7657
X4.4619Y-2.7657
X4.5647Y-2.7657
X4.6676Y-2.7657
X4.7704Y-2.7657
X4.8731Y-2.7657
X4.9759Y-2.7657
X4.7343Y-2.185
X4.7343Y-2.285
X4.7343Y-2.385
T4
X4.0551Y-1.8504
X4.0551Y-3.8189
X4.2766Y-3.2087
X4.2766Y-3.6024
X4.6161Y-3.2087
X4.6161Y-3.6024
X4.9557Y-3.2087
X4.9557Y-3.6024
X5.1772Y-1.8504
X5.1772Y-3.8189
T5
X4.813Y-3.0118
X4.4193Y-3.7992
X4.2224Y-3.7992
X4.4193Y-3.0118
X4.2224Y-3.0118
X5.0098Y-3.7992
T0
M30
