%TF.GenerationSoftware,KiCad,Pcbnew,(5.1.6)-1*%
%TF.CreationDate,2021-07-30T20:13:56+02:00*%
%TF.ProjectId,mu-ltz,6d752d6c-747a-42e6-9b69-6361645f7063,rev?*%
%TF.SameCoordinates,Original*%
%TF.FileFunction,Copper,L2,Bot*%
%TF.FilePolarity,Positive*%
%FSLAX46Y46*%
G04 Gerber Fmt 4.6, Leading zero omitted, Abs format (unit mm)*
G04 Created by KiCad (PCBNEW (5.1.6)-1) date 2021-07-30 20:13:56*
%MOMM*%
%LPD*%
G01*
G04 APERTURE LIST*
%TA.AperFunction,ComponentPad*%
%ADD10R,1.600000X1.600000*%
%TD*%
%TA.AperFunction,ComponentPad*%
%ADD11O,1.600000X1.600000*%
%TD*%
%TA.AperFunction,ComponentPad*%
%ADD12C,2.499360*%
%TD*%
%TA.AperFunction,ViaPad*%
%ADD13C,2.000000*%
%TD*%
%TA.AperFunction,ViaPad*%
%ADD14C,1.500000*%
%TD*%
%TA.AperFunction,ViaPad*%
%ADD15C,0.800000*%
%TD*%
%TA.AperFunction,Conductor*%
%ADD16C,0.254000*%
%TD*%
G04 APERTURE END LIST*
%TO.P,U1,8*%
%TO.N,Net-(R1-Pad2)*%
%TA.AperFunction,ComponentPad*%
G36*
G01*
X110640488Y-54720488D02*
X110640488Y-54720488D01*
G75*
G02*
X111489016Y-54720488I424264J-424264D01*
G01*
X111489016Y-54720488D01*
G75*
G02*
X111489016Y-55569016I-424264J-424264D01*
G01*
X111489016Y-55569016D01*
G75*
G02*
X110640488Y-55569016I-424264J424264D01*
G01*
X110640488Y-55569016D01*
G75*
G02*
X110640488Y-54720488I424264J424264D01*
G01*
G37*
%TD.AperFunction*%
%TO.P,U1,7*%
%TO.N,/GND*%
%TA.AperFunction,ComponentPad*%
G36*
G01*
X112705240Y-55575736D02*
X112705240Y-55575736D01*
G75*
G02*
X113553768Y-55575736I424264J-424264D01*
G01*
X113553768Y-55575736D01*
G75*
G02*
X113553768Y-56424264I-424264J-424264D01*
G01*
X113553768Y-56424264D01*
G75*
G02*
X112705240Y-56424264I-424264J424264D01*
G01*
X112705240Y-56424264D01*
G75*
G02*
X112705240Y-55575736I424264J424264D01*
G01*
G37*
%TD.AperFunction*%
%TO.P,U1,6*%
%TO.N,Net-(R7-Pad1)*%
%TA.AperFunction,ComponentPad*%
G36*
G01*
X113560488Y-57640488D02*
X113560488Y-57640488D01*
G75*
G02*
X114409016Y-57640488I424264J-424264D01*
G01*
X114409016Y-57640488D01*
G75*
G02*
X114409016Y-58489016I-424264J-424264D01*
G01*
X114409016Y-58489016D01*
G75*
G02*
X113560488Y-58489016I-424264J424264D01*
G01*
X113560488Y-58489016D01*
G75*
G02*
X113560488Y-57640488I424264J424264D01*
G01*
G37*
%TD.AperFunction*%
%TO.P,U1,5*%
%TO.N,Net-(C1-Pad2)*%
%TA.AperFunction,ComponentPad*%
G36*
G01*
X112705240Y-59705240D02*
X112705240Y-59705240D01*
G75*
G02*
X113553768Y-59705240I424264J-424264D01*
G01*
X113553768Y-59705240D01*
G75*
G02*
X113553768Y-60553768I-424264J-424264D01*
G01*
X113553768Y-60553768D01*
G75*
G02*
X112705240Y-60553768I-424264J424264D01*
G01*
X112705240Y-60553768D01*
G75*
G02*
X112705240Y-59705240I424264J424264D01*
G01*
G37*
%TD.AperFunction*%
%TO.P,U1,4*%
%TO.N,Net-(C5-Pad1)*%
%TA.AperFunction,ComponentPad*%
G36*
G01*
X110640488Y-60560488D02*
X110640488Y-60560488D01*
G75*
G02*
X111489016Y-60560488I424264J-424264D01*
G01*
X111489016Y-60560488D01*
G75*
G02*
X111489016Y-61409016I-424264J-424264D01*
G01*
X111489016Y-61409016D01*
G75*
G02*
X110640488Y-61409016I-424264J424264D01*
G01*
X110640488Y-61409016D01*
G75*
G02*
X110640488Y-60560488I424264J424264D01*
G01*
G37*
%TD.AperFunction*%
%TO.P,U1,3*%
%TO.N,Net-(D2-Pad1)*%
%TA.AperFunction,ComponentPad*%
G36*
G01*
X108575736Y-59705240D02*
X108575736Y-59705240D01*
G75*
G02*
X109424264Y-59705240I424264J-424264D01*
G01*
X109424264Y-59705240D01*
G75*
G02*
X109424264Y-60553768I-424264J-424264D01*
G01*
X109424264Y-60553768D01*
G75*
G02*
X108575736Y-60553768I-424264J424264D01*
G01*
X108575736Y-60553768D01*
G75*
G02*
X108575736Y-59705240I424264J424264D01*
G01*
G37*
%TD.AperFunction*%
%TO.P,U1,2*%
%TO.N,Net-(D1-Pad2)*%
%TA.AperFunction,ComponentPad*%
G36*
G01*
X107720488Y-57640488D02*
X107720488Y-57640488D01*
G75*
G02*
X108569016Y-57640488I424264J-424264D01*
G01*
X108569016Y-57640488D01*
G75*
G02*
X108569016Y-58489016I-424264J-424264D01*
G01*
X108569016Y-58489016D01*
G75*
G02*
X107720488Y-58489016I-424264J424264D01*
G01*
X107720488Y-58489016D01*
G75*
G02*
X107720488Y-57640488I424264J424264D01*
G01*
G37*
%TD.AperFunction*%
%TO.P,U1,1*%
%TO.N,Net-(C2-Pad2)*%
%TA.AperFunction,ComponentPad*%
G36*
G01*
X108434315Y-55434315D02*
X108434315Y-55434315D01*
G75*
G02*
X109282843Y-55434315I424264J-424264D01*
G01*
X109565685Y-55717157D01*
G75*
G02*
X109565685Y-56565685I-424264J-424264D01*
G01*
X109565685Y-56565685D01*
G75*
G02*
X108717157Y-56565685I-424264J424264D01*
G01*
X108434315Y-56282843D01*
G75*
G02*
X108434315Y-55434315I424264J424264D01*
G01*
G37*
%TD.AperFunction*%
%TD*%
D10*
%TO.P,RN1,1*%
%TO.N,/GND*%
X120250000Y-55500000D03*
D11*
%TO.P,RN1,3*%
%TO.N,Net-(D2-Pad1)*%
X120250000Y-60580000D03*
%TO.P,RN1,2*%
%TO.N,Net-(R7-Pad1)*%
X120250000Y-58040000D03*
%TD*%
D12*
%TO.P,J10,1*%
%TO.N,Net-(J10-Pad1)*%
X107250000Y-96500000D03*
%TD*%
%TO.P,J9,1*%
%TO.N,Net-(J9-Pad1)*%
X112250000Y-96500000D03*
%TD*%
%TO.P,J4,1*%
%TO.N,Net-(C16-Pad1)*%
X122250000Y-76500000D03*
%TD*%
%TO.P,J2,1*%
%TO.N,/GND*%
X112250000Y-76500000D03*
%TD*%
%TO.P,J1,1*%
%TO.N,/GND*%
X107250000Y-76500000D03*
%TD*%
%TO.P,J6,1*%
%TO.N,/VCC*%
X127250000Y-96500000D03*
%TD*%
D13*
%TO.N,*%
X103000000Y-97000000D03*
X131500000Y-97000000D03*
X131500000Y-47000000D03*
X103000000Y-47000000D03*
%TO.N,/GND*%
X108625000Y-81500000D03*
X117250000Y-81500000D03*
D14*
X110722000Y-70250000D03*
D15*
X110356250Y-48643750D03*
X123000000Y-50000000D03*
X133250000Y-60750000D03*
X131250000Y-68500000D03*
D14*
X118556000Y-70250000D03*
D15*
X126500000Y-46750000D03*
D14*
X113333000Y-70250000D03*
%TO.N,/VCC*%
X126389000Y-70250000D03*
X108111000Y-70250000D03*
D13*
X125875000Y-91500000D03*
%TO.N,Net-(J9-Pad1)*%
X117250000Y-91500000D03*
D14*
X123778000Y-70250000D03*
D13*
%TO.N,Net-(J10-Pad1)*%
X108625000Y-91500000D03*
D14*
X121167000Y-70250000D03*
D13*
%TO.N,Net-(C16-Pad1)*%
X125875000Y-81500000D03*
D14*
X115944000Y-70250000D03*
%TD*%
D16*
%TO.N,/GND*%
G36*
X131953893Y-44707670D02*
G01*
X132390498Y-44839489D01*
X132793185Y-45053600D01*
X133146612Y-45341848D01*
X133437327Y-45693261D01*
X133654242Y-46094439D01*
X133789106Y-46530113D01*
X133840001Y-47014353D01*
X133840000Y-67967721D01*
X133792330Y-68453894D01*
X133665795Y-68873000D01*
X126565629Y-68873000D01*
X126525411Y-68865000D01*
X126252589Y-68865000D01*
X126212371Y-68873000D01*
X123954629Y-68873000D01*
X123914411Y-68865000D01*
X123641589Y-68865000D01*
X123601371Y-68873000D01*
X121343629Y-68873000D01*
X121303411Y-68865000D01*
X121030589Y-68865000D01*
X120990371Y-68873000D01*
X116120629Y-68873000D01*
X116080411Y-68865000D01*
X115807589Y-68865000D01*
X115767371Y-68873000D01*
X112000000Y-68873000D01*
X111975224Y-68875440D01*
X111951399Y-68882667D01*
X111929443Y-68894403D01*
X111910197Y-68910197D01*
X111894403Y-68929443D01*
X111882667Y-68951399D01*
X111875440Y-68975224D01*
X111873000Y-69000000D01*
X111873000Y-74623000D01*
X110500000Y-74623000D01*
X110475224Y-74625440D01*
X110451399Y-74632667D01*
X110429443Y-74644403D01*
X110410197Y-74660197D01*
X110394403Y-74679443D01*
X110382667Y-74701399D01*
X110375440Y-74725224D01*
X110373000Y-74750000D01*
X110373000Y-76324686D01*
X110356935Y-76552719D01*
X110373000Y-76679526D01*
X110373000Y-82750000D01*
X110375440Y-82774776D01*
X110382667Y-82798601D01*
X110394403Y-82820557D01*
X110410197Y-82839803D01*
X110429443Y-82855597D01*
X110451399Y-82867333D01*
X110475224Y-82874560D01*
X110500000Y-82877000D01*
X118500000Y-82877000D01*
X118524776Y-82874560D01*
X118548601Y-82867333D01*
X118570557Y-82855597D01*
X118589803Y-82839803D01*
X118605597Y-82820557D01*
X118617333Y-82798601D01*
X118624560Y-82774776D01*
X118627000Y-82750000D01*
X118627000Y-81338967D01*
X124240000Y-81338967D01*
X124240000Y-81661033D01*
X124302832Y-81976912D01*
X124426082Y-82274463D01*
X124605013Y-82542252D01*
X124832748Y-82769987D01*
X125100537Y-82948918D01*
X125398088Y-83072168D01*
X125713967Y-83135000D01*
X126036033Y-83135000D01*
X126351912Y-83072168D01*
X126649463Y-82948918D01*
X126917252Y-82769987D01*
X127144987Y-82542252D01*
X127323918Y-82274463D01*
X127447168Y-81976912D01*
X127510000Y-81661033D01*
X127510000Y-81338967D01*
X127447168Y-81023088D01*
X127323918Y-80725537D01*
X127144987Y-80457748D01*
X126917252Y-80230013D01*
X126649463Y-80051082D01*
X126351912Y-79927832D01*
X126036033Y-79865000D01*
X125713967Y-79865000D01*
X125398088Y-79927832D01*
X125100537Y-80051082D01*
X124832748Y-80230013D01*
X124605013Y-80457748D01*
X124426082Y-80725537D01*
X124302832Y-81023088D01*
X124240000Y-81338967D01*
X118627000Y-81338967D01*
X118627000Y-74877000D01*
X121286657Y-74877000D01*
X121048587Y-75036074D01*
X120786074Y-75298587D01*
X120579818Y-75607269D01*
X120437747Y-75950259D01*
X120365320Y-76314375D01*
X120365320Y-76685625D01*
X120437747Y-77049741D01*
X120579818Y-77392731D01*
X120786074Y-77701413D01*
X121048587Y-77963926D01*
X121357269Y-78170182D01*
X121700259Y-78312253D01*
X122064375Y-78384680D01*
X122435625Y-78384680D01*
X122799741Y-78312253D01*
X123142731Y-78170182D01*
X123451413Y-77963926D01*
X123713926Y-77701413D01*
X123920182Y-77392731D01*
X124062253Y-77049741D01*
X124134680Y-76685625D01*
X124134680Y-76314375D01*
X124062253Y-75950259D01*
X123920182Y-75607269D01*
X123713926Y-75298587D01*
X123451413Y-75036074D01*
X123213343Y-74877000D01*
X133536674Y-74877000D01*
X133654242Y-75094439D01*
X133789106Y-75530113D01*
X133840001Y-76014353D01*
X133840000Y-96967721D01*
X133792330Y-97453894D01*
X133660512Y-97890497D01*
X133446399Y-98293186D01*
X133158150Y-98646613D01*
X132806739Y-98937327D01*
X132405564Y-99154240D01*
X131969886Y-99289106D01*
X131485664Y-99340000D01*
X103032279Y-99340000D01*
X102546106Y-99292330D01*
X102109503Y-99160512D01*
X101706814Y-98946399D01*
X101353387Y-98658150D01*
X101062673Y-98306739D01*
X100845760Y-97905564D01*
X100710894Y-97469886D01*
X100660000Y-96985664D01*
X100660000Y-96838967D01*
X101365000Y-96838967D01*
X101365000Y-97161033D01*
X101427832Y-97476912D01*
X101551082Y-97774463D01*
X101730013Y-98042252D01*
X101957748Y-98269987D01*
X102225537Y-98448918D01*
X102523088Y-98572168D01*
X102838967Y-98635000D01*
X103161033Y-98635000D01*
X103476912Y-98572168D01*
X103774463Y-98448918D01*
X104042252Y-98269987D01*
X104269987Y-98042252D01*
X104448918Y-97774463D01*
X104572168Y-97476912D01*
X104635000Y-97161033D01*
X104635000Y-96838967D01*
X104572168Y-96523088D01*
X104485717Y-96314375D01*
X105365320Y-96314375D01*
X105365320Y-96685625D01*
X105437747Y-97049741D01*
X105579818Y-97392731D01*
X105786074Y-97701413D01*
X106048587Y-97963926D01*
X106357269Y-98170182D01*
X106700259Y-98312253D01*
X107064375Y-98384680D01*
X107435625Y-98384680D01*
X107799741Y-98312253D01*
X108142731Y-98170182D01*
X108451413Y-97963926D01*
X108713926Y-97701413D01*
X108920182Y-97392731D01*
X109062253Y-97049741D01*
X109134680Y-96685625D01*
X109134680Y-96314375D01*
X110365320Y-96314375D01*
X110365320Y-96685625D01*
X110437747Y-97049741D01*
X110579818Y-97392731D01*
X110786074Y-97701413D01*
X111048587Y-97963926D01*
X111357269Y-98170182D01*
X111700259Y-98312253D01*
X112064375Y-98384680D01*
X112435625Y-98384680D01*
X112799741Y-98312253D01*
X113142731Y-98170182D01*
X113451413Y-97963926D01*
X113713926Y-97701413D01*
X113920182Y-97392731D01*
X114062253Y-97049741D01*
X114134680Y-96685625D01*
X114134680Y-96314375D01*
X125365320Y-96314375D01*
X125365320Y-96685625D01*
X125437747Y-97049741D01*
X125579818Y-97392731D01*
X125786074Y-97701413D01*
X126048587Y-97963926D01*
X126357269Y-98170182D01*
X126700259Y-98312253D01*
X127064375Y-98384680D01*
X127435625Y-98384680D01*
X127799741Y-98312253D01*
X128142731Y-98170182D01*
X128451413Y-97963926D01*
X128713926Y-97701413D01*
X128920182Y-97392731D01*
X129062253Y-97049741D01*
X129104178Y-96838967D01*
X129865000Y-96838967D01*
X129865000Y-97161033D01*
X129927832Y-97476912D01*
X130051082Y-97774463D01*
X130230013Y-98042252D01*
X130457748Y-98269987D01*
X130725537Y-98448918D01*
X131023088Y-98572168D01*
X131338967Y-98635000D01*
X131661033Y-98635000D01*
X131976912Y-98572168D01*
X132274463Y-98448918D01*
X132542252Y-98269987D01*
X132769987Y-98042252D01*
X132948918Y-97774463D01*
X133072168Y-97476912D01*
X133135000Y-97161033D01*
X133135000Y-96838967D01*
X133072168Y-96523088D01*
X132948918Y-96225537D01*
X132769987Y-95957748D01*
X132542252Y-95730013D01*
X132274463Y-95551082D01*
X131976912Y-95427832D01*
X131661033Y-95365000D01*
X131338967Y-95365000D01*
X131023088Y-95427832D01*
X130725537Y-95551082D01*
X130457748Y-95730013D01*
X130230013Y-95957748D01*
X130051082Y-96225537D01*
X129927832Y-96523088D01*
X129865000Y-96838967D01*
X129104178Y-96838967D01*
X129134680Y-96685625D01*
X129134680Y-96314375D01*
X129062253Y-95950259D01*
X128920182Y-95607269D01*
X128713926Y-95298587D01*
X128451413Y-95036074D01*
X128142731Y-94829818D01*
X127799741Y-94687747D01*
X127435625Y-94615320D01*
X127064375Y-94615320D01*
X126700259Y-94687747D01*
X126357269Y-94829818D01*
X126048587Y-95036074D01*
X125786074Y-95298587D01*
X125579818Y-95607269D01*
X125437747Y-95950259D01*
X125365320Y-96314375D01*
X114134680Y-96314375D01*
X114062253Y-95950259D01*
X113920182Y-95607269D01*
X113713926Y-95298587D01*
X113451413Y-95036074D01*
X113142731Y-94829818D01*
X112799741Y-94687747D01*
X112435625Y-94615320D01*
X112064375Y-94615320D01*
X111700259Y-94687747D01*
X111357269Y-94829818D01*
X111048587Y-95036074D01*
X110786074Y-95298587D01*
X110579818Y-95607269D01*
X110437747Y-95950259D01*
X110365320Y-96314375D01*
X109134680Y-96314375D01*
X109062253Y-95950259D01*
X108920182Y-95607269D01*
X108713926Y-95298587D01*
X108451413Y-95036074D01*
X108142731Y-94829818D01*
X107799741Y-94687747D01*
X107435625Y-94615320D01*
X107064375Y-94615320D01*
X106700259Y-94687747D01*
X106357269Y-94829818D01*
X106048587Y-95036074D01*
X105786074Y-95298587D01*
X105579818Y-95607269D01*
X105437747Y-95950259D01*
X105365320Y-96314375D01*
X104485717Y-96314375D01*
X104448918Y-96225537D01*
X104269987Y-95957748D01*
X104042252Y-95730013D01*
X103774463Y-95551082D01*
X103476912Y-95427832D01*
X103161033Y-95365000D01*
X102838967Y-95365000D01*
X102523088Y-95427832D01*
X102225537Y-95551082D01*
X101957748Y-95730013D01*
X101730013Y-95957748D01*
X101551082Y-96225537D01*
X101427832Y-96523088D01*
X101365000Y-96838967D01*
X100660000Y-96838967D01*
X100660000Y-91338967D01*
X106990000Y-91338967D01*
X106990000Y-91661033D01*
X107052832Y-91976912D01*
X107176082Y-92274463D01*
X107355013Y-92542252D01*
X107582748Y-92769987D01*
X107850537Y-92948918D01*
X108148088Y-93072168D01*
X108463967Y-93135000D01*
X108786033Y-93135000D01*
X109101912Y-93072168D01*
X109399463Y-92948918D01*
X109667252Y-92769987D01*
X109894987Y-92542252D01*
X110073918Y-92274463D01*
X110197168Y-91976912D01*
X110260000Y-91661033D01*
X110260000Y-91338967D01*
X115615000Y-91338967D01*
X115615000Y-91661033D01*
X115677832Y-91976912D01*
X115801082Y-92274463D01*
X115980013Y-92542252D01*
X116207748Y-92769987D01*
X116475537Y-92948918D01*
X116773088Y-93072168D01*
X117088967Y-93135000D01*
X117411033Y-93135000D01*
X117726912Y-93072168D01*
X118024463Y-92948918D01*
X118292252Y-92769987D01*
X118519987Y-92542252D01*
X118698918Y-92274463D01*
X118822168Y-91976912D01*
X118885000Y-91661033D01*
X118885000Y-91338967D01*
X124240000Y-91338967D01*
X124240000Y-91661033D01*
X124302832Y-91976912D01*
X124426082Y-92274463D01*
X124605013Y-92542252D01*
X124832748Y-92769987D01*
X125100537Y-92948918D01*
X125398088Y-93072168D01*
X125713967Y-93135000D01*
X126036033Y-93135000D01*
X126351912Y-93072168D01*
X126649463Y-92948918D01*
X126917252Y-92769987D01*
X127144987Y-92542252D01*
X127323918Y-92274463D01*
X127447168Y-91976912D01*
X127510000Y-91661033D01*
X127510000Y-91338967D01*
X127447168Y-91023088D01*
X127323918Y-90725537D01*
X127144987Y-90457748D01*
X126917252Y-90230013D01*
X126649463Y-90051082D01*
X126351912Y-89927832D01*
X126036033Y-89865000D01*
X125713967Y-89865000D01*
X125398088Y-89927832D01*
X125100537Y-90051082D01*
X124832748Y-90230013D01*
X124605013Y-90457748D01*
X124426082Y-90725537D01*
X124302832Y-91023088D01*
X124240000Y-91338967D01*
X118885000Y-91338967D01*
X118822168Y-91023088D01*
X118698918Y-90725537D01*
X118519987Y-90457748D01*
X118292252Y-90230013D01*
X118024463Y-90051082D01*
X117726912Y-89927832D01*
X117411033Y-89865000D01*
X117088967Y-89865000D01*
X116773088Y-89927832D01*
X116475537Y-90051082D01*
X116207748Y-90230013D01*
X115980013Y-90457748D01*
X115801082Y-90725537D01*
X115677832Y-91023088D01*
X115615000Y-91338967D01*
X110260000Y-91338967D01*
X110197168Y-91023088D01*
X110073918Y-90725537D01*
X109894987Y-90457748D01*
X109667252Y-90230013D01*
X109399463Y-90051082D01*
X109101912Y-89927832D01*
X108786033Y-89865000D01*
X108463967Y-89865000D01*
X108148088Y-89927832D01*
X107850537Y-90051082D01*
X107582748Y-90230013D01*
X107355013Y-90457748D01*
X107176082Y-90725537D01*
X107052832Y-91023088D01*
X106990000Y-91338967D01*
X100660000Y-91338967D01*
X100660000Y-77813377D01*
X106116229Y-77813377D01*
X106242104Y-78103315D01*
X106574262Y-78269139D01*
X106932387Y-78366975D01*
X107302719Y-78393065D01*
X107671025Y-78346405D01*
X108023151Y-78228789D01*
X108257896Y-78103315D01*
X108383771Y-77813377D01*
X107250000Y-76679605D01*
X106116229Y-77813377D01*
X100660000Y-77813377D01*
X100660000Y-76552719D01*
X105356935Y-76552719D01*
X105403595Y-76921025D01*
X105521211Y-77273151D01*
X105646685Y-77507896D01*
X105936623Y-77633771D01*
X107070395Y-76500000D01*
X107429605Y-76500000D01*
X108563377Y-77633771D01*
X108853315Y-77507896D01*
X109019139Y-77175738D01*
X109116975Y-76817613D01*
X109143065Y-76447281D01*
X109096405Y-76078975D01*
X108978789Y-75726849D01*
X108853315Y-75492104D01*
X108563377Y-75366229D01*
X107429605Y-76500000D01*
X107070395Y-76500000D01*
X105936623Y-75366229D01*
X105646685Y-75492104D01*
X105480861Y-75824262D01*
X105383025Y-76182387D01*
X105356935Y-76552719D01*
X100660000Y-76552719D01*
X100660000Y-76032279D01*
X100707670Y-75546107D01*
X100816204Y-75186623D01*
X106116229Y-75186623D01*
X107250000Y-76320395D01*
X108383771Y-75186623D01*
X108257896Y-74896685D01*
X107925738Y-74730861D01*
X107567613Y-74633025D01*
X107197281Y-74606935D01*
X106828975Y-74653595D01*
X106476849Y-74771211D01*
X106242104Y-74896685D01*
X106116229Y-75186623D01*
X100816204Y-75186623D01*
X100839489Y-75109502D01*
X101053600Y-74706815D01*
X101341848Y-74353388D01*
X101693261Y-74062673D01*
X102094439Y-73845758D01*
X102530113Y-73710894D01*
X102991840Y-73662365D01*
X103016867Y-73664819D01*
X103033092Y-73669718D01*
X103048053Y-73677672D01*
X103061189Y-73688386D01*
X103071988Y-73701441D01*
X103080049Y-73716349D01*
X103085062Y-73732541D01*
X103093598Y-73813756D01*
X103098677Y-73838499D01*
X103102571Y-73878206D01*
X103102901Y-73879300D01*
X103103015Y-73880420D01*
X103116010Y-73922932D01*
X103119500Y-73939935D01*
X103125570Y-73954374D01*
X103139804Y-74001516D01*
X103140336Y-74002517D01*
X103140668Y-74003602D01*
X103166583Y-74051940D01*
X103169416Y-74058679D01*
X103173117Y-74064166D01*
X103200279Y-74115248D01*
X103200994Y-74116125D01*
X103201531Y-74117126D01*
X103241678Y-74166007D01*
X103281691Y-74215067D01*
X103282567Y-74215791D01*
X103283285Y-74216666D01*
X103332106Y-74256772D01*
X103380942Y-74297171D01*
X103381941Y-74297711D01*
X103382816Y-74298430D01*
X103438614Y-74328353D01*
X103494250Y-74358434D01*
X103495331Y-74358769D01*
X103496333Y-74359306D01*
X103556888Y-74377823D01*
X103617299Y-74396522D01*
X103618429Y-74396641D01*
X103619512Y-74396972D01*
X103682467Y-74403370D01*
X103705591Y-74405800D01*
X103710029Y-74406679D01*
X103713953Y-74406679D01*
X103745404Y-74409984D01*
X103747543Y-74409984D01*
X103747661Y-74409996D01*
X103747788Y-74409984D01*
X103754619Y-74409984D01*
X103779053Y-74409813D01*
X103808865Y-74406679D01*
X103838839Y-74406679D01*
X103848003Y-74405716D01*
X104187414Y-74367645D01*
X104245917Y-74355209D01*
X104304605Y-74343589D01*
X104313408Y-74340864D01*
X104638961Y-74237593D01*
X104693908Y-74214042D01*
X104749249Y-74191233D01*
X104757355Y-74186850D01*
X105056649Y-74022312D01*
X105106005Y-73988517D01*
X105155832Y-73955412D01*
X105162932Y-73949538D01*
X105424567Y-73730000D01*
X105466411Y-73687270D01*
X105508865Y-73645112D01*
X105514689Y-73637970D01*
X105728700Y-73371796D01*
X105761450Y-73321749D01*
X105794906Y-73272148D01*
X105799232Y-73264011D01*
X105957466Y-72961337D01*
X105979862Y-72905905D01*
X106003056Y-72850729D01*
X106005719Y-72841907D01*
X106102150Y-72514262D01*
X106113349Y-72455554D01*
X106125388Y-72396905D01*
X106126287Y-72387733D01*
X106157241Y-72047599D01*
X106156823Y-71987783D01*
X106157241Y-71927967D01*
X106156342Y-71918796D01*
X106120642Y-71579126D01*
X106108610Y-71520514D01*
X106097405Y-71461769D01*
X106094741Y-71452947D01*
X105993745Y-71126681D01*
X105970565Y-71071538D01*
X105948156Y-71016073D01*
X105943829Y-71007936D01*
X105781384Y-70707500D01*
X105747939Y-70657916D01*
X105715179Y-70607853D01*
X105709354Y-70600712D01*
X105491648Y-70337551D01*
X105449212Y-70295410D01*
X105407349Y-70252661D01*
X105400248Y-70246787D01*
X105236932Y-70113589D01*
X106726000Y-70113589D01*
X106726000Y-70386411D01*
X106779225Y-70653989D01*
X106883629Y-70906043D01*
X107035201Y-71132886D01*
X107228114Y-71325799D01*
X107454957Y-71477371D01*
X107707011Y-71581775D01*
X107974589Y-71635000D01*
X108247411Y-71635000D01*
X108514989Y-71581775D01*
X108767043Y-71477371D01*
X108993886Y-71325799D01*
X109186799Y-71132886D01*
X109338371Y-70906043D01*
X109442775Y-70653989D01*
X109496000Y-70386411D01*
X109496000Y-70113589D01*
X109442775Y-69846011D01*
X109338371Y-69593957D01*
X109186799Y-69367114D01*
X108993886Y-69174201D01*
X108767043Y-69022629D01*
X108514989Y-68918225D01*
X108247411Y-68865000D01*
X107974589Y-68865000D01*
X107707011Y-68918225D01*
X107454957Y-69022629D01*
X107228114Y-69174201D01*
X107035201Y-69367114D01*
X106883629Y-69593957D01*
X106779225Y-69846011D01*
X106726000Y-70113589D01*
X105236932Y-70113589D01*
X105135574Y-70030924D01*
X105085716Y-69997799D01*
X105036393Y-69964026D01*
X105028287Y-69959643D01*
X104726725Y-69799299D01*
X104671433Y-69776510D01*
X104616437Y-69752938D01*
X104607634Y-69750213D01*
X104280671Y-69651497D01*
X104222000Y-69639880D01*
X104163479Y-69627441D01*
X104154314Y-69626478D01*
X103814404Y-69593150D01*
X103752441Y-69593150D01*
X103690184Y-69592715D01*
X103687904Y-69593150D01*
X103685594Y-69593150D01*
X103624816Y-69605185D01*
X103563656Y-69616852D01*
X103561504Y-69617722D01*
X103559239Y-69618170D01*
X103501893Y-69641806D01*
X103444226Y-69665105D01*
X103442289Y-69666373D01*
X103440148Y-69667255D01*
X103388390Y-69701643D01*
X103336443Y-69735636D01*
X103334790Y-69737255D01*
X103332860Y-69738537D01*
X103288739Y-69782351D01*
X103244412Y-69825759D01*
X103243106Y-69827667D01*
X103241460Y-69829301D01*
X103206667Y-69880884D01*
X103171639Y-69932041D01*
X103170728Y-69934165D01*
X103169431Y-69936089D01*
X103145336Y-69993409D01*
X103120895Y-70050434D01*
X103120414Y-70052699D01*
X103119516Y-70054834D01*
X103107023Y-70115697D01*
X103094113Y-70176429D01*
X103093649Y-70180848D01*
X103093615Y-70181012D01*
X103093614Y-70181179D01*
X103093150Y-70185593D01*
X103085181Y-70266868D01*
X103080283Y-70283091D01*
X103072326Y-70298055D01*
X103061615Y-70311188D01*
X103048559Y-70321989D01*
X103033652Y-70330049D01*
X103017459Y-70335062D01*
X103000303Y-70336865D01*
X102546106Y-70292330D01*
X102109503Y-70160512D01*
X101706814Y-69946399D01*
X101353387Y-69658150D01*
X101062673Y-69306739D01*
X100845760Y-68905564D01*
X100710894Y-68469886D01*
X100660000Y-67985664D01*
X100660000Y-58108363D01*
X103968160Y-58108363D01*
X104123771Y-59513974D01*
X104126792Y-59530802D01*
X104376792Y-60530802D01*
X104386408Y-60556796D01*
X104886408Y-61556796D01*
X104894330Y-61570447D01*
X105394330Y-62320447D01*
X105410197Y-62339803D01*
X106910197Y-63839803D01*
X106929553Y-63855670D01*
X107679553Y-64355670D01*
X107702833Y-64367917D01*
X108952833Y-64867917D01*
X108969198Y-64873208D01*
X109969198Y-65123208D01*
X109989087Y-65126530D01*
X111083476Y-65220919D01*
X111104728Y-65220967D01*
X112260339Y-65126578D01*
X112280802Y-65123208D01*
X113280802Y-64873208D01*
X113290161Y-64870483D01*
X114040161Y-64620483D01*
X114056796Y-64613592D01*
X114556796Y-64363592D01*
X114576200Y-64351600D01*
X115576200Y-63601600D01*
X115589803Y-63589803D01*
X116839803Y-62339803D01*
X116858902Y-62315341D01*
X117608902Y-61065341D01*
X117620483Y-61040161D01*
X117870483Y-60290161D01*
X117873208Y-60280802D01*
X118123208Y-59280802D01*
X118126578Y-59260339D01*
X118220967Y-58104728D01*
X118221077Y-58085494D01*
X118126688Y-56741105D01*
X118120483Y-56709839D01*
X117620483Y-55209839D01*
X117613592Y-55193204D01*
X117363592Y-54693204D01*
X117355670Y-54679553D01*
X116902635Y-54000000D01*
X118623000Y-54000000D01*
X118623000Y-56750000D01*
X118625440Y-56774776D01*
X118632667Y-56798601D01*
X118644403Y-56820557D01*
X118660197Y-56839803D01*
X118679443Y-56855597D01*
X118701399Y-56867333D01*
X118725224Y-56874560D01*
X118750000Y-56877000D01*
X119182431Y-56877000D01*
X119205820Y-56889502D01*
X119325518Y-56925812D01*
X119333961Y-56926643D01*
X119135363Y-57125241D01*
X118978320Y-57360273D01*
X118870147Y-57621426D01*
X118815000Y-57898665D01*
X118815000Y-58181335D01*
X118870147Y-58458574D01*
X118978320Y-58719727D01*
X119135363Y-58954759D01*
X119335241Y-59154637D01*
X119567759Y-59310000D01*
X119335241Y-59465363D01*
X119135363Y-59665241D01*
X118978320Y-59900273D01*
X118870147Y-60161426D01*
X118815000Y-60438665D01*
X118815000Y-60721335D01*
X118870147Y-60998574D01*
X118978320Y-61259727D01*
X119135363Y-61494759D01*
X119335241Y-61694637D01*
X119570273Y-61851680D01*
X119831426Y-61959853D01*
X120108665Y-62015000D01*
X120391335Y-62015000D01*
X120668574Y-61959853D01*
X120929727Y-61851680D01*
X121164759Y-61694637D01*
X121364637Y-61494759D01*
X121521680Y-61259727D01*
X121629853Y-60998574D01*
X121685000Y-60721335D01*
X121685000Y-60438665D01*
X121629853Y-60161426D01*
X121521680Y-59900273D01*
X121364637Y-59665241D01*
X121164759Y-59465363D01*
X120932241Y-59310000D01*
X121164759Y-59154637D01*
X121364637Y-58954759D01*
X121521680Y-58719727D01*
X121629853Y-58458574D01*
X121685000Y-58181335D01*
X121685000Y-57898665D01*
X121629853Y-57621426D01*
X121521680Y-57360273D01*
X121364637Y-57125241D01*
X121166039Y-56926643D01*
X121174482Y-56925812D01*
X121294180Y-56889502D01*
X121317569Y-56877000D01*
X121750000Y-56877000D01*
X121774776Y-56874560D01*
X121798601Y-56867333D01*
X121820557Y-56855597D01*
X121839803Y-56839803D01*
X121855597Y-56820557D01*
X121867333Y-56798601D01*
X121874560Y-56774776D01*
X121877000Y-56750000D01*
X121877000Y-54000000D01*
X121874560Y-53975224D01*
X121867333Y-53951399D01*
X121855597Y-53929443D01*
X121839803Y-53910197D01*
X121820557Y-53894403D01*
X121798601Y-53882667D01*
X121774776Y-53875440D01*
X121750000Y-53873000D01*
X118750000Y-53873000D01*
X118725224Y-53875440D01*
X118701399Y-53882667D01*
X118679443Y-53894403D01*
X118660197Y-53910197D01*
X118644403Y-53929443D01*
X118632667Y-53951399D01*
X118625440Y-53975224D01*
X118623000Y-54000000D01*
X116902635Y-54000000D01*
X116855670Y-53929553D01*
X116839803Y-53910197D01*
X115089803Y-52160197D01*
X115077866Y-52149671D01*
X115056796Y-52136408D01*
X113556796Y-51386408D01*
X113530802Y-51376792D01*
X112530802Y-51126792D01*
X112513974Y-51123771D01*
X111108363Y-50968160D01*
X111082053Y-50967990D01*
X109487664Y-51123601D01*
X109459839Y-51129517D01*
X107959839Y-51629517D01*
X107929553Y-51644330D01*
X106429553Y-52644330D01*
X106410197Y-52660197D01*
X105660197Y-53410197D01*
X105644330Y-53429553D01*
X104644330Y-54929553D01*
X104629517Y-54959839D01*
X104379517Y-55709839D01*
X104376792Y-55719198D01*
X104126792Y-56719198D01*
X104123842Y-56735397D01*
X103968231Y-58079786D01*
X103968160Y-58108363D01*
X100660000Y-58108363D01*
X100660000Y-47032279D01*
X100678954Y-46838967D01*
X101365000Y-46838967D01*
X101365000Y-47161033D01*
X101427832Y-47476912D01*
X101551082Y-47774463D01*
X101730013Y-48042252D01*
X101957748Y-48269987D01*
X102225537Y-48448918D01*
X102523088Y-48572168D01*
X102838967Y-48635000D01*
X103161033Y-48635000D01*
X103476912Y-48572168D01*
X103774463Y-48448918D01*
X104042252Y-48269987D01*
X104269987Y-48042252D01*
X104448918Y-47774463D01*
X104572168Y-47476912D01*
X104635000Y-47161033D01*
X104635000Y-46838967D01*
X129865000Y-46838967D01*
X129865000Y-47161033D01*
X129927832Y-47476912D01*
X130051082Y-47774463D01*
X130230013Y-48042252D01*
X130457748Y-48269987D01*
X130725537Y-48448918D01*
X131023088Y-48572168D01*
X131338967Y-48635000D01*
X131661033Y-48635000D01*
X131976912Y-48572168D01*
X132274463Y-48448918D01*
X132542252Y-48269987D01*
X132769987Y-48042252D01*
X132948918Y-47774463D01*
X133072168Y-47476912D01*
X133135000Y-47161033D01*
X133135000Y-46838967D01*
X133072168Y-46523088D01*
X132948918Y-46225537D01*
X132769987Y-45957748D01*
X132542252Y-45730013D01*
X132274463Y-45551082D01*
X131976912Y-45427832D01*
X131661033Y-45365000D01*
X131338967Y-45365000D01*
X131023088Y-45427832D01*
X130725537Y-45551082D01*
X130457748Y-45730013D01*
X130230013Y-45957748D01*
X130051082Y-46225537D01*
X129927832Y-46523088D01*
X129865000Y-46838967D01*
X104635000Y-46838967D01*
X104572168Y-46523088D01*
X104448918Y-46225537D01*
X104269987Y-45957748D01*
X104042252Y-45730013D01*
X103774463Y-45551082D01*
X103476912Y-45427832D01*
X103161033Y-45365000D01*
X102838967Y-45365000D01*
X102523088Y-45427832D01*
X102225537Y-45551082D01*
X101957748Y-45730013D01*
X101730013Y-45957748D01*
X101551082Y-46225537D01*
X101427832Y-46523088D01*
X101365000Y-46838967D01*
X100678954Y-46838967D01*
X100707670Y-46546107D01*
X100839489Y-46109502D01*
X101053600Y-45706815D01*
X101341848Y-45353388D01*
X101693261Y-45062673D01*
X102094439Y-44845758D01*
X102530113Y-44710894D01*
X103014344Y-44660000D01*
X131467721Y-44660000D01*
X131953893Y-44707670D01*
G37*
X131953893Y-44707670D02*
X132390498Y-44839489D01*
X132793185Y-45053600D01*
X133146612Y-45341848D01*
X133437327Y-45693261D01*
X133654242Y-46094439D01*
X133789106Y-46530113D01*
X133840001Y-47014353D01*
X133840000Y-67967721D01*
X133792330Y-68453894D01*
X133665795Y-68873000D01*
X126565629Y-68873000D01*
X126525411Y-68865000D01*
X126252589Y-68865000D01*
X126212371Y-68873000D01*
X123954629Y-68873000D01*
X123914411Y-68865000D01*
X123641589Y-68865000D01*
X123601371Y-68873000D01*
X121343629Y-68873000D01*
X121303411Y-68865000D01*
X121030589Y-68865000D01*
X120990371Y-68873000D01*
X116120629Y-68873000D01*
X116080411Y-68865000D01*
X115807589Y-68865000D01*
X115767371Y-68873000D01*
X112000000Y-68873000D01*
X111975224Y-68875440D01*
X111951399Y-68882667D01*
X111929443Y-68894403D01*
X111910197Y-68910197D01*
X111894403Y-68929443D01*
X111882667Y-68951399D01*
X111875440Y-68975224D01*
X111873000Y-69000000D01*
X111873000Y-74623000D01*
X110500000Y-74623000D01*
X110475224Y-74625440D01*
X110451399Y-74632667D01*
X110429443Y-74644403D01*
X110410197Y-74660197D01*
X110394403Y-74679443D01*
X110382667Y-74701399D01*
X110375440Y-74725224D01*
X110373000Y-74750000D01*
X110373000Y-76324686D01*
X110356935Y-76552719D01*
X110373000Y-76679526D01*
X110373000Y-82750000D01*
X110375440Y-82774776D01*
X110382667Y-82798601D01*
X110394403Y-82820557D01*
X110410197Y-82839803D01*
X110429443Y-82855597D01*
X110451399Y-82867333D01*
X110475224Y-82874560D01*
X110500000Y-82877000D01*
X118500000Y-82877000D01*
X118524776Y-82874560D01*
X118548601Y-82867333D01*
X118570557Y-82855597D01*
X118589803Y-82839803D01*
X118605597Y-82820557D01*
X118617333Y-82798601D01*
X118624560Y-82774776D01*
X118627000Y-82750000D01*
X118627000Y-81338967D01*
X124240000Y-81338967D01*
X124240000Y-81661033D01*
X124302832Y-81976912D01*
X124426082Y-82274463D01*
X124605013Y-82542252D01*
X124832748Y-82769987D01*
X125100537Y-82948918D01*
X125398088Y-83072168D01*
X125713967Y-83135000D01*
X126036033Y-83135000D01*
X126351912Y-83072168D01*
X126649463Y-82948918D01*
X126917252Y-82769987D01*
X127144987Y-82542252D01*
X127323918Y-82274463D01*
X127447168Y-81976912D01*
X127510000Y-81661033D01*
X127510000Y-81338967D01*
X127447168Y-81023088D01*
X127323918Y-80725537D01*
X127144987Y-80457748D01*
X126917252Y-80230013D01*
X126649463Y-80051082D01*
X126351912Y-79927832D01*
X126036033Y-79865000D01*
X125713967Y-79865000D01*
X125398088Y-79927832D01*
X125100537Y-80051082D01*
X124832748Y-80230013D01*
X124605013Y-80457748D01*
X124426082Y-80725537D01*
X124302832Y-81023088D01*
X124240000Y-81338967D01*
X118627000Y-81338967D01*
X118627000Y-74877000D01*
X121286657Y-74877000D01*
X121048587Y-75036074D01*
X120786074Y-75298587D01*
X120579818Y-75607269D01*
X120437747Y-75950259D01*
X120365320Y-76314375D01*
X120365320Y-76685625D01*
X120437747Y-77049741D01*
X120579818Y-77392731D01*
X120786074Y-77701413D01*
X121048587Y-77963926D01*
X121357269Y-78170182D01*
X121700259Y-78312253D01*
X122064375Y-78384680D01*
X122435625Y-78384680D01*
X122799741Y-78312253D01*
X123142731Y-78170182D01*
X123451413Y-77963926D01*
X123713926Y-77701413D01*
X123920182Y-77392731D01*
X124062253Y-77049741D01*
X124134680Y-76685625D01*
X124134680Y-76314375D01*
X124062253Y-75950259D01*
X123920182Y-75607269D01*
X123713926Y-75298587D01*
X123451413Y-75036074D01*
X123213343Y-74877000D01*
X133536674Y-74877000D01*
X133654242Y-75094439D01*
X133789106Y-75530113D01*
X133840001Y-76014353D01*
X133840000Y-96967721D01*
X133792330Y-97453894D01*
X133660512Y-97890497D01*
X133446399Y-98293186D01*
X133158150Y-98646613D01*
X132806739Y-98937327D01*
X132405564Y-99154240D01*
X131969886Y-99289106D01*
X131485664Y-99340000D01*
X103032279Y-99340000D01*
X102546106Y-99292330D01*
X102109503Y-99160512D01*
X101706814Y-98946399D01*
X101353387Y-98658150D01*
X101062673Y-98306739D01*
X100845760Y-97905564D01*
X100710894Y-97469886D01*
X100660000Y-96985664D01*
X100660000Y-96838967D01*
X101365000Y-96838967D01*
X101365000Y-97161033D01*
X101427832Y-97476912D01*
X101551082Y-97774463D01*
X101730013Y-98042252D01*
X101957748Y-98269987D01*
X102225537Y-98448918D01*
X102523088Y-98572168D01*
X102838967Y-98635000D01*
X103161033Y-98635000D01*
X103476912Y-98572168D01*
X103774463Y-98448918D01*
X104042252Y-98269987D01*
X104269987Y-98042252D01*
X104448918Y-97774463D01*
X104572168Y-97476912D01*
X104635000Y-97161033D01*
X104635000Y-96838967D01*
X104572168Y-96523088D01*
X104485717Y-96314375D01*
X105365320Y-96314375D01*
X105365320Y-96685625D01*
X105437747Y-97049741D01*
X105579818Y-97392731D01*
X105786074Y-97701413D01*
X106048587Y-97963926D01*
X106357269Y-98170182D01*
X106700259Y-98312253D01*
X107064375Y-98384680D01*
X107435625Y-98384680D01*
X107799741Y-98312253D01*
X108142731Y-98170182D01*
X108451413Y-97963926D01*
X108713926Y-97701413D01*
X108920182Y-97392731D01*
X109062253Y-97049741D01*
X109134680Y-96685625D01*
X109134680Y-96314375D01*
X110365320Y-96314375D01*
X110365320Y-96685625D01*
X110437747Y-97049741D01*
X110579818Y-97392731D01*
X110786074Y-97701413D01*
X111048587Y-97963926D01*
X111357269Y-98170182D01*
X111700259Y-98312253D01*
X112064375Y-98384680D01*
X112435625Y-98384680D01*
X112799741Y-98312253D01*
X113142731Y-98170182D01*
X113451413Y-97963926D01*
X113713926Y-97701413D01*
X113920182Y-97392731D01*
X114062253Y-97049741D01*
X114134680Y-96685625D01*
X114134680Y-96314375D01*
X125365320Y-96314375D01*
X125365320Y-96685625D01*
X125437747Y-97049741D01*
X125579818Y-97392731D01*
X125786074Y-97701413D01*
X126048587Y-97963926D01*
X126357269Y-98170182D01*
X126700259Y-98312253D01*
X127064375Y-98384680D01*
X127435625Y-98384680D01*
X127799741Y-98312253D01*
X128142731Y-98170182D01*
X128451413Y-97963926D01*
X128713926Y-97701413D01*
X128920182Y-97392731D01*
X129062253Y-97049741D01*
X129104178Y-96838967D01*
X129865000Y-96838967D01*
X129865000Y-97161033D01*
X129927832Y-97476912D01*
X130051082Y-97774463D01*
X130230013Y-98042252D01*
X130457748Y-98269987D01*
X130725537Y-98448918D01*
X131023088Y-98572168D01*
X131338967Y-98635000D01*
X131661033Y-98635000D01*
X131976912Y-98572168D01*
X132274463Y-98448918D01*
X132542252Y-98269987D01*
X132769987Y-98042252D01*
X132948918Y-97774463D01*
X133072168Y-97476912D01*
X133135000Y-97161033D01*
X133135000Y-96838967D01*
X133072168Y-96523088D01*
X132948918Y-96225537D01*
X132769987Y-95957748D01*
X132542252Y-95730013D01*
X132274463Y-95551082D01*
X131976912Y-95427832D01*
X131661033Y-95365000D01*
X131338967Y-95365000D01*
X131023088Y-95427832D01*
X130725537Y-95551082D01*
X130457748Y-95730013D01*
X130230013Y-95957748D01*
X130051082Y-96225537D01*
X129927832Y-96523088D01*
X129865000Y-96838967D01*
X129104178Y-96838967D01*
X129134680Y-96685625D01*
X129134680Y-96314375D01*
X129062253Y-95950259D01*
X128920182Y-95607269D01*
X128713926Y-95298587D01*
X128451413Y-95036074D01*
X128142731Y-94829818D01*
X127799741Y-94687747D01*
X127435625Y-94615320D01*
X127064375Y-94615320D01*
X126700259Y-94687747D01*
X126357269Y-94829818D01*
X126048587Y-95036074D01*
X125786074Y-95298587D01*
X125579818Y-95607269D01*
X125437747Y-95950259D01*
X125365320Y-96314375D01*
X114134680Y-96314375D01*
X114062253Y-95950259D01*
X113920182Y-95607269D01*
X113713926Y-95298587D01*
X113451413Y-95036074D01*
X113142731Y-94829818D01*
X112799741Y-94687747D01*
X112435625Y-94615320D01*
X112064375Y-94615320D01*
X111700259Y-94687747D01*
X111357269Y-94829818D01*
X111048587Y-95036074D01*
X110786074Y-95298587D01*
X110579818Y-95607269D01*
X110437747Y-95950259D01*
X110365320Y-96314375D01*
X109134680Y-96314375D01*
X109062253Y-95950259D01*
X108920182Y-95607269D01*
X108713926Y-95298587D01*
X108451413Y-95036074D01*
X108142731Y-94829818D01*
X107799741Y-94687747D01*
X107435625Y-94615320D01*
X107064375Y-94615320D01*
X106700259Y-94687747D01*
X106357269Y-94829818D01*
X106048587Y-95036074D01*
X105786074Y-95298587D01*
X105579818Y-95607269D01*
X105437747Y-95950259D01*
X105365320Y-96314375D01*
X104485717Y-96314375D01*
X104448918Y-96225537D01*
X104269987Y-95957748D01*
X104042252Y-95730013D01*
X103774463Y-95551082D01*
X103476912Y-95427832D01*
X103161033Y-95365000D01*
X102838967Y-95365000D01*
X102523088Y-95427832D01*
X102225537Y-95551082D01*
X101957748Y-95730013D01*
X101730013Y-95957748D01*
X101551082Y-96225537D01*
X101427832Y-96523088D01*
X101365000Y-96838967D01*
X100660000Y-96838967D01*
X100660000Y-91338967D01*
X106990000Y-91338967D01*
X106990000Y-91661033D01*
X107052832Y-91976912D01*
X107176082Y-92274463D01*
X107355013Y-92542252D01*
X107582748Y-92769987D01*
X107850537Y-92948918D01*
X108148088Y-93072168D01*
X108463967Y-93135000D01*
X108786033Y-93135000D01*
X109101912Y-93072168D01*
X109399463Y-92948918D01*
X109667252Y-92769987D01*
X109894987Y-92542252D01*
X110073918Y-92274463D01*
X110197168Y-91976912D01*
X110260000Y-91661033D01*
X110260000Y-91338967D01*
X115615000Y-91338967D01*
X115615000Y-91661033D01*
X115677832Y-91976912D01*
X115801082Y-92274463D01*
X115980013Y-92542252D01*
X116207748Y-92769987D01*
X116475537Y-92948918D01*
X116773088Y-93072168D01*
X117088967Y-93135000D01*
X117411033Y-93135000D01*
X117726912Y-93072168D01*
X118024463Y-92948918D01*
X118292252Y-92769987D01*
X118519987Y-92542252D01*
X118698918Y-92274463D01*
X118822168Y-91976912D01*
X118885000Y-91661033D01*
X118885000Y-91338967D01*
X124240000Y-91338967D01*
X124240000Y-91661033D01*
X124302832Y-91976912D01*
X124426082Y-92274463D01*
X124605013Y-92542252D01*
X124832748Y-92769987D01*
X125100537Y-92948918D01*
X125398088Y-93072168D01*
X125713967Y-93135000D01*
X126036033Y-93135000D01*
X126351912Y-93072168D01*
X126649463Y-92948918D01*
X126917252Y-92769987D01*
X127144987Y-92542252D01*
X127323918Y-92274463D01*
X127447168Y-91976912D01*
X127510000Y-91661033D01*
X127510000Y-91338967D01*
X127447168Y-91023088D01*
X127323918Y-90725537D01*
X127144987Y-90457748D01*
X126917252Y-90230013D01*
X126649463Y-90051082D01*
X126351912Y-89927832D01*
X126036033Y-89865000D01*
X125713967Y-89865000D01*
X125398088Y-89927832D01*
X125100537Y-90051082D01*
X124832748Y-90230013D01*
X124605013Y-90457748D01*
X124426082Y-90725537D01*
X124302832Y-91023088D01*
X124240000Y-91338967D01*
X118885000Y-91338967D01*
X118822168Y-91023088D01*
X118698918Y-90725537D01*
X118519987Y-90457748D01*
X118292252Y-90230013D01*
X118024463Y-90051082D01*
X117726912Y-89927832D01*
X117411033Y-89865000D01*
X117088967Y-89865000D01*
X116773088Y-89927832D01*
X116475537Y-90051082D01*
X116207748Y-90230013D01*
X115980013Y-90457748D01*
X115801082Y-90725537D01*
X115677832Y-91023088D01*
X115615000Y-91338967D01*
X110260000Y-91338967D01*
X110197168Y-91023088D01*
X110073918Y-90725537D01*
X109894987Y-90457748D01*
X109667252Y-90230013D01*
X109399463Y-90051082D01*
X109101912Y-89927832D01*
X108786033Y-89865000D01*
X108463967Y-89865000D01*
X108148088Y-89927832D01*
X107850537Y-90051082D01*
X107582748Y-90230013D01*
X107355013Y-90457748D01*
X107176082Y-90725537D01*
X107052832Y-91023088D01*
X106990000Y-91338967D01*
X100660000Y-91338967D01*
X100660000Y-77813377D01*
X106116229Y-77813377D01*
X106242104Y-78103315D01*
X106574262Y-78269139D01*
X106932387Y-78366975D01*
X107302719Y-78393065D01*
X107671025Y-78346405D01*
X108023151Y-78228789D01*
X108257896Y-78103315D01*
X108383771Y-77813377D01*
X107250000Y-76679605D01*
X106116229Y-77813377D01*
X100660000Y-77813377D01*
X100660000Y-76552719D01*
X105356935Y-76552719D01*
X105403595Y-76921025D01*
X105521211Y-77273151D01*
X105646685Y-77507896D01*
X105936623Y-77633771D01*
X107070395Y-76500000D01*
X107429605Y-76500000D01*
X108563377Y-77633771D01*
X108853315Y-77507896D01*
X109019139Y-77175738D01*
X109116975Y-76817613D01*
X109143065Y-76447281D01*
X109096405Y-76078975D01*
X108978789Y-75726849D01*
X108853315Y-75492104D01*
X108563377Y-75366229D01*
X107429605Y-76500000D01*
X107070395Y-76500000D01*
X105936623Y-75366229D01*
X105646685Y-75492104D01*
X105480861Y-75824262D01*
X105383025Y-76182387D01*
X105356935Y-76552719D01*
X100660000Y-76552719D01*
X100660000Y-76032279D01*
X100707670Y-75546107D01*
X100816204Y-75186623D01*
X106116229Y-75186623D01*
X107250000Y-76320395D01*
X108383771Y-75186623D01*
X108257896Y-74896685D01*
X107925738Y-74730861D01*
X107567613Y-74633025D01*
X107197281Y-74606935D01*
X106828975Y-74653595D01*
X106476849Y-74771211D01*
X106242104Y-74896685D01*
X106116229Y-75186623D01*
X100816204Y-75186623D01*
X100839489Y-75109502D01*
X101053600Y-74706815D01*
X101341848Y-74353388D01*
X101693261Y-74062673D01*
X102094439Y-73845758D01*
X102530113Y-73710894D01*
X102991840Y-73662365D01*
X103016867Y-73664819D01*
X103033092Y-73669718D01*
X103048053Y-73677672D01*
X103061189Y-73688386D01*
X103071988Y-73701441D01*
X103080049Y-73716349D01*
X103085062Y-73732541D01*
X103093598Y-73813756D01*
X103098677Y-73838499D01*
X103102571Y-73878206D01*
X103102901Y-73879300D01*
X103103015Y-73880420D01*
X103116010Y-73922932D01*
X103119500Y-73939935D01*
X103125570Y-73954374D01*
X103139804Y-74001516D01*
X103140336Y-74002517D01*
X103140668Y-74003602D01*
X103166583Y-74051940D01*
X103169416Y-74058679D01*
X103173117Y-74064166D01*
X103200279Y-74115248D01*
X103200994Y-74116125D01*
X103201531Y-74117126D01*
X103241678Y-74166007D01*
X103281691Y-74215067D01*
X103282567Y-74215791D01*
X103283285Y-74216666D01*
X103332106Y-74256772D01*
X103380942Y-74297171D01*
X103381941Y-74297711D01*
X103382816Y-74298430D01*
X103438614Y-74328353D01*
X103494250Y-74358434D01*
X103495331Y-74358769D01*
X103496333Y-74359306D01*
X103556888Y-74377823D01*
X103617299Y-74396522D01*
X103618429Y-74396641D01*
X103619512Y-74396972D01*
X103682467Y-74403370D01*
X103705591Y-74405800D01*
X103710029Y-74406679D01*
X103713953Y-74406679D01*
X103745404Y-74409984D01*
X103747543Y-74409984D01*
X103747661Y-74409996D01*
X103747788Y-74409984D01*
X103754619Y-74409984D01*
X103779053Y-74409813D01*
X103808865Y-74406679D01*
X103838839Y-74406679D01*
X103848003Y-74405716D01*
X104187414Y-74367645D01*
X104245917Y-74355209D01*
X104304605Y-74343589D01*
X104313408Y-74340864D01*
X104638961Y-74237593D01*
X104693908Y-74214042D01*
X104749249Y-74191233D01*
X104757355Y-74186850D01*
X105056649Y-74022312D01*
X105106005Y-73988517D01*
X105155832Y-73955412D01*
X105162932Y-73949538D01*
X105424567Y-73730000D01*
X105466411Y-73687270D01*
X105508865Y-73645112D01*
X105514689Y-73637970D01*
X105728700Y-73371796D01*
X105761450Y-73321749D01*
X105794906Y-73272148D01*
X105799232Y-73264011D01*
X105957466Y-72961337D01*
X105979862Y-72905905D01*
X106003056Y-72850729D01*
X106005719Y-72841907D01*
X106102150Y-72514262D01*
X106113349Y-72455554D01*
X106125388Y-72396905D01*
X106126287Y-72387733D01*
X106157241Y-72047599D01*
X106156823Y-71987783D01*
X106157241Y-71927967D01*
X106156342Y-71918796D01*
X106120642Y-71579126D01*
X106108610Y-71520514D01*
X106097405Y-71461769D01*
X106094741Y-71452947D01*
X105993745Y-71126681D01*
X105970565Y-71071538D01*
X105948156Y-71016073D01*
X105943829Y-71007936D01*
X105781384Y-70707500D01*
X105747939Y-70657916D01*
X105715179Y-70607853D01*
X105709354Y-70600712D01*
X105491648Y-70337551D01*
X105449212Y-70295410D01*
X105407349Y-70252661D01*
X105400248Y-70246787D01*
X105236932Y-70113589D01*
X106726000Y-70113589D01*
X106726000Y-70386411D01*
X106779225Y-70653989D01*
X106883629Y-70906043D01*
X107035201Y-71132886D01*
X107228114Y-71325799D01*
X107454957Y-71477371D01*
X107707011Y-71581775D01*
X107974589Y-71635000D01*
X108247411Y-71635000D01*
X108514989Y-71581775D01*
X108767043Y-71477371D01*
X108993886Y-71325799D01*
X109186799Y-71132886D01*
X109338371Y-70906043D01*
X109442775Y-70653989D01*
X109496000Y-70386411D01*
X109496000Y-70113589D01*
X109442775Y-69846011D01*
X109338371Y-69593957D01*
X109186799Y-69367114D01*
X108993886Y-69174201D01*
X108767043Y-69022629D01*
X108514989Y-68918225D01*
X108247411Y-68865000D01*
X107974589Y-68865000D01*
X107707011Y-68918225D01*
X107454957Y-69022629D01*
X107228114Y-69174201D01*
X107035201Y-69367114D01*
X106883629Y-69593957D01*
X106779225Y-69846011D01*
X106726000Y-70113589D01*
X105236932Y-70113589D01*
X105135574Y-70030924D01*
X105085716Y-69997799D01*
X105036393Y-69964026D01*
X105028287Y-69959643D01*
X104726725Y-69799299D01*
X104671433Y-69776510D01*
X104616437Y-69752938D01*
X104607634Y-69750213D01*
X104280671Y-69651497D01*
X104222000Y-69639880D01*
X104163479Y-69627441D01*
X104154314Y-69626478D01*
X103814404Y-69593150D01*
X103752441Y-69593150D01*
X103690184Y-69592715D01*
X103687904Y-69593150D01*
X103685594Y-69593150D01*
X103624816Y-69605185D01*
X103563656Y-69616852D01*
X103561504Y-69617722D01*
X103559239Y-69618170D01*
X103501893Y-69641806D01*
X103444226Y-69665105D01*
X103442289Y-69666373D01*
X103440148Y-69667255D01*
X103388390Y-69701643D01*
X103336443Y-69735636D01*
X103334790Y-69737255D01*
X103332860Y-69738537D01*
X103288739Y-69782351D01*
X103244412Y-69825759D01*
X103243106Y-69827667D01*
X103241460Y-69829301D01*
X103206667Y-69880884D01*
X103171639Y-69932041D01*
X103170728Y-69934165D01*
X103169431Y-69936089D01*
X103145336Y-69993409D01*
X103120895Y-70050434D01*
X103120414Y-70052699D01*
X103119516Y-70054834D01*
X103107023Y-70115697D01*
X103094113Y-70176429D01*
X103093649Y-70180848D01*
X103093615Y-70181012D01*
X103093614Y-70181179D01*
X103093150Y-70185593D01*
X103085181Y-70266868D01*
X103080283Y-70283091D01*
X103072326Y-70298055D01*
X103061615Y-70311188D01*
X103048559Y-70321989D01*
X103033652Y-70330049D01*
X103017459Y-70335062D01*
X103000303Y-70336865D01*
X102546106Y-70292330D01*
X102109503Y-70160512D01*
X101706814Y-69946399D01*
X101353387Y-69658150D01*
X101062673Y-69306739D01*
X100845760Y-68905564D01*
X100710894Y-68469886D01*
X100660000Y-67985664D01*
X100660000Y-58108363D01*
X103968160Y-58108363D01*
X104123771Y-59513974D01*
X104126792Y-59530802D01*
X104376792Y-60530802D01*
X104386408Y-60556796D01*
X104886408Y-61556796D01*
X104894330Y-61570447D01*
X105394330Y-62320447D01*
X105410197Y-62339803D01*
X106910197Y-63839803D01*
X106929553Y-63855670D01*
X107679553Y-64355670D01*
X107702833Y-64367917D01*
X108952833Y-64867917D01*
X108969198Y-64873208D01*
X109969198Y-65123208D01*
X109989087Y-65126530D01*
X111083476Y-65220919D01*
X111104728Y-65220967D01*
X112260339Y-65126578D01*
X112280802Y-65123208D01*
X113280802Y-64873208D01*
X113290161Y-64870483D01*
X114040161Y-64620483D01*
X114056796Y-64613592D01*
X114556796Y-64363592D01*
X114576200Y-64351600D01*
X115576200Y-63601600D01*
X115589803Y-63589803D01*
X116839803Y-62339803D01*
X116858902Y-62315341D01*
X117608902Y-61065341D01*
X117620483Y-61040161D01*
X117870483Y-60290161D01*
X117873208Y-60280802D01*
X118123208Y-59280802D01*
X118126578Y-59260339D01*
X118220967Y-58104728D01*
X118221077Y-58085494D01*
X118126688Y-56741105D01*
X118120483Y-56709839D01*
X117620483Y-55209839D01*
X117613592Y-55193204D01*
X117363592Y-54693204D01*
X117355670Y-54679553D01*
X116902635Y-54000000D01*
X118623000Y-54000000D01*
X118623000Y-56750000D01*
X118625440Y-56774776D01*
X118632667Y-56798601D01*
X118644403Y-56820557D01*
X118660197Y-56839803D01*
X118679443Y-56855597D01*
X118701399Y-56867333D01*
X118725224Y-56874560D01*
X118750000Y-56877000D01*
X119182431Y-56877000D01*
X119205820Y-56889502D01*
X119325518Y-56925812D01*
X119333961Y-56926643D01*
X119135363Y-57125241D01*
X118978320Y-57360273D01*
X118870147Y-57621426D01*
X118815000Y-57898665D01*
X118815000Y-58181335D01*
X118870147Y-58458574D01*
X118978320Y-58719727D01*
X119135363Y-58954759D01*
X119335241Y-59154637D01*
X119567759Y-59310000D01*
X119335241Y-59465363D01*
X119135363Y-59665241D01*
X118978320Y-59900273D01*
X118870147Y-60161426D01*
X118815000Y-60438665D01*
X118815000Y-60721335D01*
X118870147Y-60998574D01*
X118978320Y-61259727D01*
X119135363Y-61494759D01*
X119335241Y-61694637D01*
X119570273Y-61851680D01*
X119831426Y-61959853D01*
X120108665Y-62015000D01*
X120391335Y-62015000D01*
X120668574Y-61959853D01*
X120929727Y-61851680D01*
X121164759Y-61694637D01*
X121364637Y-61494759D01*
X121521680Y-61259727D01*
X121629853Y-60998574D01*
X121685000Y-60721335D01*
X121685000Y-60438665D01*
X121629853Y-60161426D01*
X121521680Y-59900273D01*
X121364637Y-59665241D01*
X121164759Y-59465363D01*
X120932241Y-59310000D01*
X121164759Y-59154637D01*
X121364637Y-58954759D01*
X121521680Y-58719727D01*
X121629853Y-58458574D01*
X121685000Y-58181335D01*
X121685000Y-57898665D01*
X121629853Y-57621426D01*
X121521680Y-57360273D01*
X121364637Y-57125241D01*
X121166039Y-56926643D01*
X121174482Y-56925812D01*
X121294180Y-56889502D01*
X121317569Y-56877000D01*
X121750000Y-56877000D01*
X121774776Y-56874560D01*
X121798601Y-56867333D01*
X121820557Y-56855597D01*
X121839803Y-56839803D01*
X121855597Y-56820557D01*
X121867333Y-56798601D01*
X121874560Y-56774776D01*
X121877000Y-56750000D01*
X121877000Y-54000000D01*
X121874560Y-53975224D01*
X121867333Y-53951399D01*
X121855597Y-53929443D01*
X121839803Y-53910197D01*
X121820557Y-53894403D01*
X121798601Y-53882667D01*
X121774776Y-53875440D01*
X121750000Y-53873000D01*
X118750000Y-53873000D01*
X118725224Y-53875440D01*
X118701399Y-53882667D01*
X118679443Y-53894403D01*
X118660197Y-53910197D01*
X118644403Y-53929443D01*
X118632667Y-53951399D01*
X118625440Y-53975224D01*
X118623000Y-54000000D01*
X116902635Y-54000000D01*
X116855670Y-53929553D01*
X116839803Y-53910197D01*
X115089803Y-52160197D01*
X115077866Y-52149671D01*
X115056796Y-52136408D01*
X113556796Y-51386408D01*
X113530802Y-51376792D01*
X112530802Y-51126792D01*
X112513974Y-51123771D01*
X111108363Y-50968160D01*
X111082053Y-50967990D01*
X109487664Y-51123601D01*
X109459839Y-51129517D01*
X107959839Y-51629517D01*
X107929553Y-51644330D01*
X106429553Y-52644330D01*
X106410197Y-52660197D01*
X105660197Y-53410197D01*
X105644330Y-53429553D01*
X104644330Y-54929553D01*
X104629517Y-54959839D01*
X104379517Y-55709839D01*
X104376792Y-55719198D01*
X104126792Y-56719198D01*
X104123842Y-56735397D01*
X103968231Y-58079786D01*
X103968160Y-58108363D01*
X100660000Y-58108363D01*
X100660000Y-47032279D01*
X100678954Y-46838967D01*
X101365000Y-46838967D01*
X101365000Y-47161033D01*
X101427832Y-47476912D01*
X101551082Y-47774463D01*
X101730013Y-48042252D01*
X101957748Y-48269987D01*
X102225537Y-48448918D01*
X102523088Y-48572168D01*
X102838967Y-48635000D01*
X103161033Y-48635000D01*
X103476912Y-48572168D01*
X103774463Y-48448918D01*
X104042252Y-48269987D01*
X104269987Y-48042252D01*
X104448918Y-47774463D01*
X104572168Y-47476912D01*
X104635000Y-47161033D01*
X104635000Y-46838967D01*
X129865000Y-46838967D01*
X129865000Y-47161033D01*
X129927832Y-47476912D01*
X130051082Y-47774463D01*
X130230013Y-48042252D01*
X130457748Y-48269987D01*
X130725537Y-48448918D01*
X131023088Y-48572168D01*
X131338967Y-48635000D01*
X131661033Y-48635000D01*
X131976912Y-48572168D01*
X132274463Y-48448918D01*
X132542252Y-48269987D01*
X132769987Y-48042252D01*
X132948918Y-47774463D01*
X133072168Y-47476912D01*
X133135000Y-47161033D01*
X133135000Y-46838967D01*
X133072168Y-46523088D01*
X132948918Y-46225537D01*
X132769987Y-45957748D01*
X132542252Y-45730013D01*
X132274463Y-45551082D01*
X131976912Y-45427832D01*
X131661033Y-45365000D01*
X131338967Y-45365000D01*
X131023088Y-45427832D01*
X130725537Y-45551082D01*
X130457748Y-45730013D01*
X130230013Y-45957748D01*
X130051082Y-46225537D01*
X129927832Y-46523088D01*
X129865000Y-46838967D01*
X104635000Y-46838967D01*
X104572168Y-46523088D01*
X104448918Y-46225537D01*
X104269987Y-45957748D01*
X104042252Y-45730013D01*
X103774463Y-45551082D01*
X103476912Y-45427832D01*
X103161033Y-45365000D01*
X102838967Y-45365000D01*
X102523088Y-45427832D01*
X102225537Y-45551082D01*
X101957748Y-45730013D01*
X101730013Y-45957748D01*
X101551082Y-46225537D01*
X101427832Y-46523088D01*
X101365000Y-46838967D01*
X100678954Y-46838967D01*
X100707670Y-46546107D01*
X100839489Y-46109502D01*
X101053600Y-45706815D01*
X101341848Y-45353388D01*
X101693261Y-45062673D01*
X102094439Y-44845758D01*
X102530113Y-44710894D01*
X103014344Y-44660000D01*
X131467721Y-44660000D01*
X131953893Y-44707670D01*
%TD*%
M02*
