%TF.GenerationSoftware,KiCad,Pcbnew,(5.1.6)-1*%
%TF.CreationDate,2021-03-23T10:57:52+01:00*%
%TF.ProjectId,mu-ltz,6d752d6c-747a-42e6-9b69-6361645f7063,rev?*%
%TF.SameCoordinates,Original*%
%TF.FileFunction,Profile,NP*%
%FSLAX46Y46*%
G04 Gerber Fmt 4.6, Leading zero omitted, Abs format (unit mm)*
G04 Created by KiCad (PCBNEW (5.1.6)-1) date 2021-03-23 10:57:52*
%MOMM*%
%LPD*%
G01*
G04 APERTURE LIST*
%TA.AperFunction,Profile*%
%ADD10C,0.050000*%
%TD*%
G04 APERTURE END LIST*
D10*
X134500000Y-43000000D02*
G75*
G03*
X131500000Y-40000000I-3000000J0D01*
G01*
X131500000Y-67000000D02*
X128999999Y-67000001D01*
X131500000Y-73000000D02*
X128999999Y-72999999D01*
X105000000Y-67000001D02*
G75*
G02*
X105000001Y-72999999I2000000J-2999999D01*
G01*
X129000000Y-72999999D02*
G75*
G02*
X128999999Y-67000001I-2000000J2999999D01*
G01*
X131500000Y-67000000D02*
G75*
G03*
X134500000Y-64000000I0J3000000D01*
G01*
X100000000Y-76000000D02*
G75*
G02*
X103000000Y-73000000I3000000J0D01*
G01*
X105000001Y-72999999D02*
X103000000Y-73000000D01*
X131500000Y-100000000D02*
G75*
G03*
X134500000Y-97000000I0J3000000D01*
G01*
X103000000Y-67000000D02*
X105000001Y-67000001D01*
X100000000Y-43000000D02*
X100000000Y-64000000D01*
X103000000Y-100000000D02*
G75*
G02*
X100000000Y-97000000I0J3000000D01*
G01*
X100000000Y-43000000D02*
G75*
G02*
X103000000Y-40000000I3000000J0D01*
G01*
X103000000Y-67000000D02*
G75*
G02*
X100000000Y-64000000I0J3000000D01*
G01*
X100000000Y-76000000D02*
X100000000Y-97000000D01*
X134500000Y-64000000D02*
X134500000Y-43000000D01*
X103000000Y-100000000D02*
X131500000Y-100000000D01*
X134500000Y-97000000D02*
X134500000Y-76000000D01*
X134500000Y-76000000D02*
G75*
G03*
X131500000Y-73000000I-3000000J0D01*
G01*
X131500000Y-40000000D02*
X103000000Y-40000000D01*
M02*
